M48
; DRILL file {KiCad 6.0.2-378541a8eb~116~ubuntu20.04.1} date Fri 11 Mar 2022 05:06:45 PM EET
; FORMAT={-:-/ absolute / inch / decimal}
; #@! TF.CreationDate,2022-03-11T17:06:45+02:00
; #@! TF.GenerationSoftware,Kicad,Pcbnew,6.0.2-378541a8eb~116~ubuntu20.04.1
; #@! TF.FileFunction,MixedPlating,1,2
FMAT,2
INCH
; #@! TA.AperFunction,Plated,PTH,ViaDrill
T1C0.0157
; #@! TA.AperFunction,Plated,PTH,ComponentDrill
T2C0.0236
; #@! TA.AperFunction,Plated,PTH,ComponentDrill
T3C0.0315
; #@! TA.AperFunction,Plated,PTH,ComponentDrill
T4C0.0354
; #@! TA.AperFunction,Plated,PTH,ComponentDrill
T5C0.0394
; #@! TA.AperFunction,Plated,PTH,ComponentDrill
T6C0.0433
; #@! TA.AperFunction,Plated,PTH,ComponentDrill
T7C0.0512
; #@! TA.AperFunction,NonPlated,NPTH,ComponentDrill
T8C0.0512
; #@! TA.AperFunction,NonPlated,NPTH,ComponentDrill
T9C0.0984
; #@! TA.AperFunction,NonPlated,NPTH,ComponentDrill
T10C0.1280
%
G90
G05
T1
X1.96Y-3.54
T2
X5.46Y-2.24
X5.46Y-2.3187
X5.46Y-2.79
X5.46Y-2.8687
X5.8Y-3.2096
X5.8Y-3.2883
T3
X2.58Y-2.1642
X2.68Y-2.1642
X2.78Y-2.1642
X3.06Y-1.7
X3.46Y-1.7
X3.63Y-1.74
X3.63Y-2.14
X3.76Y-1.74
X3.76Y-2.14
X3.89Y-1.74
X3.89Y-2.14
X5.26Y-1.56
X5.46Y-3.49
X5.46Y-3.64
X5.46Y-4.09
X5.46Y-4.24
X5.51Y-3.1369
X5.51Y-3.2866
X5.66Y-1.56
X5.66Y-2.09
X5.66Y-2.49
X5.66Y-2.59
X5.66Y-2.99
X5.86Y-2.09
X5.86Y-2.49
X5.86Y-2.59
X5.86Y-2.99
X5.86Y-3.49
X5.86Y-3.64
X5.86Y-4.09
X5.86Y-4.24
T4
X1.9116Y-5.0
X1.9616Y-4.9
X2.0116Y-5.0
X2.0616Y-4.9
X2.1116Y-5.0
X2.1616Y-4.9
X2.2116Y-5.0
X2.2616Y-4.9
X2.6102Y-4.9936
X2.6602Y-4.8936
X2.7102Y-4.9936
X2.7602Y-4.8936
X2.8102Y-4.9936
X2.8602Y-4.8936
X2.9102Y-4.9936
X2.9602Y-4.8936
X3.3102Y-4.9936
X3.3602Y-4.8936
X3.4102Y-4.9936
X3.4602Y-4.8936
X3.5102Y-4.9936
X3.5602Y-4.8936
X3.6102Y-4.9936
X3.6602Y-4.8936
X4.0102Y-4.9936
X4.0602Y-4.8936
X4.1102Y-4.9936
X4.1602Y-4.8936
X4.21Y-1.79
X4.21Y-1.89
X4.2102Y-4.9936
X4.2602Y-4.8936
X4.3102Y-4.9936
X4.3602Y-4.8936
X4.66Y-1.79
X4.66Y-1.89
X4.7102Y-4.9936
X4.7602Y-4.8936
X4.8102Y-4.9936
X4.8602Y-4.8936
X4.9102Y-4.9936
X4.9602Y-4.8936
X5.0102Y-4.9936
X5.0602Y-4.8936
X5.11Y-1.79
X5.11Y-1.89
X5.4102Y-4.9936
X5.4602Y-4.8936
X5.5102Y-4.9936
X5.5602Y-4.8936
X5.6102Y-4.9936
X5.6602Y-4.8936
X5.7102Y-4.9936
X5.7602Y-4.8936
T5
X1.8596Y-4.3481
X1.8702Y-2.4398
X1.8702Y-2.5398
X1.8702Y-2.6398
X1.8702Y-2.7398
X1.8702Y-2.8398
X1.8702Y-2.9398
X1.8702Y-3.0398
X1.8702Y-3.1398
X1.8702Y-3.2398
X1.8702Y-3.3398
X1.9596Y-4.3481
X1.9702Y-2.4398
X1.9702Y-2.5398
X1.9702Y-2.6398
X1.9702Y-2.7398
X1.9702Y-2.8398
X1.9702Y-2.9398
X1.9702Y-3.0398
X1.9702Y-3.1398
X1.9702Y-3.2398
X1.9702Y-3.3398
X2.0596Y-4.3481
X2.1596Y-4.3481
X2.25Y-2.538
X2.25Y-2.638
X2.25Y-2.738
X2.25Y-2.838
X2.25Y-2.938
X2.25Y-3.038
X2.25Y-3.138
X2.25Y-3.238
X2.2596Y-4.3481
X2.3596Y-4.3481
X2.36Y-1.49
X2.36Y-1.69
X2.36Y-2.09
X2.36Y-2.19
X2.4596Y-4.3481
X2.55Y-2.538
X2.55Y-3.238
X2.65Y-2.538
X2.65Y-3.238
X2.75Y-2.538
X2.75Y-3.238
X2.76Y-1.44
X2.76Y-1.54
X2.85Y-2.538
X2.85Y-3.238
X2.86Y-1.44
X2.86Y-1.54
X2.95Y-2.538
X2.95Y-3.238
X2.9536Y-4.3612
X2.96Y-1.44
X2.96Y-1.54
X2.9782Y-1.86
X2.9782Y-2.16
X3.05Y-2.538
X3.05Y-3.238
X3.0536Y-4.3612
X3.06Y-1.44
X3.06Y-1.54
X3.0782Y-1.86
X3.0782Y-2.16
X3.15Y-2.538
X3.15Y-3.238
X3.1536Y-4.3612
X3.16Y-1.44
X3.16Y-1.54
X3.1782Y-1.86
X3.1782Y-2.16
X3.25Y-2.538
X3.25Y-3.238
X3.2536Y-4.3612
X3.26Y-1.44
X3.26Y-1.54
X3.2782Y-1.86
X3.2782Y-2.16
X3.3536Y-4.3612
X3.36Y-1.44
X3.36Y-1.54
X3.3782Y-1.86
X3.3782Y-2.16
X3.4536Y-4.3612
X3.46Y-1.44
X3.46Y-1.54
X3.5536Y-4.3612
X3.56Y-1.44
X3.56Y-1.54
X3.66Y-1.44
X3.66Y-1.54
X3.7569Y-2.4392
X3.7569Y-2.5392
X3.7569Y-2.6392
X3.7569Y-2.7392
X3.7569Y-2.8392
X3.7569Y-2.9392
X3.7569Y-3.0392
X3.7569Y-3.1392
X3.7569Y-3.2392
X3.7569Y-3.3392
X3.7596Y-4.3681
X3.8596Y-4.3681
X3.9596Y-4.3681
X4.0596Y-4.3681
X4.1596Y-4.3681
X4.2596Y-4.3681
X4.3596Y-4.3681
X4.5596Y-4.3681
X4.5965Y-2.4412
X4.5965Y-2.5412
X4.5965Y-2.6412
X4.5965Y-2.7412
X4.5965Y-2.8412
X4.5965Y-2.9412
X4.5965Y-3.0412
X4.5965Y-3.1412
X4.5965Y-3.2412
X4.5965Y-3.3412
X4.6596Y-4.3681
X4.7596Y-4.3681
X4.8596Y-4.3681
X4.9596Y-4.3681
X4.98Y-1.56
X5.0596Y-4.3681
X5.08Y-1.56
X5.1596Y-4.3681
X6.1602Y-1.6
X6.1602Y-1.78
X6.2602Y-1.6
X6.2602Y-1.78
X6.3602Y-1.6
X6.3602Y-1.78
X6.4602Y-1.6
X6.4602Y-1.78
X6.5602Y-1.6
X6.5602Y-1.78
T6
X5.46Y-3.79
X5.46Y-3.94
X5.86Y-3.79
X5.86Y-3.94
T7
X1.9603Y-1.4916
X1.9603Y-1.6884
X1.98Y-1.93
X1.98Y-2.1269
T8
X6.2773Y-2.1954
X6.2773Y-2.7954
X6.2773Y-3.3754
X6.2773Y-3.9754
X6.2773Y-4.5554
X6.2773Y-5.1554
X6.5253Y-2.1954
X6.5253Y-2.7954
X6.5253Y-3.3754
X6.5253Y-3.9754
X6.5253Y-4.5554
X6.5253Y-5.1554
T9
X2.71Y-1.84
X2.71Y-4.49
X5.71Y-1.84
X5.71Y-4.49
T10
X1.8616Y-5.25
X2.3116Y-5.25
X2.5602Y-5.2436
X3.0102Y-5.2436
X3.2602Y-5.2436
X3.7102Y-5.2436
X3.9602Y-5.2436
X4.4102Y-5.2436
X4.6602Y-5.2436
X5.1102Y-5.2436
X5.3602Y-5.2436
X5.8102Y-5.2436
T3
G00X1.7807Y-5.3563
M15
G01X1.7807Y-5.3839
M16
G05
G00X2.3925Y-5.3563
M15
G01X2.3925Y-5.3839
M16
G05
G00X2.4793Y-5.3499
M15
G01X2.4793Y-5.3775
M16
G05
G00X3.0911Y-5.3499
M15
G01X3.0911Y-5.3775
M16
G05
G00X3.1793Y-5.3499
M15
G01X3.1793Y-5.3775
M16
G05
G00X3.7911Y-5.3499
M15
G01X3.7911Y-5.3775
M16
G05
G00X3.8793Y-5.3499
M15
G01X3.8793Y-5.3775
M16
G05
G00X4.4911Y-5.3499
M15
G01X4.4911Y-5.3775
M16
G05
G00X4.5793Y-5.3499
M15
G01X4.5793Y-5.3775
M16
G05
G00X5.1911Y-5.3499
M15
G01X5.1911Y-5.3775
M16
G05
G00X5.2793Y-5.3499
M15
G01X5.2793Y-5.3775
M16
G05
G00X5.8911Y-5.3499
M15
G01X5.8911Y-5.3775
M16
G05
T0
M30
