%TF.GenerationSoftware,KiCad,Pcbnew,6.0.2-378541a8eb~116~ubuntu20.04.1*%
%TF.CreationDate,2022-03-16T15:57:20+02:00*%
%TF.ProjectId,ha-pcb,68612d70-6362-42e6-9b69-6361645f7063,4*%
%TF.SameCoordinates,Original*%
%TF.FileFunction,Legend,Top*%
%TF.FilePolarity,Positive*%
%FSLAX46Y46*%
G04 Gerber Fmt 4.6, Leading zero omitted, Abs format (unit mm)*
G04 Created by KiCad (PCBNEW 6.0.2-378541a8eb~116~ubuntu20.04.1) date 2022-03-16 15:57:20*
%MOMM*%
%LPD*%
G01*
G04 APERTURE LIST*
%TA.AperFunction,Profile*%
%ADD10C,0.100000*%
%TD*%
%ADD11C,0.153000*%
%ADD12C,0.150000*%
%ADD13C,0.120000*%
G04 APERTURE END LIST*
D10*
X177800000Y-137160000D02*
X177800000Y-135890000D01*
X40640004Y-135890000D02*
X40640000Y-137160000D01*
X172720000Y-30479996D02*
X45719996Y-30480000D01*
X177800000Y-135890000D02*
X177800000Y-35559996D01*
X45720000Y-142240000D02*
X172720000Y-142240000D01*
X40640000Y-35560000D02*
X40640004Y-135890000D01*
X40640000Y-137160000D02*
G75*
G03*
X45720000Y-142240000I5080002J2D01*
G01*
X45719996Y-30480000D02*
G75*
G03*
X40639996Y-35560000I2J-5080002D01*
G01*
X177800000Y-35559996D02*
G75*
G03*
X172720000Y-30479996I-5080002J-2D01*
G01*
X172720000Y-142240000D02*
G75*
G03*
X177800000Y-137160000I0J5080000D01*
G01*
D11*
X131572000Y-121920000D02*
X131572000Y-119380000D01*
X44196000Y-119380000D02*
X44196000Y-121920000D01*
X78740000Y-121920000D02*
X78740000Y-119380000D01*
D12*
X95476500Y-35306000D02*
X119661500Y-35306000D01*
X119661500Y-35306000D02*
X119661500Y-40506000D01*
X119661500Y-40506000D02*
X95476500Y-40506000D01*
X95476500Y-40506000D02*
X95476500Y-35306000D01*
D11*
X80010000Y-119380000D02*
X80010000Y-121920000D01*
X80010000Y-119380000D02*
X97790000Y-119380000D01*
X68072000Y-119380000D02*
X78740000Y-119380000D01*
X113030000Y-119380000D02*
X131572000Y-119380000D01*
X44196000Y-119380000D02*
X56642000Y-119380000D01*
D12*
X173148761Y-89439333D02*
X173148761Y-90391714D01*
X174101142Y-90486952D01*
X174005904Y-90391714D01*
X173910666Y-90201238D01*
X173910666Y-89725047D01*
X174005904Y-89534571D01*
X174101142Y-89439333D01*
X174291619Y-89344095D01*
X174767809Y-89344095D01*
X174958285Y-89439333D01*
X175053523Y-89534571D01*
X175148761Y-89725047D01*
X175148761Y-90201238D01*
X175053523Y-90391714D01*
X174958285Y-90486952D01*
X173148761Y-88772666D02*
X175148761Y-88106000D01*
X173148761Y-87439333D01*
X174958285Y-85629809D02*
X175053523Y-85725047D01*
X175148761Y-86010761D01*
X175148761Y-86201238D01*
X175053523Y-86486952D01*
X174863047Y-86677428D01*
X174672571Y-86772666D01*
X174291619Y-86867904D01*
X174005904Y-86867904D01*
X173624952Y-86772666D01*
X173434476Y-86677428D01*
X173244000Y-86486952D01*
X173148761Y-86201238D01*
X173148761Y-86010761D01*
X173244000Y-85725047D01*
X173339238Y-85629809D01*
X174958285Y-83629809D02*
X175053523Y-83725047D01*
X175148761Y-84010761D01*
X175148761Y-84201238D01*
X175053523Y-84486952D01*
X174863047Y-84677428D01*
X174672571Y-84772666D01*
X174291619Y-84867904D01*
X174005904Y-84867904D01*
X173624952Y-84772666D01*
X173434476Y-84677428D01*
X173244000Y-84486952D01*
X173148761Y-84201238D01*
X173148761Y-84010761D01*
X173244000Y-83725047D01*
X173339238Y-83629809D01*
X175148761Y-81725047D02*
X175148761Y-82867904D01*
X175148761Y-82296476D02*
X173148761Y-82296476D01*
X173434476Y-82486952D01*
X173624952Y-82677428D01*
X173720190Y-82867904D01*
X92658571Y-34714571D02*
X92158571Y-34000285D01*
X91801428Y-34714571D02*
X91801428Y-33214571D01*
X92372857Y-33214571D01*
X92515714Y-33286000D01*
X92587142Y-33357428D01*
X92658571Y-33500285D01*
X92658571Y-33714571D01*
X92587142Y-33857428D01*
X92515714Y-33928857D01*
X92372857Y-34000285D01*
X91801428Y-34000285D01*
X93944285Y-34714571D02*
X93944285Y-33928857D01*
X93872857Y-33786000D01*
X93730000Y-33714571D01*
X93444285Y-33714571D01*
X93301428Y-33786000D01*
X93944285Y-34643142D02*
X93801428Y-34714571D01*
X93444285Y-34714571D01*
X93301428Y-34643142D01*
X93230000Y-34500285D01*
X93230000Y-34357428D01*
X93301428Y-34214571D01*
X93444285Y-34143142D01*
X93801428Y-34143142D01*
X93944285Y-34071714D01*
X94658571Y-34714571D02*
X94658571Y-33214571D01*
X95230000Y-33214571D01*
X95372857Y-33286000D01*
X95444285Y-33357428D01*
X95515714Y-33500285D01*
X95515714Y-33714571D01*
X95444285Y-33857428D01*
X95372857Y-33928857D01*
X95230000Y-34000285D01*
X94658571Y-34000285D01*
X96158571Y-34714571D02*
X96158571Y-33714571D01*
X96158571Y-33214571D02*
X96087142Y-33286000D01*
X96158571Y-33357428D01*
X96230000Y-33286000D01*
X96158571Y-33214571D01*
X96158571Y-33357428D01*
X43148285Y-84268571D02*
X42434000Y-84268571D01*
X42362571Y-84982857D01*
X42434000Y-84911428D01*
X42576857Y-84840000D01*
X42934000Y-84840000D01*
X43076857Y-84911428D01*
X43148285Y-84982857D01*
X43219714Y-85125714D01*
X43219714Y-85482857D01*
X43148285Y-85625714D01*
X43076857Y-85697142D01*
X42934000Y-85768571D01*
X42576857Y-85768571D01*
X42434000Y-85697142D01*
X42362571Y-85625714D01*
X43648285Y-84268571D02*
X44148285Y-85768571D01*
X44648285Y-84268571D01*
X138620952Y-120284761D02*
X137478095Y-120284761D01*
X138049523Y-120284761D02*
X138049523Y-118284761D01*
X137859047Y-118570476D01*
X137668571Y-118760952D01*
X137478095Y-118856190D01*
X139287619Y-118284761D02*
X139763809Y-120284761D01*
X140144761Y-118856190D01*
X140525714Y-120284761D01*
X141001904Y-118284761D01*
X142240000Y-120951428D02*
X142240000Y-118094285D01*
X144716190Y-120284761D02*
X143573333Y-120284761D01*
X144144761Y-120284761D02*
X144144761Y-118284761D01*
X143954285Y-118570476D01*
X143763809Y-118760952D01*
X143573333Y-118856190D01*
X145382857Y-118284761D02*
X145859047Y-120284761D01*
X146240000Y-118856190D01*
X146620952Y-120284761D01*
X147097142Y-118284761D01*
X103965714Y-38750761D02*
X103299047Y-37798380D01*
X102822857Y-38750761D02*
X102822857Y-36750761D01*
X103584761Y-36750761D01*
X103775238Y-36846000D01*
X103870476Y-36941238D01*
X103965714Y-37131714D01*
X103965714Y-37417428D01*
X103870476Y-37607904D01*
X103775238Y-37703142D01*
X103584761Y-37798380D01*
X102822857Y-37798380D01*
X105584761Y-38655523D02*
X105394285Y-38750761D01*
X105013333Y-38750761D01*
X104822857Y-38655523D01*
X104727619Y-38465047D01*
X104727619Y-37703142D01*
X104822857Y-37512666D01*
X105013333Y-37417428D01*
X105394285Y-37417428D01*
X105584761Y-37512666D01*
X105680000Y-37703142D01*
X105680000Y-37893619D01*
X104727619Y-38084095D01*
X106346666Y-37417428D02*
X106822857Y-38750761D01*
X107299047Y-37417428D01*
X110441904Y-37417428D02*
X110441904Y-38750761D01*
X109965714Y-36655523D02*
X109489523Y-38084095D01*
X110727619Y-38084095D01*
X43604571Y-41171714D02*
X42104571Y-41171714D01*
X43604571Y-40457428D02*
X42104571Y-40457428D01*
X43604571Y-39600285D01*
X42104571Y-39600285D01*
X160075714Y-37996761D02*
X160218571Y-38044380D01*
X160456666Y-38044380D01*
X160551904Y-37996761D01*
X160599523Y-37949142D01*
X160647142Y-37853904D01*
X160647142Y-37758666D01*
X160599523Y-37663428D01*
X160551904Y-37615809D01*
X160456666Y-37568190D01*
X160266190Y-37520571D01*
X160170952Y-37472952D01*
X160123333Y-37425333D01*
X160075714Y-37330095D01*
X160075714Y-37234857D01*
X160123333Y-37139619D01*
X160170952Y-37092000D01*
X160266190Y-37044380D01*
X160504285Y-37044380D01*
X160647142Y-37092000D01*
X161075714Y-38044380D02*
X161075714Y-37044380D01*
X161313809Y-37044380D01*
X161456666Y-37092000D01*
X161551904Y-37187238D01*
X161599523Y-37282476D01*
X161647142Y-37472952D01*
X161647142Y-37615809D01*
X161599523Y-37806285D01*
X161551904Y-37901523D01*
X161456666Y-37996761D01*
X161313809Y-38044380D01*
X161075714Y-38044380D01*
X162028095Y-37758666D02*
X162504285Y-37758666D01*
X161932857Y-38044380D02*
X162266190Y-37044380D01*
X162599523Y-38044380D01*
X42394285Y-81474571D02*
X42537142Y-81474571D01*
X42680000Y-81546000D01*
X42751428Y-81617428D01*
X42822857Y-81760285D01*
X42894285Y-82046000D01*
X42894285Y-82403142D01*
X42822857Y-82688857D01*
X42751428Y-82831714D01*
X42680000Y-82903142D01*
X42537142Y-82974571D01*
X42394285Y-82974571D01*
X42251428Y-82903142D01*
X42180000Y-82831714D01*
X42108571Y-82688857D01*
X42037142Y-82403142D01*
X42037142Y-82046000D01*
X42108571Y-81760285D01*
X42180000Y-81617428D01*
X42251428Y-81546000D01*
X42394285Y-81474571D01*
X43465714Y-81617428D02*
X43537142Y-81546000D01*
X43680000Y-81474571D01*
X44037142Y-81474571D01*
X44180000Y-81546000D01*
X44251428Y-81617428D01*
X44322857Y-81760285D01*
X44322857Y-81903142D01*
X44251428Y-82117428D01*
X43394285Y-82974571D01*
X44322857Y-82974571D01*
X132969047Y-44521428D02*
X133730952Y-44521428D01*
X133350000Y-44902380D02*
X133350000Y-44140476D01*
X169303142Y-41064571D02*
X169303142Y-39564571D01*
X169660285Y-39564571D01*
X169874571Y-39636000D01*
X170017428Y-39778857D01*
X170088857Y-39921714D01*
X170160285Y-40207428D01*
X170160285Y-40421714D01*
X170088857Y-40707428D01*
X170017428Y-40850285D01*
X169874571Y-40993142D01*
X169660285Y-41064571D01*
X169303142Y-41064571D01*
X171303142Y-40278857D02*
X171517428Y-40350285D01*
X171588857Y-40421714D01*
X171660285Y-40564571D01*
X171660285Y-40778857D01*
X171588857Y-40921714D01*
X171517428Y-40993142D01*
X171374571Y-41064571D01*
X170803142Y-41064571D01*
X170803142Y-39564571D01*
X171303142Y-39564571D01*
X171446000Y-39636000D01*
X171517428Y-39707428D01*
X171588857Y-39850285D01*
X171588857Y-39993142D01*
X171517428Y-40136000D01*
X171446000Y-40207428D01*
X171303142Y-40278857D01*
X170803142Y-40278857D01*
X173088857Y-39636000D02*
X172946000Y-39564571D01*
X172731714Y-39564571D01*
X172517428Y-39636000D01*
X172374571Y-39778857D01*
X172303142Y-39921714D01*
X172231714Y-40207428D01*
X172231714Y-40421714D01*
X172303142Y-40707428D01*
X172374571Y-40850285D01*
X172517428Y-40993142D01*
X172731714Y-41064571D01*
X172874571Y-41064571D01*
X173088857Y-40993142D01*
X173160285Y-40921714D01*
X173160285Y-40421714D01*
X172874571Y-40421714D01*
X169224000Y-46144571D02*
X169224000Y-44644571D01*
X170224000Y-44644571D02*
X170509714Y-44644571D01*
X170652571Y-44716000D01*
X170795428Y-44858857D01*
X170866857Y-45144571D01*
X170866857Y-45644571D01*
X170795428Y-45930285D01*
X170652571Y-46073142D01*
X170509714Y-46144571D01*
X170224000Y-46144571D01*
X170081142Y-46073142D01*
X169938285Y-45930285D01*
X169866857Y-45644571D01*
X169866857Y-45144571D01*
X169938285Y-44858857D01*
X170081142Y-44716000D01*
X170224000Y-44644571D01*
X172652571Y-46144571D02*
X172652571Y-44644571D01*
X173009714Y-44644571D01*
X173224000Y-44716000D01*
X173366857Y-44858857D01*
X173438285Y-45001714D01*
X173509714Y-45287428D01*
X173509714Y-45501714D01*
X173438285Y-45787428D01*
X173366857Y-45930285D01*
X173224000Y-46073142D01*
X173009714Y-46144571D01*
X172652571Y-46144571D01*
X174152571Y-46144571D02*
X174152571Y-44644571D01*
X175366857Y-45358857D02*
X174866857Y-45358857D01*
X174866857Y-46144571D02*
X174866857Y-44644571D01*
X175581142Y-44644571D01*
X176652571Y-45358857D02*
X176152571Y-45358857D01*
X176152571Y-46144571D02*
X176152571Y-44644571D01*
X176866857Y-44644571D01*
X101695714Y-120284761D02*
X100552857Y-120284761D01*
X101124285Y-120284761D02*
X101124285Y-118284761D01*
X100933809Y-118570476D01*
X100743333Y-118760952D01*
X100552857Y-118856190D01*
X102362380Y-118284761D02*
X102838571Y-120284761D01*
X103219523Y-118856190D01*
X103600476Y-120284761D01*
X104076666Y-118284761D01*
X106267142Y-118189523D02*
X104552857Y-120760952D01*
X107981428Y-120284761D02*
X106838571Y-120284761D01*
X107410000Y-120284761D02*
X107410000Y-118284761D01*
X107219523Y-118570476D01*
X107029047Y-118760952D01*
X106838571Y-118856190D01*
X108648095Y-118284761D02*
X109124285Y-120284761D01*
X109505238Y-118856190D01*
X109886190Y-120284761D01*
X110362380Y-118284761D01*
X42418095Y-47640857D02*
X43941904Y-47640857D01*
X43180000Y-48402761D02*
X43180000Y-46878952D01*
X92289714Y-56459428D02*
X93051619Y-56459428D01*
X93527809Y-56459428D02*
X94289714Y-56459428D01*
X95289714Y-56840380D02*
X94718285Y-56840380D01*
X95004000Y-56840380D02*
X95004000Y-55840380D01*
X94908761Y-55983238D01*
X94813523Y-56078476D01*
X94718285Y-56126095D01*
X95718285Y-56840380D02*
X95718285Y-55840380D01*
X96289714Y-56840380D02*
X95861142Y-56268952D01*
X96289714Y-55840380D02*
X95718285Y-56411809D01*
X96718285Y-56459428D02*
X97480190Y-56459428D01*
X97956380Y-56459428D02*
X98718285Y-56459428D01*
X160075714Y-48410761D02*
X160218571Y-48458380D01*
X160456666Y-48458380D01*
X160551904Y-48410761D01*
X160599523Y-48363142D01*
X160647142Y-48267904D01*
X160647142Y-48172666D01*
X160599523Y-48077428D01*
X160551904Y-48029809D01*
X160456666Y-47982190D01*
X160266190Y-47934571D01*
X160170952Y-47886952D01*
X160123333Y-47839333D01*
X160075714Y-47744095D01*
X160075714Y-47648857D01*
X160123333Y-47553619D01*
X160170952Y-47506000D01*
X160266190Y-47458380D01*
X160504285Y-47458380D01*
X160647142Y-47506000D01*
X161075714Y-48458380D02*
X161075714Y-47458380D01*
X161313809Y-47458380D01*
X161456666Y-47506000D01*
X161551904Y-47601238D01*
X161599523Y-47696476D01*
X161647142Y-47886952D01*
X161647142Y-48029809D01*
X161599523Y-48220285D01*
X161551904Y-48315523D01*
X161456666Y-48410761D01*
X161313809Y-48458380D01*
X161075714Y-48458380D01*
X162028095Y-48172666D02*
X162504285Y-48172666D01*
X161932857Y-48458380D02*
X162266190Y-47458380D01*
X162599523Y-48458380D01*
X158559523Y-47458380D02*
X158083333Y-47458380D01*
X158035714Y-47934571D01*
X158083333Y-47886952D01*
X158178571Y-47839333D01*
X158416666Y-47839333D01*
X158511904Y-47886952D01*
X158559523Y-47934571D01*
X158607142Y-48029809D01*
X158607142Y-48267904D01*
X158559523Y-48363142D01*
X158511904Y-48410761D01*
X158416666Y-48458380D01*
X158178571Y-48458380D01*
X158083333Y-48410761D01*
X158035714Y-48363142D01*
X158892857Y-47458380D02*
X159226190Y-48458380D01*
X159559523Y-47458380D01*
X158559523Y-37044380D02*
X158083333Y-37044380D01*
X158035714Y-37520571D01*
X158083333Y-37472952D01*
X158178571Y-37425333D01*
X158416666Y-37425333D01*
X158511904Y-37472952D01*
X158559523Y-37520571D01*
X158607142Y-37615809D01*
X158607142Y-37853904D01*
X158559523Y-37949142D01*
X158511904Y-37996761D01*
X158416666Y-38044380D01*
X158178571Y-38044380D01*
X158083333Y-37996761D01*
X158035714Y-37949142D01*
X158892857Y-37044380D02*
X159226190Y-38044380D01*
X159559523Y-37044380D01*
X163147523Y-48410761D02*
X163290380Y-48458380D01*
X163528476Y-48458380D01*
X163623714Y-48410761D01*
X163671333Y-48363142D01*
X163718952Y-48267904D01*
X163718952Y-48172666D01*
X163671333Y-48077428D01*
X163623714Y-48029809D01*
X163528476Y-47982190D01*
X163338000Y-47934571D01*
X163242761Y-47886952D01*
X163195142Y-47839333D01*
X163147523Y-47744095D01*
X163147523Y-47648857D01*
X163195142Y-47553619D01*
X163242761Y-47506000D01*
X163338000Y-47458380D01*
X163576095Y-47458380D01*
X163718952Y-47506000D01*
X164718952Y-48363142D02*
X164671333Y-48410761D01*
X164528476Y-48458380D01*
X164433238Y-48458380D01*
X164290380Y-48410761D01*
X164195142Y-48315523D01*
X164147523Y-48220285D01*
X164099904Y-48029809D01*
X164099904Y-47886952D01*
X164147523Y-47696476D01*
X164195142Y-47601238D01*
X164290380Y-47506000D01*
X164433238Y-47458380D01*
X164528476Y-47458380D01*
X164671333Y-47506000D01*
X164718952Y-47553619D01*
X165623714Y-48458380D02*
X165147523Y-48458380D01*
X165147523Y-47458380D01*
X43576857Y-56387904D02*
X43576857Y-54864095D01*
X48799904Y-34432761D02*
X47657047Y-34432761D01*
X48228476Y-34432761D02*
X48228476Y-32432761D01*
X48038000Y-32718476D01*
X47847523Y-32908952D01*
X47657047Y-33004190D01*
X49561809Y-32623238D02*
X49657047Y-32528000D01*
X49847523Y-32432761D01*
X50323714Y-32432761D01*
X50514190Y-32528000D01*
X50609428Y-32623238D01*
X50704666Y-32813714D01*
X50704666Y-33004190D01*
X50609428Y-33289904D01*
X49466571Y-34432761D01*
X50704666Y-34432761D01*
X51276095Y-32432761D02*
X51942761Y-34432761D01*
X52609428Y-32432761D01*
X127222571Y-54752761D02*
X127222571Y-52752761D01*
X127889238Y-54181333D01*
X128555904Y-52752761D01*
X128555904Y-54752761D01*
X129413047Y-54181333D02*
X130365428Y-54181333D01*
X129222571Y-54752761D02*
X129889238Y-52752761D01*
X130555904Y-54752761D01*
X131222571Y-54752761D02*
X131222571Y-52752761D01*
X132365428Y-54752761D01*
X132365428Y-52752761D01*
X175148761Y-73961238D02*
X175148761Y-75104095D01*
X175148761Y-74532666D02*
X173148761Y-74532666D01*
X173434476Y-74723142D01*
X173624952Y-74913619D01*
X173720190Y-75104095D01*
X173148761Y-73389809D02*
X175148761Y-72723142D01*
X173148761Y-72056476D01*
X174577333Y-71485047D02*
X174577333Y-70532666D01*
X175148761Y-71675523D02*
X173148761Y-71008857D01*
X175148761Y-70342190D01*
X174958285Y-68532666D02*
X175053523Y-68627904D01*
X175148761Y-68913619D01*
X175148761Y-69104095D01*
X175053523Y-69389809D01*
X174863047Y-69580285D01*
X174672571Y-69675523D01*
X174291619Y-69770761D01*
X174005904Y-69770761D01*
X173624952Y-69675523D01*
X173434476Y-69580285D01*
X173244000Y-69389809D01*
X173148761Y-69104095D01*
X173148761Y-68913619D01*
X173244000Y-68627904D01*
X173339238Y-68532666D01*
X173339238Y-67770761D02*
X173244000Y-67675523D01*
X173148761Y-67485047D01*
X173148761Y-67008857D01*
X173244000Y-66818380D01*
X173339238Y-66723142D01*
X173529714Y-66627904D01*
X173720190Y-66627904D01*
X174005904Y-66723142D01*
X175148761Y-67866000D01*
X175148761Y-66627904D01*
X163147523Y-37996761D02*
X163290380Y-38044380D01*
X163528476Y-38044380D01*
X163623714Y-37996761D01*
X163671333Y-37949142D01*
X163718952Y-37853904D01*
X163718952Y-37758666D01*
X163671333Y-37663428D01*
X163623714Y-37615809D01*
X163528476Y-37568190D01*
X163338000Y-37520571D01*
X163242761Y-37472952D01*
X163195142Y-37425333D01*
X163147523Y-37330095D01*
X163147523Y-37234857D01*
X163195142Y-37139619D01*
X163242761Y-37092000D01*
X163338000Y-37044380D01*
X163576095Y-37044380D01*
X163718952Y-37092000D01*
X164718952Y-37949142D02*
X164671333Y-37996761D01*
X164528476Y-38044380D01*
X164433238Y-38044380D01*
X164290380Y-37996761D01*
X164195142Y-37901523D01*
X164147523Y-37806285D01*
X164099904Y-37615809D01*
X164099904Y-37472952D01*
X164147523Y-37282476D01*
X164195142Y-37187238D01*
X164290380Y-37092000D01*
X164433238Y-37044380D01*
X164528476Y-37044380D01*
X164671333Y-37092000D01*
X164718952Y-37139619D01*
X165623714Y-38044380D02*
X165147523Y-38044380D01*
X165147523Y-37044380D01*
X69056380Y-40854380D02*
X69675428Y-40854380D01*
X69342095Y-41235333D01*
X69484952Y-41235333D01*
X69580190Y-41282952D01*
X69627809Y-41330571D01*
X69675428Y-41425809D01*
X69675428Y-41663904D01*
X69627809Y-41759142D01*
X69580190Y-41806761D01*
X69484952Y-41854380D01*
X69199238Y-41854380D01*
X69104000Y-41806761D01*
X69056380Y-41759142D01*
X70104000Y-41759142D02*
X70151619Y-41806761D01*
X70104000Y-41854380D01*
X70056380Y-41806761D01*
X70104000Y-41759142D01*
X70104000Y-41854380D01*
X70484952Y-40854380D02*
X71104000Y-40854380D01*
X70770666Y-41235333D01*
X70913523Y-41235333D01*
X71008761Y-41282952D01*
X71056380Y-41330571D01*
X71104000Y-41425809D01*
X71104000Y-41663904D01*
X71056380Y-41759142D01*
X71008761Y-41806761D01*
X70913523Y-41854380D01*
X70627809Y-41854380D01*
X70532571Y-41806761D01*
X70484952Y-41759142D01*
X72247142Y-33742380D02*
X71770952Y-33742380D01*
X71723333Y-34218571D01*
X71770952Y-34170952D01*
X71866190Y-34123333D01*
X72104285Y-34123333D01*
X72199523Y-34170952D01*
X72247142Y-34218571D01*
X72294761Y-34313809D01*
X72294761Y-34551904D01*
X72247142Y-34647142D01*
X72199523Y-34694761D01*
X72104285Y-34742380D01*
X71866190Y-34742380D01*
X71770952Y-34694761D01*
X71723333Y-34647142D01*
X72628095Y-34075714D02*
X72866190Y-34742380D01*
X73104285Y-34075714D01*
X173148761Y-135603619D02*
X173148761Y-135222666D01*
X173244000Y-135032190D01*
X173434476Y-134841714D01*
X173815428Y-134746476D01*
X174482095Y-134746476D01*
X174863047Y-134841714D01*
X175053523Y-135032190D01*
X175148761Y-135222666D01*
X175148761Y-135603619D01*
X175053523Y-135794095D01*
X174863047Y-135984571D01*
X174482095Y-136079809D01*
X173815428Y-136079809D01*
X173434476Y-135984571D01*
X173244000Y-135794095D01*
X173148761Y-135603619D01*
X175148761Y-133889333D02*
X173148761Y-133889333D01*
X175148761Y-132746476D01*
X173148761Y-132746476D01*
X173053523Y-130365523D02*
X175624952Y-132079809D01*
X173148761Y-129317904D02*
X173148761Y-128936952D01*
X173244000Y-128746476D01*
X173434476Y-128556000D01*
X173815428Y-128460761D01*
X174482095Y-128460761D01*
X174863047Y-128556000D01*
X175053523Y-128746476D01*
X175148761Y-128936952D01*
X175148761Y-129317904D01*
X175053523Y-129508380D01*
X174863047Y-129698857D01*
X174482095Y-129794095D01*
X173815428Y-129794095D01*
X173434476Y-129698857D01*
X173244000Y-129508380D01*
X173148761Y-129317904D01*
X174101142Y-126936952D02*
X174101142Y-127603619D01*
X175148761Y-127603619D02*
X173148761Y-127603619D01*
X173148761Y-126651238D01*
X174101142Y-125222666D02*
X174101142Y-125889333D01*
X175148761Y-125889333D02*
X173148761Y-125889333D01*
X173148761Y-124936952D01*
X42394285Y-78934571D02*
X42537142Y-78934571D01*
X42680000Y-79006000D01*
X42751428Y-79077428D01*
X42822857Y-79220285D01*
X42894285Y-79506000D01*
X42894285Y-79863142D01*
X42822857Y-80148857D01*
X42751428Y-80291714D01*
X42680000Y-80363142D01*
X42537142Y-80434571D01*
X42394285Y-80434571D01*
X42251428Y-80363142D01*
X42180000Y-80291714D01*
X42108571Y-80148857D01*
X42037142Y-79863142D01*
X42037142Y-79506000D01*
X42108571Y-79220285D01*
X42180000Y-79077428D01*
X42251428Y-79006000D01*
X42394285Y-78934571D01*
X44180000Y-79434571D02*
X44180000Y-80434571D01*
X43822857Y-78863142D02*
X43465714Y-79934571D01*
X44394285Y-79934571D01*
X173148761Y-104679333D02*
X173148761Y-105631714D01*
X174101142Y-105726952D01*
X174005904Y-105631714D01*
X173910666Y-105441238D01*
X173910666Y-104965047D01*
X174005904Y-104774571D01*
X174101142Y-104679333D01*
X174291619Y-104584095D01*
X174767809Y-104584095D01*
X174958285Y-104679333D01*
X175053523Y-104774571D01*
X175148761Y-104965047D01*
X175148761Y-105441238D01*
X175053523Y-105631714D01*
X174958285Y-105726952D01*
X173148761Y-104012666D02*
X175148761Y-103346000D01*
X173148761Y-102679333D01*
X174958285Y-100869809D02*
X175053523Y-100965047D01*
X175148761Y-101250761D01*
X175148761Y-101441238D01*
X175053523Y-101726952D01*
X174863047Y-101917428D01*
X174672571Y-102012666D01*
X174291619Y-102107904D01*
X174005904Y-102107904D01*
X173624952Y-102012666D01*
X173434476Y-101917428D01*
X173244000Y-101726952D01*
X173148761Y-101441238D01*
X173148761Y-101250761D01*
X173244000Y-100965047D01*
X173339238Y-100869809D01*
X174958285Y-98869809D02*
X175053523Y-98965047D01*
X175148761Y-99250761D01*
X175148761Y-99441238D01*
X175053523Y-99726952D01*
X174863047Y-99917428D01*
X174672571Y-100012666D01*
X174291619Y-100107904D01*
X174005904Y-100107904D01*
X173624952Y-100012666D01*
X173434476Y-99917428D01*
X173244000Y-99726952D01*
X173148761Y-99441238D01*
X173148761Y-99250761D01*
X173244000Y-98965047D01*
X173339238Y-98869809D01*
X173339238Y-98107904D02*
X173244000Y-98012666D01*
X173148761Y-97822190D01*
X173148761Y-97346000D01*
X173244000Y-97155523D01*
X173339238Y-97060285D01*
X173529714Y-96965047D01*
X173720190Y-96965047D01*
X174005904Y-97060285D01*
X175148761Y-98203142D01*
X175148761Y-96965047D01*
X154940095Y-47506000D02*
X154844857Y-47458380D01*
X154702000Y-47458380D01*
X154559142Y-47506000D01*
X154463904Y-47601238D01*
X154416285Y-47696476D01*
X154368666Y-47886952D01*
X154368666Y-48029809D01*
X154416285Y-48220285D01*
X154463904Y-48315523D01*
X154559142Y-48410761D01*
X154702000Y-48458380D01*
X154797238Y-48458380D01*
X154940095Y-48410761D01*
X154987714Y-48363142D01*
X154987714Y-48029809D01*
X154797238Y-48029809D01*
X155416285Y-48458380D02*
X155416285Y-47458380D01*
X155987714Y-48458380D01*
X155987714Y-47458380D01*
X156463904Y-48458380D02*
X156463904Y-47458380D01*
X156702000Y-47458380D01*
X156844857Y-47506000D01*
X156940095Y-47601238D01*
X156987714Y-47696476D01*
X157035333Y-47886952D01*
X157035333Y-48029809D01*
X156987714Y-48220285D01*
X156940095Y-48315523D01*
X156844857Y-48410761D01*
X156702000Y-48458380D01*
X156463904Y-48458380D01*
X173148761Y-119792190D02*
X173148761Y-118554095D01*
X173910666Y-119220761D01*
X173910666Y-118935047D01*
X174005904Y-118744571D01*
X174101142Y-118649333D01*
X174291619Y-118554095D01*
X174767809Y-118554095D01*
X174958285Y-118649333D01*
X175053523Y-118744571D01*
X175148761Y-118935047D01*
X175148761Y-119506476D01*
X175053523Y-119696952D01*
X174958285Y-119792190D01*
X173148761Y-117316000D02*
X173148761Y-117125523D01*
X173244000Y-116935047D01*
X173339238Y-116839809D01*
X173529714Y-116744571D01*
X173910666Y-116649333D01*
X174386857Y-116649333D01*
X174767809Y-116744571D01*
X174958285Y-116839809D01*
X175053523Y-116935047D01*
X175148761Y-117125523D01*
X175148761Y-117316000D01*
X175053523Y-117506476D01*
X174958285Y-117601714D01*
X174767809Y-117696952D01*
X174386857Y-117792190D01*
X173910666Y-117792190D01*
X173529714Y-117696952D01*
X173339238Y-117601714D01*
X173244000Y-117506476D01*
X173148761Y-117316000D01*
X173148761Y-116077904D02*
X175148761Y-115411238D01*
X173148761Y-114744571D01*
X174958285Y-112935047D02*
X175053523Y-113030285D01*
X175148761Y-113316000D01*
X175148761Y-113506476D01*
X175053523Y-113792190D01*
X174863047Y-113982666D01*
X174672571Y-114077904D01*
X174291619Y-114173142D01*
X174005904Y-114173142D01*
X173624952Y-114077904D01*
X173434476Y-113982666D01*
X173244000Y-113792190D01*
X173148761Y-113506476D01*
X173148761Y-113316000D01*
X173244000Y-113030285D01*
X173339238Y-112935047D01*
X174958285Y-110935047D02*
X175053523Y-111030285D01*
X175148761Y-111316000D01*
X175148761Y-111506476D01*
X175053523Y-111792190D01*
X174863047Y-111982666D01*
X174672571Y-112077904D01*
X174291619Y-112173142D01*
X174005904Y-112173142D01*
X173624952Y-112077904D01*
X173434476Y-111982666D01*
X173244000Y-111792190D01*
X173148761Y-111506476D01*
X173148761Y-111316000D01*
X173244000Y-111030285D01*
X173339238Y-110935047D01*
X111379047Y-44521428D02*
X112140952Y-44521428D01*
X111760000Y-44902380D02*
X111760000Y-44140476D01*
X42164095Y-37226857D02*
X43687904Y-37226857D01*
X42926000Y-37988761D02*
X42926000Y-36464952D01*
X122809047Y-44521428D02*
X123570952Y-44521428D01*
X123190000Y-44902380D02*
X123190000Y-44140476D01*
X43322857Y-44195904D02*
X43322857Y-42672095D01*
X42894285Y-65194571D02*
X42037142Y-65194571D01*
X42465714Y-65194571D02*
X42465714Y-63694571D01*
X42322857Y-63908857D01*
X42180000Y-64051714D01*
X42037142Y-64123142D01*
X44180000Y-63694571D02*
X43894285Y-63694571D01*
X43751428Y-63766000D01*
X43680000Y-63837428D01*
X43537142Y-64051714D01*
X43465714Y-64337428D01*
X43465714Y-64908857D01*
X43537142Y-65051714D01*
X43608571Y-65123142D01*
X43751428Y-65194571D01*
X44037142Y-65194571D01*
X44180000Y-65123142D01*
X44251428Y-65051714D01*
X44322857Y-64908857D01*
X44322857Y-64551714D01*
X44251428Y-64408857D01*
X44180000Y-64337428D01*
X44037142Y-64266000D01*
X43751428Y-64266000D01*
X43608571Y-64337428D01*
X43537142Y-64408857D01*
X43465714Y-64551714D01*
X166084380Y-37044380D02*
X166703428Y-37044380D01*
X166370095Y-37425333D01*
X166512952Y-37425333D01*
X166608190Y-37472952D01*
X166655809Y-37520571D01*
X166703428Y-37615809D01*
X166703428Y-37853904D01*
X166655809Y-37949142D01*
X166608190Y-37996761D01*
X166512952Y-38044380D01*
X166227238Y-38044380D01*
X166132000Y-37996761D01*
X166084380Y-37949142D01*
X167132000Y-37949142D02*
X167179619Y-37996761D01*
X167132000Y-38044380D01*
X167084380Y-37996761D01*
X167132000Y-37949142D01*
X167132000Y-38044380D01*
X167512952Y-37044380D02*
X168132000Y-37044380D01*
X167798666Y-37425333D01*
X167941523Y-37425333D01*
X168036761Y-37472952D01*
X168084380Y-37520571D01*
X168132000Y-37615809D01*
X168132000Y-37853904D01*
X168084380Y-37949142D01*
X168036761Y-37996761D01*
X167941523Y-38044380D01*
X167655809Y-38044380D01*
X167560571Y-37996761D01*
X167512952Y-37949142D01*
X43858571Y-75743142D02*
X43144285Y-76243142D01*
X43858571Y-76600285D02*
X42358571Y-76600285D01*
X42358571Y-76028857D01*
X42430000Y-75886000D01*
X42501428Y-75814571D01*
X42644285Y-75743142D01*
X42858571Y-75743142D01*
X43001428Y-75814571D01*
X43072857Y-75886000D01*
X43144285Y-76028857D01*
X43144285Y-76600285D01*
X43858571Y-74386000D02*
X43858571Y-75100285D01*
X42358571Y-75100285D01*
X43144285Y-73600285D02*
X43858571Y-73600285D01*
X42358571Y-74100285D02*
X43144285Y-73600285D01*
X42358571Y-73100285D01*
X43072857Y-70957428D02*
X43144285Y-70743142D01*
X43215714Y-70671714D01*
X43358571Y-70600285D01*
X43572857Y-70600285D01*
X43715714Y-70671714D01*
X43787142Y-70743142D01*
X43858571Y-70886000D01*
X43858571Y-71457428D01*
X42358571Y-71457428D01*
X42358571Y-70957428D01*
X42430000Y-70814571D01*
X42501428Y-70743142D01*
X42644285Y-70671714D01*
X42787142Y-70671714D01*
X42930000Y-70743142D01*
X43001428Y-70814571D01*
X43072857Y-70957428D01*
X43072857Y-71457428D01*
X43858571Y-69100285D02*
X43144285Y-69600285D01*
X43858571Y-69957428D02*
X42358571Y-69957428D01*
X42358571Y-69386000D01*
X42430000Y-69243142D01*
X42501428Y-69171714D01*
X42644285Y-69100285D01*
X42858571Y-69100285D01*
X43001428Y-69171714D01*
X43072857Y-69243142D01*
X43144285Y-69386000D01*
X43144285Y-69957428D01*
X43858571Y-68457428D02*
X42358571Y-68457428D01*
X42358571Y-68100285D01*
X42430000Y-67886000D01*
X42572857Y-67743142D01*
X42715714Y-67671714D01*
X43001428Y-67600285D01*
X43215714Y-67600285D01*
X43501428Y-67671714D01*
X43644285Y-67743142D01*
X43787142Y-67886000D01*
X43858571Y-68100285D01*
X43858571Y-68457428D01*
X114364000Y-54752761D02*
X114364000Y-52752761D01*
X115030666Y-54181333D01*
X115697333Y-52752761D01*
X115697333Y-54752761D01*
X116554476Y-54181333D02*
X117506857Y-54181333D01*
X116364000Y-54752761D02*
X117030666Y-52752761D01*
X117697333Y-54752761D01*
X118364000Y-54752761D02*
X118364000Y-52752761D01*
X119316380Y-54752761D02*
X119316380Y-52752761D01*
X120459238Y-54752761D01*
X120459238Y-52752761D01*
X121316380Y-54657523D02*
X121602095Y-54752761D01*
X122078285Y-54752761D01*
X122268761Y-54657523D01*
X122364000Y-54562285D01*
X122459238Y-54371809D01*
X122459238Y-54181333D01*
X122364000Y-53990857D01*
X122268761Y-53895619D01*
X122078285Y-53800380D01*
X121697333Y-53705142D01*
X121506857Y-53609904D01*
X121411619Y-53514666D01*
X121316380Y-53324190D01*
X121316380Y-53133714D01*
X121411619Y-52943238D01*
X121506857Y-52848000D01*
X121697333Y-52752761D01*
X122173523Y-52752761D01*
X122459238Y-52848000D01*
X124162857Y-35746571D02*
X124734285Y-35746571D01*
X124377142Y-35246571D02*
X124377142Y-36532285D01*
X124448571Y-36675142D01*
X124591428Y-36746571D01*
X124734285Y-36746571D01*
X125805714Y-36675142D02*
X125662857Y-36746571D01*
X125377142Y-36746571D01*
X125234285Y-36675142D01*
X125162857Y-36532285D01*
X125162857Y-35960857D01*
X125234285Y-35818000D01*
X125377142Y-35746571D01*
X125662857Y-35746571D01*
X125805714Y-35818000D01*
X125877142Y-35960857D01*
X125877142Y-36103714D01*
X125162857Y-36246571D01*
X126448571Y-36675142D02*
X126591428Y-36746571D01*
X126877142Y-36746571D01*
X127020000Y-36675142D01*
X127091428Y-36532285D01*
X127091428Y-36460857D01*
X127020000Y-36318000D01*
X126877142Y-36246571D01*
X126662857Y-36246571D01*
X126520000Y-36175142D01*
X126448571Y-36032285D01*
X126448571Y-35960857D01*
X126520000Y-35818000D01*
X126662857Y-35746571D01*
X126877142Y-35746571D01*
X127020000Y-35818000D01*
X127520000Y-35746571D02*
X128091428Y-35746571D01*
X127734285Y-35246571D02*
X127734285Y-36532285D01*
X127805714Y-36675142D01*
X127948571Y-36746571D01*
X128091428Y-36746571D01*
X130020000Y-35246571D02*
X130305714Y-35246571D01*
X130448571Y-35318000D01*
X130591428Y-35460857D01*
X130662857Y-35746571D01*
X130662857Y-36246571D01*
X130591428Y-36532285D01*
X130448571Y-36675142D01*
X130305714Y-36746571D01*
X130020000Y-36746571D01*
X129877142Y-36675142D01*
X129734285Y-36532285D01*
X129662857Y-36246571D01*
X129662857Y-35746571D01*
X129734285Y-35460857D01*
X129877142Y-35318000D01*
X130020000Y-35246571D01*
X131305714Y-36746571D02*
X131305714Y-35246571D01*
X132162857Y-36746571D01*
X132162857Y-35246571D01*
X155194095Y-37092000D02*
X155098857Y-37044380D01*
X154956000Y-37044380D01*
X154813142Y-37092000D01*
X154717904Y-37187238D01*
X154670285Y-37282476D01*
X154622666Y-37472952D01*
X154622666Y-37615809D01*
X154670285Y-37806285D01*
X154717904Y-37901523D01*
X154813142Y-37996761D01*
X154956000Y-38044380D01*
X155051238Y-38044380D01*
X155194095Y-37996761D01*
X155241714Y-37949142D01*
X155241714Y-37615809D01*
X155051238Y-37615809D01*
X155670285Y-38044380D02*
X155670285Y-37044380D01*
X156241714Y-38044380D01*
X156241714Y-37044380D01*
X156717904Y-38044380D02*
X156717904Y-37044380D01*
X156956000Y-37044380D01*
X157098857Y-37092000D01*
X157194095Y-37187238D01*
X157241714Y-37282476D01*
X157289333Y-37472952D01*
X157289333Y-37615809D01*
X157241714Y-37806285D01*
X157194095Y-37901523D01*
X157098857Y-37996761D01*
X156956000Y-38044380D01*
X156717904Y-38044380D01*
X58563333Y-120030761D02*
X57420476Y-120030761D01*
X57991904Y-120030761D02*
X57991904Y-118030761D01*
X57801428Y-118316476D01*
X57610952Y-118506952D01*
X57420476Y-118602190D01*
X59230000Y-118030761D02*
X59706190Y-120030761D01*
X60087142Y-118602190D01*
X60468095Y-120030761D01*
X60944285Y-118030761D01*
X63134761Y-117935523D02*
X61420476Y-120506952D01*
X63801428Y-120030761D02*
X63801428Y-118030761D01*
X64944285Y-120030761D01*
X64944285Y-118030761D01*
X67039523Y-119840285D02*
X66944285Y-119935523D01*
X66658571Y-120030761D01*
X66468095Y-120030761D01*
X66182380Y-119935523D01*
X65991904Y-119745047D01*
X65896666Y-119554571D01*
X65801428Y-119173619D01*
X65801428Y-118887904D01*
X65896666Y-118506952D01*
X65991904Y-118316476D01*
X66182380Y-118126000D01*
X66468095Y-118030761D01*
X66658571Y-118030761D01*
X66944285Y-118126000D01*
X67039523Y-118221238D01*
X175148761Y-58721238D02*
X175148761Y-59864095D01*
X175148761Y-59292666D02*
X173148761Y-59292666D01*
X173434476Y-59483142D01*
X173624952Y-59673619D01*
X173720190Y-59864095D01*
X173148761Y-58149809D02*
X175148761Y-57483142D01*
X173148761Y-56816476D01*
X174577333Y-56245047D02*
X174577333Y-55292666D01*
X175148761Y-56435523D02*
X173148761Y-55768857D01*
X175148761Y-55102190D01*
X174958285Y-53292666D02*
X175053523Y-53387904D01*
X175148761Y-53673619D01*
X175148761Y-53864095D01*
X175053523Y-54149809D01*
X174863047Y-54340285D01*
X174672571Y-54435523D01*
X174291619Y-54530761D01*
X174005904Y-54530761D01*
X173624952Y-54435523D01*
X173434476Y-54340285D01*
X173244000Y-54149809D01*
X173148761Y-53864095D01*
X173148761Y-53673619D01*
X173244000Y-53387904D01*
X173339238Y-53292666D01*
X175148761Y-51387904D02*
X175148761Y-52530761D01*
X175148761Y-51959333D02*
X173148761Y-51959333D01*
X173434476Y-52149809D01*
X173624952Y-52340285D01*
X173720190Y-52530761D01*
X42358571Y-53316000D02*
X42358571Y-53030285D01*
X42430000Y-52887428D01*
X42572857Y-52744571D01*
X42858571Y-52673142D01*
X43358571Y-52673142D01*
X43644285Y-52744571D01*
X43787142Y-52887428D01*
X43858571Y-53030285D01*
X43858571Y-53316000D01*
X43787142Y-53458857D01*
X43644285Y-53601714D01*
X43358571Y-53673142D01*
X42858571Y-53673142D01*
X42572857Y-53601714D01*
X42430000Y-53458857D01*
X42358571Y-53316000D01*
X42358571Y-52030285D02*
X43572857Y-52030285D01*
X43715714Y-51958857D01*
X43787142Y-51887428D01*
X43858571Y-51744571D01*
X43858571Y-51458857D01*
X43787142Y-51316000D01*
X43715714Y-51244571D01*
X43572857Y-51173142D01*
X42358571Y-51173142D01*
X42358571Y-50673142D02*
X42358571Y-49816000D01*
X43858571Y-50244571D02*
X42358571Y-50244571D01*
X105886380Y-53396761D02*
X105219714Y-52444380D01*
X104743523Y-53396761D02*
X104743523Y-51396761D01*
X105505428Y-51396761D01*
X105695904Y-51492000D01*
X105791142Y-51587238D01*
X105886380Y-51777714D01*
X105886380Y-52063428D01*
X105791142Y-52253904D01*
X105695904Y-52349142D01*
X105505428Y-52444380D01*
X104743523Y-52444380D01*
X107695904Y-53396761D02*
X106743523Y-53396761D01*
X106743523Y-51396761D01*
X108743523Y-52444380D02*
X108743523Y-53396761D01*
X108076857Y-51396761D02*
X108743523Y-52444380D01*
X109410190Y-51396761D01*
X105076857Y-55569142D02*
X105362571Y-55664380D01*
X105457809Y-55759619D01*
X105553047Y-55950095D01*
X105553047Y-56235809D01*
X105457809Y-56426285D01*
X105362571Y-56521523D01*
X105172095Y-56616761D01*
X104410190Y-56616761D01*
X104410190Y-54616761D01*
X105076857Y-54616761D01*
X105267333Y-54712000D01*
X105362571Y-54807238D01*
X105457809Y-54997714D01*
X105457809Y-55188190D01*
X105362571Y-55378666D01*
X105267333Y-55473904D01*
X105076857Y-55569142D01*
X104410190Y-55569142D01*
X107553047Y-56616761D02*
X106886380Y-55664380D01*
X106410190Y-56616761D02*
X106410190Y-54616761D01*
X107172095Y-54616761D01*
X107362571Y-54712000D01*
X107457809Y-54807238D01*
X107553047Y-54997714D01*
X107553047Y-55283428D01*
X107457809Y-55473904D01*
X107362571Y-55569142D01*
X107172095Y-55664380D01*
X106410190Y-55664380D01*
X108410190Y-56616761D02*
X108410190Y-54616761D01*
X108886380Y-54616761D01*
X109172095Y-54712000D01*
X109362571Y-54902476D01*
X109457809Y-55092952D01*
X109553047Y-55473904D01*
X109553047Y-55759619D01*
X109457809Y-56140571D01*
X109362571Y-56331047D01*
X109172095Y-56521523D01*
X108886380Y-56616761D01*
X108410190Y-56616761D01*
X69707142Y-33742380D02*
X69230952Y-33742380D01*
X69183333Y-34218571D01*
X69230952Y-34170952D01*
X69326190Y-34123333D01*
X69564285Y-34123333D01*
X69659523Y-34170952D01*
X69707142Y-34218571D01*
X69754761Y-34313809D01*
X69754761Y-34551904D01*
X69707142Y-34647142D01*
X69659523Y-34694761D01*
X69564285Y-34742380D01*
X69326190Y-34742380D01*
X69230952Y-34694761D01*
X69183333Y-34647142D01*
X70088095Y-34075714D02*
X70326190Y-34742380D01*
X70564285Y-34075714D01*
%TO.C,C4*%
X134558114Y-85538819D02*
X135224780Y-85538819D01*
X134177161Y-85776914D02*
X134891447Y-86015009D01*
X134891447Y-85395961D01*
X134224780Y-85110247D02*
X134224780Y-84443580D01*
X135224780Y-84872152D01*
X134224780Y-83872152D02*
X134224780Y-83776914D01*
X134272400Y-83681676D01*
X134320019Y-83634057D01*
X134415257Y-83586438D01*
X134605733Y-83538819D01*
X134843828Y-83538819D01*
X135034304Y-83586438D01*
X135129542Y-83634057D01*
X135177161Y-83681676D01*
X135224780Y-83776914D01*
X135224780Y-83872152D01*
X135177161Y-83967390D01*
X135129542Y-84015009D01*
X135034304Y-84062628D01*
X134843828Y-84110247D01*
X134605733Y-84110247D01*
X134415257Y-84062628D01*
X134320019Y-84015009D01*
X134272400Y-83967390D01*
X134224780Y-83872152D01*
X134558114Y-82681676D02*
X135224780Y-82681676D01*
X134558114Y-83110247D02*
X135081923Y-83110247D01*
X135177161Y-83062628D01*
X135224780Y-82967390D01*
X135224780Y-82824533D01*
X135177161Y-82729295D01*
X135129542Y-82681676D01*
X134700971Y-81872152D02*
X134700971Y-82205485D01*
X135224780Y-82205485D02*
X134224780Y-82205485D01*
X134224780Y-81729295D01*
X134177161Y-80634057D02*
X135462876Y-81491200D01*
X135224780Y-79776914D02*
X135224780Y-80348342D01*
X135224780Y-80062628D02*
X134224780Y-80062628D01*
X134367638Y-80157866D01*
X134462876Y-80253104D01*
X134510495Y-80348342D01*
X134224780Y-78919771D02*
X134224780Y-79110247D01*
X134272400Y-79205485D01*
X134320019Y-79253104D01*
X134462876Y-79348342D01*
X134653352Y-79395961D01*
X135034304Y-79395961D01*
X135129542Y-79348342D01*
X135177161Y-79300723D01*
X135224780Y-79205485D01*
X135224780Y-79015009D01*
X135177161Y-78919771D01*
X135129542Y-78872152D01*
X135034304Y-78824533D01*
X134796209Y-78824533D01*
X134700971Y-78872152D01*
X134653352Y-78919771D01*
X134605733Y-79015009D01*
X134605733Y-79205485D01*
X134653352Y-79300723D01*
X134700971Y-79348342D01*
X134796209Y-79395961D01*
X134224780Y-78538819D02*
X135224780Y-78205485D01*
X134224780Y-77872152D01*
%TO.C,U3*%
X53095714Y-69829961D02*
X53238571Y-69877580D01*
X53476666Y-69877580D01*
X53571904Y-69829961D01*
X53619523Y-69782342D01*
X53667142Y-69687104D01*
X53667142Y-69591866D01*
X53619523Y-69496628D01*
X53571904Y-69449009D01*
X53476666Y-69401390D01*
X53286190Y-69353771D01*
X53190952Y-69306152D01*
X53143333Y-69258533D01*
X53095714Y-69163295D01*
X53095714Y-69068057D01*
X53143333Y-68972819D01*
X53190952Y-68925200D01*
X53286190Y-68877580D01*
X53524285Y-68877580D01*
X53667142Y-68925200D01*
X54095714Y-69877580D02*
X54095714Y-68877580D01*
X54333809Y-68877580D01*
X54476666Y-68925200D01*
X54571904Y-69020438D01*
X54619523Y-69115676D01*
X54667142Y-69306152D01*
X54667142Y-69449009D01*
X54619523Y-69639485D01*
X54571904Y-69734723D01*
X54476666Y-69829961D01*
X54333809Y-69877580D01*
X54095714Y-69877580D01*
X55048095Y-69591866D02*
X55524285Y-69591866D01*
X54952857Y-69877580D02*
X55286190Y-68877580D01*
X55619523Y-69877580D01*
X65162380Y-86139485D02*
X64162380Y-86139485D01*
X64162380Y-85758533D01*
X64210000Y-85663295D01*
X64257619Y-85615676D01*
X64352857Y-85568057D01*
X64495714Y-85568057D01*
X64590952Y-85615676D01*
X64638571Y-85663295D01*
X64686190Y-85758533D01*
X64686190Y-86139485D01*
X64162380Y-84949009D02*
X64162380Y-84853771D01*
X64210000Y-84758533D01*
X64257619Y-84710914D01*
X64352857Y-84663295D01*
X64543333Y-84615676D01*
X64781428Y-84615676D01*
X64971904Y-84663295D01*
X65067142Y-84710914D01*
X65114761Y-84758533D01*
X65162380Y-84853771D01*
X65162380Y-84949009D01*
X65114761Y-85044247D01*
X65067142Y-85091866D01*
X64971904Y-85139485D01*
X64781428Y-85187104D01*
X64543333Y-85187104D01*
X64352857Y-85139485D01*
X64257619Y-85091866D01*
X64210000Y-85044247D01*
X64162380Y-84949009D01*
X64162380Y-83996628D02*
X64162380Y-83901390D01*
X64210000Y-83806152D01*
X64257619Y-83758533D01*
X64352857Y-83710914D01*
X64543333Y-83663295D01*
X64781428Y-83663295D01*
X64971904Y-83710914D01*
X65067142Y-83758533D01*
X65114761Y-83806152D01*
X65162380Y-83901390D01*
X65162380Y-83996628D01*
X65114761Y-84091866D01*
X65067142Y-84139485D01*
X64971904Y-84187104D01*
X64781428Y-84234723D01*
X64543333Y-84234723D01*
X64352857Y-84187104D01*
X64257619Y-84139485D01*
X64210000Y-84091866D01*
X64162380Y-83996628D01*
X52876666Y-63977580D02*
X53210000Y-64977580D01*
X53543333Y-63977580D01*
X54448095Y-64882342D02*
X54400476Y-64929961D01*
X54257619Y-64977580D01*
X54162380Y-64977580D01*
X54019523Y-64929961D01*
X53924285Y-64834723D01*
X53876666Y-64739485D01*
X53829047Y-64549009D01*
X53829047Y-64406152D01*
X53876666Y-64215676D01*
X53924285Y-64120438D01*
X54019523Y-64025200D01*
X54162380Y-63977580D01*
X54257619Y-63977580D01*
X54400476Y-64025200D01*
X54448095Y-64072819D01*
X55448095Y-64882342D02*
X55400476Y-64929961D01*
X55257619Y-64977580D01*
X55162380Y-64977580D01*
X55019523Y-64929961D01*
X54924285Y-64834723D01*
X54876666Y-64739485D01*
X54829047Y-64549009D01*
X54829047Y-64406152D01*
X54876666Y-64215676D01*
X54924285Y-64120438D01*
X55019523Y-64025200D01*
X55162380Y-63977580D01*
X55257619Y-63977580D01*
X55400476Y-64025200D01*
X55448095Y-64072819D01*
X53119523Y-67129961D02*
X53262380Y-67177580D01*
X53500476Y-67177580D01*
X53595714Y-67129961D01*
X53643333Y-67082342D01*
X53690952Y-66987104D01*
X53690952Y-66891866D01*
X53643333Y-66796628D01*
X53595714Y-66749009D01*
X53500476Y-66701390D01*
X53310000Y-66653771D01*
X53214761Y-66606152D01*
X53167142Y-66558533D01*
X53119523Y-66463295D01*
X53119523Y-66368057D01*
X53167142Y-66272819D01*
X53214761Y-66225200D01*
X53310000Y-66177580D01*
X53548095Y-66177580D01*
X53690952Y-66225200D01*
X54690952Y-67082342D02*
X54643333Y-67129961D01*
X54500476Y-67177580D01*
X54405238Y-67177580D01*
X54262380Y-67129961D01*
X54167142Y-67034723D01*
X54119523Y-66939485D01*
X54071904Y-66749009D01*
X54071904Y-66606152D01*
X54119523Y-66415676D01*
X54167142Y-66320438D01*
X54262380Y-66225200D01*
X54405238Y-66177580D01*
X54500476Y-66177580D01*
X54643333Y-66225200D01*
X54690952Y-66272819D01*
X55595714Y-67177580D02*
X55119523Y-67177580D01*
X55119523Y-66177580D01*
X65262380Y-63039485D02*
X64262380Y-63039485D01*
X64262380Y-62658533D01*
X64310000Y-62563295D01*
X64357619Y-62515676D01*
X64452857Y-62468057D01*
X64595714Y-62468057D01*
X64690952Y-62515676D01*
X64738571Y-62563295D01*
X64786190Y-62658533D01*
X64786190Y-63039485D01*
X65262380Y-61515676D02*
X65262380Y-62087104D01*
X65262380Y-61801390D02*
X64262380Y-61801390D01*
X64405238Y-61896628D01*
X64500476Y-61991866D01*
X64548095Y-62087104D01*
X64262380Y-61182342D02*
X64262380Y-60515676D01*
X65262380Y-60944247D01*
X53348095Y-81925200D02*
X53252857Y-81877580D01*
X53110000Y-81877580D01*
X52967142Y-81925200D01*
X52871904Y-82020438D01*
X52824285Y-82115676D01*
X52776666Y-82306152D01*
X52776666Y-82449009D01*
X52824285Y-82639485D01*
X52871904Y-82734723D01*
X52967142Y-82829961D01*
X53110000Y-82877580D01*
X53205238Y-82877580D01*
X53348095Y-82829961D01*
X53395714Y-82782342D01*
X53395714Y-82449009D01*
X53205238Y-82449009D01*
X53824285Y-82877580D02*
X53824285Y-81877580D01*
X54395714Y-82877580D01*
X54395714Y-81877580D01*
X54871904Y-82877580D02*
X54871904Y-81877580D01*
X55110000Y-81877580D01*
X55252857Y-81925200D01*
X55348095Y-82020438D01*
X55395714Y-82115676D01*
X55443333Y-82306152D01*
X55443333Y-82449009D01*
X55395714Y-82639485D01*
X55348095Y-82734723D01*
X55252857Y-82829961D01*
X55110000Y-82877580D01*
X54871904Y-82877580D01*
%TO.C,U2*%
X75739380Y-44263047D02*
X75739380Y-44739238D01*
X74739380Y-44739238D01*
X74739380Y-44072571D02*
X75739380Y-43739238D01*
X74739380Y-43405904D01*
X75879380Y-59448285D02*
X74879380Y-59448285D01*
X75355571Y-59448285D02*
X75355571Y-58876857D01*
X75879380Y-58876857D02*
X74879380Y-58876857D01*
X74879380Y-58543523D02*
X75879380Y-58210190D01*
X74879380Y-57876857D01*
%TO.C,R8*%
X134612190Y-88431714D02*
X134612190Y-89098380D01*
X134374095Y-88050761D02*
X134136000Y-88765047D01*
X134755047Y-88765047D01*
X135136000Y-89003142D02*
X135183619Y-89050761D01*
X135136000Y-89098380D01*
X135088380Y-89050761D01*
X135136000Y-89003142D01*
X135136000Y-89098380D01*
X135516952Y-88098380D02*
X136183619Y-88098380D01*
X135755047Y-89098380D01*
X136564571Y-89098380D02*
X136564571Y-88098380D01*
X137136000Y-89098380D02*
X136707428Y-88526952D01*
X137136000Y-88098380D02*
X136564571Y-88669809D01*
%TO.C,C3*%
X145677142Y-78700380D02*
X145772380Y-78700380D01*
X145867619Y-78748000D01*
X145915238Y-78795619D01*
X145962857Y-78890857D01*
X146010476Y-79081333D01*
X146010476Y-79319428D01*
X145962857Y-79509904D01*
X145915238Y-79605142D01*
X145867619Y-79652761D01*
X145772380Y-79700380D01*
X145677142Y-79700380D01*
X145581904Y-79652761D01*
X145534285Y-79605142D01*
X145486666Y-79509904D01*
X145439047Y-79319428D01*
X145439047Y-79081333D01*
X145486666Y-78890857D01*
X145534285Y-78795619D01*
X145581904Y-78748000D01*
X145677142Y-78700380D01*
X146439047Y-79605142D02*
X146486666Y-79652761D01*
X146439047Y-79700380D01*
X146391428Y-79652761D01*
X146439047Y-79605142D01*
X146439047Y-79700380D01*
X147439047Y-79700380D02*
X146867619Y-79700380D01*
X147153333Y-79700380D02*
X147153333Y-78700380D01*
X147058095Y-78843238D01*
X146962857Y-78938476D01*
X146867619Y-78986095D01*
X148296190Y-79033714D02*
X148296190Y-79700380D01*
X147867619Y-79033714D02*
X147867619Y-79557523D01*
X147915238Y-79652761D01*
X148010476Y-79700380D01*
X148153333Y-79700380D01*
X148248571Y-79652761D01*
X148296190Y-79605142D01*
X149105714Y-79176571D02*
X148772380Y-79176571D01*
X148772380Y-79700380D02*
X148772380Y-78700380D01*
X149248571Y-78700380D01*
%TO.C,R6*%
X135104285Y-103417714D02*
X135104285Y-104084380D01*
X134866190Y-103036761D02*
X134628095Y-103751047D01*
X135247142Y-103751047D01*
X135532857Y-103084380D02*
X136199523Y-103084380D01*
X135770952Y-104084380D01*
X136580476Y-104084380D02*
X136580476Y-103084380D01*
X137151904Y-104084380D02*
X136723333Y-103512952D01*
X137151904Y-103084380D02*
X136580476Y-103655809D01*
%TO.C,D3*%
X150868095Y-96718380D02*
X150868095Y-95718380D01*
X151439523Y-96718380D02*
X151010952Y-96146952D01*
X151439523Y-95718380D02*
X150868095Y-96289809D01*
%TO.C,C1*%
X137025238Y-54649714D02*
X137025238Y-55316380D01*
X136787142Y-54268761D02*
X136549047Y-54983047D01*
X137168095Y-54983047D01*
X137549047Y-55221142D02*
X137596666Y-55268761D01*
X137549047Y-55316380D01*
X137501428Y-55268761D01*
X137549047Y-55221142D01*
X137549047Y-55316380D01*
X137930000Y-54316380D02*
X138596666Y-54316380D01*
X138168095Y-55316380D01*
X139406190Y-54649714D02*
X139406190Y-55316380D01*
X138977619Y-54649714D02*
X138977619Y-55173523D01*
X139025238Y-55268761D01*
X139120476Y-55316380D01*
X139263333Y-55316380D01*
X139358571Y-55268761D01*
X139406190Y-55221142D01*
X140215714Y-54792571D02*
X139882380Y-54792571D01*
X139882380Y-55316380D02*
X139882380Y-54316380D01*
X140358571Y-54316380D01*
%TO.C,R12*%
X82843714Y-45918380D02*
X82272285Y-45918380D01*
X82558000Y-45918380D02*
X82558000Y-44918380D01*
X82462761Y-45061238D01*
X82367523Y-45156476D01*
X82272285Y-45204095D01*
X83272285Y-45918380D02*
X83272285Y-44918380D01*
X83843714Y-45918380D02*
X83415142Y-45346952D01*
X83843714Y-44918380D02*
X83272285Y-45489809D01*
%TO.C,U8*%
X113101123Y-67310761D02*
X113243980Y-67358380D01*
X113482076Y-67358380D01*
X113577314Y-67310761D01*
X113624933Y-67263142D01*
X113672552Y-67167904D01*
X113672552Y-67072666D01*
X113624933Y-66977428D01*
X113577314Y-66929809D01*
X113482076Y-66882190D01*
X113291600Y-66834571D01*
X113196361Y-66786952D01*
X113148742Y-66739333D01*
X113101123Y-66644095D01*
X113101123Y-66548857D01*
X113148742Y-66453619D01*
X113196361Y-66406000D01*
X113291600Y-66358380D01*
X113529695Y-66358380D01*
X113672552Y-66406000D01*
X114672552Y-67263142D02*
X114624933Y-67310761D01*
X114482076Y-67358380D01*
X114386838Y-67358380D01*
X114243980Y-67310761D01*
X114148742Y-67215523D01*
X114101123Y-67120285D01*
X114053504Y-66929809D01*
X114053504Y-66786952D01*
X114101123Y-66596476D01*
X114148742Y-66501238D01*
X114243980Y-66406000D01*
X114386838Y-66358380D01*
X114482076Y-66358380D01*
X114624933Y-66406000D01*
X114672552Y-66453619D01*
X115577314Y-67358380D02*
X115101123Y-67358380D01*
X115101123Y-66358380D01*
X113577314Y-77572666D02*
X114053504Y-77572666D01*
X113482076Y-77858380D02*
X113815409Y-76858380D01*
X114148742Y-77858380D01*
X114672552Y-76858380D02*
X114767790Y-76858380D01*
X114863028Y-76906000D01*
X114910647Y-76953619D01*
X114958266Y-77048857D01*
X115005885Y-77239333D01*
X115005885Y-77477428D01*
X114958266Y-77667904D01*
X114910647Y-77763142D01*
X114863028Y-77810761D01*
X114767790Y-77858380D01*
X114672552Y-77858380D01*
X114577314Y-77810761D01*
X114529695Y-77763142D01*
X114482076Y-77667904D01*
X114434457Y-77477428D01*
X114434457Y-77239333D01*
X114482076Y-77048857D01*
X114529695Y-76953619D01*
X114577314Y-76906000D01*
X114672552Y-76858380D01*
X112958266Y-61358380D02*
X113291600Y-62358380D01*
X113624933Y-61358380D01*
X114529695Y-62263142D02*
X114482076Y-62310761D01*
X114339219Y-62358380D01*
X114243980Y-62358380D01*
X114101123Y-62310761D01*
X114005885Y-62215523D01*
X113958266Y-62120285D01*
X113910647Y-61929809D01*
X113910647Y-61786952D01*
X113958266Y-61596476D01*
X114005885Y-61501238D01*
X114101123Y-61406000D01*
X114243980Y-61358380D01*
X114339219Y-61358380D01*
X114482076Y-61406000D01*
X114529695Y-61453619D01*
X115529695Y-62263142D02*
X115482076Y-62310761D01*
X115339219Y-62358380D01*
X115243980Y-62358380D01*
X115101123Y-62310761D01*
X115005885Y-62215523D01*
X114958266Y-62120285D01*
X114910647Y-61929809D01*
X114910647Y-61786952D01*
X114958266Y-61596476D01*
X115005885Y-61501238D01*
X115101123Y-61406000D01*
X115243980Y-61358380D01*
X115339219Y-61358380D01*
X115482076Y-61406000D01*
X115529695Y-61453619D01*
X113077314Y-69810761D02*
X113220171Y-69858380D01*
X113458266Y-69858380D01*
X113553504Y-69810761D01*
X113601123Y-69763142D01*
X113648742Y-69667904D01*
X113648742Y-69572666D01*
X113601123Y-69477428D01*
X113553504Y-69429809D01*
X113458266Y-69382190D01*
X113267790Y-69334571D01*
X113172552Y-69286952D01*
X113124933Y-69239333D01*
X113077314Y-69144095D01*
X113077314Y-69048857D01*
X113124933Y-68953619D01*
X113172552Y-68906000D01*
X113267790Y-68858380D01*
X113505885Y-68858380D01*
X113648742Y-68906000D01*
X114077314Y-69858380D02*
X114077314Y-68858380D01*
X114315409Y-68858380D01*
X114458266Y-68906000D01*
X114553504Y-69001238D01*
X114601123Y-69096476D01*
X114648742Y-69286952D01*
X114648742Y-69429809D01*
X114601123Y-69620285D01*
X114553504Y-69715523D01*
X114458266Y-69810761D01*
X114315409Y-69858380D01*
X114077314Y-69858380D01*
X115029695Y-69572666D02*
X115505885Y-69572666D01*
X114934457Y-69858380D02*
X115267790Y-68858380D01*
X115601123Y-69858380D01*
X113529695Y-63906000D02*
X113434457Y-63858380D01*
X113291600Y-63858380D01*
X113148742Y-63906000D01*
X113053504Y-64001238D01*
X113005885Y-64096476D01*
X112958266Y-64286952D01*
X112958266Y-64429809D01*
X113005885Y-64620285D01*
X113053504Y-64715523D01*
X113148742Y-64810761D01*
X113291600Y-64858380D01*
X113386838Y-64858380D01*
X113529695Y-64810761D01*
X113577314Y-64763142D01*
X113577314Y-64429809D01*
X113386838Y-64429809D01*
X114005885Y-64858380D02*
X114005885Y-63858380D01*
X114577314Y-64858380D01*
X114577314Y-63858380D01*
X115053504Y-64858380D02*
X115053504Y-63858380D01*
X115291600Y-63858380D01*
X115434457Y-63906000D01*
X115529695Y-64001238D01*
X115577314Y-64096476D01*
X115624933Y-64286952D01*
X115624933Y-64429809D01*
X115577314Y-64620285D01*
X115529695Y-64715523D01*
X115434457Y-64810761D01*
X115291600Y-64858380D01*
X115053504Y-64858380D01*
X113577314Y-85072666D02*
X114053504Y-85072666D01*
X113482076Y-85358380D02*
X113815409Y-84358380D01*
X114148742Y-85358380D01*
X114386838Y-84358380D02*
X115005885Y-84358380D01*
X114672552Y-84739333D01*
X114815409Y-84739333D01*
X114910647Y-84786952D01*
X114958266Y-84834571D01*
X115005885Y-84929809D01*
X115005885Y-85167904D01*
X114958266Y-85263142D01*
X114910647Y-85310761D01*
X114815409Y-85358380D01*
X114529695Y-85358380D01*
X114434457Y-85310761D01*
X114386838Y-85263142D01*
%TO.C,U1*%
X55681619Y-37446476D02*
X55681619Y-36970285D01*
X56681619Y-36970285D01*
X56062571Y-37779809D02*
X56062571Y-38541714D01*
X55681619Y-38160761D02*
X56443523Y-38160761D01*
X55626857Y-52896476D02*
X55579238Y-52848857D01*
X55531619Y-52706000D01*
X55531619Y-52610761D01*
X55579238Y-52467904D01*
X55674476Y-52372666D01*
X55769714Y-52325047D01*
X55960190Y-52277428D01*
X56103047Y-52277428D01*
X56293523Y-52325047D01*
X56388761Y-52372666D01*
X56484000Y-52467904D01*
X56531619Y-52610761D01*
X56531619Y-52706000D01*
X56484000Y-52848857D01*
X56436380Y-52896476D01*
X55912571Y-53325047D02*
X55912571Y-54086952D01*
X55531619Y-53706000D02*
X56293523Y-53706000D01*
X55631619Y-42846476D02*
X55631619Y-42370285D01*
X56631619Y-42370285D01*
X56012571Y-43179809D02*
X56012571Y-43941714D01*
X55626857Y-55546476D02*
X55579238Y-55498857D01*
X55531619Y-55356000D01*
X55531619Y-55260761D01*
X55579238Y-55117904D01*
X55674476Y-55022666D01*
X55769714Y-54975047D01*
X55960190Y-54927428D01*
X56103047Y-54927428D01*
X56293523Y-54975047D01*
X56388761Y-55022666D01*
X56484000Y-55117904D01*
X56531619Y-55260761D01*
X56531619Y-55356000D01*
X56484000Y-55498857D01*
X56436380Y-55546476D01*
X55912571Y-55975047D02*
X55912571Y-56736952D01*
%TO.C,R13*%
X138469714Y-42362380D02*
X137898285Y-42362380D01*
X138184000Y-42362380D02*
X138184000Y-41362380D01*
X138088761Y-41505238D01*
X137993523Y-41600476D01*
X137898285Y-41648095D01*
X138898285Y-42362380D02*
X138898285Y-41362380D01*
X139469714Y-42362380D02*
X139041142Y-41790952D01*
X139469714Y-41362380D02*
X138898285Y-41933809D01*
%TO.C,U9*%
X91630666Y-61307580D02*
X91964000Y-62307580D01*
X92297333Y-61307580D01*
X93202095Y-62212342D02*
X93154476Y-62259961D01*
X93011619Y-62307580D01*
X92916380Y-62307580D01*
X92773523Y-62259961D01*
X92678285Y-62164723D01*
X92630666Y-62069485D01*
X92583047Y-61879009D01*
X92583047Y-61736152D01*
X92630666Y-61545676D01*
X92678285Y-61450438D01*
X92773523Y-61355200D01*
X92916380Y-61307580D01*
X93011619Y-61307580D01*
X93154476Y-61355200D01*
X93202095Y-61402819D01*
X94202095Y-62212342D02*
X94154476Y-62259961D01*
X94011619Y-62307580D01*
X93916380Y-62307580D01*
X93773523Y-62259961D01*
X93678285Y-62164723D01*
X93630666Y-62069485D01*
X93583047Y-61879009D01*
X93583047Y-61736152D01*
X93630666Y-61545676D01*
X93678285Y-61450438D01*
X93773523Y-61355200D01*
X93916380Y-61307580D01*
X94011619Y-61307580D01*
X94154476Y-61355200D01*
X94202095Y-61402819D01*
X91773523Y-67259961D02*
X91916380Y-67307580D01*
X92154476Y-67307580D01*
X92249714Y-67259961D01*
X92297333Y-67212342D01*
X92344952Y-67117104D01*
X92344952Y-67021866D01*
X92297333Y-66926628D01*
X92249714Y-66879009D01*
X92154476Y-66831390D01*
X91964000Y-66783771D01*
X91868761Y-66736152D01*
X91821142Y-66688533D01*
X91773523Y-66593295D01*
X91773523Y-66498057D01*
X91821142Y-66402819D01*
X91868761Y-66355200D01*
X91964000Y-66307580D01*
X92202095Y-66307580D01*
X92344952Y-66355200D01*
X93344952Y-67212342D02*
X93297333Y-67259961D01*
X93154476Y-67307580D01*
X93059238Y-67307580D01*
X92916380Y-67259961D01*
X92821142Y-67164723D01*
X92773523Y-67069485D01*
X92725904Y-66879009D01*
X92725904Y-66736152D01*
X92773523Y-66545676D01*
X92821142Y-66450438D01*
X92916380Y-66355200D01*
X93059238Y-66307580D01*
X93154476Y-66307580D01*
X93297333Y-66355200D01*
X93344952Y-66402819D01*
X94249714Y-67307580D02*
X93773523Y-67307580D01*
X93773523Y-66307580D01*
X92249714Y-77521866D02*
X92725904Y-77521866D01*
X92154476Y-77807580D02*
X92487809Y-76807580D01*
X92821142Y-77807580D01*
X93344952Y-76807580D02*
X93440190Y-76807580D01*
X93535428Y-76855200D01*
X93583047Y-76902819D01*
X93630666Y-76998057D01*
X93678285Y-77188533D01*
X93678285Y-77426628D01*
X93630666Y-77617104D01*
X93583047Y-77712342D01*
X93535428Y-77759961D01*
X93440190Y-77807580D01*
X93344952Y-77807580D01*
X93249714Y-77759961D01*
X93202095Y-77712342D01*
X93154476Y-77617104D01*
X93106857Y-77426628D01*
X93106857Y-77188533D01*
X93154476Y-76998057D01*
X93202095Y-76902819D01*
X93249714Y-76855200D01*
X93344952Y-76807580D01*
X92249714Y-85021866D02*
X92725904Y-85021866D01*
X92154476Y-85307580D02*
X92487809Y-84307580D01*
X92821142Y-85307580D01*
X93059238Y-84307580D02*
X93678285Y-84307580D01*
X93344952Y-84688533D01*
X93487809Y-84688533D01*
X93583047Y-84736152D01*
X93630666Y-84783771D01*
X93678285Y-84879009D01*
X93678285Y-85117104D01*
X93630666Y-85212342D01*
X93583047Y-85259961D01*
X93487809Y-85307580D01*
X93202095Y-85307580D01*
X93106857Y-85259961D01*
X93059238Y-85212342D01*
X92202095Y-63855200D02*
X92106857Y-63807580D01*
X91964000Y-63807580D01*
X91821142Y-63855200D01*
X91725904Y-63950438D01*
X91678285Y-64045676D01*
X91630666Y-64236152D01*
X91630666Y-64379009D01*
X91678285Y-64569485D01*
X91725904Y-64664723D01*
X91821142Y-64759961D01*
X91964000Y-64807580D01*
X92059238Y-64807580D01*
X92202095Y-64759961D01*
X92249714Y-64712342D01*
X92249714Y-64379009D01*
X92059238Y-64379009D01*
X92678285Y-64807580D02*
X92678285Y-63807580D01*
X93249714Y-64807580D01*
X93249714Y-63807580D01*
X93725904Y-64807580D02*
X93725904Y-63807580D01*
X93964000Y-63807580D01*
X94106857Y-63855200D01*
X94202095Y-63950438D01*
X94249714Y-64045676D01*
X94297333Y-64236152D01*
X94297333Y-64379009D01*
X94249714Y-64569485D01*
X94202095Y-64664723D01*
X94106857Y-64759961D01*
X93964000Y-64807580D01*
X93725904Y-64807580D01*
X91749714Y-69759961D02*
X91892571Y-69807580D01*
X92130666Y-69807580D01*
X92225904Y-69759961D01*
X92273523Y-69712342D01*
X92321142Y-69617104D01*
X92321142Y-69521866D01*
X92273523Y-69426628D01*
X92225904Y-69379009D01*
X92130666Y-69331390D01*
X91940190Y-69283771D01*
X91844952Y-69236152D01*
X91797333Y-69188533D01*
X91749714Y-69093295D01*
X91749714Y-68998057D01*
X91797333Y-68902819D01*
X91844952Y-68855200D01*
X91940190Y-68807580D01*
X92178285Y-68807580D01*
X92321142Y-68855200D01*
X92749714Y-69807580D02*
X92749714Y-68807580D01*
X92987809Y-68807580D01*
X93130666Y-68855200D01*
X93225904Y-68950438D01*
X93273523Y-69045676D01*
X93321142Y-69236152D01*
X93321142Y-69379009D01*
X93273523Y-69569485D01*
X93225904Y-69664723D01*
X93130666Y-69759961D01*
X92987809Y-69807580D01*
X92749714Y-69807580D01*
X93702095Y-69521866D02*
X94178285Y-69521866D01*
X93606857Y-69807580D02*
X93940190Y-68807580D01*
X94273523Y-69807580D01*
%TO.C,U11*%
X121218761Y-115154285D02*
X121266380Y-115011428D01*
X121266380Y-114773333D01*
X121218761Y-114678095D01*
X121171142Y-114630476D01*
X121075904Y-114582857D01*
X120980666Y-114582857D01*
X120885428Y-114630476D01*
X120837809Y-114678095D01*
X120790190Y-114773333D01*
X120742571Y-114963809D01*
X120694952Y-115059047D01*
X120647333Y-115106666D01*
X120552095Y-115154285D01*
X120456857Y-115154285D01*
X120361619Y-115106666D01*
X120314000Y-115059047D01*
X120266380Y-114963809D01*
X120266380Y-114725714D01*
X120314000Y-114582857D01*
X121266380Y-114154285D02*
X120266380Y-114154285D01*
X120266380Y-113916190D01*
X120314000Y-113773333D01*
X120409238Y-113678095D01*
X120504476Y-113630476D01*
X120694952Y-113582857D01*
X120837809Y-113582857D01*
X121028285Y-113630476D01*
X121123523Y-113678095D01*
X121218761Y-113773333D01*
X121266380Y-113916190D01*
X121266380Y-114154285D01*
X120980666Y-113201904D02*
X120980666Y-112725714D01*
X121266380Y-113297142D02*
X120266380Y-112963809D01*
X121266380Y-112630476D01*
X123490666Y-114814285D02*
X123490666Y-114338095D01*
X123776380Y-114909523D02*
X122776380Y-114576190D01*
X123776380Y-114242857D01*
X123776380Y-113385714D02*
X123776380Y-113957142D01*
X123776380Y-113671428D02*
X122776380Y-113671428D01*
X122919238Y-113766666D01*
X123014476Y-113861904D01*
X123062095Y-113957142D01*
X125870666Y-114604285D02*
X125870666Y-114128095D01*
X126156380Y-114699523D02*
X125156380Y-114366190D01*
X126156380Y-114032857D01*
X125156380Y-113509047D02*
X125156380Y-113413809D01*
X125204000Y-113318571D01*
X125251619Y-113270952D01*
X125346857Y-113223333D01*
X125537333Y-113175714D01*
X125775428Y-113175714D01*
X125965904Y-113223333D01*
X126061142Y-113270952D01*
X126108761Y-113318571D01*
X126156380Y-113413809D01*
X126156380Y-113509047D01*
X126108761Y-113604285D01*
X126061142Y-113651904D01*
X125965904Y-113699523D01*
X125775428Y-113747142D01*
X125537333Y-113747142D01*
X125346857Y-113699523D01*
X125251619Y-113651904D01*
X125204000Y-113604285D01*
X125156380Y-113509047D01*
X128756380Y-115361904D02*
X128756380Y-115933333D01*
X128756380Y-115647619D02*
X127756380Y-115647619D01*
X127899238Y-115742857D01*
X127994476Y-115838095D01*
X128042095Y-115933333D01*
X127756380Y-115028571D02*
X128756380Y-114790476D01*
X128042095Y-114600000D01*
X128756380Y-114409523D01*
X127756380Y-114171428D01*
X128756380Y-113790476D02*
X128089714Y-113790476D01*
X127756380Y-113790476D02*
X127804000Y-113838095D01*
X127851619Y-113790476D01*
X127804000Y-113742857D01*
X127756380Y-113790476D01*
X127851619Y-113790476D01*
X128756380Y-113314285D02*
X128089714Y-113314285D01*
X128280190Y-113314285D02*
X128184952Y-113266666D01*
X128137333Y-113219047D01*
X128089714Y-113123809D01*
X128089714Y-113028571D01*
X128708761Y-112314285D02*
X128756380Y-112409523D01*
X128756380Y-112600000D01*
X128708761Y-112695238D01*
X128613523Y-112742857D01*
X128232571Y-112742857D01*
X128137333Y-112695238D01*
X128089714Y-112600000D01*
X128089714Y-112409523D01*
X128137333Y-112314285D01*
X128232571Y-112266666D01*
X128327809Y-112266666D01*
X128423047Y-112742857D01*
X130414000Y-114701904D02*
X130366380Y-114797142D01*
X130366380Y-114940000D01*
X130414000Y-115082857D01*
X130509238Y-115178095D01*
X130604476Y-115225714D01*
X130794952Y-115273333D01*
X130937809Y-115273333D01*
X131128285Y-115225714D01*
X131223523Y-115178095D01*
X131318761Y-115082857D01*
X131366380Y-114940000D01*
X131366380Y-114844761D01*
X131318761Y-114701904D01*
X131271142Y-114654285D01*
X130937809Y-114654285D01*
X130937809Y-114844761D01*
X131366380Y-114225714D02*
X130366380Y-114225714D01*
X131366380Y-113654285D01*
X130366380Y-113654285D01*
X131366380Y-113178095D02*
X130366380Y-113178095D01*
X130366380Y-112940000D01*
X130414000Y-112797142D01*
X130509238Y-112701904D01*
X130604476Y-112654285D01*
X130794952Y-112606666D01*
X130937809Y-112606666D01*
X131128285Y-112654285D01*
X131223523Y-112701904D01*
X131318761Y-112797142D01*
X131366380Y-112940000D01*
X131366380Y-113178095D01*
X118688761Y-115080476D02*
X118736380Y-114937619D01*
X118736380Y-114699523D01*
X118688761Y-114604285D01*
X118641142Y-114556666D01*
X118545904Y-114509047D01*
X118450666Y-114509047D01*
X118355428Y-114556666D01*
X118307809Y-114604285D01*
X118260190Y-114699523D01*
X118212571Y-114890000D01*
X118164952Y-114985238D01*
X118117333Y-115032857D01*
X118022095Y-115080476D01*
X117926857Y-115080476D01*
X117831619Y-115032857D01*
X117784000Y-114985238D01*
X117736380Y-114890000D01*
X117736380Y-114651904D01*
X117784000Y-114509047D01*
X118641142Y-113509047D02*
X118688761Y-113556666D01*
X118736380Y-113699523D01*
X118736380Y-113794761D01*
X118688761Y-113937619D01*
X118593523Y-114032857D01*
X118498285Y-114080476D01*
X118307809Y-114128095D01*
X118164952Y-114128095D01*
X117974476Y-114080476D01*
X117879238Y-114032857D01*
X117784000Y-113937619D01*
X117736380Y-113794761D01*
X117736380Y-113699523D01*
X117784000Y-113556666D01*
X117831619Y-113509047D01*
X118736380Y-112604285D02*
X118736380Y-113080476D01*
X117736380Y-113080476D01*
X115106380Y-115403333D02*
X116106380Y-115070000D01*
X115106380Y-114736666D01*
X116011142Y-113831904D02*
X116058761Y-113879523D01*
X116106380Y-114022380D01*
X116106380Y-114117619D01*
X116058761Y-114260476D01*
X115963523Y-114355714D01*
X115868285Y-114403333D01*
X115677809Y-114450952D01*
X115534952Y-114450952D01*
X115344476Y-114403333D01*
X115249238Y-114355714D01*
X115154000Y-114260476D01*
X115106380Y-114117619D01*
X115106380Y-114022380D01*
X115154000Y-113879523D01*
X115201619Y-113831904D01*
X116011142Y-112831904D02*
X116058761Y-112879523D01*
X116106380Y-113022380D01*
X116106380Y-113117619D01*
X116058761Y-113260476D01*
X115963523Y-113355714D01*
X115868285Y-113403333D01*
X115677809Y-113450952D01*
X115534952Y-113450952D01*
X115344476Y-113403333D01*
X115249238Y-113355714D01*
X115154000Y-113260476D01*
X115106380Y-113117619D01*
X115106380Y-113022380D01*
X115154000Y-112879523D01*
X115201619Y-112831904D01*
%TO.C,U10*%
X98368761Y-115080476D02*
X98416380Y-114937619D01*
X98416380Y-114699523D01*
X98368761Y-114604285D01*
X98321142Y-114556666D01*
X98225904Y-114509047D01*
X98130666Y-114509047D01*
X98035428Y-114556666D01*
X97987809Y-114604285D01*
X97940190Y-114699523D01*
X97892571Y-114890000D01*
X97844952Y-114985238D01*
X97797333Y-115032857D01*
X97702095Y-115080476D01*
X97606857Y-115080476D01*
X97511619Y-115032857D01*
X97464000Y-114985238D01*
X97416380Y-114890000D01*
X97416380Y-114651904D01*
X97464000Y-114509047D01*
X98321142Y-113509047D02*
X98368761Y-113556666D01*
X98416380Y-113699523D01*
X98416380Y-113794761D01*
X98368761Y-113937619D01*
X98273523Y-114032857D01*
X98178285Y-114080476D01*
X97987809Y-114128095D01*
X97844952Y-114128095D01*
X97654476Y-114080476D01*
X97559238Y-114032857D01*
X97464000Y-113937619D01*
X97416380Y-113794761D01*
X97416380Y-113699523D01*
X97464000Y-113556666D01*
X97511619Y-113509047D01*
X98416380Y-112604285D02*
X98416380Y-113080476D01*
X97416380Y-113080476D01*
X110094000Y-114701904D02*
X110046380Y-114797142D01*
X110046380Y-114940000D01*
X110094000Y-115082857D01*
X110189238Y-115178095D01*
X110284476Y-115225714D01*
X110474952Y-115273333D01*
X110617809Y-115273333D01*
X110808285Y-115225714D01*
X110903523Y-115178095D01*
X110998761Y-115082857D01*
X111046380Y-114940000D01*
X111046380Y-114844761D01*
X110998761Y-114701904D01*
X110951142Y-114654285D01*
X110617809Y-114654285D01*
X110617809Y-114844761D01*
X111046380Y-114225714D02*
X110046380Y-114225714D01*
X111046380Y-113654285D01*
X110046380Y-113654285D01*
X111046380Y-113178095D02*
X110046380Y-113178095D01*
X110046380Y-112940000D01*
X110094000Y-112797142D01*
X110189238Y-112701904D01*
X110284476Y-112654285D01*
X110474952Y-112606666D01*
X110617809Y-112606666D01*
X110808285Y-112654285D01*
X110903523Y-112701904D01*
X110998761Y-112797142D01*
X111046380Y-112940000D01*
X111046380Y-113178095D01*
X105550666Y-114604285D02*
X105550666Y-114128095D01*
X105836380Y-114699523D02*
X104836380Y-114366190D01*
X105836380Y-114032857D01*
X104836380Y-113509047D02*
X104836380Y-113413809D01*
X104884000Y-113318571D01*
X104931619Y-113270952D01*
X105026857Y-113223333D01*
X105217333Y-113175714D01*
X105455428Y-113175714D01*
X105645904Y-113223333D01*
X105741142Y-113270952D01*
X105788761Y-113318571D01*
X105836380Y-113413809D01*
X105836380Y-113509047D01*
X105788761Y-113604285D01*
X105741142Y-113651904D01*
X105645904Y-113699523D01*
X105455428Y-113747142D01*
X105217333Y-113747142D01*
X105026857Y-113699523D01*
X104931619Y-113651904D01*
X104884000Y-113604285D01*
X104836380Y-113509047D01*
X103170666Y-114814285D02*
X103170666Y-114338095D01*
X103456380Y-114909523D02*
X102456380Y-114576190D01*
X103456380Y-114242857D01*
X103456380Y-113385714D02*
X103456380Y-113957142D01*
X103456380Y-113671428D02*
X102456380Y-113671428D01*
X102599238Y-113766666D01*
X102694476Y-113861904D01*
X102742095Y-113957142D01*
X100898761Y-115154285D02*
X100946380Y-115011428D01*
X100946380Y-114773333D01*
X100898761Y-114678095D01*
X100851142Y-114630476D01*
X100755904Y-114582857D01*
X100660666Y-114582857D01*
X100565428Y-114630476D01*
X100517809Y-114678095D01*
X100470190Y-114773333D01*
X100422571Y-114963809D01*
X100374952Y-115059047D01*
X100327333Y-115106666D01*
X100232095Y-115154285D01*
X100136857Y-115154285D01*
X100041619Y-115106666D01*
X99994000Y-115059047D01*
X99946380Y-114963809D01*
X99946380Y-114725714D01*
X99994000Y-114582857D01*
X100946380Y-114154285D02*
X99946380Y-114154285D01*
X99946380Y-113916190D01*
X99994000Y-113773333D01*
X100089238Y-113678095D01*
X100184476Y-113630476D01*
X100374952Y-113582857D01*
X100517809Y-113582857D01*
X100708285Y-113630476D01*
X100803523Y-113678095D01*
X100898761Y-113773333D01*
X100946380Y-113916190D01*
X100946380Y-114154285D01*
X100660666Y-113201904D02*
X100660666Y-112725714D01*
X100946380Y-113297142D02*
X99946380Y-112963809D01*
X100946380Y-112630476D01*
X108436380Y-115361904D02*
X108436380Y-115933333D01*
X108436380Y-115647619D02*
X107436380Y-115647619D01*
X107579238Y-115742857D01*
X107674476Y-115838095D01*
X107722095Y-115933333D01*
X107436380Y-115028571D02*
X108436380Y-114790476D01*
X107722095Y-114600000D01*
X108436380Y-114409523D01*
X107436380Y-114171428D01*
X108436380Y-113790476D02*
X107769714Y-113790476D01*
X107436380Y-113790476D02*
X107484000Y-113838095D01*
X107531619Y-113790476D01*
X107484000Y-113742857D01*
X107436380Y-113790476D01*
X107531619Y-113790476D01*
X108436380Y-113314285D02*
X107769714Y-113314285D01*
X107960190Y-113314285D02*
X107864952Y-113266666D01*
X107817333Y-113219047D01*
X107769714Y-113123809D01*
X107769714Y-113028571D01*
X108388761Y-112314285D02*
X108436380Y-112409523D01*
X108436380Y-112600000D01*
X108388761Y-112695238D01*
X108293523Y-112742857D01*
X107912571Y-112742857D01*
X107817333Y-112695238D01*
X107769714Y-112600000D01*
X107769714Y-112409523D01*
X107817333Y-112314285D01*
X107912571Y-112266666D01*
X108007809Y-112266666D01*
X108103047Y-112742857D01*
X94786380Y-115403333D02*
X95786380Y-115070000D01*
X94786380Y-114736666D01*
X95691142Y-113831904D02*
X95738761Y-113879523D01*
X95786380Y-114022380D01*
X95786380Y-114117619D01*
X95738761Y-114260476D01*
X95643523Y-114355714D01*
X95548285Y-114403333D01*
X95357809Y-114450952D01*
X95214952Y-114450952D01*
X95024476Y-114403333D01*
X94929238Y-114355714D01*
X94834000Y-114260476D01*
X94786380Y-114117619D01*
X94786380Y-114022380D01*
X94834000Y-113879523D01*
X94881619Y-113831904D01*
X95691142Y-112831904D02*
X95738761Y-112879523D01*
X95786380Y-113022380D01*
X95786380Y-113117619D01*
X95738761Y-113260476D01*
X95643523Y-113355714D01*
X95548285Y-113403333D01*
X95357809Y-113450952D01*
X95214952Y-113450952D01*
X95024476Y-113403333D01*
X94929238Y-113355714D01*
X94834000Y-113260476D01*
X94786380Y-113117619D01*
X94786380Y-113022380D01*
X94834000Y-112879523D01*
X94881619Y-112831904D01*
%TO.C,R4*%
X147264380Y-71556476D02*
X147264380Y-72127904D01*
X147264380Y-71842190D02*
X146264380Y-71842190D01*
X146407238Y-71937428D01*
X146502476Y-72032666D01*
X146550095Y-72127904D01*
X146264380Y-70937428D02*
X146264380Y-70842190D01*
X146312000Y-70746952D01*
X146359619Y-70699333D01*
X146454857Y-70651714D01*
X146645333Y-70604095D01*
X146883428Y-70604095D01*
X147073904Y-70651714D01*
X147169142Y-70699333D01*
X147216761Y-70746952D01*
X147264380Y-70842190D01*
X147264380Y-70937428D01*
X147216761Y-71032666D01*
X147169142Y-71080285D01*
X147073904Y-71127904D01*
X146883428Y-71175523D01*
X146645333Y-71175523D01*
X146454857Y-71127904D01*
X146359619Y-71080285D01*
X146312000Y-71032666D01*
X146264380Y-70937428D01*
X147264380Y-70175523D02*
X146264380Y-70175523D01*
X147264380Y-69604095D02*
X146692952Y-70032666D01*
X146264380Y-69604095D02*
X146835809Y-70175523D01*
%TO.C,R7*%
X135358285Y-92241714D02*
X135358285Y-92908380D01*
X135120190Y-91860761D02*
X134882095Y-92575047D01*
X135501142Y-92575047D01*
X135786857Y-91908380D02*
X136453523Y-91908380D01*
X136024952Y-92908380D01*
X136834476Y-92908380D02*
X136834476Y-91908380D01*
X137405904Y-92908380D02*
X136977333Y-92336952D01*
X137405904Y-91908380D02*
X136834476Y-92479809D01*
%TO.C,R2*%
X142184380Y-58856476D02*
X142184380Y-59427904D01*
X142184380Y-59142190D02*
X141184380Y-59142190D01*
X141327238Y-59237428D01*
X141422476Y-59332666D01*
X141470095Y-59427904D01*
X141184380Y-58237428D02*
X141184380Y-58142190D01*
X141232000Y-58046952D01*
X141279619Y-57999333D01*
X141374857Y-57951714D01*
X141565333Y-57904095D01*
X141803428Y-57904095D01*
X141993904Y-57951714D01*
X142089142Y-57999333D01*
X142136761Y-58046952D01*
X142184380Y-58142190D01*
X142184380Y-58237428D01*
X142136761Y-58332666D01*
X142089142Y-58380285D01*
X141993904Y-58427904D01*
X141803428Y-58475523D01*
X141565333Y-58475523D01*
X141374857Y-58427904D01*
X141279619Y-58380285D01*
X141232000Y-58332666D01*
X141184380Y-58237428D01*
X142184380Y-57475523D02*
X141184380Y-57475523D01*
X142184380Y-56904095D02*
X141612952Y-57332666D01*
X141184380Y-56904095D02*
X141755809Y-57475523D01*
%TO.C,C2*%
X137025238Y-68619714D02*
X137025238Y-69286380D01*
X136787142Y-68238761D02*
X136549047Y-68953047D01*
X137168095Y-68953047D01*
X137549047Y-69191142D02*
X137596666Y-69238761D01*
X137549047Y-69286380D01*
X137501428Y-69238761D01*
X137549047Y-69191142D01*
X137549047Y-69286380D01*
X137930000Y-68286380D02*
X138596666Y-68286380D01*
X138168095Y-69286380D01*
X139406190Y-68619714D02*
X139406190Y-69286380D01*
X138977619Y-68619714D02*
X138977619Y-69143523D01*
X139025238Y-69238761D01*
X139120476Y-69286380D01*
X139263333Y-69286380D01*
X139358571Y-69238761D01*
X139406190Y-69191142D01*
X140215714Y-68762571D02*
X139882380Y-68762571D01*
X139882380Y-69286380D02*
X139882380Y-68286380D01*
X140358571Y-68286380D01*
%TO.C,U4*%
X54910666Y-114306285D02*
X54910666Y-113830095D01*
X55196380Y-114401523D02*
X54196380Y-114068190D01*
X55196380Y-113734857D01*
X55196380Y-112877714D02*
X55196380Y-113449142D01*
X55196380Y-113163428D02*
X54196380Y-113163428D01*
X54339238Y-113258666D01*
X54434476Y-113353904D01*
X54482095Y-113449142D01*
X57290666Y-114096285D02*
X57290666Y-113620095D01*
X57576380Y-114191523D02*
X56576380Y-113858190D01*
X57576380Y-113524857D01*
X56576380Y-113001047D02*
X56576380Y-112905809D01*
X56624000Y-112810571D01*
X56671619Y-112762952D01*
X56766857Y-112715333D01*
X56957333Y-112667714D01*
X57195428Y-112667714D01*
X57385904Y-112715333D01*
X57481142Y-112762952D01*
X57528761Y-112810571D01*
X57576380Y-112905809D01*
X57576380Y-113001047D01*
X57528761Y-113096285D01*
X57481142Y-113143904D01*
X57385904Y-113191523D01*
X57195428Y-113239142D01*
X56957333Y-113239142D01*
X56766857Y-113191523D01*
X56671619Y-113143904D01*
X56624000Y-113096285D01*
X56576380Y-113001047D01*
X50108761Y-114572476D02*
X50156380Y-114429619D01*
X50156380Y-114191523D01*
X50108761Y-114096285D01*
X50061142Y-114048666D01*
X49965904Y-114001047D01*
X49870666Y-114001047D01*
X49775428Y-114048666D01*
X49727809Y-114096285D01*
X49680190Y-114191523D01*
X49632571Y-114382000D01*
X49584952Y-114477238D01*
X49537333Y-114524857D01*
X49442095Y-114572476D01*
X49346857Y-114572476D01*
X49251619Y-114524857D01*
X49204000Y-114477238D01*
X49156380Y-114382000D01*
X49156380Y-114143904D01*
X49204000Y-114001047D01*
X50061142Y-113001047D02*
X50108761Y-113048666D01*
X50156380Y-113191523D01*
X50156380Y-113286761D01*
X50108761Y-113429619D01*
X50013523Y-113524857D01*
X49918285Y-113572476D01*
X49727809Y-113620095D01*
X49584952Y-113620095D01*
X49394476Y-113572476D01*
X49299238Y-113524857D01*
X49204000Y-113429619D01*
X49156380Y-113286761D01*
X49156380Y-113191523D01*
X49204000Y-113048666D01*
X49251619Y-113001047D01*
X50156380Y-112096285D02*
X50156380Y-112572476D01*
X49156380Y-112572476D01*
X60176380Y-114853904D02*
X60176380Y-115425333D01*
X60176380Y-115139619D02*
X59176380Y-115139619D01*
X59319238Y-115234857D01*
X59414476Y-115330095D01*
X59462095Y-115425333D01*
X59176380Y-114520571D02*
X60176380Y-114282476D01*
X59462095Y-114092000D01*
X60176380Y-113901523D01*
X59176380Y-113663428D01*
X60176380Y-113282476D02*
X59509714Y-113282476D01*
X59176380Y-113282476D02*
X59224000Y-113330095D01*
X59271619Y-113282476D01*
X59224000Y-113234857D01*
X59176380Y-113282476D01*
X59271619Y-113282476D01*
X60176380Y-112806285D02*
X59509714Y-112806285D01*
X59700190Y-112806285D02*
X59604952Y-112758666D01*
X59557333Y-112711047D01*
X59509714Y-112615809D01*
X59509714Y-112520571D01*
X60128761Y-111806285D02*
X60176380Y-111901523D01*
X60176380Y-112092000D01*
X60128761Y-112187238D01*
X60033523Y-112234857D01*
X59652571Y-112234857D01*
X59557333Y-112187238D01*
X59509714Y-112092000D01*
X59509714Y-111901523D01*
X59557333Y-111806285D01*
X59652571Y-111758666D01*
X59747809Y-111758666D01*
X59843047Y-112234857D01*
X52638761Y-114646285D02*
X52686380Y-114503428D01*
X52686380Y-114265333D01*
X52638761Y-114170095D01*
X52591142Y-114122476D01*
X52495904Y-114074857D01*
X52400666Y-114074857D01*
X52305428Y-114122476D01*
X52257809Y-114170095D01*
X52210190Y-114265333D01*
X52162571Y-114455809D01*
X52114952Y-114551047D01*
X52067333Y-114598666D01*
X51972095Y-114646285D01*
X51876857Y-114646285D01*
X51781619Y-114598666D01*
X51734000Y-114551047D01*
X51686380Y-114455809D01*
X51686380Y-114217714D01*
X51734000Y-114074857D01*
X52686380Y-113646285D02*
X51686380Y-113646285D01*
X51686380Y-113408190D01*
X51734000Y-113265333D01*
X51829238Y-113170095D01*
X51924476Y-113122476D01*
X52114952Y-113074857D01*
X52257809Y-113074857D01*
X52448285Y-113122476D01*
X52543523Y-113170095D01*
X52638761Y-113265333D01*
X52686380Y-113408190D01*
X52686380Y-113646285D01*
X52400666Y-112693904D02*
X52400666Y-112217714D01*
X52686380Y-112789142D02*
X51686380Y-112455809D01*
X52686380Y-112122476D01*
X61834000Y-114193904D02*
X61786380Y-114289142D01*
X61786380Y-114432000D01*
X61834000Y-114574857D01*
X61929238Y-114670095D01*
X62024476Y-114717714D01*
X62214952Y-114765333D01*
X62357809Y-114765333D01*
X62548285Y-114717714D01*
X62643523Y-114670095D01*
X62738761Y-114574857D01*
X62786380Y-114432000D01*
X62786380Y-114336761D01*
X62738761Y-114193904D01*
X62691142Y-114146285D01*
X62357809Y-114146285D01*
X62357809Y-114336761D01*
X62786380Y-113717714D02*
X61786380Y-113717714D01*
X62786380Y-113146285D01*
X61786380Y-113146285D01*
X62786380Y-112670095D02*
X61786380Y-112670095D01*
X61786380Y-112432000D01*
X61834000Y-112289142D01*
X61929238Y-112193904D01*
X62024476Y-112146285D01*
X62214952Y-112098666D01*
X62357809Y-112098666D01*
X62548285Y-112146285D01*
X62643523Y-112193904D01*
X62738761Y-112289142D01*
X62786380Y-112432000D01*
X62786380Y-112670095D01*
X46526380Y-114895333D02*
X47526380Y-114562000D01*
X46526380Y-114228666D01*
X47431142Y-113323904D02*
X47478761Y-113371523D01*
X47526380Y-113514380D01*
X47526380Y-113609619D01*
X47478761Y-113752476D01*
X47383523Y-113847714D01*
X47288285Y-113895333D01*
X47097809Y-113942952D01*
X46954952Y-113942952D01*
X46764476Y-113895333D01*
X46669238Y-113847714D01*
X46574000Y-113752476D01*
X46526380Y-113609619D01*
X46526380Y-113514380D01*
X46574000Y-113371523D01*
X46621619Y-113323904D01*
X47431142Y-112323904D02*
X47478761Y-112371523D01*
X47526380Y-112514380D01*
X47526380Y-112609619D01*
X47478761Y-112752476D01*
X47383523Y-112847714D01*
X47288285Y-112895333D01*
X47097809Y-112942952D01*
X46954952Y-112942952D01*
X46764476Y-112895333D01*
X46669238Y-112847714D01*
X46574000Y-112752476D01*
X46526380Y-112609619D01*
X46526380Y-112514380D01*
X46574000Y-112371523D01*
X46621619Y-112323904D01*
%TO.C,R9*%
X135104285Y-107735714D02*
X135104285Y-108402380D01*
X134866190Y-107354761D02*
X134628095Y-108069047D01*
X135247142Y-108069047D01*
X135532857Y-107402380D02*
X136199523Y-107402380D01*
X135770952Y-108402380D01*
X136580476Y-108402380D02*
X136580476Y-107402380D01*
X137151904Y-108402380D02*
X136723333Y-107830952D01*
X137151904Y-107402380D02*
X136580476Y-107973809D01*
%TO.C,U7*%
X74314380Y-115227333D02*
X75314380Y-114894000D01*
X74314380Y-114560666D01*
X75219142Y-113655904D02*
X75266761Y-113703523D01*
X75314380Y-113846380D01*
X75314380Y-113941619D01*
X75266761Y-114084476D01*
X75171523Y-114179714D01*
X75076285Y-114227333D01*
X74885809Y-114274952D01*
X74742952Y-114274952D01*
X74552476Y-114227333D01*
X74457238Y-114179714D01*
X74362000Y-114084476D01*
X74314380Y-113941619D01*
X74314380Y-113846380D01*
X74362000Y-113703523D01*
X74409619Y-113655904D01*
X75219142Y-112655904D02*
X75266761Y-112703523D01*
X75314380Y-112846380D01*
X75314380Y-112941619D01*
X75266761Y-113084476D01*
X75171523Y-113179714D01*
X75076285Y-113227333D01*
X74885809Y-113274952D01*
X74742952Y-113274952D01*
X74552476Y-113227333D01*
X74457238Y-113179714D01*
X74362000Y-113084476D01*
X74314380Y-112941619D01*
X74314380Y-112846380D01*
X74362000Y-112703523D01*
X74409619Y-112655904D01*
X85078666Y-114428285D02*
X85078666Y-113952095D01*
X85364380Y-114523523D02*
X84364380Y-114190190D01*
X85364380Y-113856857D01*
X84364380Y-113333047D02*
X84364380Y-113237809D01*
X84412000Y-113142571D01*
X84459619Y-113094952D01*
X84554857Y-113047333D01*
X84745333Y-112999714D01*
X84983428Y-112999714D01*
X85173904Y-113047333D01*
X85269142Y-113094952D01*
X85316761Y-113142571D01*
X85364380Y-113237809D01*
X85364380Y-113333047D01*
X85316761Y-113428285D01*
X85269142Y-113475904D01*
X85173904Y-113523523D01*
X84983428Y-113571142D01*
X84745333Y-113571142D01*
X84554857Y-113523523D01*
X84459619Y-113475904D01*
X84412000Y-113428285D01*
X84364380Y-113333047D01*
X77896761Y-114904476D02*
X77944380Y-114761619D01*
X77944380Y-114523523D01*
X77896761Y-114428285D01*
X77849142Y-114380666D01*
X77753904Y-114333047D01*
X77658666Y-114333047D01*
X77563428Y-114380666D01*
X77515809Y-114428285D01*
X77468190Y-114523523D01*
X77420571Y-114714000D01*
X77372952Y-114809238D01*
X77325333Y-114856857D01*
X77230095Y-114904476D01*
X77134857Y-114904476D01*
X77039619Y-114856857D01*
X76992000Y-114809238D01*
X76944380Y-114714000D01*
X76944380Y-114475904D01*
X76992000Y-114333047D01*
X77849142Y-113333047D02*
X77896761Y-113380666D01*
X77944380Y-113523523D01*
X77944380Y-113618761D01*
X77896761Y-113761619D01*
X77801523Y-113856857D01*
X77706285Y-113904476D01*
X77515809Y-113952095D01*
X77372952Y-113952095D01*
X77182476Y-113904476D01*
X77087238Y-113856857D01*
X76992000Y-113761619D01*
X76944380Y-113618761D01*
X76944380Y-113523523D01*
X76992000Y-113380666D01*
X77039619Y-113333047D01*
X77944380Y-112428285D02*
X77944380Y-112904476D01*
X76944380Y-112904476D01*
X89622000Y-114525904D02*
X89574380Y-114621142D01*
X89574380Y-114764000D01*
X89622000Y-114906857D01*
X89717238Y-115002095D01*
X89812476Y-115049714D01*
X90002952Y-115097333D01*
X90145809Y-115097333D01*
X90336285Y-115049714D01*
X90431523Y-115002095D01*
X90526761Y-114906857D01*
X90574380Y-114764000D01*
X90574380Y-114668761D01*
X90526761Y-114525904D01*
X90479142Y-114478285D01*
X90145809Y-114478285D01*
X90145809Y-114668761D01*
X90574380Y-114049714D02*
X89574380Y-114049714D01*
X90574380Y-113478285D01*
X89574380Y-113478285D01*
X90574380Y-113002095D02*
X89574380Y-113002095D01*
X89574380Y-112764000D01*
X89622000Y-112621142D01*
X89717238Y-112525904D01*
X89812476Y-112478285D01*
X90002952Y-112430666D01*
X90145809Y-112430666D01*
X90336285Y-112478285D01*
X90431523Y-112525904D01*
X90526761Y-112621142D01*
X90574380Y-112764000D01*
X90574380Y-113002095D01*
X80426761Y-114978285D02*
X80474380Y-114835428D01*
X80474380Y-114597333D01*
X80426761Y-114502095D01*
X80379142Y-114454476D01*
X80283904Y-114406857D01*
X80188666Y-114406857D01*
X80093428Y-114454476D01*
X80045809Y-114502095D01*
X79998190Y-114597333D01*
X79950571Y-114787809D01*
X79902952Y-114883047D01*
X79855333Y-114930666D01*
X79760095Y-114978285D01*
X79664857Y-114978285D01*
X79569619Y-114930666D01*
X79522000Y-114883047D01*
X79474380Y-114787809D01*
X79474380Y-114549714D01*
X79522000Y-114406857D01*
X80474380Y-113978285D02*
X79474380Y-113978285D01*
X79474380Y-113740190D01*
X79522000Y-113597333D01*
X79617238Y-113502095D01*
X79712476Y-113454476D01*
X79902952Y-113406857D01*
X80045809Y-113406857D01*
X80236285Y-113454476D01*
X80331523Y-113502095D01*
X80426761Y-113597333D01*
X80474380Y-113740190D01*
X80474380Y-113978285D01*
X80188666Y-113025904D02*
X80188666Y-112549714D01*
X80474380Y-113121142D02*
X79474380Y-112787809D01*
X80474380Y-112454476D01*
X82698666Y-114638285D02*
X82698666Y-114162095D01*
X82984380Y-114733523D02*
X81984380Y-114400190D01*
X82984380Y-114066857D01*
X82984380Y-113209714D02*
X82984380Y-113781142D01*
X82984380Y-113495428D02*
X81984380Y-113495428D01*
X82127238Y-113590666D01*
X82222476Y-113685904D01*
X82270095Y-113781142D01*
X87964380Y-115185904D02*
X87964380Y-115757333D01*
X87964380Y-115471619D02*
X86964380Y-115471619D01*
X87107238Y-115566857D01*
X87202476Y-115662095D01*
X87250095Y-115757333D01*
X86964380Y-114852571D02*
X87964380Y-114614476D01*
X87250095Y-114424000D01*
X87964380Y-114233523D01*
X86964380Y-113995428D01*
X87964380Y-113614476D02*
X87297714Y-113614476D01*
X86964380Y-113614476D02*
X87012000Y-113662095D01*
X87059619Y-113614476D01*
X87012000Y-113566857D01*
X86964380Y-113614476D01*
X87059619Y-113614476D01*
X87964380Y-113138285D02*
X87297714Y-113138285D01*
X87488190Y-113138285D02*
X87392952Y-113090666D01*
X87345333Y-113043047D01*
X87297714Y-112947809D01*
X87297714Y-112852571D01*
X87916761Y-112138285D02*
X87964380Y-112233523D01*
X87964380Y-112424000D01*
X87916761Y-112519238D01*
X87821523Y-112566857D01*
X87440571Y-112566857D01*
X87345333Y-112519238D01*
X87297714Y-112424000D01*
X87297714Y-112233523D01*
X87345333Y-112138285D01*
X87440571Y-112090666D01*
X87535809Y-112090666D01*
X87631047Y-112566857D01*
%TO.C,D2*%
X135628095Y-100528380D02*
X135628095Y-99528380D01*
X136199523Y-100528380D02*
X135770952Y-99956952D01*
X136199523Y-99528380D02*
X135628095Y-100099809D01*
%TO.C,R5*%
X142184380Y-70032476D02*
X142184380Y-70603904D01*
X142184380Y-70318190D02*
X141184380Y-70318190D01*
X141327238Y-70413428D01*
X141422476Y-70508666D01*
X141470095Y-70603904D01*
X141184380Y-69413428D02*
X141184380Y-69318190D01*
X141232000Y-69222952D01*
X141279619Y-69175333D01*
X141374857Y-69127714D01*
X141565333Y-69080095D01*
X141803428Y-69080095D01*
X141993904Y-69127714D01*
X142089142Y-69175333D01*
X142136761Y-69222952D01*
X142184380Y-69318190D01*
X142184380Y-69413428D01*
X142136761Y-69508666D01*
X142089142Y-69556285D01*
X141993904Y-69603904D01*
X141803428Y-69651523D01*
X141565333Y-69651523D01*
X141374857Y-69603904D01*
X141279619Y-69556285D01*
X141232000Y-69508666D01*
X141184380Y-69413428D01*
X142184380Y-68651523D02*
X141184380Y-68651523D01*
X142184380Y-68080095D02*
X141612952Y-68508666D01*
X141184380Y-68080095D02*
X141755809Y-68651523D01*
%TO.C,R3*%
X146926380Y-58856476D02*
X146926380Y-59427904D01*
X146926380Y-59142190D02*
X145926380Y-59142190D01*
X146069238Y-59237428D01*
X146164476Y-59332666D01*
X146212095Y-59427904D01*
X145926380Y-58237428D02*
X145926380Y-58142190D01*
X145974000Y-58046952D01*
X146021619Y-57999333D01*
X146116857Y-57951714D01*
X146307333Y-57904095D01*
X146545428Y-57904095D01*
X146735904Y-57951714D01*
X146831142Y-57999333D01*
X146878761Y-58046952D01*
X146926380Y-58142190D01*
X146926380Y-58237428D01*
X146878761Y-58332666D01*
X146831142Y-58380285D01*
X146735904Y-58427904D01*
X146545428Y-58475523D01*
X146307333Y-58475523D01*
X146116857Y-58427904D01*
X146021619Y-58380285D01*
X145974000Y-58332666D01*
X145926380Y-58237428D01*
X146926380Y-57475523D02*
X145926380Y-57475523D01*
X146926380Y-56904095D02*
X146354952Y-57332666D01*
X145926380Y-56904095D02*
X146497809Y-57475523D01*
D13*
%TO.C,JP1*%
X127762000Y-38294000D02*
X127762000Y-40954000D01*
X127762000Y-40954000D02*
X125162000Y-40954000D01*
X130362000Y-38294000D02*
X130362000Y-39624000D01*
X127762000Y-38294000D02*
X125162000Y-38294000D01*
X125162000Y-38294000D02*
X125162000Y-40954000D01*
X129032000Y-38294000D02*
X130362000Y-38294000D01*
%TO.C,R10*%
X96874000Y-46006000D02*
X94134000Y-46006000D01*
X95504000Y-53316000D02*
X95504000Y-52546000D01*
X95504000Y-45236000D02*
X95504000Y-46006000D01*
X94134000Y-46006000D02*
X94134000Y-52546000D01*
X96874000Y-52546000D02*
X96874000Y-46006000D01*
X94134000Y-52546000D02*
X96874000Y-52546000D01*
%TO.C,J2*%
X48576000Y-41876000D02*
X48518000Y-41817000D01*
X54852000Y-35326000D02*
X54852000Y-45446000D01*
X45732000Y-35326000D02*
X45732000Y-45446000D01*
X47232000Y-35086000D02*
X45492000Y-35086000D01*
X45492000Y-35086000D02*
X45492000Y-36586000D01*
X48816000Y-41706000D02*
X48723000Y-41612000D01*
X54852000Y-35326000D02*
X45732000Y-35326000D01*
X47292000Y-35326000D02*
X47292000Y-45446000D01*
X51067000Y-43956000D02*
X51008000Y-43897000D01*
X54852000Y-45446000D02*
X45732000Y-45446000D01*
X50861000Y-44161000D02*
X50768000Y-44067000D01*
X50581000Y-36402000D02*
G75*
G03*
X49002911Y-36402047I-789000J-1483995D01*
G01*
X48308000Y-37097000D02*
G75*
G03*
X48111550Y-37915383I1483995J-788998D01*
G01*
X48112000Y-37886000D02*
G75*
G03*
X48308648Y-38674712I1679991J-2D01*
G01*
X49003000Y-39370000D02*
G75*
G03*
X50581089Y-39369953I789000J1483995D01*
G01*
X51276000Y-38675000D02*
G75*
G03*
X51275953Y-37096911I-1483995J789000D01*
G01*
X53692000Y-37886000D02*
G75*
G03*
X53692000Y-37886000I-900000J0D01*
G01*
X53692000Y-42886000D02*
G75*
G03*
X53692000Y-42886000I-900000J0D01*
G01*
X51472000Y-42886000D02*
G75*
G03*
X51472000Y-42886000I-1680000J0D01*
G01*
%TO.C,J1*%
X44990500Y-138150000D02*
X44990500Y-141590000D01*
X44114500Y-126492000D02*
X44114500Y-127508000D01*
X61010500Y-122720000D02*
X44990500Y-122720000D01*
X44622500Y-127000000D02*
X44114500Y-126492000D01*
X44990500Y-122720000D02*
X44990500Y-134650000D01*
X44114500Y-127508000D02*
X44622500Y-127000000D01*
X61010500Y-141590000D02*
X44990500Y-141590000D01*
X61010500Y-122720000D02*
X61010500Y-134650000D01*
X61010500Y-138150000D02*
X61010500Y-141590000D01*
%TO.C,D4*%
X116819000Y-49296000D02*
X119909000Y-49296000D01*
X119908830Y-49296000D02*
G75*
G03*
X118363538Y-43746000I-1544830J2560000D01*
G01*
X118364462Y-43746000D02*
G75*
G03*
X116819170Y-49296000I-462J-2990000D01*
G01*
X120864000Y-46736000D02*
G75*
G03*
X120864000Y-46736000I-2500000J0D01*
G01*
%TO.C,C4*%
X139186000Y-77537380D02*
X140722000Y-77537380D01*
X136348000Y-79657380D02*
X138914000Y-79657380D01*
X136214000Y-79937380D02*
X138914000Y-79937380D01*
X140994000Y-78737380D02*
X142899000Y-78737380D01*
X135944000Y-80817380D02*
X143964000Y-80817380D01*
X140994000Y-79297380D02*
X143346000Y-79297380D01*
X140994000Y-79537380D02*
X143494000Y-79537380D01*
X136765000Y-79017380D02*
X138914000Y-79017380D01*
X140994000Y-79097380D02*
X143204000Y-79097380D01*
X140994000Y-79897380D02*
X143676000Y-79897380D01*
X135997000Y-80577380D02*
X138914000Y-80577380D01*
X136370000Y-79617380D02*
X138914000Y-79617380D01*
X136052000Y-80377380D02*
X138914000Y-80377380D01*
X140994000Y-78937380D02*
X143078000Y-78937380D01*
X140994000Y-79377380D02*
X143398000Y-79377380D01*
X140994000Y-78817380D02*
X142973000Y-78817380D01*
X140994000Y-79817380D02*
X143640000Y-79817380D01*
X135906000Y-81058380D02*
X144002000Y-81058380D01*
X135930000Y-80898380D02*
X143978000Y-80898380D01*
X135952000Y-80777380D02*
X143956000Y-80777380D01*
X136864000Y-78897380D02*
X138914000Y-78897380D01*
X136616000Y-79217380D02*
X138914000Y-79217380D01*
X137170000Y-78577380D02*
X142738000Y-78577380D01*
X140994000Y-78977380D02*
X143110000Y-78977380D01*
X135889000Y-81218380D02*
X144019000Y-81218380D01*
X136007000Y-80537380D02*
X138914000Y-80537380D01*
X137398000Y-78377380D02*
X142510000Y-78377380D01*
X138141000Y-77897380D02*
X141767000Y-77897380D01*
X138725000Y-77657380D02*
X141183000Y-77657380D01*
X135880000Y-81338380D02*
X144028000Y-81338380D01*
X137213000Y-78537380D02*
X142695000Y-78537380D01*
X136149000Y-80097380D02*
X138914000Y-80097380D01*
X140994000Y-78697380D02*
X142861000Y-78697380D01*
X137047000Y-78697380D02*
X138914000Y-78697380D01*
X140994000Y-80617380D02*
X143921000Y-80617380D01*
X140994000Y-80177380D02*
X143789000Y-80177380D01*
X140994000Y-79017380D02*
X143143000Y-79017380D01*
X136562000Y-79297380D02*
X138914000Y-79297380D01*
X135886000Y-81258380D02*
X144022000Y-81258380D01*
X135874000Y-81538380D02*
X144034000Y-81538380D01*
X135902000Y-81098380D02*
X144006000Y-81098380D01*
X138501000Y-77737380D02*
X141407000Y-77737380D01*
X136029000Y-80457380D02*
X138914000Y-80457380D01*
X135987000Y-80617380D02*
X138914000Y-80617380D01*
X140994000Y-80137380D02*
X143775000Y-80137380D01*
X135897000Y-81138380D02*
X144011000Y-81138380D01*
X135878000Y-81378380D02*
X144030000Y-81378380D01*
X136830000Y-78937380D02*
X138914000Y-78937380D01*
X136899000Y-78857380D02*
X138914000Y-78857380D01*
X140994000Y-80537380D02*
X143901000Y-80537380D01*
X140994000Y-79857380D02*
X143658000Y-79857380D01*
X137303000Y-78457380D02*
X142605000Y-78457380D01*
X137257000Y-78497380D02*
X142651000Y-78497380D01*
X136437000Y-79497380D02*
X138914000Y-79497380D01*
X136704000Y-79097380D02*
X138914000Y-79097380D01*
X140994000Y-79057380D02*
X143174000Y-79057380D01*
X136040000Y-80417380D02*
X138914000Y-80417380D01*
X137554000Y-78257380D02*
X142354000Y-78257380D01*
X140994000Y-80337380D02*
X143843000Y-80337380D01*
X140994000Y-78777380D02*
X142937000Y-78777380D01*
X136392000Y-79577380D02*
X138914000Y-79577380D01*
X140994000Y-78857380D02*
X143009000Y-78857380D01*
X136018000Y-80497380D02*
X138914000Y-80497380D01*
X136536000Y-79337380D02*
X138914000Y-79337380D01*
X137239000Y-85588078D02*
X138039000Y-85588078D01*
X140994000Y-80377380D02*
X143856000Y-80377380D01*
X140994000Y-79777380D02*
X143620000Y-79777380D01*
X136091000Y-80257380D02*
X138914000Y-80257380D01*
X140994000Y-79937380D02*
X143694000Y-79937380D01*
X137350000Y-78417380D02*
X142558000Y-78417380D01*
X137500000Y-78297380D02*
X142408000Y-78297380D01*
X140994000Y-79137380D02*
X143234000Y-79137380D01*
X136180000Y-80017380D02*
X138914000Y-80017380D01*
X135875000Y-81458380D02*
X144033000Y-81458380D01*
X140994000Y-79617380D02*
X143538000Y-79617380D01*
X138223000Y-77857380D02*
X141685000Y-77857380D01*
X137087000Y-78657380D02*
X138914000Y-78657380D01*
X136288000Y-79777380D02*
X138914000Y-79777380D01*
X137990000Y-77977380D02*
X141918000Y-77977380D01*
X140994000Y-79497380D02*
X143471000Y-79497380D01*
X135874000Y-81498380D02*
X144034000Y-81498380D01*
X136164000Y-80057380D02*
X138914000Y-80057380D01*
X137639000Y-85988078D02*
X137639000Y-85188078D01*
X135978000Y-80657380D02*
X138914000Y-80657380D01*
X137852000Y-78057380D02*
X142056000Y-78057380D01*
X140994000Y-78657380D02*
X142821000Y-78657380D01*
X136197000Y-79977380D02*
X138914000Y-79977380D01*
X135877000Y-81418380D02*
X144031000Y-81418380D01*
X140994000Y-80457380D02*
X143879000Y-80457380D01*
X137128000Y-78617380D02*
X142780000Y-78617380D01*
X135960000Y-80737380D02*
X143948000Y-80737380D01*
X135917000Y-80978380D02*
X143991000Y-80978380D01*
X137920000Y-78017380D02*
X141988000Y-78017380D01*
X136510000Y-79377380D02*
X138914000Y-79377380D01*
X136971000Y-78777380D02*
X138914000Y-78777380D01*
X136674000Y-79137380D02*
X138914000Y-79137380D01*
X136307000Y-79737380D02*
X138914000Y-79737380D01*
X136077000Y-80297380D02*
X138914000Y-80297380D01*
X140994000Y-80657380D02*
X143930000Y-80657380D01*
X140994000Y-79697380D02*
X143581000Y-79697380D01*
X135912000Y-81018380D02*
X143996000Y-81018380D01*
X140994000Y-79257380D02*
X143319000Y-79257380D01*
X136414000Y-79537380D02*
X138914000Y-79537380D01*
X138309000Y-77817380D02*
X141599000Y-77817380D01*
X136645000Y-79177380D02*
X138914000Y-79177380D01*
X135874000Y-81578380D02*
X144034000Y-81578380D01*
X136798000Y-78977380D02*
X138914000Y-78977380D01*
X136065000Y-80337380D02*
X138914000Y-80337380D01*
X136104000Y-80217380D02*
X138914000Y-80217380D01*
X136589000Y-79257380D02*
X138914000Y-79257380D01*
X140994000Y-79417380D02*
X143423000Y-79417380D01*
X137788000Y-78097380D02*
X142120000Y-78097380D01*
X140994000Y-79977380D02*
X143711000Y-79977380D01*
X138064000Y-77937380D02*
X141844000Y-77937380D01*
X136485000Y-79417380D02*
X138914000Y-79417380D01*
X140994000Y-79737380D02*
X143601000Y-79737380D01*
X140994000Y-80497380D02*
X143890000Y-80497380D01*
X140994000Y-78897380D02*
X143044000Y-78897380D01*
X139421000Y-77497380D02*
X140487000Y-77497380D01*
X140994000Y-79657380D02*
X143560000Y-79657380D01*
X138856000Y-77617380D02*
X141052000Y-77617380D01*
X137667000Y-78177380D02*
X142241000Y-78177380D01*
X138402000Y-77777380D02*
X141506000Y-77777380D01*
X140994000Y-79217380D02*
X143292000Y-79217380D01*
X135924000Y-80938380D02*
X143984000Y-80938380D01*
X140994000Y-80057380D02*
X143744000Y-80057380D01*
X136232000Y-79897380D02*
X138914000Y-79897380D01*
X135893000Y-81178380D02*
X144015000Y-81178380D01*
X136268000Y-79817380D02*
X138914000Y-79817380D01*
X136734000Y-79057380D02*
X138914000Y-79057380D01*
X140994000Y-80217380D02*
X143804000Y-80217380D01*
X135883000Y-81298380D02*
X144025000Y-81298380D01*
X136119000Y-80177380D02*
X138914000Y-80177380D01*
X136461000Y-79457380D02*
X138914000Y-79457380D01*
X137609000Y-78217380D02*
X142299000Y-78217380D01*
X137726000Y-78137380D02*
X142182000Y-78137380D01*
X140994000Y-79337380D02*
X143372000Y-79337380D01*
X140994000Y-80097380D02*
X143759000Y-80097380D01*
X136327000Y-79697380D02*
X138914000Y-79697380D01*
X140994000Y-79177380D02*
X143263000Y-79177380D01*
X139006000Y-77577380D02*
X140902000Y-77577380D01*
X140994000Y-80697380D02*
X143939000Y-80697380D01*
X135937000Y-80857380D02*
X143971000Y-80857380D01*
X136250000Y-79857380D02*
X138914000Y-79857380D01*
X140994000Y-80417380D02*
X143868000Y-80417380D01*
X136935000Y-78817380D02*
X138914000Y-78817380D01*
X135969000Y-80697380D02*
X138914000Y-80697380D01*
X140994000Y-80017380D02*
X143728000Y-80017380D01*
X138608000Y-77697380D02*
X141300000Y-77697380D01*
X140994000Y-80577380D02*
X143911000Y-80577380D01*
X140994000Y-79577380D02*
X143516000Y-79577380D01*
X137449000Y-78337380D02*
X142459000Y-78337380D01*
X140994000Y-79457380D02*
X143447000Y-79457380D01*
X137009000Y-78737380D02*
X138914000Y-78737380D01*
X140994000Y-80297380D02*
X143831000Y-80297380D01*
X140994000Y-80257380D02*
X143817000Y-80257380D01*
X136133000Y-80137380D02*
X138914000Y-80137380D01*
X144074000Y-81578380D02*
G75*
G03*
X144074000Y-81578380I-4120000J0D01*
G01*
%TO.C,U3*%
X63500000Y-82245200D02*
X58420000Y-82245200D01*
X86360000Y-64465200D02*
X86360000Y-82245200D01*
X58420000Y-64465200D02*
X63500000Y-64465200D01*
X83820000Y-64465200D02*
X86360000Y-64465200D01*
X86360000Y-82245200D02*
X83820000Y-82245200D01*
%TO.C,R8*%
X147034000Y-87276000D02*
X140494000Y-87276000D01*
X140494000Y-90016000D02*
X147034000Y-90016000D01*
X139724000Y-88646000D02*
X140494000Y-88646000D01*
X147804000Y-88646000D02*
X147034000Y-88646000D01*
X140494000Y-87276000D02*
X140494000Y-90016000D01*
X147034000Y-90016000D02*
X147034000Y-87276000D01*
%TO.C,C3*%
X148160000Y-80921600D02*
X148671000Y-80921600D01*
X145264000Y-82202600D02*
X146480000Y-82202600D01*
X146307000Y-80681600D02*
X148333000Y-80681600D01*
X145396000Y-81721600D02*
X146480000Y-81721600D01*
X145249000Y-82322600D02*
X146480000Y-82322600D01*
X145924000Y-80961600D02*
X146480000Y-80961600D01*
X148160000Y-82202600D02*
X149376000Y-82202600D01*
X148160000Y-81521600D02*
X149150000Y-81521600D01*
X145512000Y-81481600D02*
X146480000Y-81481600D01*
X145253000Y-82282600D02*
X146480000Y-82282600D01*
X148160000Y-81882600D02*
X149302000Y-81882600D01*
X146178000Y-80761600D02*
X146480000Y-80761600D01*
X145240000Y-82482600D02*
X149400000Y-82482600D01*
X148160000Y-81761600D02*
X149260000Y-81761600D01*
X145768000Y-81121600D02*
X146480000Y-81121600D01*
X148160000Y-81121600D02*
X148872000Y-81121600D01*
X145469000Y-81561600D02*
X146480000Y-81561600D01*
X148160000Y-81441600D02*
X149105000Y-81441600D01*
X145270000Y-82162600D02*
X146480000Y-82162600D01*
X145535000Y-81441600D02*
X146480000Y-81441600D01*
X145842000Y-81041600D02*
X146480000Y-81041600D01*
X148160000Y-82322600D02*
X149391000Y-82322600D01*
X148160000Y-81161600D02*
X148907000Y-81161600D01*
X148160000Y-80721600D02*
X148400000Y-80721600D01*
X145286000Y-82082600D02*
X146480000Y-82082600D01*
X145450000Y-81601600D02*
X146480000Y-81601600D01*
X145882000Y-81001600D02*
X146480000Y-81001600D01*
X148160000Y-82002600D02*
X149336000Y-82002600D01*
X148160000Y-81321600D02*
X149028000Y-81321600D01*
X146950000Y-80441600D02*
X147690000Y-80441600D01*
X146380000Y-80641600D02*
X148260000Y-80641600D01*
X145295000Y-82042600D02*
X146480000Y-82042600D01*
X148160000Y-82242600D02*
X149382000Y-82242600D01*
X145733000Y-81161600D02*
X146480000Y-81161600D01*
X145701000Y-81201600D02*
X146480000Y-81201600D01*
X145258000Y-82242600D02*
X146480000Y-82242600D01*
X145246000Y-82362600D02*
X149394000Y-82362600D01*
X148160000Y-81201600D02*
X148939000Y-81201600D01*
X148160000Y-80881600D02*
X148624000Y-80881600D01*
X148160000Y-80801600D02*
X148520000Y-80801600D01*
X146016000Y-80881600D02*
X146480000Y-80881600D01*
X146120000Y-80801600D02*
X146480000Y-80801600D01*
X145326000Y-81922600D02*
X146480000Y-81922600D01*
X148160000Y-81081600D02*
X148836000Y-81081600D01*
X148160000Y-81281600D02*
X149000000Y-81281600D01*
X145366000Y-81801600D02*
X146480000Y-81801600D01*
X148160000Y-81842600D02*
X149288000Y-81842600D01*
X146461000Y-80601600D02*
X148179000Y-80601600D01*
X145640000Y-81281600D02*
X146480000Y-81281600D01*
X148160000Y-80841600D02*
X148574000Y-80841600D01*
X145304000Y-82002600D02*
X146480000Y-82002600D01*
X145240000Y-82522600D02*
X149400000Y-82522600D01*
X148160000Y-81721600D02*
X149244000Y-81721600D01*
X145315000Y-81962600D02*
X146480000Y-81962600D01*
X148160000Y-82162600D02*
X149370000Y-82162600D01*
X146656000Y-80521600D02*
X147984000Y-80521600D01*
X148160000Y-81681600D02*
X149227000Y-81681600D01*
X145490000Y-81521600D02*
X146480000Y-81521600D01*
X148160000Y-81001600D02*
X148758000Y-81001600D01*
X148160000Y-81041600D02*
X148798000Y-81041600D01*
X148160000Y-80761600D02*
X148462000Y-80761600D01*
X146066000Y-80841600D02*
X146480000Y-80841600D01*
X145243000Y-82402600D02*
X149397000Y-82402600D01*
X148160000Y-81401600D02*
X149080000Y-81401600D01*
X145612000Y-81321600D02*
X146480000Y-81321600D01*
X145925000Y-84592401D02*
X146325000Y-84592401D01*
X145560000Y-81401600D02*
X146480000Y-81401600D01*
X148160000Y-80961600D02*
X148716000Y-80961600D01*
X148160000Y-81641600D02*
X149209000Y-81641600D01*
X145413000Y-81681600D02*
X146480000Y-81681600D01*
X145380000Y-81761600D02*
X146480000Y-81761600D01*
X146552000Y-80561600D02*
X148088000Y-80561600D01*
X148160000Y-82122600D02*
X149362000Y-82122600D01*
X145431000Y-81641600D02*
X146480000Y-81641600D01*
X146783000Y-80481600D02*
X147857000Y-80481600D01*
X145338000Y-81882600D02*
X146480000Y-81882600D01*
X148160000Y-81561600D02*
X149171000Y-81561600D01*
X148160000Y-81922600D02*
X149314000Y-81922600D01*
X148160000Y-81601600D02*
X149190000Y-81601600D01*
X145670000Y-81241600D02*
X146480000Y-81241600D01*
X148160000Y-81801600D02*
X149274000Y-81801600D01*
X145585000Y-81361600D02*
X146480000Y-81361600D01*
X148160000Y-81481600D02*
X149128000Y-81481600D01*
X145241000Y-82442600D02*
X149399000Y-82442600D01*
X148160000Y-82282600D02*
X149387000Y-82282600D01*
X146240000Y-80721600D02*
X146480000Y-80721600D01*
X146125000Y-84792401D02*
X146125000Y-84392401D01*
X145804000Y-81081600D02*
X146480000Y-81081600D01*
X145969000Y-80921600D02*
X146480000Y-80921600D01*
X148160000Y-82082600D02*
X149354000Y-82082600D01*
X148160000Y-81241600D02*
X148970000Y-81241600D01*
X148160000Y-81962600D02*
X149325000Y-81962600D01*
X148160000Y-82042600D02*
X149345000Y-82042600D01*
X145352000Y-81842600D02*
X146480000Y-81842600D01*
X145278000Y-82122600D02*
X146480000Y-82122600D01*
X148160000Y-81361600D02*
X149055000Y-81361600D01*
X149440000Y-82522600D02*
G75*
G03*
X149440000Y-82522600I-2120000J0D01*
G01*
%TO.C,D5*%
X128249000Y-49296000D02*
X131339000Y-49296000D01*
X129794462Y-43746000D02*
G75*
G03*
X128249170Y-49296000I-462J-2990000D01*
G01*
X131338830Y-49296000D02*
G75*
G03*
X129793538Y-43746000I-1544830J2560000D01*
G01*
X132294000Y-46736000D02*
G75*
G03*
X132294000Y-46736000I-2500000J0D01*
G01*
%TO.C,R6*%
X147034000Y-102516000D02*
X140494000Y-102516000D01*
X147034000Y-105256000D02*
X147034000Y-102516000D01*
X139724000Y-103886000D02*
X140494000Y-103886000D01*
X140494000Y-102516000D02*
X140494000Y-105256000D01*
X147804000Y-103886000D02*
X147034000Y-103886000D01*
X140494000Y-105256000D02*
X147034000Y-105256000D01*
%TO.C,U5*%
X157739000Y-43882000D02*
X167959000Y-43882000D01*
X156469000Y-46542000D02*
X155139000Y-46542000D01*
X167959000Y-46542000D02*
X167959000Y-43882000D01*
X157739000Y-46542000D02*
X157739000Y-43882000D01*
X155139000Y-46542000D02*
X155139000Y-45212000D01*
X157739000Y-46542000D02*
X167959000Y-46542000D01*
%TO.C,J10*%
X115199000Y-127345500D02*
X115707000Y-126837500D01*
X132095000Y-141427500D02*
X116075000Y-141427500D01*
X116075000Y-122557500D02*
X116075000Y-134487500D01*
X132095000Y-137987500D02*
X132095000Y-141427500D01*
X132095000Y-122557500D02*
X132095000Y-134487500D01*
X115199000Y-126329500D02*
X115199000Y-127345500D01*
X132095000Y-122557500D02*
X116075000Y-122557500D01*
X115707000Y-126837500D02*
X115199000Y-126329500D01*
X116075000Y-137987500D02*
X116075000Y-141427500D01*
%TO.C,D3*%
X146484000Y-97736000D02*
X146484000Y-94796000D01*
X145704000Y-97736000D02*
X145704000Y-94796000D01*
X141044000Y-94796000D02*
X141044000Y-97736000D01*
X146484000Y-94796000D02*
X141044000Y-94796000D01*
X147504000Y-96266000D02*
X146484000Y-96266000D01*
X145464000Y-97736000D02*
X145464000Y-94796000D01*
X145584000Y-97736000D02*
X145584000Y-94796000D01*
X140024000Y-96266000D02*
X141044000Y-96266000D01*
X141044000Y-97736000D02*
X146484000Y-97736000D01*
%TO.C,C1*%
X139938000Y-59577000D02*
X139524000Y-59577000D01*
X139879000Y-55626199D02*
X139879000Y-56026199D01*
X140162000Y-59377000D02*
X139524000Y-59377000D01*
X137844000Y-59417000D02*
X137246000Y-59417000D01*
X140758000Y-58056000D02*
X136610000Y-58056000D01*
X140122000Y-59417000D02*
X139524000Y-59417000D01*
X137844000Y-58737000D02*
X136777000Y-58737000D01*
X139764000Y-59697000D02*
X139524000Y-59697000D01*
X140638000Y-58617000D02*
X139524000Y-58617000D01*
X137844000Y-59537000D02*
X137380000Y-59537000D01*
X137844000Y-58777000D02*
X136795000Y-58777000D01*
X139624000Y-59777000D02*
X137744000Y-59777000D01*
X137844000Y-58576000D02*
X136716000Y-58576000D01*
X140666000Y-58536000D02*
X139524000Y-58536000D01*
X139452000Y-59857000D02*
X137916000Y-59857000D01*
X137844000Y-59697000D02*
X137604000Y-59697000D01*
X140740000Y-58216000D02*
X139524000Y-58216000D01*
X140591000Y-58737000D02*
X139524000Y-58737000D01*
X137844000Y-58897000D02*
X136854000Y-58897000D01*
X140469000Y-58977000D02*
X139524000Y-58977000D01*
X140700000Y-58416000D02*
X139524000Y-58416000D01*
X140709000Y-58376000D02*
X139524000Y-58376000D01*
X140624000Y-58657000D02*
X139524000Y-58657000D01*
X140334000Y-59177000D02*
X139524000Y-59177000D01*
X137844000Y-59097000D02*
X136976000Y-59097000D01*
X137844000Y-59217000D02*
X137065000Y-59217000D01*
X137844000Y-59577000D02*
X137430000Y-59577000D01*
X137844000Y-58136000D02*
X136617000Y-58136000D01*
X140303000Y-59217000D02*
X139524000Y-59217000D01*
X137844000Y-59337000D02*
X137168000Y-59337000D01*
X137844000Y-58256000D02*
X136634000Y-58256000D01*
X137844000Y-59657000D02*
X137542000Y-59657000D01*
X137844000Y-59617000D02*
X137484000Y-59617000D01*
X140079000Y-55826199D02*
X139679000Y-55826199D01*
X140080000Y-59457000D02*
X139524000Y-59457000D01*
X140764000Y-57896000D02*
X136604000Y-57896000D01*
X140200000Y-59337000D02*
X139524000Y-59337000D01*
X137844000Y-58296000D02*
X136642000Y-58296000D01*
X140236000Y-59297000D02*
X139524000Y-59297000D01*
X140678000Y-58496000D02*
X139524000Y-58496000D01*
X139826000Y-59657000D02*
X139524000Y-59657000D01*
X140444000Y-59017000D02*
X139524000Y-59017000D01*
X140364000Y-59137000D02*
X139524000Y-59137000D01*
X140573000Y-58777000D02*
X139524000Y-58777000D01*
X139697000Y-59737000D02*
X137671000Y-59737000D01*
X137844000Y-58416000D02*
X136668000Y-58416000D01*
X139543000Y-59817000D02*
X137825000Y-59817000D01*
X137844000Y-58336000D02*
X136650000Y-58336000D01*
X137844000Y-59497000D02*
X137333000Y-59497000D01*
X140652000Y-58576000D02*
X139524000Y-58576000D01*
X140746000Y-58176000D02*
X139524000Y-58176000D01*
X137844000Y-58937000D02*
X136876000Y-58937000D01*
X137844000Y-59457000D02*
X137288000Y-59457000D01*
X140492000Y-58937000D02*
X139524000Y-58937000D01*
X137844000Y-59137000D02*
X137004000Y-59137000D01*
X137844000Y-58857000D02*
X136833000Y-58857000D01*
X140689000Y-58456000D02*
X139524000Y-58456000D01*
X139884000Y-59617000D02*
X139524000Y-59617000D01*
X137844000Y-58216000D02*
X136628000Y-58216000D01*
X140764000Y-57936000D02*
X136604000Y-57936000D01*
X140763000Y-57976000D02*
X136605000Y-57976000D01*
X137844000Y-58536000D02*
X136702000Y-58536000D01*
X137844000Y-58176000D02*
X136622000Y-58176000D01*
X139348000Y-59897000D02*
X138020000Y-59897000D01*
X137844000Y-59297000D02*
X137132000Y-59297000D01*
X137844000Y-58697000D02*
X136760000Y-58697000D01*
X137844000Y-58096000D02*
X136613000Y-58096000D01*
X137844000Y-58617000D02*
X136730000Y-58617000D01*
X140734000Y-58256000D02*
X139524000Y-58256000D01*
X140419000Y-59057000D02*
X139524000Y-59057000D01*
X140035000Y-59497000D02*
X139524000Y-59497000D01*
X137844000Y-58657000D02*
X136744000Y-58657000D01*
X139988000Y-59537000D02*
X139524000Y-59537000D01*
X140755000Y-58096000D02*
X139524000Y-58096000D01*
X140751000Y-58136000D02*
X139524000Y-58136000D01*
X137844000Y-59017000D02*
X136924000Y-59017000D01*
X137844000Y-59177000D02*
X137034000Y-59177000D01*
X137844000Y-58456000D02*
X136679000Y-58456000D01*
X137844000Y-59057000D02*
X136949000Y-59057000D01*
X140535000Y-58857000D02*
X139524000Y-58857000D01*
X140761000Y-58016000D02*
X136607000Y-58016000D01*
X137844000Y-58817000D02*
X136814000Y-58817000D01*
X137844000Y-58977000D02*
X136899000Y-58977000D01*
X140608000Y-58697000D02*
X139524000Y-58697000D01*
X137844000Y-59257000D02*
X137097000Y-59257000D01*
X140514000Y-58897000D02*
X139524000Y-58897000D01*
X139221000Y-59937000D02*
X138147000Y-59937000D01*
X137844000Y-59377000D02*
X137206000Y-59377000D01*
X137844000Y-58376000D02*
X136659000Y-58376000D01*
X140726000Y-58296000D02*
X139524000Y-58296000D01*
X137844000Y-58496000D02*
X136690000Y-58496000D01*
X140718000Y-58336000D02*
X139524000Y-58336000D01*
X139054000Y-59977000D02*
X138314000Y-59977000D01*
X140271000Y-59257000D02*
X139524000Y-59257000D01*
X140392000Y-59097000D02*
X139524000Y-59097000D01*
X140554000Y-58817000D02*
X139524000Y-58817000D01*
X140804000Y-57896000D02*
G75*
G03*
X140804000Y-57896000I-2120000J0D01*
G01*
%TO.C,J9*%
X97419000Y-127345500D02*
X97927000Y-126837500D01*
X114315000Y-122557500D02*
X114315000Y-134487500D01*
X114315000Y-122557500D02*
X98295000Y-122557500D01*
X114315000Y-141427500D02*
X98295000Y-141427500D01*
X97419000Y-126329500D02*
X97419000Y-127345500D01*
X98295000Y-137987500D02*
X98295000Y-141427500D01*
X97927000Y-126837500D02*
X97419000Y-126329500D01*
X98295000Y-122557500D02*
X98295000Y-134487500D01*
X114315000Y-137987500D02*
X114315000Y-141427500D01*
%TO.C,R1*%
X90832000Y-46006000D02*
X90832000Y-52546000D01*
X93572000Y-52546000D02*
X93572000Y-46006000D01*
X90832000Y-52546000D02*
X93572000Y-52546000D01*
X92202000Y-53316000D02*
X92202000Y-52546000D01*
X93572000Y-46006000D02*
X90832000Y-46006000D01*
X92202000Y-45236000D02*
X92202000Y-46006000D01*
%TO.C,D1*%
X105389000Y-49296000D02*
X108479000Y-49296000D01*
X108478830Y-49296000D02*
G75*
G03*
X106933538Y-43746000I-1544830J2560000D01*
G01*
X106934462Y-43746000D02*
G75*
G03*
X105389170Y-49296000I-462J-2990000D01*
G01*
X109434000Y-46736000D02*
G75*
G03*
X109434000Y-46736000I-2500000J0D01*
G01*
%TO.C,R12*%
X79534000Y-41810000D02*
X79534000Y-44550000D01*
X86844000Y-43180000D02*
X86074000Y-43180000D01*
X86074000Y-41810000D02*
X79534000Y-41810000D01*
X86074000Y-44550000D02*
X86074000Y-41810000D01*
X79534000Y-44550000D02*
X86074000Y-44550000D01*
X78764000Y-43180000D02*
X79534000Y-43180000D01*
%TO.C,U8*%
X116831600Y-60676000D02*
X116831600Y-59406000D01*
X116831600Y-87346000D02*
X116831600Y-86076000D01*
X132071600Y-87346000D02*
X116831600Y-87346000D01*
X132071600Y-59406000D02*
X132071600Y-87346000D01*
X116831600Y-59406000D02*
X132071600Y-59406000D01*
%TO.C,U1*%
X59944000Y-44196000D02*
X59944000Y-51816000D01*
X59944000Y-56896000D02*
X59944000Y-58166000D01*
X59944000Y-35306000D02*
X59944000Y-36576000D01*
X59944000Y-39116000D02*
X59944000Y-41656000D01*
%TO.C,R13*%
X134644000Y-39624000D02*
X135414000Y-39624000D01*
X141954000Y-38254000D02*
X135414000Y-38254000D01*
X135414000Y-40994000D02*
X141954000Y-40994000D01*
X135414000Y-38254000D02*
X135414000Y-40994000D01*
X141954000Y-40994000D02*
X141954000Y-38254000D01*
X142724000Y-39624000D02*
X141954000Y-39624000D01*
%TO.C,U9*%
X110744000Y-87295200D02*
X95504000Y-87295200D01*
X95504000Y-59355200D02*
X110744000Y-59355200D01*
X95504000Y-60625200D02*
X95504000Y-59355200D01*
X95504000Y-87295200D02*
X95504000Y-86025200D01*
X110744000Y-59355200D02*
X110744000Y-87295200D01*
%TO.C,U11*%
X113944000Y-90600000D02*
X132994000Y-90600000D01*
X113944000Y-110920000D02*
X113944000Y-90600000D01*
X132994000Y-90600000D02*
X132994000Y-110920000D01*
%TO.C,U10*%
X93624000Y-90600000D02*
X112674000Y-90600000D01*
X112674000Y-90600000D02*
X112674000Y-110920000D01*
X93624000Y-110920000D02*
X93624000Y-90600000D01*
%TO.C,R4*%
X150214000Y-67596000D02*
X147474000Y-67596000D01*
X147474000Y-67596000D02*
X147474000Y-74136000D01*
X147474000Y-74136000D02*
X150214000Y-74136000D01*
X150214000Y-74136000D02*
X150214000Y-67596000D01*
X148844000Y-74906000D02*
X148844000Y-74136000D01*
X148844000Y-66826000D02*
X148844000Y-67596000D01*
%TO.C,J11*%
X133855000Y-122557500D02*
X133855000Y-134487500D01*
X149875000Y-122557500D02*
X149875000Y-134487500D01*
X132979000Y-127345500D02*
X133487000Y-126837500D01*
X149875000Y-122557500D02*
X133855000Y-122557500D01*
X149875000Y-137987500D02*
X149875000Y-141427500D01*
X133855000Y-137987500D02*
X133855000Y-141427500D01*
X132979000Y-126329500D02*
X132979000Y-127345500D01*
X133487000Y-126837500D02*
X132979000Y-126329500D01*
X149875000Y-141427500D02*
X133855000Y-141427500D01*
%TO.C,R7*%
X147804000Y-92456000D02*
X147034000Y-92456000D01*
X147034000Y-93826000D02*
X147034000Y-91086000D01*
X147034000Y-91086000D02*
X140494000Y-91086000D01*
X140494000Y-91086000D02*
X140494000Y-93826000D01*
X139724000Y-92456000D02*
X140494000Y-92456000D01*
X140494000Y-93826000D02*
X147034000Y-93826000D01*
%TO.C,R2*%
X145134000Y-61436000D02*
X145134000Y-54896000D01*
X145134000Y-54896000D02*
X142394000Y-54896000D01*
X142394000Y-54896000D02*
X142394000Y-61436000D01*
X143764000Y-54126000D02*
X143764000Y-54896000D01*
X143764000Y-62206000D02*
X143764000Y-61436000D01*
X142394000Y-61436000D02*
X145134000Y-61436000D01*
%TO.C,J4*%
X94294000Y-40446000D02*
X94294000Y-35246000D01*
X71374000Y-40446000D02*
X71374000Y-37846000D01*
X68774000Y-37846000D02*
X68774000Y-35246000D01*
X68774000Y-35246000D02*
X94294000Y-35246000D01*
X70104000Y-40446000D02*
X68774000Y-40446000D01*
X68774000Y-40446000D02*
X68774000Y-39116000D01*
X71374000Y-40446000D02*
X94294000Y-40446000D01*
X71374000Y-37846000D02*
X68774000Y-37846000D01*
%TO.C,C2*%
X140162000Y-73347000D02*
X139524000Y-73347000D01*
X140392000Y-73067000D02*
X139524000Y-73067000D01*
X140700000Y-72386000D02*
X139524000Y-72386000D01*
X140122000Y-73387000D02*
X139524000Y-73387000D01*
X137844000Y-72266000D02*
X136642000Y-72266000D01*
X137844000Y-73027000D02*
X136949000Y-73027000D01*
X140751000Y-72106000D02*
X139524000Y-72106000D01*
X137844000Y-72146000D02*
X136622000Y-72146000D01*
X137844000Y-73467000D02*
X137333000Y-73467000D01*
X140764000Y-71906000D02*
X136604000Y-71906000D01*
X137844000Y-73347000D02*
X137206000Y-73347000D01*
X137844000Y-72506000D02*
X136702000Y-72506000D01*
X140079000Y-69796199D02*
X139679000Y-69796199D01*
X139988000Y-73507000D02*
X139524000Y-73507000D01*
X139938000Y-73547000D02*
X139524000Y-73547000D01*
X140364000Y-73107000D02*
X139524000Y-73107000D01*
X137844000Y-72867000D02*
X136854000Y-72867000D01*
X139764000Y-73667000D02*
X139524000Y-73667000D01*
X137844000Y-72667000D02*
X136760000Y-72667000D01*
X140271000Y-73227000D02*
X139524000Y-73227000D01*
X140763000Y-71946000D02*
X136605000Y-71946000D01*
X139884000Y-73587000D02*
X139524000Y-73587000D01*
X140080000Y-73427000D02*
X139524000Y-73427000D01*
X137844000Y-73107000D02*
X137004000Y-73107000D01*
X137844000Y-72426000D02*
X136679000Y-72426000D01*
X137844000Y-73307000D02*
X137168000Y-73307000D01*
X140624000Y-72627000D02*
X139524000Y-72627000D01*
X137844000Y-73147000D02*
X137034000Y-73147000D01*
X137844000Y-73067000D02*
X136976000Y-73067000D01*
X139826000Y-73627000D02*
X139524000Y-73627000D01*
X137844000Y-73507000D02*
X137380000Y-73507000D01*
X139054000Y-73947000D02*
X138314000Y-73947000D01*
X137844000Y-72947000D02*
X136899000Y-72947000D01*
X137844000Y-72066000D02*
X136613000Y-72066000D01*
X139879000Y-69596199D02*
X139879000Y-69996199D01*
X140573000Y-72747000D02*
X139524000Y-72747000D01*
X140689000Y-72426000D02*
X139524000Y-72426000D01*
X140638000Y-72587000D02*
X139524000Y-72587000D01*
X137844000Y-72827000D02*
X136833000Y-72827000D01*
X140554000Y-72787000D02*
X139524000Y-72787000D01*
X139221000Y-73907000D02*
X138147000Y-73907000D01*
X137844000Y-72587000D02*
X136730000Y-72587000D01*
X137844000Y-72747000D02*
X136795000Y-72747000D01*
X137844000Y-72226000D02*
X136634000Y-72226000D01*
X137844000Y-72186000D02*
X136628000Y-72186000D01*
X137844000Y-72346000D02*
X136659000Y-72346000D01*
X140678000Y-72466000D02*
X139524000Y-72466000D01*
X140761000Y-71986000D02*
X136607000Y-71986000D01*
X140035000Y-73467000D02*
X139524000Y-73467000D01*
X140236000Y-73267000D02*
X139524000Y-73267000D01*
X137844000Y-72386000D02*
X136668000Y-72386000D01*
X140740000Y-72186000D02*
X139524000Y-72186000D01*
X140514000Y-72867000D02*
X139524000Y-72867000D01*
X140666000Y-72506000D02*
X139524000Y-72506000D01*
X140200000Y-73307000D02*
X139524000Y-73307000D01*
X137844000Y-72987000D02*
X136924000Y-72987000D01*
X139452000Y-73827000D02*
X137916000Y-73827000D01*
X140535000Y-72827000D02*
X139524000Y-72827000D01*
X137844000Y-73187000D02*
X137065000Y-73187000D01*
X140726000Y-72266000D02*
X139524000Y-72266000D01*
X140652000Y-72546000D02*
X139524000Y-72546000D01*
X137844000Y-73667000D02*
X137604000Y-73667000D01*
X137844000Y-73627000D02*
X137542000Y-73627000D01*
X140764000Y-71866000D02*
X136604000Y-71866000D01*
X140334000Y-73147000D02*
X139524000Y-73147000D01*
X137844000Y-73267000D02*
X137132000Y-73267000D01*
X137844000Y-72546000D02*
X136716000Y-72546000D01*
X137844000Y-72627000D02*
X136744000Y-72627000D01*
X140303000Y-73187000D02*
X139524000Y-73187000D01*
X140746000Y-72146000D02*
X139524000Y-72146000D01*
X137844000Y-73547000D02*
X137430000Y-73547000D01*
X137844000Y-73227000D02*
X137097000Y-73227000D01*
X140709000Y-72346000D02*
X139524000Y-72346000D01*
X137844000Y-73387000D02*
X137246000Y-73387000D01*
X139543000Y-73787000D02*
X137825000Y-73787000D01*
X137844000Y-72707000D02*
X136777000Y-72707000D01*
X140444000Y-72987000D02*
X139524000Y-72987000D01*
X140469000Y-72947000D02*
X139524000Y-72947000D01*
X139697000Y-73707000D02*
X137671000Y-73707000D01*
X139624000Y-73747000D02*
X137744000Y-73747000D01*
X140758000Y-72026000D02*
X136610000Y-72026000D01*
X140591000Y-72707000D02*
X139524000Y-72707000D01*
X137844000Y-72907000D02*
X136876000Y-72907000D01*
X140492000Y-72907000D02*
X139524000Y-72907000D01*
X137844000Y-72787000D02*
X136814000Y-72787000D01*
X140734000Y-72226000D02*
X139524000Y-72226000D01*
X137844000Y-73587000D02*
X137484000Y-73587000D01*
X140755000Y-72066000D02*
X139524000Y-72066000D01*
X137844000Y-72466000D02*
X136690000Y-72466000D01*
X140419000Y-73027000D02*
X139524000Y-73027000D01*
X137844000Y-72106000D02*
X136617000Y-72106000D01*
X140608000Y-72667000D02*
X139524000Y-72667000D01*
X137844000Y-72306000D02*
X136650000Y-72306000D01*
X140718000Y-72306000D02*
X139524000Y-72306000D01*
X139348000Y-73867000D02*
X138020000Y-73867000D01*
X137844000Y-73427000D02*
X137288000Y-73427000D01*
X140804000Y-71866000D02*
G75*
G03*
X140804000Y-71866000I-2120000J0D01*
G01*
%TO.C,U4*%
X45364000Y-110412000D02*
X45364000Y-90092000D01*
X64414000Y-90092000D02*
X64414000Y-110412000D01*
X45364000Y-90092000D02*
X64414000Y-90092000D01*
%TO.C,J6*%
X156469000Y-41970000D02*
X155139000Y-41970000D01*
X157739000Y-41970000D02*
X167959000Y-41970000D01*
X157739000Y-39310000D02*
X167959000Y-39310000D01*
X157739000Y-41970000D02*
X157739000Y-39310000D01*
X155139000Y-41970000D02*
X155139000Y-40640000D01*
X167959000Y-41970000D02*
X167959000Y-39310000D01*
%TO.C,R9*%
X147034000Y-106326000D02*
X140494000Y-106326000D01*
X147034000Y-109066000D02*
X147034000Y-106326000D01*
X140494000Y-106326000D02*
X140494000Y-109066000D01*
X139724000Y-107696000D02*
X140494000Y-107696000D01*
X140494000Y-109066000D02*
X147034000Y-109066000D01*
X147804000Y-107696000D02*
X147034000Y-107696000D01*
%TO.C,U7*%
X73152000Y-90424000D02*
X92202000Y-90424000D01*
X73152000Y-110744000D02*
X73152000Y-90424000D01*
X92202000Y-90424000D02*
X92202000Y-110744000D01*
%TO.C,J7*%
X46173000Y-86161000D02*
X46173000Y-60641000D01*
X51373000Y-84831000D02*
X51373000Y-86161000D01*
X51373000Y-86161000D02*
X50043000Y-86161000D01*
X48773000Y-83561000D02*
X48773000Y-86161000D01*
X48773000Y-86161000D02*
X46173000Y-86161000D01*
X51373000Y-83561000D02*
X51373000Y-60641000D01*
X51373000Y-60641000D02*
X46173000Y-60641000D01*
X51373000Y-83561000D02*
X48773000Y-83561000D01*
%TO.C,J3*%
X51361000Y-55297000D02*
X51268000Y-55203000D01*
X51567000Y-55092000D02*
X51508000Y-55033000D01*
X47792000Y-46462000D02*
X47792000Y-56582000D01*
X49316000Y-52842000D02*
X49223000Y-52748000D01*
X45992000Y-46222000D02*
X45992000Y-47722000D01*
X47732000Y-46222000D02*
X45992000Y-46222000D01*
X55352000Y-46462000D02*
X46232000Y-46462000D01*
X55352000Y-46462000D02*
X55352000Y-56582000D01*
X46232000Y-46462000D02*
X46232000Y-56582000D01*
X49076000Y-53012000D02*
X49018000Y-52953000D01*
X55352000Y-56582000D02*
X46232000Y-56582000D01*
X48808000Y-48233000D02*
G75*
G03*
X48611550Y-49051383I1483995J-788998D01*
G01*
X48612000Y-49022000D02*
G75*
G03*
X48808648Y-49810712I1679991J-2D01*
G01*
X49503000Y-50506000D02*
G75*
G03*
X51081089Y-50505953I789000J1483995D01*
G01*
X51081000Y-47538000D02*
G75*
G03*
X49502911Y-47538047I-789000J-1483995D01*
G01*
X51776000Y-49811000D02*
G75*
G03*
X51775953Y-48232911I-1483995J789000D01*
G01*
X54192000Y-54022000D02*
G75*
G03*
X54192000Y-54022000I-900000J0D01*
G01*
X51972000Y-54022000D02*
G75*
G03*
X51972000Y-54022000I-1680000J0D01*
G01*
X54192000Y-49022000D02*
G75*
G03*
X54192000Y-49022000I-900000J0D01*
G01*
%TO.C,R11*%
X98806000Y-45236000D02*
X98806000Y-46006000D01*
X98806000Y-53316000D02*
X98806000Y-52546000D01*
X97436000Y-46006000D02*
X97436000Y-52546000D01*
X100176000Y-46006000D02*
X97436000Y-46006000D01*
X100176000Y-52546000D02*
X100176000Y-46006000D01*
X97436000Y-52546000D02*
X100176000Y-52546000D01*
%TO.C,J5*%
X78755000Y-122557500D02*
X78755000Y-134487500D01*
X61859000Y-127345500D02*
X62367000Y-126837500D01*
X78755000Y-122557500D02*
X62735000Y-122557500D01*
X62735000Y-137987500D02*
X62735000Y-141427500D01*
X61859000Y-126329500D02*
X61859000Y-127345500D01*
X62367000Y-126837500D02*
X61859000Y-126329500D01*
X62735000Y-122557500D02*
X62735000Y-134487500D01*
X78755000Y-137987500D02*
X78755000Y-141427500D01*
X78755000Y-141427500D02*
X62735000Y-141427500D01*
%TO.C,D2*%
X142064000Y-98606000D02*
X142064000Y-101546000D01*
X141044000Y-98606000D02*
X141044000Y-101546000D01*
X147504000Y-100076000D02*
X146484000Y-100076000D01*
X140024000Y-100076000D02*
X141044000Y-100076000D01*
X141944000Y-98606000D02*
X141944000Y-101546000D01*
X146484000Y-98606000D02*
X141044000Y-98606000D01*
X141044000Y-101546000D02*
X146484000Y-101546000D01*
X141824000Y-98606000D02*
X141824000Y-101546000D01*
X146484000Y-101546000D02*
X146484000Y-98606000D01*
%TO.C,J8*%
X96535000Y-122557500D02*
X80515000Y-122557500D01*
X96535000Y-122557500D02*
X96535000Y-134487500D01*
X79639000Y-127345500D02*
X80147000Y-126837500D01*
X79639000Y-126329500D02*
X79639000Y-127345500D01*
X96535000Y-137987500D02*
X96535000Y-141427500D01*
X96535000Y-141427500D02*
X80515000Y-141427500D01*
X80515000Y-122557500D02*
X80515000Y-134487500D01*
X80515000Y-137987500D02*
X80515000Y-141427500D01*
X80147000Y-126837500D02*
X79639000Y-126329500D01*
%TO.C,U6*%
X66272000Y-56820000D02*
X69872000Y-56820000D01*
X65747816Y-56092795D02*
G75*
G03*
X66272000Y-56820000I2324175J1122789D01*
G01*
X68072000Y-52370000D02*
G75*
G03*
X65715600Y-53871193I2J-2600002D01*
G01*
X70428400Y-53871193D02*
G75*
G03*
X68072000Y-52370000I-2356399J-1098804D01*
G01*
X69872000Y-56820000D02*
G75*
G03*
X70396184Y-56092795I-1799991J1849994D01*
G01*
%TO.C,R5*%
X142394000Y-74136000D02*
X145134000Y-74136000D01*
X143764000Y-74906000D02*
X143764000Y-74136000D01*
X142394000Y-67596000D02*
X142394000Y-74136000D01*
X145134000Y-67596000D02*
X142394000Y-67596000D01*
X145134000Y-74136000D02*
X145134000Y-67596000D01*
X143764000Y-66826000D02*
X143764000Y-67596000D01*
%TO.C,R3*%
X147474000Y-61436000D02*
X150214000Y-61436000D01*
X147474000Y-54896000D02*
X147474000Y-61436000D01*
X150214000Y-61436000D02*
X150214000Y-54896000D01*
X150214000Y-54896000D02*
X147474000Y-54896000D01*
X148844000Y-62206000D02*
X148844000Y-61436000D01*
X148844000Y-54126000D02*
X148844000Y-54896000D01*
%TD*%
M02*
