%TF.GenerationSoftware,KiCad,Pcbnew,6.0.2-378541a8eb~116~ubuntu20.04.1*%
%TF.CreationDate,2022-03-11T14:48:04+02:00*%
%TF.ProjectId,ha-pcb,68612d70-6362-42e6-9b69-6361645f7063,4*%
%TF.SameCoordinates,Original*%
%TF.FileFunction,Soldermask,Top*%
%TF.FilePolarity,Negative*%
%FSLAX46Y46*%
G04 Gerber Fmt 4.6, Leading zero omitted, Abs format (unit mm)*
G04 Created by KiCad (PCBNEW 6.0.2-378541a8eb~116~ubuntu20.04.1) date 2022-03-11 14:48:04*
%MOMM*%
%LPD*%
G01*
G04 APERTURE LIST*
G04 Aperture macros list*
%AMRoundRect*
0 Rectangle with rounded corners*
0 $1 Rounding radius*
0 $2 $3 $4 $5 $6 $7 $8 $9 X,Y pos of 4 corners*
0 Add a 4 corners polygon primitive as box body*
4,1,4,$2,$3,$4,$5,$6,$7,$8,$9,$2,$3,0*
0 Add four circle primitives for the rounded corners*
1,1,$1+$1,$2,$3*
1,1,$1+$1,$4,$5*
1,1,$1+$1,$6,$7*
1,1,$1+$1,$8,$9*
0 Add four rect primitives between the rounded corners*
20,1,$1+$1,$2,$3,$4,$5,0*
20,1,$1+$1,$4,$5,$6,$7,0*
20,1,$1+$1,$6,$7,$8,$9,0*
20,1,$1+$1,$8,$9,$2,$3,0*%
G04 Aperture macros list end*
%ADD10C,0.100000*%
%ADD11C,0.150000*%
%ADD12C,0.300000*%
%ADD13C,0.400000*%
%TA.AperFunction,Profile*%
%ADD14C,0.100000*%
%TD*%
%ADD15RoundRect,0.050000X-0.850000X0.850000X-0.850000X-0.850000X0.850000X-0.850000X0.850000X0.850000X0*%
%ADD16O,1.800000X1.800000*%
%ADD17C,1.700000*%
%ADD18O,1.700000X1.700000*%
%ADD19RoundRect,0.050000X-1.250000X1.250000X-1.250000X-1.250000X1.250000X-1.250000X1.250000X1.250000X0*%
%ADD20C,2.600000*%
%ADD21C,3.350000*%
%ADD22RoundRect,0.050000X0.750000X0.750000X-0.750000X0.750000X-0.750000X-0.750000X0.750000X-0.750000X0*%
%ADD23C,1.600000*%
%ADD24O,1.600000X2.300000*%
%ADD25RoundRect,0.050000X0.900000X-0.900000X0.900000X0.900000X-0.900000X0.900000X-0.900000X-0.900000X0*%
%ADD26C,1.900000*%
%ADD27RoundRect,0.050000X0.800000X-0.800000X0.800000X0.800000X-0.800000X0.800000X-0.800000X-0.800000X0*%
%ADD28RoundRect,0.050000X-0.850000X-0.850000X0.850000X-0.850000X0.850000X0.850000X-0.850000X0.850000X0*%
%ADD29C,1.800000*%
%ADD30RoundRect,0.050000X0.850000X-0.850000X0.850000X0.850000X-0.850000X0.850000X-0.850000X-0.850000X0*%
%ADD31RoundRect,0.050000X0.600000X-0.600000X0.600000X0.600000X-0.600000X0.600000X-0.600000X-0.600000X0*%
%ADD32C,1.300000*%
%ADD33C,1.100000*%
%ADD34RoundRect,0.431000X-0.381000X0.762000X-0.381000X-0.762000X0.381000X-0.762000X0.381000X0.762000X0*%
%ADD35RoundRect,0.431000X-0.762000X-0.381000X0.762000X-0.381000X0.762000X0.381000X-0.762000X0.381000X0*%
%ADD36RoundRect,0.050000X1.100000X1.100000X-1.100000X1.100000X-1.100000X-1.100000X1.100000X-1.100000X0*%
%ADD37O,2.300000X2.300000*%
%ADD38RoundRect,0.050000X-0.600000X0.600000X-0.600000X-0.600000X0.600000X-0.600000X0.600000X0.600000X0*%
%ADD39RoundRect,0.050000X0.850000X0.850000X-0.850000X0.850000X-0.850000X-0.850000X0.850000X-0.850000X0*%
%ADD40RoundRect,0.050000X-1.100000X-1.100000X1.100000X-1.100000X1.100000X1.100000X-1.100000X1.100000X0*%
%ADD41RoundRect,0.050000X-0.750000X-0.750000X0.750000X-0.750000X0.750000X0.750000X-0.750000X0.750000X0*%
G04 APERTURE END LIST*
D10*
D11*
X177002200Y-166007200D02*
X177002200Y-198007200D01*
X285002200Y-198007200D01*
X285002200Y-166007200D01*
X177002200Y-166007200D01*
D10*
D11*
X10000000Y-10000000D02*
X10000000Y-200007200D01*
X287002200Y-200007200D01*
X287002200Y-10000000D01*
X10000000Y-10000000D01*
D10*
D11*
X12000000Y-12000000D02*
X12000000Y-198007200D01*
X285002200Y-198007200D01*
X285002200Y-12000000D01*
X12000000Y-12000000D01*
D10*
D11*
X60000000Y-12000000D02*
X60000000Y-10000000D01*
D10*
D11*
X110000000Y-12000000D02*
X110000000Y-10000000D01*
D10*
D11*
X160000000Y-12000000D02*
X160000000Y-10000000D01*
D10*
D11*
X210000000Y-12000000D02*
X210000000Y-10000000D01*
D10*
D11*
X260000000Y-12000000D02*
X260000000Y-10000000D01*
D10*
D11*
X36065476Y-11588095D02*
X35322619Y-11588095D01*
X35694047Y-11588095D02*
X35694047Y-10288095D01*
X35570238Y-10473809D01*
X35446428Y-10597619D01*
X35322619Y-10659523D01*
D10*
D11*
X85322619Y-10411904D02*
X85384523Y-10350000D01*
X85508333Y-10288095D01*
X85817857Y-10288095D01*
X85941666Y-10350000D01*
X86003571Y-10411904D01*
X86065476Y-10535714D01*
X86065476Y-10659523D01*
X86003571Y-10845238D01*
X85260714Y-11588095D01*
X86065476Y-11588095D01*
D10*
D11*
X135260714Y-10288095D02*
X136065476Y-10288095D01*
X135632142Y-10783333D01*
X135817857Y-10783333D01*
X135941666Y-10845238D01*
X136003571Y-10907142D01*
X136065476Y-11030952D01*
X136065476Y-11340476D01*
X136003571Y-11464285D01*
X135941666Y-11526190D01*
X135817857Y-11588095D01*
X135446428Y-11588095D01*
X135322619Y-11526190D01*
X135260714Y-11464285D01*
D10*
D11*
X185941666Y-10721428D02*
X185941666Y-11588095D01*
X185632142Y-10226190D02*
X185322619Y-11154761D01*
X186127380Y-11154761D01*
D10*
D11*
X236003571Y-10288095D02*
X235384523Y-10288095D01*
X235322619Y-10907142D01*
X235384523Y-10845238D01*
X235508333Y-10783333D01*
X235817857Y-10783333D01*
X235941666Y-10845238D01*
X236003571Y-10907142D01*
X236065476Y-11030952D01*
X236065476Y-11340476D01*
X236003571Y-11464285D01*
X235941666Y-11526190D01*
X235817857Y-11588095D01*
X235508333Y-11588095D01*
X235384523Y-11526190D01*
X235322619Y-11464285D01*
D10*
D11*
X285941666Y-10288095D02*
X285694047Y-10288095D01*
X285570238Y-10350000D01*
X285508333Y-10411904D01*
X285384523Y-10597619D01*
X285322619Y-10845238D01*
X285322619Y-11340476D01*
X285384523Y-11464285D01*
X285446428Y-11526190D01*
X285570238Y-11588095D01*
X285817857Y-11588095D01*
X285941666Y-11526190D01*
X286003571Y-11464285D01*
X286065476Y-11340476D01*
X286065476Y-11030952D01*
X286003571Y-10907142D01*
X285941666Y-10845238D01*
X285817857Y-10783333D01*
X285570238Y-10783333D01*
X285446428Y-10845238D01*
X285384523Y-10907142D01*
X285322619Y-11030952D01*
D10*
D11*
X60000000Y-198007200D02*
X60000000Y-200007200D01*
D10*
D11*
X110000000Y-198007200D02*
X110000000Y-200007200D01*
D10*
D11*
X160000000Y-198007200D02*
X160000000Y-200007200D01*
D10*
D11*
X210000000Y-198007200D02*
X210000000Y-200007200D01*
D10*
D11*
X260000000Y-198007200D02*
X260000000Y-200007200D01*
D10*
D11*
X36065476Y-199595295D02*
X35322619Y-199595295D01*
X35694047Y-199595295D02*
X35694047Y-198295295D01*
X35570238Y-198481009D01*
X35446428Y-198604819D01*
X35322619Y-198666723D01*
D10*
D11*
X85322619Y-198419104D02*
X85384523Y-198357200D01*
X85508333Y-198295295D01*
X85817857Y-198295295D01*
X85941666Y-198357200D01*
X86003571Y-198419104D01*
X86065476Y-198542914D01*
X86065476Y-198666723D01*
X86003571Y-198852438D01*
X85260714Y-199595295D01*
X86065476Y-199595295D01*
D10*
D11*
X135260714Y-198295295D02*
X136065476Y-198295295D01*
X135632142Y-198790533D01*
X135817857Y-198790533D01*
X135941666Y-198852438D01*
X136003571Y-198914342D01*
X136065476Y-199038152D01*
X136065476Y-199347676D01*
X136003571Y-199471485D01*
X135941666Y-199533390D01*
X135817857Y-199595295D01*
X135446428Y-199595295D01*
X135322619Y-199533390D01*
X135260714Y-199471485D01*
D10*
D11*
X185941666Y-198728628D02*
X185941666Y-199595295D01*
X185632142Y-198233390D02*
X185322619Y-199161961D01*
X186127380Y-199161961D01*
D10*
D11*
X236003571Y-198295295D02*
X235384523Y-198295295D01*
X235322619Y-198914342D01*
X235384523Y-198852438D01*
X235508333Y-198790533D01*
X235817857Y-198790533D01*
X235941666Y-198852438D01*
X236003571Y-198914342D01*
X236065476Y-199038152D01*
X236065476Y-199347676D01*
X236003571Y-199471485D01*
X235941666Y-199533390D01*
X235817857Y-199595295D01*
X235508333Y-199595295D01*
X235384523Y-199533390D01*
X235322619Y-199471485D01*
D10*
D11*
X285941666Y-198295295D02*
X285694047Y-198295295D01*
X285570238Y-198357200D01*
X285508333Y-198419104D01*
X285384523Y-198604819D01*
X285322619Y-198852438D01*
X285322619Y-199347676D01*
X285384523Y-199471485D01*
X285446428Y-199533390D01*
X285570238Y-199595295D01*
X285817857Y-199595295D01*
X285941666Y-199533390D01*
X286003571Y-199471485D01*
X286065476Y-199347676D01*
X286065476Y-199038152D01*
X286003571Y-198914342D01*
X285941666Y-198852438D01*
X285817857Y-198790533D01*
X285570238Y-198790533D01*
X285446428Y-198852438D01*
X285384523Y-198914342D01*
X285322619Y-199038152D01*
D10*
D11*
X10000000Y-60000000D02*
X12000000Y-60000000D01*
D10*
D11*
X10000000Y-110000000D02*
X12000000Y-110000000D01*
D10*
D11*
X10000000Y-160000000D02*
X12000000Y-160000000D01*
D10*
D11*
X10690476Y-35216666D02*
X11309523Y-35216666D01*
X10566666Y-35588095D02*
X11000000Y-34288095D01*
X11433333Y-35588095D01*
D10*
D11*
X11092857Y-84907142D02*
X11278571Y-84969047D01*
X11340476Y-85030952D01*
X11402380Y-85154761D01*
X11402380Y-85340476D01*
X11340476Y-85464285D01*
X11278571Y-85526190D01*
X11154761Y-85588095D01*
X10659523Y-85588095D01*
X10659523Y-84288095D01*
X11092857Y-84288095D01*
X11216666Y-84350000D01*
X11278571Y-84411904D01*
X11340476Y-84535714D01*
X11340476Y-84659523D01*
X11278571Y-84783333D01*
X11216666Y-84845238D01*
X11092857Y-84907142D01*
X10659523Y-84907142D01*
D10*
D11*
X11402380Y-135464285D02*
X11340476Y-135526190D01*
X11154761Y-135588095D01*
X11030952Y-135588095D01*
X10845238Y-135526190D01*
X10721428Y-135402380D01*
X10659523Y-135278571D01*
X10597619Y-135030952D01*
X10597619Y-134845238D01*
X10659523Y-134597619D01*
X10721428Y-134473809D01*
X10845238Y-134350000D01*
X11030952Y-134288095D01*
X11154761Y-134288095D01*
X11340476Y-134350000D01*
X11402380Y-134411904D01*
D10*
D11*
X10659523Y-185588095D02*
X10659523Y-184288095D01*
X10969047Y-184288095D01*
X11154761Y-184350000D01*
X11278571Y-184473809D01*
X11340476Y-184597619D01*
X11402380Y-184845238D01*
X11402380Y-185030952D01*
X11340476Y-185278571D01*
X11278571Y-185402380D01*
X11154761Y-185526190D01*
X10969047Y-185588095D01*
X10659523Y-185588095D01*
D10*
D11*
X287002200Y-60000000D02*
X285002200Y-60000000D01*
D10*
D11*
X287002200Y-110000000D02*
X285002200Y-110000000D01*
D10*
D11*
X287002200Y-160000000D02*
X285002200Y-160000000D01*
D10*
D11*
X285692676Y-35216666D02*
X286311723Y-35216666D01*
X285568866Y-35588095D02*
X286002200Y-34288095D01*
X286435533Y-35588095D01*
D10*
D11*
X286095057Y-84907142D02*
X286280771Y-84969047D01*
X286342676Y-85030952D01*
X286404580Y-85154761D01*
X286404580Y-85340476D01*
X286342676Y-85464285D01*
X286280771Y-85526190D01*
X286156961Y-85588095D01*
X285661723Y-85588095D01*
X285661723Y-84288095D01*
X286095057Y-84288095D01*
X286218866Y-84350000D01*
X286280771Y-84411904D01*
X286342676Y-84535714D01*
X286342676Y-84659523D01*
X286280771Y-84783333D01*
X286218866Y-84845238D01*
X286095057Y-84907142D01*
X285661723Y-84907142D01*
D10*
D11*
X286404580Y-135464285D02*
X286342676Y-135526190D01*
X286156961Y-135588095D01*
X286033152Y-135588095D01*
X285847438Y-135526190D01*
X285723628Y-135402380D01*
X285661723Y-135278571D01*
X285599819Y-135030952D01*
X285599819Y-134845238D01*
X285661723Y-134597619D01*
X285723628Y-134473809D01*
X285847438Y-134350000D01*
X286033152Y-134288095D01*
X286156961Y-134288095D01*
X286342676Y-134350000D01*
X286404580Y-134411904D01*
D10*
D11*
X285661723Y-185588095D02*
X285661723Y-184288095D01*
X285971247Y-184288095D01*
X286156961Y-184350000D01*
X286280771Y-184473809D01*
X286342676Y-184597619D01*
X286404580Y-184845238D01*
X286404580Y-185030952D01*
X286342676Y-185278571D01*
X286280771Y-185402380D01*
X286156961Y-185526190D01*
X285971247Y-185588095D01*
X285661723Y-185588095D01*
D10*
D11*
X200434342Y-193785771D02*
X200434342Y-192285771D01*
X200791485Y-192285771D01*
X201005771Y-192357200D01*
X201148628Y-192500057D01*
X201220057Y-192642914D01*
X201291485Y-192928628D01*
X201291485Y-193142914D01*
X201220057Y-193428628D01*
X201148628Y-193571485D01*
X201005771Y-193714342D01*
X200791485Y-193785771D01*
X200434342Y-193785771D01*
X202577200Y-193785771D02*
X202577200Y-193000057D01*
X202505771Y-192857200D01*
X202362914Y-192785771D01*
X202077200Y-192785771D01*
X201934342Y-192857200D01*
X202577200Y-193714342D02*
X202434342Y-193785771D01*
X202077200Y-193785771D01*
X201934342Y-193714342D01*
X201862914Y-193571485D01*
X201862914Y-193428628D01*
X201934342Y-193285771D01*
X202077200Y-193214342D01*
X202434342Y-193214342D01*
X202577200Y-193142914D01*
X203077200Y-192785771D02*
X203648628Y-192785771D01*
X203291485Y-192285771D02*
X203291485Y-193571485D01*
X203362914Y-193714342D01*
X203505771Y-193785771D01*
X203648628Y-193785771D01*
X204720057Y-193714342D02*
X204577200Y-193785771D01*
X204291485Y-193785771D01*
X204148628Y-193714342D01*
X204077200Y-193571485D01*
X204077200Y-193000057D01*
X204148628Y-192857200D01*
X204291485Y-192785771D01*
X204577200Y-192785771D01*
X204720057Y-192857200D01*
X204791485Y-193000057D01*
X204791485Y-193142914D01*
X204077200Y-193285771D01*
X205434342Y-193642914D02*
X205505771Y-193714342D01*
X205434342Y-193785771D01*
X205362914Y-193714342D01*
X205434342Y-193642914D01*
X205434342Y-193785771D01*
X205434342Y-192857200D02*
X205505771Y-192928628D01*
X205434342Y-193000057D01*
X205362914Y-192928628D01*
X205434342Y-192857200D01*
X205434342Y-193000057D01*
D10*
D11*
X177002200Y-194507200D02*
X285002200Y-194507200D01*
D10*
D11*
X178434342Y-196585771D02*
X178434342Y-195085771D01*
X179291485Y-196585771D02*
X178648628Y-195728628D01*
X179291485Y-195085771D02*
X178434342Y-195942914D01*
X179934342Y-196585771D02*
X179934342Y-195585771D01*
X179934342Y-195085771D02*
X179862914Y-195157200D01*
X179934342Y-195228628D01*
X180005771Y-195157200D01*
X179934342Y-195085771D01*
X179934342Y-195228628D01*
X181505771Y-196442914D02*
X181434342Y-196514342D01*
X181220057Y-196585771D01*
X181077200Y-196585771D01*
X180862914Y-196514342D01*
X180720057Y-196371485D01*
X180648628Y-196228628D01*
X180577200Y-195942914D01*
X180577200Y-195728628D01*
X180648628Y-195442914D01*
X180720057Y-195300057D01*
X180862914Y-195157200D01*
X181077200Y-195085771D01*
X181220057Y-195085771D01*
X181434342Y-195157200D01*
X181505771Y-195228628D01*
X182791485Y-196585771D02*
X182791485Y-195800057D01*
X182720057Y-195657200D01*
X182577200Y-195585771D01*
X182291485Y-195585771D01*
X182148628Y-195657200D01*
X182791485Y-196514342D02*
X182648628Y-196585771D01*
X182291485Y-196585771D01*
X182148628Y-196514342D01*
X182077200Y-196371485D01*
X182077200Y-196228628D01*
X182148628Y-196085771D01*
X182291485Y-196014342D01*
X182648628Y-196014342D01*
X182791485Y-195942914D01*
X184148628Y-196585771D02*
X184148628Y-195085771D01*
X184148628Y-196514342D02*
X184005771Y-196585771D01*
X183720057Y-196585771D01*
X183577200Y-196514342D01*
X183505771Y-196442914D01*
X183434342Y-196300057D01*
X183434342Y-195871485D01*
X183505771Y-195728628D01*
X183577200Y-195657200D01*
X183720057Y-195585771D01*
X184005771Y-195585771D01*
X184148628Y-195657200D01*
X186005771Y-195800057D02*
X186505771Y-195800057D01*
X186720057Y-196585771D02*
X186005771Y-196585771D01*
X186005771Y-195085771D01*
X186720057Y-195085771D01*
X187362914Y-196442914D02*
X187434342Y-196514342D01*
X187362914Y-196585771D01*
X187291485Y-196514342D01*
X187362914Y-196442914D01*
X187362914Y-196585771D01*
X188077200Y-196585771D02*
X188077200Y-195085771D01*
X188434342Y-195085771D01*
X188648628Y-195157200D01*
X188791485Y-195300057D01*
X188862914Y-195442914D01*
X188934342Y-195728628D01*
X188934342Y-195942914D01*
X188862914Y-196228628D01*
X188791485Y-196371485D01*
X188648628Y-196514342D01*
X188434342Y-196585771D01*
X188077200Y-196585771D01*
X189577200Y-196442914D02*
X189648628Y-196514342D01*
X189577200Y-196585771D01*
X189505771Y-196514342D01*
X189577200Y-196442914D01*
X189577200Y-196585771D01*
X190220057Y-196157200D02*
X190934342Y-196157200D01*
X190077200Y-196585771D02*
X190577200Y-195085771D01*
X191077200Y-196585771D01*
X191577200Y-196442914D02*
X191648628Y-196514342D01*
X191577200Y-196585771D01*
X191505771Y-196514342D01*
X191577200Y-196442914D01*
X191577200Y-196585771D01*
X194577200Y-196585771D02*
X194577200Y-195085771D01*
X194720057Y-196014342D02*
X195148628Y-196585771D01*
X195148628Y-195585771D02*
X194577200Y-196157200D01*
X195791485Y-196585771D02*
X195791485Y-195585771D01*
X195791485Y-195085771D02*
X195720057Y-195157200D01*
X195791485Y-195228628D01*
X195862914Y-195157200D01*
X195791485Y-195085771D01*
X195791485Y-195228628D01*
X197148628Y-196514342D02*
X197005771Y-196585771D01*
X196720057Y-196585771D01*
X196577200Y-196514342D01*
X196505771Y-196442914D01*
X196434342Y-196300057D01*
X196434342Y-195871485D01*
X196505771Y-195728628D01*
X196577200Y-195657200D01*
X196720057Y-195585771D01*
X197005771Y-195585771D01*
X197148628Y-195657200D01*
X198434342Y-196585771D02*
X198434342Y-195800057D01*
X198362914Y-195657200D01*
X198220057Y-195585771D01*
X197934342Y-195585771D01*
X197791485Y-195657200D01*
X198434342Y-196514342D02*
X198291485Y-196585771D01*
X197934342Y-196585771D01*
X197791485Y-196514342D01*
X197720057Y-196371485D01*
X197720057Y-196228628D01*
X197791485Y-196085771D01*
X197934342Y-196014342D01*
X198291485Y-196014342D01*
X198434342Y-195942914D01*
X199791485Y-196585771D02*
X199791485Y-195085771D01*
X199791485Y-196514342D02*
X199648628Y-196585771D01*
X199362914Y-196585771D01*
X199220057Y-196514342D01*
X199148628Y-196442914D01*
X199077200Y-196300057D01*
X199077200Y-195871485D01*
X199148628Y-195728628D01*
X199220057Y-195657200D01*
X199362914Y-195585771D01*
X199648628Y-195585771D01*
X199791485Y-195657200D01*
X202291485Y-195085771D02*
X202005771Y-195085771D01*
X201862914Y-195157200D01*
X201791485Y-195228628D01*
X201648628Y-195442914D01*
X201577200Y-195728628D01*
X201577200Y-196300057D01*
X201648628Y-196442914D01*
X201720057Y-196514342D01*
X201862914Y-196585771D01*
X202148628Y-196585771D01*
X202291485Y-196514342D01*
X202362914Y-196442914D01*
X202434342Y-196300057D01*
X202434342Y-195942914D01*
X202362914Y-195800057D01*
X202291485Y-195728628D01*
X202148628Y-195657200D01*
X201862914Y-195657200D01*
X201720057Y-195728628D01*
X201648628Y-195800057D01*
X201577200Y-195942914D01*
X203077200Y-196442914D02*
X203148628Y-196514342D01*
X203077200Y-196585771D01*
X203005771Y-196514342D01*
X203077200Y-196442914D01*
X203077200Y-196585771D01*
X204077200Y-195085771D02*
X204220057Y-195085771D01*
X204362914Y-195157200D01*
X204434342Y-195228628D01*
X204505771Y-195371485D01*
X204577200Y-195657200D01*
X204577200Y-196014342D01*
X204505771Y-196300057D01*
X204434342Y-196442914D01*
X204362914Y-196514342D01*
X204220057Y-196585771D01*
X204077200Y-196585771D01*
X203934342Y-196514342D01*
X203862914Y-196442914D01*
X203791485Y-196300057D01*
X203720057Y-196014342D01*
X203720057Y-195657200D01*
X203791485Y-195371485D01*
X203862914Y-195228628D01*
X203934342Y-195157200D01*
X204077200Y-195085771D01*
X205220057Y-196442914D02*
X205291485Y-196514342D01*
X205220057Y-196585771D01*
X205148628Y-196514342D01*
X205220057Y-196442914D01*
X205220057Y-196585771D01*
X205862914Y-195228628D02*
X205934342Y-195157200D01*
X206077200Y-195085771D01*
X206434342Y-195085771D01*
X206577200Y-195157200D01*
X206648628Y-195228628D01*
X206720057Y-195371485D01*
X206720057Y-195514342D01*
X206648628Y-195728628D01*
X205791485Y-196585771D01*
X206720057Y-196585771D01*
X207362914Y-196014342D02*
X208505771Y-196014342D01*
X209077200Y-195085771D02*
X210005771Y-195085771D01*
X209505771Y-195657200D01*
X209720057Y-195657200D01*
X209862914Y-195728628D01*
X209934342Y-195800057D01*
X210005771Y-195942914D01*
X210005771Y-196300057D01*
X209934342Y-196442914D01*
X209862914Y-196514342D01*
X209720057Y-196585771D01*
X209291485Y-196585771D01*
X209148628Y-196514342D01*
X209077200Y-196442914D01*
X210505771Y-195085771D02*
X211505771Y-195085771D01*
X210862914Y-196585771D01*
X212291485Y-195728628D02*
X212148628Y-195657200D01*
X212077200Y-195585771D01*
X212005771Y-195442914D01*
X212005771Y-195371485D01*
X212077200Y-195228628D01*
X212148628Y-195157200D01*
X212291485Y-195085771D01*
X212577200Y-195085771D01*
X212720057Y-195157200D01*
X212791485Y-195228628D01*
X212862914Y-195371485D01*
X212862914Y-195442914D01*
X212791485Y-195585771D01*
X212720057Y-195657200D01*
X212577200Y-195728628D01*
X212291485Y-195728628D01*
X212148628Y-195800057D01*
X212077200Y-195871485D01*
X212005771Y-196014342D01*
X212005771Y-196300057D01*
X212077200Y-196442914D01*
X212148628Y-196514342D01*
X212291485Y-196585771D01*
X212577200Y-196585771D01*
X212720057Y-196514342D01*
X212791485Y-196442914D01*
X212862914Y-196300057D01*
X212862914Y-196014342D01*
X212791485Y-195871485D01*
X212720057Y-195800057D01*
X212577200Y-195728628D01*
X214220057Y-195085771D02*
X213505771Y-195085771D01*
X213434342Y-195800057D01*
X213505771Y-195728628D01*
X213648628Y-195657200D01*
X214005771Y-195657200D01*
X214148628Y-195728628D01*
X214220057Y-195800057D01*
X214291485Y-195942914D01*
X214291485Y-196300057D01*
X214220057Y-196442914D01*
X214148628Y-196514342D01*
X214005771Y-196585771D01*
X213648628Y-196585771D01*
X213505771Y-196514342D01*
X213434342Y-196442914D01*
X215577200Y-195585771D02*
X215577200Y-196585771D01*
X215220057Y-195014342D02*
X214862914Y-196085771D01*
X215791485Y-196085771D01*
X217148628Y-196585771D02*
X216291485Y-196585771D01*
X216720057Y-196585771D02*
X216720057Y-195085771D01*
X216577200Y-195300057D01*
X216434342Y-195442914D01*
X216291485Y-195514342D01*
X218434342Y-196585771D02*
X218434342Y-195800057D01*
X218362914Y-195657200D01*
X218220057Y-195585771D01*
X217934342Y-195585771D01*
X217791485Y-195657200D01*
X218434342Y-196514342D02*
X218291485Y-196585771D01*
X217934342Y-196585771D01*
X217791485Y-196514342D01*
X217720057Y-196371485D01*
X217720057Y-196228628D01*
X217791485Y-196085771D01*
X217934342Y-196014342D01*
X218291485Y-196014342D01*
X218434342Y-195942914D01*
X219362914Y-195728628D02*
X219220057Y-195657200D01*
X219148628Y-195585771D01*
X219077200Y-195442914D01*
X219077200Y-195371485D01*
X219148628Y-195228628D01*
X219220057Y-195157200D01*
X219362914Y-195085771D01*
X219648628Y-195085771D01*
X219791485Y-195157200D01*
X219862914Y-195228628D01*
X219934342Y-195371485D01*
X219934342Y-195442914D01*
X219862914Y-195585771D01*
X219791485Y-195657200D01*
X219648628Y-195728628D01*
X219362914Y-195728628D01*
X219220057Y-195800057D01*
X219148628Y-195871485D01*
X219077200Y-196014342D01*
X219077200Y-196300057D01*
X219148628Y-196442914D01*
X219220057Y-196514342D01*
X219362914Y-196585771D01*
X219648628Y-196585771D01*
X219791485Y-196514342D01*
X219862914Y-196442914D01*
X219934342Y-196300057D01*
X219934342Y-196014342D01*
X219862914Y-195871485D01*
X219791485Y-195800057D01*
X219648628Y-195728628D01*
X221148628Y-196514342D02*
X221005771Y-196585771D01*
X220720057Y-196585771D01*
X220577200Y-196514342D01*
X220505771Y-196371485D01*
X220505771Y-195800057D01*
X220577200Y-195657200D01*
X220720057Y-195585771D01*
X221005771Y-195585771D01*
X221148628Y-195657200D01*
X221220057Y-195800057D01*
X221220057Y-195942914D01*
X220505771Y-196085771D01*
X221862914Y-196585771D02*
X221862914Y-195085771D01*
X221862914Y-195657200D02*
X222005771Y-195585771D01*
X222291485Y-195585771D01*
X222434342Y-195657200D01*
X222505771Y-195728628D01*
X222577200Y-195871485D01*
X222577200Y-196300057D01*
X222505771Y-196442914D01*
X222434342Y-196514342D01*
X222291485Y-196585771D01*
X222005771Y-196585771D01*
X221862914Y-196514342D01*
X223005771Y-196014342D02*
X223077200Y-195942914D01*
X223220057Y-195871485D01*
X223505771Y-196014342D01*
X223648628Y-195942914D01*
X223720057Y-195871485D01*
X225077200Y-196585771D02*
X224220057Y-196585771D01*
X224648628Y-196585771D02*
X224648628Y-195085771D01*
X224505771Y-195300057D01*
X224362914Y-195442914D01*
X224220057Y-195514342D01*
X226505771Y-196585771D02*
X225648628Y-196585771D01*
X226077200Y-196585771D02*
X226077200Y-195085771D01*
X225934342Y-195300057D01*
X225791485Y-195442914D01*
X225648628Y-195514342D01*
X227791485Y-195085771D02*
X227505771Y-195085771D01*
X227362914Y-195157200D01*
X227291485Y-195228628D01*
X227148628Y-195442914D01*
X227077199Y-195728628D01*
X227077199Y-196300057D01*
X227148628Y-196442914D01*
X227220057Y-196514342D01*
X227362914Y-196585771D01*
X227648628Y-196585771D01*
X227791485Y-196514342D01*
X227862914Y-196442914D01*
X227934342Y-196300057D01*
X227934342Y-195942914D01*
X227862914Y-195800057D01*
X227791485Y-195728628D01*
X227648628Y-195657200D01*
X227362914Y-195657200D01*
X227220057Y-195728628D01*
X227148628Y-195800057D01*
X227077199Y-195942914D01*
X228362914Y-196014342D02*
X228434342Y-195942914D01*
X228577199Y-195871485D01*
X228862914Y-196014342D01*
X229005771Y-195942914D01*
X229077199Y-195871485D01*
X230291485Y-195585771D02*
X230291485Y-196585771D01*
X229648628Y-195585771D02*
X229648628Y-196371485D01*
X229720057Y-196514342D01*
X229862914Y-196585771D01*
X230077199Y-196585771D01*
X230220057Y-196514342D01*
X230291485Y-196442914D01*
X231005771Y-196585771D02*
X231005771Y-195085771D01*
X231005771Y-195657200D02*
X231148628Y-195585771D01*
X231434342Y-195585771D01*
X231577199Y-195657200D01*
X231648628Y-195728628D01*
X231720057Y-195871485D01*
X231720057Y-196300057D01*
X231648628Y-196442914D01*
X231577199Y-196514342D01*
X231434342Y-196585771D01*
X231148628Y-196585771D01*
X231005771Y-196514342D01*
X233005771Y-195585771D02*
X233005771Y-196585771D01*
X232362914Y-195585771D02*
X232362914Y-196371485D01*
X232434342Y-196514342D01*
X232577200Y-196585771D01*
X232791485Y-196585771D01*
X232934342Y-196514342D01*
X233005771Y-196442914D01*
X233720057Y-195585771D02*
X233720057Y-196585771D01*
X233720057Y-195728628D02*
X233791485Y-195657200D01*
X233934342Y-195585771D01*
X234148628Y-195585771D01*
X234291485Y-195657200D01*
X234362914Y-195800057D01*
X234362914Y-196585771D01*
X234862914Y-195585771D02*
X235434342Y-195585771D01*
X235077200Y-195085771D02*
X235077200Y-196371485D01*
X235148628Y-196514342D01*
X235291485Y-196585771D01*
X235434342Y-196585771D01*
X236577200Y-195585771D02*
X236577200Y-196585771D01*
X235934342Y-195585771D02*
X235934342Y-196371485D01*
X236005771Y-196514342D01*
X236148628Y-196585771D01*
X236362914Y-196585771D01*
X236505771Y-196514342D01*
X236577200Y-196442914D01*
X237220057Y-195228628D02*
X237291485Y-195157200D01*
X237434342Y-195085771D01*
X237791485Y-195085771D01*
X237934342Y-195157200D01*
X238005771Y-195228628D01*
X238077200Y-195371485D01*
X238077200Y-195514342D01*
X238005771Y-195728628D01*
X237148628Y-196585771D01*
X238077200Y-196585771D01*
X239005771Y-195085771D02*
X239148628Y-195085771D01*
X239291485Y-195157200D01*
X239362914Y-195228628D01*
X239434342Y-195371485D01*
X239505771Y-195657200D01*
X239505771Y-196014342D01*
X239434342Y-196300057D01*
X239362914Y-196442914D01*
X239291485Y-196514342D01*
X239148628Y-196585771D01*
X239005771Y-196585771D01*
X238862914Y-196514342D01*
X238791485Y-196442914D01*
X238720057Y-196300057D01*
X238648628Y-196014342D01*
X238648628Y-195657200D01*
X238720057Y-195371485D01*
X238791485Y-195228628D01*
X238862914Y-195157200D01*
X239005771Y-195085771D01*
X240148628Y-196442914D02*
X240220057Y-196514342D01*
X240148628Y-196585771D01*
X240077199Y-196514342D01*
X240148628Y-196442914D01*
X240148628Y-196585771D01*
X241148628Y-195085771D02*
X241291485Y-195085771D01*
X241434342Y-195157200D01*
X241505771Y-195228628D01*
X241577200Y-195371485D01*
X241648628Y-195657200D01*
X241648628Y-196014342D01*
X241577200Y-196300057D01*
X241505771Y-196442914D01*
X241434342Y-196514342D01*
X241291485Y-196585771D01*
X241148628Y-196585771D01*
X241005771Y-196514342D01*
X240934342Y-196442914D01*
X240862914Y-196300057D01*
X240791485Y-196014342D01*
X240791485Y-195657200D01*
X240862914Y-195371485D01*
X240934342Y-195228628D01*
X241005771Y-195157200D01*
X241148628Y-195085771D01*
X242934342Y-195585771D02*
X242934342Y-196585771D01*
X242577199Y-195014342D02*
X242220057Y-196085771D01*
X243148628Y-196085771D01*
X243720057Y-196442914D02*
X243791485Y-196514342D01*
X243720057Y-196585771D01*
X243648628Y-196514342D01*
X243720057Y-196442914D01*
X243720057Y-196585771D01*
X245220057Y-196585771D02*
X244362914Y-196585771D01*
X244791485Y-196585771D02*
X244791485Y-195085771D01*
X244648628Y-195300057D01*
X244505771Y-195442914D01*
X244362914Y-195514342D01*
D10*
D11*
X177002200Y-191507200D02*
X285002200Y-191507200D01*
D10*
D12*
X264411485Y-193785771D02*
X263911485Y-193071485D01*
X263554342Y-193785771D02*
X263554342Y-192285771D01*
X264125771Y-192285771D01*
X264268628Y-192357200D01*
X264340057Y-192428628D01*
X264411485Y-192571485D01*
X264411485Y-192785771D01*
X264340057Y-192928628D01*
X264268628Y-193000057D01*
X264125771Y-193071485D01*
X263554342Y-193071485D01*
X265625771Y-193714342D02*
X265482914Y-193785771D01*
X265197200Y-193785771D01*
X265054342Y-193714342D01*
X264982914Y-193571485D01*
X264982914Y-193000057D01*
X265054342Y-192857200D01*
X265197200Y-192785771D01*
X265482914Y-192785771D01*
X265625771Y-192857200D01*
X265697200Y-193000057D01*
X265697200Y-193142914D01*
X264982914Y-193285771D01*
X266197200Y-192785771D02*
X266554342Y-193785771D01*
X266911485Y-192785771D01*
X267482914Y-193642914D02*
X267554342Y-193714342D01*
X267482914Y-193785771D01*
X267411485Y-193714342D01*
X267482914Y-193642914D01*
X267482914Y-193785771D01*
X267482914Y-192857200D02*
X267554342Y-192928628D01*
X267482914Y-193000057D01*
X267411485Y-192928628D01*
X267482914Y-192857200D01*
X267482914Y-193000057D01*
X269982914Y-192785771D02*
X269982914Y-193785771D01*
X269625771Y-192214342D02*
X269268628Y-193285771D01*
X270197200Y-193285771D01*
D10*
D11*
X178362914Y-193714342D02*
X178577200Y-193785771D01*
X178934342Y-193785771D01*
X179077200Y-193714342D01*
X179148628Y-193642914D01*
X179220057Y-193500057D01*
X179220057Y-193357200D01*
X179148628Y-193214342D01*
X179077200Y-193142914D01*
X178934342Y-193071485D01*
X178648628Y-193000057D01*
X178505771Y-192928628D01*
X178434342Y-192857200D01*
X178362914Y-192714342D01*
X178362914Y-192571485D01*
X178434342Y-192428628D01*
X178505771Y-192357200D01*
X178648628Y-192285771D01*
X179005771Y-192285771D01*
X179220057Y-192357200D01*
X179862914Y-193785771D02*
X179862914Y-192785771D01*
X179862914Y-192285771D02*
X179791485Y-192357200D01*
X179862914Y-192428628D01*
X179934342Y-192357200D01*
X179862914Y-192285771D01*
X179862914Y-192428628D01*
X180434342Y-192785771D02*
X181220057Y-192785771D01*
X180434342Y-193785771D01*
X181220057Y-193785771D01*
X182362914Y-193714342D02*
X182220057Y-193785771D01*
X181934342Y-193785771D01*
X181791485Y-193714342D01*
X181720057Y-193571485D01*
X181720057Y-193000057D01*
X181791485Y-192857200D01*
X181934342Y-192785771D01*
X182220057Y-192785771D01*
X182362914Y-192857200D01*
X182434342Y-193000057D01*
X182434342Y-193142914D01*
X181720057Y-193285771D01*
X183077200Y-193642914D02*
X183148628Y-193714342D01*
X183077200Y-193785771D01*
X183005771Y-193714342D01*
X183077200Y-193642914D01*
X183077200Y-193785771D01*
X183077200Y-192857200D02*
X183148628Y-192928628D01*
X183077200Y-193000057D01*
X183005771Y-192928628D01*
X183077200Y-192857200D01*
X183077200Y-193000057D01*
X184862914Y-193357200D02*
X185577200Y-193357200D01*
X184720057Y-193785771D02*
X185220057Y-192285771D01*
X185720057Y-193785771D01*
X186862914Y-192785771D02*
X186862914Y-193785771D01*
X186505771Y-192214342D02*
X186148628Y-193285771D01*
X187077200Y-193285771D01*
D10*
D11*
X263434342Y-196585771D02*
X263434342Y-195085771D01*
X264791485Y-196585771D02*
X264791485Y-195085771D01*
X264791485Y-196514342D02*
X264648628Y-196585771D01*
X264362914Y-196585771D01*
X264220057Y-196514342D01*
X264148628Y-196442914D01*
X264077200Y-196300057D01*
X264077200Y-195871485D01*
X264148628Y-195728628D01*
X264220057Y-195657200D01*
X264362914Y-195585771D01*
X264648628Y-195585771D01*
X264791485Y-195657200D01*
X265505771Y-196442914D02*
X265577200Y-196514342D01*
X265505771Y-196585771D01*
X265434342Y-196514342D01*
X265505771Y-196442914D01*
X265505771Y-196585771D01*
X265505771Y-195657200D02*
X265577200Y-195728628D01*
X265505771Y-195800057D01*
X265434342Y-195728628D01*
X265505771Y-195657200D01*
X265505771Y-195800057D01*
X268148628Y-196585771D02*
X267291485Y-196585771D01*
X267720057Y-196585771D02*
X267720057Y-195085771D01*
X267577200Y-195300057D01*
X267434342Y-195442914D01*
X267291485Y-195514342D01*
X269862914Y-195014342D02*
X268577200Y-196942914D01*
X271148628Y-196585771D02*
X270291485Y-196585771D01*
X270720057Y-196585771D02*
X270720057Y-195085771D01*
X270577200Y-195300057D01*
X270434342Y-195442914D01*
X270291485Y-195514342D01*
D10*
D11*
X177002200Y-187507200D02*
X285002200Y-187507200D01*
D10*
D13*
X178714580Y-188211961D02*
X179857438Y-188211961D01*
X179036009Y-190211961D02*
X179286009Y-188211961D01*
X180274104Y-190211961D02*
X180440771Y-188878628D01*
X180524104Y-188211961D02*
X180416961Y-188307200D01*
X180500295Y-188402438D01*
X180607438Y-188307200D01*
X180524104Y-188211961D01*
X180500295Y-188402438D01*
X181107438Y-188878628D02*
X181869342Y-188878628D01*
X181476485Y-188211961D02*
X181262200Y-189926247D01*
X181333628Y-190116723D01*
X181512200Y-190211961D01*
X181702676Y-190211961D01*
X182655057Y-190211961D02*
X182476485Y-190116723D01*
X182405057Y-189926247D01*
X182619342Y-188211961D01*
X184190771Y-190116723D02*
X183988390Y-190211961D01*
X183607438Y-190211961D01*
X183428866Y-190116723D01*
X183357438Y-189926247D01*
X183452676Y-189164342D01*
X183571723Y-188973866D01*
X183774104Y-188878628D01*
X184155057Y-188878628D01*
X184333628Y-188973866D01*
X184405057Y-189164342D01*
X184381247Y-189354819D01*
X183405057Y-189545295D01*
X185155057Y-190021485D02*
X185238390Y-190116723D01*
X185131247Y-190211961D01*
X185047914Y-190116723D01*
X185155057Y-190021485D01*
X185131247Y-190211961D01*
X185286009Y-188973866D02*
X185369342Y-189069104D01*
X185262200Y-189164342D01*
X185178866Y-189069104D01*
X185286009Y-188973866D01*
X185262200Y-189164342D01*
X187607438Y-190211961D02*
X187857438Y-188211961D01*
X188345533Y-189640533D01*
X189190771Y-188211961D01*
X188940771Y-190211961D01*
X190750295Y-190211961D02*
X190881247Y-189164342D01*
X190809819Y-188973866D01*
X190631247Y-188878628D01*
X190250295Y-188878628D01*
X190047914Y-188973866D01*
X190762200Y-190116723D02*
X190559819Y-190211961D01*
X190083628Y-190211961D01*
X189905057Y-190116723D01*
X189833628Y-189926247D01*
X189857438Y-189735771D01*
X189976485Y-189545295D01*
X190178866Y-189450057D01*
X190655057Y-189450057D01*
X190857438Y-189354819D01*
X191702676Y-190211961D02*
X191869342Y-188878628D01*
X191952676Y-188211961D02*
X191845533Y-188307200D01*
X191928866Y-188402438D01*
X192036009Y-188307200D01*
X191952676Y-188211961D01*
X191928866Y-188402438D01*
X192821723Y-188878628D02*
X192655057Y-190211961D01*
X192797914Y-189069104D02*
X192905057Y-188973866D01*
X193107438Y-188878628D01*
X193393152Y-188878628D01*
X193571723Y-188973866D01*
X193643152Y-189164342D01*
X193512200Y-190211961D01*
X195988390Y-190211961D02*
X196238390Y-188211961D01*
X197000295Y-188211961D01*
X197178866Y-188307200D01*
X197262200Y-188402438D01*
X197333628Y-188592914D01*
X197297914Y-188878628D01*
X197178866Y-189069104D01*
X197071723Y-189164342D01*
X196869342Y-189259580D01*
X196107438Y-189259580D01*
X199155057Y-190021485D02*
X199047914Y-190116723D01*
X198750295Y-190211961D01*
X198559819Y-190211961D01*
X198286009Y-190116723D01*
X198119342Y-189926247D01*
X198047914Y-189735771D01*
X198000295Y-189354819D01*
X198036009Y-189069104D01*
X198178866Y-188688152D01*
X198297914Y-188497676D01*
X198512200Y-188307200D01*
X198809819Y-188211961D01*
X199000295Y-188211961D01*
X199274104Y-188307200D01*
X199357438Y-188402438D01*
X200786009Y-189164342D02*
X201059819Y-189259580D01*
X201143152Y-189354819D01*
X201214580Y-189545295D01*
X201178866Y-189831009D01*
X201059819Y-190021485D01*
X200952676Y-190116723D01*
X200750295Y-190211961D01*
X199988390Y-190211961D01*
X200238390Y-188211961D01*
X200905057Y-188211961D01*
X201083628Y-188307200D01*
X201166961Y-188402438D01*
X201238390Y-188592914D01*
X201214580Y-188783390D01*
X201095533Y-188973866D01*
X200988390Y-189069104D01*
X200786009Y-189164342D01*
X200119342Y-189164342D01*
D10*
D11*
X178934342Y-185600057D02*
X178434342Y-185600057D01*
X178434342Y-186385771D02*
X178434342Y-184885771D01*
X179148628Y-184885771D01*
X179720057Y-186385771D02*
X179720057Y-185385771D01*
X179720057Y-184885771D02*
X179648628Y-184957200D01*
X179720057Y-185028628D01*
X179791485Y-184957200D01*
X179720057Y-184885771D01*
X179720057Y-185028628D01*
X180648628Y-186385771D02*
X180505771Y-186314342D01*
X180434342Y-186171485D01*
X180434342Y-184885771D01*
X181791485Y-186314342D02*
X181648628Y-186385771D01*
X181362914Y-186385771D01*
X181220057Y-186314342D01*
X181148628Y-186171485D01*
X181148628Y-185600057D01*
X181220057Y-185457200D01*
X181362914Y-185385771D01*
X181648628Y-185385771D01*
X181791485Y-185457200D01*
X181862914Y-185600057D01*
X181862914Y-185742914D01*
X181148628Y-185885771D01*
X182505771Y-186242914D02*
X182577200Y-186314342D01*
X182505771Y-186385771D01*
X182434342Y-186314342D01*
X182505771Y-186242914D01*
X182505771Y-186385771D01*
X182505771Y-185457200D02*
X182577200Y-185528628D01*
X182505771Y-185600057D01*
X182434342Y-185528628D01*
X182505771Y-185457200D01*
X182505771Y-185600057D01*
X184362914Y-186385771D02*
X184362914Y-184885771D01*
X185005771Y-186385771D02*
X185005771Y-185600057D01*
X184934342Y-185457200D01*
X184791485Y-185385771D01*
X184577200Y-185385771D01*
X184434342Y-185457200D01*
X184362914Y-185528628D01*
X186362914Y-186385771D02*
X186362914Y-185600057D01*
X186291485Y-185457200D01*
X186148628Y-185385771D01*
X185862914Y-185385771D01*
X185720057Y-185457200D01*
X186362914Y-186314342D02*
X186220057Y-186385771D01*
X185862914Y-186385771D01*
X185720057Y-186314342D01*
X185648628Y-186171485D01*
X185648628Y-186028628D01*
X185720057Y-185885771D01*
X185862914Y-185814342D01*
X186220057Y-185814342D01*
X186362914Y-185742914D01*
X187077200Y-185814342D02*
X188220057Y-185814342D01*
X188934342Y-185385771D02*
X188934342Y-186885771D01*
X188934342Y-185457200D02*
X189077200Y-185385771D01*
X189362914Y-185385771D01*
X189505771Y-185457200D01*
X189577200Y-185528628D01*
X189648628Y-185671485D01*
X189648628Y-186100057D01*
X189577200Y-186242914D01*
X189505771Y-186314342D01*
X189362914Y-186385771D01*
X189077200Y-186385771D01*
X188934342Y-186314342D01*
X190934342Y-186314342D02*
X190791485Y-186385771D01*
X190505771Y-186385771D01*
X190362914Y-186314342D01*
X190291485Y-186242914D01*
X190220057Y-186100057D01*
X190220057Y-185671485D01*
X190291485Y-185528628D01*
X190362914Y-185457200D01*
X190505771Y-185385771D01*
X190791485Y-185385771D01*
X190934342Y-185457200D01*
X191577200Y-186385771D02*
X191577200Y-184885771D01*
X191577200Y-185457200D02*
X191720057Y-185385771D01*
X192005771Y-185385771D01*
X192148628Y-185457200D01*
X192220057Y-185528628D01*
X192291485Y-185671485D01*
X192291485Y-186100057D01*
X192220057Y-186242914D01*
X192148628Y-186314342D01*
X192005771Y-186385771D01*
X191720057Y-186385771D01*
X191577200Y-186314342D01*
X192934342Y-186242914D02*
X193005771Y-186314342D01*
X192934342Y-186385771D01*
X192862914Y-186314342D01*
X192934342Y-186242914D01*
X192934342Y-186385771D01*
X193648628Y-186385771D02*
X193648628Y-184885771D01*
X193791485Y-185814342D02*
X194220057Y-186385771D01*
X194220057Y-185385771D02*
X193648628Y-185957200D01*
X194862914Y-186385771D02*
X194862914Y-185385771D01*
X194862914Y-184885771D02*
X194791485Y-184957200D01*
X194862914Y-185028628D01*
X194934342Y-184957200D01*
X194862914Y-184885771D01*
X194862914Y-185028628D01*
X196220057Y-186314342D02*
X196077200Y-186385771D01*
X195791485Y-186385771D01*
X195648628Y-186314342D01*
X195577200Y-186242914D01*
X195505771Y-186100057D01*
X195505771Y-185671485D01*
X195577200Y-185528628D01*
X195648628Y-185457200D01*
X195791485Y-185385771D01*
X196077200Y-185385771D01*
X196220057Y-185457200D01*
X197505771Y-186385771D02*
X197505771Y-185600057D01*
X197434342Y-185457200D01*
X197291485Y-185385771D01*
X197005771Y-185385771D01*
X196862914Y-185457200D01*
X197505771Y-186314342D02*
X197362914Y-186385771D01*
X197005771Y-186385771D01*
X196862914Y-186314342D01*
X196791485Y-186171485D01*
X196791485Y-186028628D01*
X196862914Y-185885771D01*
X197005771Y-185814342D01*
X197362914Y-185814342D01*
X197505771Y-185742914D01*
X198862914Y-186385771D02*
X198862914Y-184885771D01*
X198862914Y-186314342D02*
X198720057Y-186385771D01*
X198434342Y-186385771D01*
X198291485Y-186314342D01*
X198220057Y-186242914D01*
X198148628Y-186100057D01*
X198148628Y-185671485D01*
X198220057Y-185528628D01*
X198291485Y-185457200D01*
X198434342Y-185385771D01*
X198720057Y-185385771D01*
X198862914Y-185457200D01*
X199220057Y-186528628D02*
X200362914Y-186528628D01*
X200720057Y-185385771D02*
X200720057Y-186885771D01*
X200720057Y-185457200D02*
X200862914Y-185385771D01*
X201148628Y-185385771D01*
X201291485Y-185457200D01*
X201362914Y-185528628D01*
X201434342Y-185671485D01*
X201434342Y-186100057D01*
X201362914Y-186242914D01*
X201291485Y-186314342D01*
X201148628Y-186385771D01*
X200862914Y-186385771D01*
X200720057Y-186314342D01*
X202720057Y-186314342D02*
X202577200Y-186385771D01*
X202291485Y-186385771D01*
X202148628Y-186314342D01*
X202077200Y-186242914D01*
X202005771Y-186100057D01*
X202005771Y-185671485D01*
X202077200Y-185528628D01*
X202148628Y-185457200D01*
X202291485Y-185385771D01*
X202577200Y-185385771D01*
X202720057Y-185457200D01*
X203362914Y-186385771D02*
X203362914Y-184885771D01*
X203362914Y-185457200D02*
X203505771Y-185385771D01*
X203791485Y-185385771D01*
X203934342Y-185457200D01*
X204005771Y-185528628D01*
X204077200Y-185671485D01*
X204077200Y-186100057D01*
X204005771Y-186242914D01*
X203934342Y-186314342D01*
X203791485Y-186385771D01*
X203505771Y-186385771D01*
X203362914Y-186314342D01*
D10*
D11*
X177002200Y-181507200D02*
X285002200Y-181507200D01*
D10*
D11*
X178362914Y-183614342D02*
X178577200Y-183685771D01*
X178934342Y-183685771D01*
X179077200Y-183614342D01*
X179148628Y-183542914D01*
X179220057Y-183400057D01*
X179220057Y-183257200D01*
X179148628Y-183114342D01*
X179077200Y-183042914D01*
X178934342Y-182971485D01*
X178648628Y-182900057D01*
X178505771Y-182828628D01*
X178434342Y-182757200D01*
X178362914Y-182614342D01*
X178362914Y-182471485D01*
X178434342Y-182328628D01*
X178505771Y-182257200D01*
X178648628Y-182185771D01*
X179005771Y-182185771D01*
X179220057Y-182257200D01*
X179862914Y-183685771D02*
X179862914Y-182185771D01*
X180505771Y-183685771D02*
X180505771Y-182900057D01*
X180434342Y-182757200D01*
X180291485Y-182685771D01*
X180077200Y-182685771D01*
X179934342Y-182757200D01*
X179862914Y-182828628D01*
X181791485Y-183614342D02*
X181648628Y-183685771D01*
X181362914Y-183685771D01*
X181220057Y-183614342D01*
X181148628Y-183471485D01*
X181148628Y-182900057D01*
X181220057Y-182757200D01*
X181362914Y-182685771D01*
X181648628Y-182685771D01*
X181791485Y-182757200D01*
X181862914Y-182900057D01*
X181862914Y-183042914D01*
X181148628Y-183185771D01*
X183077200Y-183614342D02*
X182934342Y-183685771D01*
X182648628Y-183685771D01*
X182505771Y-183614342D01*
X182434342Y-183471485D01*
X182434342Y-182900057D01*
X182505771Y-182757200D01*
X182648628Y-182685771D01*
X182934342Y-182685771D01*
X183077200Y-182757200D01*
X183148628Y-182900057D01*
X183148628Y-183042914D01*
X182434342Y-183185771D01*
X183577200Y-182685771D02*
X184148628Y-182685771D01*
X183791485Y-182185771D02*
X183791485Y-183471485D01*
X183862914Y-183614342D01*
X184005771Y-183685771D01*
X184148628Y-183685771D01*
X184648628Y-183542914D02*
X184720057Y-183614342D01*
X184648628Y-183685771D01*
X184577200Y-183614342D01*
X184648628Y-183542914D01*
X184648628Y-183685771D01*
X184648628Y-182757200D02*
X184720057Y-182828628D01*
X184648628Y-182900057D01*
X184577200Y-182828628D01*
X184648628Y-182757200D01*
X184648628Y-182900057D01*
D10*
D12*
D10*
D11*
D10*
D11*
D10*
D11*
D10*
D11*
D10*
D11*
X197002200Y-191507200D02*
X197002200Y-194507200D01*
D10*
D11*
X261002200Y-191507200D02*
X261002200Y-198007200D01*
D14*
X40640000Y-31496000D02*
X177800000Y-31496000D01*
X177800000Y-31496000D02*
X177800000Y-142240000D01*
X177800000Y-142240000D02*
X40640000Y-142240000D01*
X40640000Y-142240000D02*
X40640000Y-31496000D01*
D15*
%TO.C,JP1*%
X129032000Y-39624000D03*
D16*
X126492000Y-39624000D03*
%TD*%
D17*
%TO.C,R10*%
X95504000Y-44196000D03*
D18*
X95504000Y-54356000D03*
%TD*%
D19*
%TO.C,J2*%
X49792000Y-37886000D03*
D20*
X49792000Y-42886000D03*
%TD*%
D21*
%TO.C,J1*%
X58715500Y-133350000D03*
X47285500Y-133350000D03*
D22*
X48555500Y-127000000D03*
D23*
X49825500Y-124460000D03*
X51095500Y-127000000D03*
X52365500Y-124460000D03*
X53635500Y-127000000D03*
X54905500Y-124460000D03*
X56175500Y-127000000D03*
X57445500Y-124460000D03*
D24*
X60770500Y-136400000D03*
X45230500Y-136400000D03*
%TD*%
D25*
%TO.C,D4*%
X118364000Y-48006000D03*
D26*
X118364000Y-45466000D03*
%TD*%
D27*
%TO.C,C4*%
X139954000Y-83478380D03*
D17*
X139954000Y-79678380D03*
%TD*%
D28*
%TO.C,U3*%
X57150000Y-64465200D03*
D29*
X57150000Y-67005200D03*
D16*
X57150000Y-69545200D03*
X57150000Y-72085200D03*
X57150000Y-74625200D03*
X57150000Y-77165200D03*
X57150000Y-79705200D03*
X57150000Y-82245200D03*
X64770000Y-82245200D03*
X67310000Y-82245200D03*
X69850000Y-82245200D03*
X72390000Y-82245200D03*
X74930000Y-82245200D03*
X77470000Y-82245200D03*
X80010000Y-82245200D03*
D29*
X82550000Y-82245200D03*
X82550000Y-64465200D03*
D16*
X80010000Y-64465200D03*
X77470000Y-64465200D03*
X74930000Y-64465200D03*
X72390000Y-64465200D03*
X69850000Y-64465200D03*
X67310000Y-64465200D03*
X64770000Y-64465200D03*
%TD*%
D30*
%TO.C,U2*%
X75647000Y-47244000D03*
D16*
X78187000Y-47244000D03*
X80727000Y-47244000D03*
X83267000Y-47244000D03*
X85807000Y-47244000D03*
D29*
X75647000Y-54864000D03*
D16*
X78187000Y-54864000D03*
X80727000Y-54864000D03*
X83267000Y-54864000D03*
X85807000Y-54864000D03*
%TD*%
D17*
%TO.C,R8*%
X138684000Y-88646000D03*
D18*
X148844000Y-88646000D03*
%TD*%
D31*
%TO.C,C3*%
X147320000Y-83522600D03*
D32*
X147320000Y-81522600D03*
%TD*%
D25*
%TO.C,D5*%
X129794000Y-48006000D03*
D26*
X129794000Y-45466000D03*
%TD*%
D33*
%TO.C,J12*%
X165742900Y-55763900D03*
X159443700Y-55763900D03*
D34*
X158021300Y-50633100D03*
D35*
X154668500Y-55814700D03*
D34*
X158021300Y-60996300D03*
X164726900Y-60920100D03*
X164726900Y-50633100D03*
%TD*%
D33*
%TO.C,J14*%
X165742900Y-85735900D03*
X159443700Y-85735900D03*
D34*
X158021300Y-80605100D03*
D35*
X154668500Y-85786700D03*
D34*
X158021300Y-90968300D03*
X164726900Y-90892100D03*
X164726900Y-80605100D03*
%TD*%
D17*
%TO.C,R6*%
X148844000Y-103886000D03*
D18*
X138684000Y-103886000D03*
%TD*%
D30*
%TO.C,U5*%
X156469000Y-45212000D03*
D16*
X159009000Y-45212000D03*
X161549000Y-45212000D03*
X164089000Y-45212000D03*
X166629000Y-45212000D03*
%TD*%
D21*
%TO.C,J10*%
X118370000Y-133187500D03*
X129800000Y-133187500D03*
D22*
X119640000Y-126837500D03*
D23*
X120910000Y-124297500D03*
X122180000Y-126837500D03*
X123450000Y-124297500D03*
X124720000Y-126837500D03*
X125990000Y-124297500D03*
X127260000Y-126837500D03*
X128530000Y-124297500D03*
D24*
X131855000Y-136237500D03*
X116315000Y-136237500D03*
%TD*%
D36*
%TO.C,D3*%
X148844000Y-96266000D03*
D37*
X138684000Y-96266000D03*
%TD*%
D20*
%TO.C,H2*%
X68834000Y-114046000D03*
%TD*%
%TO.C,H3*%
X145034000Y-46736000D03*
%TD*%
D33*
%TO.C,J17*%
X165742900Y-130947900D03*
X159443700Y-130947900D03*
D34*
X158021300Y-125817100D03*
D35*
X154668500Y-130998700D03*
D34*
X158021300Y-136180300D03*
X164726900Y-136104100D03*
X164726900Y-125817100D03*
%TD*%
D20*
%TO.C,H1*%
X68834000Y-46736000D03*
%TD*%
D38*
%TO.C,C1*%
X138684000Y-56896000D03*
D32*
X138684000Y-58896000D03*
%TD*%
D21*
%TO.C,J9*%
X112020000Y-133187500D03*
X100590000Y-133187500D03*
D22*
X101860000Y-126837500D03*
D23*
X103130000Y-124297500D03*
X104400000Y-126837500D03*
X105670000Y-124297500D03*
X106940000Y-126837500D03*
X108210000Y-124297500D03*
X109480000Y-126837500D03*
X110750000Y-124297500D03*
D24*
X114075000Y-136237500D03*
X98535000Y-136237500D03*
%TD*%
D17*
%TO.C,R1*%
X92202000Y-44196000D03*
D18*
X92202000Y-54356000D03*
%TD*%
D33*
%TO.C,J15*%
X159443700Y-100975900D03*
X165742900Y-100975900D03*
D34*
X158021300Y-95845100D03*
D35*
X154668500Y-101026700D03*
D34*
X158021300Y-106208300D03*
X164726900Y-106132100D03*
X164726900Y-95845100D03*
%TD*%
D25*
%TO.C,D1*%
X106934000Y-48006000D03*
D26*
X106934000Y-45466000D03*
%TD*%
D17*
%TO.C,R12*%
X77724000Y-43180000D03*
D18*
X87884000Y-43180000D03*
%TD*%
D33*
%TO.C,J16*%
X165742900Y-115707900D03*
X159443700Y-115707900D03*
D34*
X158021300Y-110577100D03*
D35*
X154668500Y-115758700D03*
D34*
X158021300Y-120940300D03*
X164726900Y-120864100D03*
X164726900Y-110577100D03*
%TD*%
D39*
%TO.C,U8*%
X116751600Y-84866000D03*
D16*
X116751600Y-82326000D03*
X116751600Y-79786000D03*
X116751600Y-77246000D03*
X116751600Y-74706000D03*
X116751600Y-72166000D03*
X116751600Y-69626000D03*
X116751600Y-67086000D03*
X116751600Y-64546000D03*
X116751600Y-62006000D03*
%TD*%
D29*
%TO.C,U1*%
X59944000Y-37846000D03*
X59944000Y-42926000D03*
X59944000Y-53086000D03*
X59944000Y-55626000D03*
%TD*%
D17*
%TO.C,R13*%
X133604000Y-39624000D03*
D18*
X143764000Y-39624000D03*
%TD*%
D20*
%TO.C,H4*%
X145034000Y-114046000D03*
%TD*%
D39*
%TO.C,U9*%
X95424000Y-84815200D03*
D16*
X95424000Y-82275200D03*
X95424000Y-79735200D03*
X95424000Y-77195200D03*
X95424000Y-74655200D03*
X95424000Y-72115200D03*
X95424000Y-69575200D03*
X95424000Y-67035200D03*
X95424000Y-64495200D03*
X95424000Y-61955200D03*
%TD*%
D28*
%TO.C,U11*%
X115814000Y-110950000D03*
D29*
X118354000Y-110950000D03*
X120894000Y-110950000D03*
X123434000Y-110950000D03*
X125974000Y-110950000D03*
X128514000Y-110950000D03*
X131054000Y-110950000D03*
%TD*%
D28*
%TO.C,U10*%
X95494000Y-110950000D03*
D29*
X98034000Y-110950000D03*
X100574000Y-110950000D03*
X103114000Y-110950000D03*
X105654000Y-110950000D03*
X108194000Y-110950000D03*
X110734000Y-110950000D03*
%TD*%
D17*
%TO.C,R4*%
X148844000Y-75946000D03*
D18*
X148844000Y-65786000D03*
%TD*%
D21*
%TO.C,J11*%
X136150000Y-133187500D03*
X147580000Y-133187500D03*
D22*
X137420000Y-126837500D03*
D23*
X138690000Y-124297500D03*
X139960000Y-126837500D03*
X141230000Y-124297500D03*
X142500000Y-126837500D03*
X143770000Y-124297500D03*
X145040000Y-126837500D03*
X146310000Y-124297500D03*
D24*
X149635000Y-136237500D03*
X134095000Y-136237500D03*
%TD*%
D17*
%TO.C,R7*%
X148844000Y-92456000D03*
D18*
X138684000Y-92456000D03*
%TD*%
D17*
%TO.C,R2*%
X143764000Y-63246000D03*
D18*
X143764000Y-53086000D03*
%TD*%
D33*
%TO.C,J13*%
X165742900Y-71003900D03*
X159443700Y-71003900D03*
D34*
X158021300Y-65873100D03*
D35*
X154668500Y-71054700D03*
D34*
X158021300Y-76236300D03*
X164726900Y-76160100D03*
X164726900Y-65873100D03*
%TD*%
D30*
%TO.C,J4*%
X70104000Y-39116000D03*
D16*
X70104000Y-36576000D03*
X72644000Y-39116000D03*
X72644000Y-36576000D03*
X75184000Y-39116000D03*
X75184000Y-36576000D03*
X77724000Y-39116000D03*
X77724000Y-36576000D03*
X80264000Y-39116000D03*
X80264000Y-36576000D03*
X82804000Y-39116000D03*
X82804000Y-36576000D03*
X85344000Y-39116000D03*
X85344000Y-36576000D03*
X87884000Y-39116000D03*
X87884000Y-36576000D03*
X90424000Y-39116000D03*
X90424000Y-36576000D03*
X92964000Y-39116000D03*
X92964000Y-36576000D03*
%TD*%
D38*
%TO.C,C2*%
X138684000Y-70866000D03*
D32*
X138684000Y-72866000D03*
%TD*%
D28*
%TO.C,U4*%
X47234000Y-110442000D03*
D29*
X49774000Y-110442000D03*
X52314000Y-110442000D03*
X54854000Y-110442000D03*
X57394000Y-110442000D03*
X59934000Y-110442000D03*
X62474000Y-110442000D03*
%TD*%
D30*
%TO.C,J6*%
X156469000Y-40640000D03*
D16*
X159009000Y-40640000D03*
X161549000Y-40640000D03*
X164089000Y-40640000D03*
X166629000Y-40640000D03*
%TD*%
D17*
%TO.C,R9*%
X148844000Y-107696000D03*
D18*
X138684000Y-107696000D03*
%TD*%
D28*
%TO.C,U7*%
X75022000Y-110774000D03*
D29*
X77562000Y-110774000D03*
X80102000Y-110774000D03*
X82642000Y-110774000D03*
X85182000Y-110774000D03*
X87722000Y-110774000D03*
X90262000Y-110774000D03*
%TD*%
D39*
%TO.C,J7*%
X50043000Y-84831000D03*
D16*
X47503000Y-84831000D03*
X50043000Y-82291000D03*
X47503000Y-82291000D03*
X50043000Y-79751000D03*
X47503000Y-79751000D03*
X50043000Y-77211000D03*
X47503000Y-77211000D03*
X50043000Y-74671000D03*
X47503000Y-74671000D03*
X50043000Y-72131000D03*
X47503000Y-72131000D03*
X50043000Y-69591000D03*
X47503000Y-69591000D03*
X50043000Y-67051000D03*
X47503000Y-67051000D03*
X50043000Y-64511000D03*
X47503000Y-64511000D03*
X50043000Y-61971000D03*
X47503000Y-61971000D03*
%TD*%
D19*
%TO.C,J3*%
X50292000Y-49022000D03*
D20*
X50292000Y-54022000D03*
%TD*%
D17*
%TO.C,R11*%
X98806000Y-44196000D03*
D18*
X98806000Y-54356000D03*
%TD*%
D21*
%TO.C,J5*%
X65030000Y-133187500D03*
X76460000Y-133187500D03*
D22*
X66300000Y-126837500D03*
D23*
X67570000Y-124297500D03*
X68840000Y-126837500D03*
X70110000Y-124297500D03*
X71380000Y-126837500D03*
X72650000Y-124297500D03*
X73920000Y-126837500D03*
X75190000Y-124297500D03*
D24*
X62975000Y-136237500D03*
X78515000Y-136237500D03*
%TD*%
D40*
%TO.C,D2*%
X138684000Y-100076000D03*
D37*
X148844000Y-100076000D03*
%TD*%
D21*
%TO.C,J8*%
X94240000Y-133187500D03*
X82810000Y-133187500D03*
D22*
X84080000Y-126837500D03*
D23*
X85350000Y-124297500D03*
X86620000Y-126837500D03*
X87890000Y-124297500D03*
X89160000Y-126837500D03*
X90430000Y-124297500D03*
X91700000Y-126837500D03*
X92970000Y-124297500D03*
D24*
X96295000Y-136237500D03*
X80755000Y-136237500D03*
%TD*%
D41*
%TO.C,U6*%
X65532000Y-54970000D03*
D23*
X68072000Y-54970000D03*
X70612000Y-54970000D03*
%TD*%
D17*
%TO.C,R5*%
X143764000Y-65786000D03*
D18*
X143764000Y-75946000D03*
%TD*%
D17*
%TO.C,R3*%
X148844000Y-53086000D03*
D18*
X148844000Y-63246000D03*
%TD*%
M02*
