%TF.GenerationSoftware,KiCad,Pcbnew,6.0.2-378541a8eb~116~ubuntu20.04.1*%
%TF.CreationDate,2022-03-11T17:06:48+02:00*%
%TF.ProjectId,ha-pcb,68612d70-6362-42e6-9b69-6361645f7063,4*%
%TF.SameCoordinates,Original*%
%TF.FileFunction,Soldermask,Top*%
%TF.FilePolarity,Negative*%
%FSLAX46Y46*%
G04 Gerber Fmt 4.6, Leading zero omitted, Abs format (unit mm)*
G04 Created by KiCad (PCBNEW 6.0.2-378541a8eb~116~ubuntu20.04.1) date 2022-03-11 17:06:48*
%MOMM*%
%LPD*%
G01*
G04 APERTURE LIST*
G04 Aperture macros list*
%AMRoundRect*
0 Rectangle with rounded corners*
0 $1 Rounding radius*
0 $2 $3 $4 $5 $6 $7 $8 $9 X,Y pos of 4 corners*
0 Add a 4 corners polygon primitive as box body*
4,1,4,$2,$3,$4,$5,$6,$7,$8,$9,$2,$3,0*
0 Add four circle primitives for the rounded corners*
1,1,$1+$1,$2,$3*
1,1,$1+$1,$4,$5*
1,1,$1+$1,$6,$7*
1,1,$1+$1,$8,$9*
0 Add four rect primitives between the rounded corners*
20,1,$1+$1,$2,$3,$4,$5,0*
20,1,$1+$1,$4,$5,$6,$7,0*
20,1,$1+$1,$6,$7,$8,$9,0*
20,1,$1+$1,$8,$9,$2,$3,0*%
G04 Aperture macros list end*
%TA.AperFunction,Profile*%
%ADD10C,0.100000*%
%TD*%
%ADD11RoundRect,0.050000X-0.850000X0.850000X-0.850000X-0.850000X0.850000X-0.850000X0.850000X0.850000X0*%
%ADD12O,1.800000X1.800000*%
%ADD13C,1.700000*%
%ADD14O,1.700000X1.700000*%
%ADD15RoundRect,0.050000X-1.250000X1.250000X-1.250000X-1.250000X1.250000X-1.250000X1.250000X1.250000X0*%
%ADD16C,2.600000*%
%ADD17C,3.350000*%
%ADD18RoundRect,0.050000X0.750000X0.750000X-0.750000X0.750000X-0.750000X-0.750000X0.750000X-0.750000X0*%
%ADD19C,1.600000*%
%ADD20O,1.600000X2.300000*%
%ADD21RoundRect,0.050000X0.900000X-0.900000X0.900000X0.900000X-0.900000X0.900000X-0.900000X-0.900000X0*%
%ADD22C,1.900000*%
%ADD23RoundRect,0.050000X0.800000X-0.800000X0.800000X0.800000X-0.800000X0.800000X-0.800000X-0.800000X0*%
%ADD24RoundRect,0.050000X-0.850000X-0.850000X0.850000X-0.850000X0.850000X0.850000X-0.850000X0.850000X0*%
%ADD25C,1.800000*%
%ADD26RoundRect,0.050000X0.850000X-0.850000X0.850000X0.850000X-0.850000X0.850000X-0.850000X-0.850000X0*%
%ADD27RoundRect,0.050000X0.600000X-0.600000X0.600000X0.600000X-0.600000X0.600000X-0.600000X-0.600000X0*%
%ADD28C,1.300000*%
%ADD29C,1.100000*%
%ADD30RoundRect,0.431000X-0.381000X0.762000X-0.381000X-0.762000X0.381000X-0.762000X0.381000X0.762000X0*%
%ADD31RoundRect,0.431000X-0.762000X-0.381000X0.762000X-0.381000X0.762000X0.381000X-0.762000X0.381000X0*%
%ADD32RoundRect,0.050000X1.100000X1.100000X-1.100000X1.100000X-1.100000X-1.100000X1.100000X-1.100000X0*%
%ADD33O,2.300000X2.300000*%
%ADD34RoundRect,0.050000X-0.600000X0.600000X-0.600000X-0.600000X0.600000X-0.600000X0.600000X0.600000X0*%
%ADD35RoundRect,0.050000X0.850000X0.850000X-0.850000X0.850000X-0.850000X-0.850000X0.850000X-0.850000X0*%
%ADD36RoundRect,0.050000X-1.100000X-1.100000X1.100000X-1.100000X1.100000X1.100000X-1.100000X1.100000X0*%
%ADD37RoundRect,0.050000X-0.750000X-0.750000X0.750000X-0.750000X0.750000X0.750000X-0.750000X0.750000X0*%
G04 APERTURE END LIST*
D10*
X40640000Y-31496000D02*
X177800000Y-31496000D01*
X177800000Y-31496000D02*
X177800000Y-142240000D01*
X177800000Y-142240000D02*
X40640000Y-142240000D01*
X40640000Y-142240000D02*
X40640000Y-31496000D01*
D11*
%TO.C,JP1*%
X129032000Y-39624000D03*
D12*
X126492000Y-39624000D03*
%TD*%
D13*
%TO.C,R10*%
X95504000Y-44196000D03*
D14*
X95504000Y-54356000D03*
%TD*%
D15*
%TO.C,J2*%
X49792000Y-37886000D03*
D16*
X49792000Y-42886000D03*
%TD*%
D17*
%TO.C,J1*%
X58715500Y-133350000D03*
X47285500Y-133350000D03*
D18*
X48555500Y-127000000D03*
D19*
X49825500Y-124460000D03*
X51095500Y-127000000D03*
X52365500Y-124460000D03*
X53635500Y-127000000D03*
X54905500Y-124460000D03*
X56175500Y-127000000D03*
X57445500Y-124460000D03*
D20*
X60770500Y-136400000D03*
X45230500Y-136400000D03*
%TD*%
D21*
%TO.C,D4*%
X118364000Y-48006000D03*
D22*
X118364000Y-45466000D03*
%TD*%
D23*
%TO.C,C4*%
X139954000Y-83478380D03*
D13*
X139954000Y-79678380D03*
%TD*%
D24*
%TO.C,U3*%
X57150000Y-64465200D03*
D25*
X57150000Y-67005200D03*
D12*
X57150000Y-69545200D03*
X57150000Y-72085200D03*
X57150000Y-74625200D03*
X57150000Y-77165200D03*
X57150000Y-79705200D03*
X57150000Y-82245200D03*
X64770000Y-82245200D03*
X67310000Y-82245200D03*
X69850000Y-82245200D03*
X72390000Y-82245200D03*
X74930000Y-82245200D03*
X77470000Y-82245200D03*
X80010000Y-82245200D03*
D25*
X82550000Y-82245200D03*
X82550000Y-64465200D03*
D12*
X80010000Y-64465200D03*
X77470000Y-64465200D03*
X74930000Y-64465200D03*
X72390000Y-64465200D03*
X69850000Y-64465200D03*
X67310000Y-64465200D03*
X64770000Y-64465200D03*
%TD*%
D26*
%TO.C,U2*%
X75647000Y-47244000D03*
D12*
X78187000Y-47244000D03*
X80727000Y-47244000D03*
X83267000Y-47244000D03*
X85807000Y-47244000D03*
D25*
X75647000Y-54864000D03*
D12*
X78187000Y-54864000D03*
X80727000Y-54864000D03*
X83267000Y-54864000D03*
X85807000Y-54864000D03*
%TD*%
D13*
%TO.C,R8*%
X138684000Y-88646000D03*
D14*
X148844000Y-88646000D03*
%TD*%
D27*
%TO.C,C3*%
X147320000Y-83522600D03*
D28*
X147320000Y-81522600D03*
%TD*%
D21*
%TO.C,D5*%
X129794000Y-48006000D03*
D22*
X129794000Y-45466000D03*
%TD*%
D29*
%TO.C,J12*%
X165742900Y-55763900D03*
X159443700Y-55763900D03*
D30*
X158021300Y-50633100D03*
D31*
X154668500Y-55814700D03*
D30*
X158021300Y-60996300D03*
X164726900Y-60920100D03*
X164726900Y-50633100D03*
%TD*%
D29*
%TO.C,J14*%
X165742900Y-85735900D03*
X159443700Y-85735900D03*
D30*
X158021300Y-80605100D03*
D31*
X154668500Y-85786700D03*
D30*
X158021300Y-90968300D03*
X164726900Y-90892100D03*
X164726900Y-80605100D03*
%TD*%
D13*
%TO.C,R6*%
X148844000Y-103886000D03*
D14*
X138684000Y-103886000D03*
%TD*%
D26*
%TO.C,U5*%
X156469000Y-45212000D03*
D12*
X159009000Y-45212000D03*
X161549000Y-45212000D03*
X164089000Y-45212000D03*
X166629000Y-45212000D03*
%TD*%
D17*
%TO.C,J10*%
X118370000Y-133187500D03*
X129800000Y-133187500D03*
D18*
X119640000Y-126837500D03*
D19*
X120910000Y-124297500D03*
X122180000Y-126837500D03*
X123450000Y-124297500D03*
X124720000Y-126837500D03*
X125990000Y-124297500D03*
X127260000Y-126837500D03*
X128530000Y-124297500D03*
D20*
X131855000Y-136237500D03*
X116315000Y-136237500D03*
%TD*%
D32*
%TO.C,D3*%
X148844000Y-96266000D03*
D33*
X138684000Y-96266000D03*
%TD*%
D16*
%TO.C,H2*%
X68834000Y-114046000D03*
%TD*%
%TO.C,H3*%
X145034000Y-46736000D03*
%TD*%
D29*
%TO.C,J17*%
X165742900Y-130947900D03*
X159443700Y-130947900D03*
D30*
X158021300Y-125817100D03*
D31*
X154668500Y-130998700D03*
D30*
X158021300Y-136180300D03*
X164726900Y-136104100D03*
X164726900Y-125817100D03*
%TD*%
D16*
%TO.C,H1*%
X68834000Y-46736000D03*
%TD*%
D34*
%TO.C,C1*%
X138684000Y-56896000D03*
D28*
X138684000Y-58896000D03*
%TD*%
D17*
%TO.C,J9*%
X112020000Y-133187500D03*
X100590000Y-133187500D03*
D18*
X101860000Y-126837500D03*
D19*
X103130000Y-124297500D03*
X104400000Y-126837500D03*
X105670000Y-124297500D03*
X106940000Y-126837500D03*
X108210000Y-124297500D03*
X109480000Y-126837500D03*
X110750000Y-124297500D03*
D20*
X114075000Y-136237500D03*
X98535000Y-136237500D03*
%TD*%
D13*
%TO.C,R1*%
X92202000Y-44196000D03*
D14*
X92202000Y-54356000D03*
%TD*%
D29*
%TO.C,J15*%
X159443700Y-100975900D03*
X165742900Y-100975900D03*
D30*
X158021300Y-95845100D03*
D31*
X154668500Y-101026700D03*
D30*
X158021300Y-106208300D03*
X164726900Y-106132100D03*
X164726900Y-95845100D03*
%TD*%
D21*
%TO.C,D1*%
X106934000Y-48006000D03*
D22*
X106934000Y-45466000D03*
%TD*%
D13*
%TO.C,R12*%
X77724000Y-43180000D03*
D14*
X87884000Y-43180000D03*
%TD*%
D29*
%TO.C,J16*%
X165742900Y-115707900D03*
X159443700Y-115707900D03*
D30*
X158021300Y-110577100D03*
D31*
X154668500Y-115758700D03*
D30*
X158021300Y-120940300D03*
X164726900Y-120864100D03*
X164726900Y-110577100D03*
%TD*%
D35*
%TO.C,U8*%
X116751600Y-84866000D03*
D12*
X116751600Y-82326000D03*
X116751600Y-79786000D03*
X116751600Y-77246000D03*
X116751600Y-74706000D03*
X116751600Y-72166000D03*
X116751600Y-69626000D03*
X116751600Y-67086000D03*
X116751600Y-64546000D03*
X116751600Y-62006000D03*
%TD*%
D25*
%TO.C,U1*%
X59944000Y-37846000D03*
X59944000Y-42926000D03*
X59944000Y-53086000D03*
X59944000Y-55626000D03*
%TD*%
D13*
%TO.C,R13*%
X133604000Y-39624000D03*
D14*
X143764000Y-39624000D03*
%TD*%
D16*
%TO.C,H4*%
X145034000Y-114046000D03*
%TD*%
D35*
%TO.C,U9*%
X95424000Y-84815200D03*
D12*
X95424000Y-82275200D03*
X95424000Y-79735200D03*
X95424000Y-77195200D03*
X95424000Y-74655200D03*
X95424000Y-72115200D03*
X95424000Y-69575200D03*
X95424000Y-67035200D03*
X95424000Y-64495200D03*
X95424000Y-61955200D03*
%TD*%
D24*
%TO.C,U11*%
X115814000Y-110950000D03*
D25*
X118354000Y-110950000D03*
X120894000Y-110950000D03*
X123434000Y-110950000D03*
X125974000Y-110950000D03*
X128514000Y-110950000D03*
X131054000Y-110950000D03*
%TD*%
D24*
%TO.C,U10*%
X95494000Y-110950000D03*
D25*
X98034000Y-110950000D03*
X100574000Y-110950000D03*
X103114000Y-110950000D03*
X105654000Y-110950000D03*
X108194000Y-110950000D03*
X110734000Y-110950000D03*
%TD*%
D13*
%TO.C,R4*%
X148844000Y-75946000D03*
D14*
X148844000Y-65786000D03*
%TD*%
D17*
%TO.C,J11*%
X136150000Y-133187500D03*
X147580000Y-133187500D03*
D18*
X137420000Y-126837500D03*
D19*
X138690000Y-124297500D03*
X139960000Y-126837500D03*
X141230000Y-124297500D03*
X142500000Y-126837500D03*
X143770000Y-124297500D03*
X145040000Y-126837500D03*
X146310000Y-124297500D03*
D20*
X149635000Y-136237500D03*
X134095000Y-136237500D03*
%TD*%
D13*
%TO.C,R7*%
X148844000Y-92456000D03*
D14*
X138684000Y-92456000D03*
%TD*%
D13*
%TO.C,R2*%
X143764000Y-63246000D03*
D14*
X143764000Y-53086000D03*
%TD*%
D29*
%TO.C,J13*%
X165742900Y-71003900D03*
X159443700Y-71003900D03*
D30*
X158021300Y-65873100D03*
D31*
X154668500Y-71054700D03*
D30*
X158021300Y-76236300D03*
X164726900Y-76160100D03*
X164726900Y-65873100D03*
%TD*%
D26*
%TO.C,J4*%
X70104000Y-39116000D03*
D12*
X70104000Y-36576000D03*
X72644000Y-39116000D03*
X72644000Y-36576000D03*
X75184000Y-39116000D03*
X75184000Y-36576000D03*
X77724000Y-39116000D03*
X77724000Y-36576000D03*
X80264000Y-39116000D03*
X80264000Y-36576000D03*
X82804000Y-39116000D03*
X82804000Y-36576000D03*
X85344000Y-39116000D03*
X85344000Y-36576000D03*
X87884000Y-39116000D03*
X87884000Y-36576000D03*
X90424000Y-39116000D03*
X90424000Y-36576000D03*
X92964000Y-39116000D03*
X92964000Y-36576000D03*
%TD*%
D34*
%TO.C,C2*%
X138684000Y-70866000D03*
D28*
X138684000Y-72866000D03*
%TD*%
D24*
%TO.C,U4*%
X47234000Y-110442000D03*
D25*
X49774000Y-110442000D03*
X52314000Y-110442000D03*
X54854000Y-110442000D03*
X57394000Y-110442000D03*
X59934000Y-110442000D03*
X62474000Y-110442000D03*
%TD*%
D26*
%TO.C,J6*%
X156469000Y-40640000D03*
D12*
X159009000Y-40640000D03*
X161549000Y-40640000D03*
X164089000Y-40640000D03*
X166629000Y-40640000D03*
%TD*%
D13*
%TO.C,R9*%
X148844000Y-107696000D03*
D14*
X138684000Y-107696000D03*
%TD*%
D24*
%TO.C,U7*%
X75022000Y-110774000D03*
D25*
X77562000Y-110774000D03*
X80102000Y-110774000D03*
X82642000Y-110774000D03*
X85182000Y-110774000D03*
X87722000Y-110774000D03*
X90262000Y-110774000D03*
%TD*%
D35*
%TO.C,J7*%
X50043000Y-84831000D03*
D12*
X47503000Y-84831000D03*
X50043000Y-82291000D03*
X47503000Y-82291000D03*
X50043000Y-79751000D03*
X47503000Y-79751000D03*
X50043000Y-77211000D03*
X47503000Y-77211000D03*
X50043000Y-74671000D03*
X47503000Y-74671000D03*
X50043000Y-72131000D03*
X47503000Y-72131000D03*
X50043000Y-69591000D03*
X47503000Y-69591000D03*
X50043000Y-67051000D03*
X47503000Y-67051000D03*
X50043000Y-64511000D03*
X47503000Y-64511000D03*
X50043000Y-61971000D03*
X47503000Y-61971000D03*
%TD*%
D15*
%TO.C,J3*%
X50292000Y-49022000D03*
D16*
X50292000Y-54022000D03*
%TD*%
D13*
%TO.C,R11*%
X98806000Y-44196000D03*
D14*
X98806000Y-54356000D03*
%TD*%
D17*
%TO.C,J5*%
X65030000Y-133187500D03*
X76460000Y-133187500D03*
D18*
X66300000Y-126837500D03*
D19*
X67570000Y-124297500D03*
X68840000Y-126837500D03*
X70110000Y-124297500D03*
X71380000Y-126837500D03*
X72650000Y-124297500D03*
X73920000Y-126837500D03*
X75190000Y-124297500D03*
D20*
X62975000Y-136237500D03*
X78515000Y-136237500D03*
%TD*%
D36*
%TO.C,D2*%
X138684000Y-100076000D03*
D33*
X148844000Y-100076000D03*
%TD*%
D17*
%TO.C,J8*%
X94240000Y-133187500D03*
X82810000Y-133187500D03*
D18*
X84080000Y-126837500D03*
D19*
X85350000Y-124297500D03*
X86620000Y-126837500D03*
X87890000Y-124297500D03*
X89160000Y-126837500D03*
X90430000Y-124297500D03*
X91700000Y-126837500D03*
X92970000Y-124297500D03*
D20*
X96295000Y-136237500D03*
X80755000Y-136237500D03*
%TD*%
D37*
%TO.C,U6*%
X65532000Y-54970000D03*
D19*
X68072000Y-54970000D03*
X70612000Y-54970000D03*
%TD*%
D13*
%TO.C,R5*%
X143764000Y-65786000D03*
D14*
X143764000Y-75946000D03*
%TD*%
D13*
%TO.C,R3*%
X148844000Y-53086000D03*
D14*
X148844000Y-63246000D03*
%TD*%
M02*
