%TF.GenerationSoftware,KiCad,Pcbnew,6.0.2-378541a8eb~116~ubuntu20.04.1*%
%TF.CreationDate,2022-03-09T13:41:15+02:00*%
%TF.ProjectId,ha-pcb,68612d70-6362-42e6-9b69-6361645f7063,0*%
%TF.SameCoordinates,Original*%
%TF.FileFunction,Legend,Top*%
%TF.FilePolarity,Positive*%
%FSLAX46Y46*%
G04 Gerber Fmt 4.6, Leading zero omitted, Abs format (unit mm)*
G04 Created by KiCad (PCBNEW 6.0.2-378541a8eb~116~ubuntu20.04.1) date 2022-03-09 13:41:15*
%MOMM*%
%LPD*%
G01*
G04 APERTURE LIST*
%ADD10C,0.100000*%
%ADD11C,0.150000*%
%ADD12C,0.300000*%
%ADD13C,0.400000*%
%ADD14C,0.153000*%
%TA.AperFunction,Profile*%
%ADD15C,0.100000*%
%TD*%
%ADD16C,0.120000*%
G04 APERTURE END LIST*
D10*
D11*
X177002200Y-166007200D02*
X177002200Y-198007200D01*
X285002200Y-198007200D01*
X285002200Y-166007200D01*
X177002200Y-166007200D01*
D10*
D11*
X10000000Y-10000000D02*
X10000000Y-200007200D01*
X287002200Y-200007200D01*
X287002200Y-10000000D01*
X10000000Y-10000000D01*
D10*
D11*
X12000000Y-12000000D02*
X12000000Y-198007200D01*
X285002200Y-198007200D01*
X285002200Y-12000000D01*
X12000000Y-12000000D01*
D10*
D11*
X60000000Y-12000000D02*
X60000000Y-10000000D01*
D10*
D11*
X110000000Y-12000000D02*
X110000000Y-10000000D01*
D10*
D11*
X160000000Y-12000000D02*
X160000000Y-10000000D01*
D10*
D11*
X210000000Y-12000000D02*
X210000000Y-10000000D01*
D10*
D11*
X260000000Y-12000000D02*
X260000000Y-10000000D01*
D10*
D11*
X36065476Y-11588095D02*
X35322619Y-11588095D01*
X35694047Y-11588095D02*
X35694047Y-10288095D01*
X35570238Y-10473809D01*
X35446428Y-10597619D01*
X35322619Y-10659523D01*
D10*
D11*
X85322619Y-10411904D02*
X85384523Y-10350000D01*
X85508333Y-10288095D01*
X85817857Y-10288095D01*
X85941666Y-10350000D01*
X86003571Y-10411904D01*
X86065476Y-10535714D01*
X86065476Y-10659523D01*
X86003571Y-10845238D01*
X85260714Y-11588095D01*
X86065476Y-11588095D01*
D10*
D11*
X135260714Y-10288095D02*
X136065476Y-10288095D01*
X135632142Y-10783333D01*
X135817857Y-10783333D01*
X135941666Y-10845238D01*
X136003571Y-10907142D01*
X136065476Y-11030952D01*
X136065476Y-11340476D01*
X136003571Y-11464285D01*
X135941666Y-11526190D01*
X135817857Y-11588095D01*
X135446428Y-11588095D01*
X135322619Y-11526190D01*
X135260714Y-11464285D01*
D10*
D11*
X185941666Y-10721428D02*
X185941666Y-11588095D01*
X185632142Y-10226190D02*
X185322619Y-11154761D01*
X186127380Y-11154761D01*
D10*
D11*
X236003571Y-10288095D02*
X235384523Y-10288095D01*
X235322619Y-10907142D01*
X235384523Y-10845238D01*
X235508333Y-10783333D01*
X235817857Y-10783333D01*
X235941666Y-10845238D01*
X236003571Y-10907142D01*
X236065476Y-11030952D01*
X236065476Y-11340476D01*
X236003571Y-11464285D01*
X235941666Y-11526190D01*
X235817857Y-11588095D01*
X235508333Y-11588095D01*
X235384523Y-11526190D01*
X235322619Y-11464285D01*
D10*
D11*
X285941666Y-10288095D02*
X285694047Y-10288095D01*
X285570238Y-10350000D01*
X285508333Y-10411904D01*
X285384523Y-10597619D01*
X285322619Y-10845238D01*
X285322619Y-11340476D01*
X285384523Y-11464285D01*
X285446428Y-11526190D01*
X285570238Y-11588095D01*
X285817857Y-11588095D01*
X285941666Y-11526190D01*
X286003571Y-11464285D01*
X286065476Y-11340476D01*
X286065476Y-11030952D01*
X286003571Y-10907142D01*
X285941666Y-10845238D01*
X285817857Y-10783333D01*
X285570238Y-10783333D01*
X285446428Y-10845238D01*
X285384523Y-10907142D01*
X285322619Y-11030952D01*
D10*
D11*
X60000000Y-198007200D02*
X60000000Y-200007200D01*
D10*
D11*
X110000000Y-198007200D02*
X110000000Y-200007200D01*
D10*
D11*
X160000000Y-198007200D02*
X160000000Y-200007200D01*
D10*
D11*
X210000000Y-198007200D02*
X210000000Y-200007200D01*
D10*
D11*
X260000000Y-198007200D02*
X260000000Y-200007200D01*
D10*
D11*
X36065476Y-199595295D02*
X35322619Y-199595295D01*
X35694047Y-199595295D02*
X35694047Y-198295295D01*
X35570238Y-198481009D01*
X35446428Y-198604819D01*
X35322619Y-198666723D01*
D10*
D11*
X85322619Y-198419104D02*
X85384523Y-198357200D01*
X85508333Y-198295295D01*
X85817857Y-198295295D01*
X85941666Y-198357200D01*
X86003571Y-198419104D01*
X86065476Y-198542914D01*
X86065476Y-198666723D01*
X86003571Y-198852438D01*
X85260714Y-199595295D01*
X86065476Y-199595295D01*
D10*
D11*
X135260714Y-198295295D02*
X136065476Y-198295295D01*
X135632142Y-198790533D01*
X135817857Y-198790533D01*
X135941666Y-198852438D01*
X136003571Y-198914342D01*
X136065476Y-199038152D01*
X136065476Y-199347676D01*
X136003571Y-199471485D01*
X135941666Y-199533390D01*
X135817857Y-199595295D01*
X135446428Y-199595295D01*
X135322619Y-199533390D01*
X135260714Y-199471485D01*
D10*
D11*
X185941666Y-198728628D02*
X185941666Y-199595295D01*
X185632142Y-198233390D02*
X185322619Y-199161961D01*
X186127380Y-199161961D01*
D10*
D11*
X236003571Y-198295295D02*
X235384523Y-198295295D01*
X235322619Y-198914342D01*
X235384523Y-198852438D01*
X235508333Y-198790533D01*
X235817857Y-198790533D01*
X235941666Y-198852438D01*
X236003571Y-198914342D01*
X236065476Y-199038152D01*
X236065476Y-199347676D01*
X236003571Y-199471485D01*
X235941666Y-199533390D01*
X235817857Y-199595295D01*
X235508333Y-199595295D01*
X235384523Y-199533390D01*
X235322619Y-199471485D01*
D10*
D11*
X285941666Y-198295295D02*
X285694047Y-198295295D01*
X285570238Y-198357200D01*
X285508333Y-198419104D01*
X285384523Y-198604819D01*
X285322619Y-198852438D01*
X285322619Y-199347676D01*
X285384523Y-199471485D01*
X285446428Y-199533390D01*
X285570238Y-199595295D01*
X285817857Y-199595295D01*
X285941666Y-199533390D01*
X286003571Y-199471485D01*
X286065476Y-199347676D01*
X286065476Y-199038152D01*
X286003571Y-198914342D01*
X285941666Y-198852438D01*
X285817857Y-198790533D01*
X285570238Y-198790533D01*
X285446428Y-198852438D01*
X285384523Y-198914342D01*
X285322619Y-199038152D01*
D10*
D11*
X10000000Y-60000000D02*
X12000000Y-60000000D01*
D10*
D11*
X10000000Y-110000000D02*
X12000000Y-110000000D01*
D10*
D11*
X10000000Y-160000000D02*
X12000000Y-160000000D01*
D10*
D11*
X10690476Y-35216666D02*
X11309523Y-35216666D01*
X10566666Y-35588095D02*
X11000000Y-34288095D01*
X11433333Y-35588095D01*
D10*
D11*
X11092857Y-84907142D02*
X11278571Y-84969047D01*
X11340476Y-85030952D01*
X11402380Y-85154761D01*
X11402380Y-85340476D01*
X11340476Y-85464285D01*
X11278571Y-85526190D01*
X11154761Y-85588095D01*
X10659523Y-85588095D01*
X10659523Y-84288095D01*
X11092857Y-84288095D01*
X11216666Y-84350000D01*
X11278571Y-84411904D01*
X11340476Y-84535714D01*
X11340476Y-84659523D01*
X11278571Y-84783333D01*
X11216666Y-84845238D01*
X11092857Y-84907142D01*
X10659523Y-84907142D01*
D10*
D11*
X11402380Y-135464285D02*
X11340476Y-135526190D01*
X11154761Y-135588095D01*
X11030952Y-135588095D01*
X10845238Y-135526190D01*
X10721428Y-135402380D01*
X10659523Y-135278571D01*
X10597619Y-135030952D01*
X10597619Y-134845238D01*
X10659523Y-134597619D01*
X10721428Y-134473809D01*
X10845238Y-134350000D01*
X11030952Y-134288095D01*
X11154761Y-134288095D01*
X11340476Y-134350000D01*
X11402380Y-134411904D01*
D10*
D11*
X10659523Y-185588095D02*
X10659523Y-184288095D01*
X10969047Y-184288095D01*
X11154761Y-184350000D01*
X11278571Y-184473809D01*
X11340476Y-184597619D01*
X11402380Y-184845238D01*
X11402380Y-185030952D01*
X11340476Y-185278571D01*
X11278571Y-185402380D01*
X11154761Y-185526190D01*
X10969047Y-185588095D01*
X10659523Y-185588095D01*
D10*
D11*
X287002200Y-60000000D02*
X285002200Y-60000000D01*
D10*
D11*
X287002200Y-110000000D02*
X285002200Y-110000000D01*
D10*
D11*
X287002200Y-160000000D02*
X285002200Y-160000000D01*
D10*
D11*
X285692676Y-35216666D02*
X286311723Y-35216666D01*
X285568866Y-35588095D02*
X286002200Y-34288095D01*
X286435533Y-35588095D01*
D10*
D11*
X286095057Y-84907142D02*
X286280771Y-84969047D01*
X286342676Y-85030952D01*
X286404580Y-85154761D01*
X286404580Y-85340476D01*
X286342676Y-85464285D01*
X286280771Y-85526190D01*
X286156961Y-85588095D01*
X285661723Y-85588095D01*
X285661723Y-84288095D01*
X286095057Y-84288095D01*
X286218866Y-84350000D01*
X286280771Y-84411904D01*
X286342676Y-84535714D01*
X286342676Y-84659523D01*
X286280771Y-84783333D01*
X286218866Y-84845238D01*
X286095057Y-84907142D01*
X285661723Y-84907142D01*
D10*
D11*
X286404580Y-135464285D02*
X286342676Y-135526190D01*
X286156961Y-135588095D01*
X286033152Y-135588095D01*
X285847438Y-135526190D01*
X285723628Y-135402380D01*
X285661723Y-135278571D01*
X285599819Y-135030952D01*
X285599819Y-134845238D01*
X285661723Y-134597619D01*
X285723628Y-134473809D01*
X285847438Y-134350000D01*
X286033152Y-134288095D01*
X286156961Y-134288095D01*
X286342676Y-134350000D01*
X286404580Y-134411904D01*
D10*
D11*
X285661723Y-185588095D02*
X285661723Y-184288095D01*
X285971247Y-184288095D01*
X286156961Y-184350000D01*
X286280771Y-184473809D01*
X286342676Y-184597619D01*
X286404580Y-184845238D01*
X286404580Y-185030952D01*
X286342676Y-185278571D01*
X286280771Y-185402380D01*
X286156961Y-185526190D01*
X285971247Y-185588095D01*
X285661723Y-185588095D01*
D10*
D11*
X200434342Y-193785771D02*
X200434342Y-192285771D01*
X200791485Y-192285771D01*
X201005771Y-192357200D01*
X201148628Y-192500057D01*
X201220057Y-192642914D01*
X201291485Y-192928628D01*
X201291485Y-193142914D01*
X201220057Y-193428628D01*
X201148628Y-193571485D01*
X201005771Y-193714342D01*
X200791485Y-193785771D01*
X200434342Y-193785771D01*
X202577200Y-193785771D02*
X202577200Y-193000057D01*
X202505771Y-192857200D01*
X202362914Y-192785771D01*
X202077200Y-192785771D01*
X201934342Y-192857200D01*
X202577200Y-193714342D02*
X202434342Y-193785771D01*
X202077200Y-193785771D01*
X201934342Y-193714342D01*
X201862914Y-193571485D01*
X201862914Y-193428628D01*
X201934342Y-193285771D01*
X202077200Y-193214342D01*
X202434342Y-193214342D01*
X202577200Y-193142914D01*
X203077200Y-192785771D02*
X203648628Y-192785771D01*
X203291485Y-192285771D02*
X203291485Y-193571485D01*
X203362914Y-193714342D01*
X203505771Y-193785771D01*
X203648628Y-193785771D01*
X204720057Y-193714342D02*
X204577200Y-193785771D01*
X204291485Y-193785771D01*
X204148628Y-193714342D01*
X204077200Y-193571485D01*
X204077200Y-193000057D01*
X204148628Y-192857200D01*
X204291485Y-192785771D01*
X204577200Y-192785771D01*
X204720057Y-192857200D01*
X204791485Y-193000057D01*
X204791485Y-193142914D01*
X204077200Y-193285771D01*
X205434342Y-193642914D02*
X205505771Y-193714342D01*
X205434342Y-193785771D01*
X205362914Y-193714342D01*
X205434342Y-193642914D01*
X205434342Y-193785771D01*
X205434342Y-192857200D02*
X205505771Y-192928628D01*
X205434342Y-193000057D01*
X205362914Y-192928628D01*
X205434342Y-192857200D01*
X205434342Y-193000057D01*
D10*
D11*
X177002200Y-194507200D02*
X285002200Y-194507200D01*
D10*
D11*
X178434342Y-196585771D02*
X178434342Y-195085771D01*
X179291485Y-196585771D02*
X178648628Y-195728628D01*
X179291485Y-195085771D02*
X178434342Y-195942914D01*
X179934342Y-196585771D02*
X179934342Y-195585771D01*
X179934342Y-195085771D02*
X179862914Y-195157200D01*
X179934342Y-195228628D01*
X180005771Y-195157200D01*
X179934342Y-195085771D01*
X179934342Y-195228628D01*
X181505771Y-196442914D02*
X181434342Y-196514342D01*
X181220057Y-196585771D01*
X181077200Y-196585771D01*
X180862914Y-196514342D01*
X180720057Y-196371485D01*
X180648628Y-196228628D01*
X180577200Y-195942914D01*
X180577200Y-195728628D01*
X180648628Y-195442914D01*
X180720057Y-195300057D01*
X180862914Y-195157200D01*
X181077200Y-195085771D01*
X181220057Y-195085771D01*
X181434342Y-195157200D01*
X181505771Y-195228628D01*
X182791485Y-196585771D02*
X182791485Y-195800057D01*
X182720057Y-195657200D01*
X182577200Y-195585771D01*
X182291485Y-195585771D01*
X182148628Y-195657200D01*
X182791485Y-196514342D02*
X182648628Y-196585771D01*
X182291485Y-196585771D01*
X182148628Y-196514342D01*
X182077200Y-196371485D01*
X182077200Y-196228628D01*
X182148628Y-196085771D01*
X182291485Y-196014342D01*
X182648628Y-196014342D01*
X182791485Y-195942914D01*
X184148628Y-196585771D02*
X184148628Y-195085771D01*
X184148628Y-196514342D02*
X184005771Y-196585771D01*
X183720057Y-196585771D01*
X183577200Y-196514342D01*
X183505771Y-196442914D01*
X183434342Y-196300057D01*
X183434342Y-195871485D01*
X183505771Y-195728628D01*
X183577200Y-195657200D01*
X183720057Y-195585771D01*
X184005771Y-195585771D01*
X184148628Y-195657200D01*
X186005771Y-195800057D02*
X186505771Y-195800057D01*
X186720057Y-196585771D02*
X186005771Y-196585771D01*
X186005771Y-195085771D01*
X186720057Y-195085771D01*
X187362914Y-196442914D02*
X187434342Y-196514342D01*
X187362914Y-196585771D01*
X187291485Y-196514342D01*
X187362914Y-196442914D01*
X187362914Y-196585771D01*
X188077200Y-196585771D02*
X188077200Y-195085771D01*
X188434342Y-195085771D01*
X188648628Y-195157200D01*
X188791485Y-195300057D01*
X188862914Y-195442914D01*
X188934342Y-195728628D01*
X188934342Y-195942914D01*
X188862914Y-196228628D01*
X188791485Y-196371485D01*
X188648628Y-196514342D01*
X188434342Y-196585771D01*
X188077200Y-196585771D01*
X189577200Y-196442914D02*
X189648628Y-196514342D01*
X189577200Y-196585771D01*
X189505771Y-196514342D01*
X189577200Y-196442914D01*
X189577200Y-196585771D01*
X190220057Y-196157200D02*
X190934342Y-196157200D01*
X190077200Y-196585771D02*
X190577200Y-195085771D01*
X191077200Y-196585771D01*
X191577200Y-196442914D02*
X191648628Y-196514342D01*
X191577200Y-196585771D01*
X191505771Y-196514342D01*
X191577200Y-196442914D01*
X191577200Y-196585771D01*
X194577200Y-196585771D02*
X194577200Y-195085771D01*
X194720057Y-196014342D02*
X195148628Y-196585771D01*
X195148628Y-195585771D02*
X194577200Y-196157200D01*
X195791485Y-196585771D02*
X195791485Y-195585771D01*
X195791485Y-195085771D02*
X195720057Y-195157200D01*
X195791485Y-195228628D01*
X195862914Y-195157200D01*
X195791485Y-195085771D01*
X195791485Y-195228628D01*
X197148628Y-196514342D02*
X197005771Y-196585771D01*
X196720057Y-196585771D01*
X196577200Y-196514342D01*
X196505771Y-196442914D01*
X196434342Y-196300057D01*
X196434342Y-195871485D01*
X196505771Y-195728628D01*
X196577200Y-195657200D01*
X196720057Y-195585771D01*
X197005771Y-195585771D01*
X197148628Y-195657200D01*
X198434342Y-196585771D02*
X198434342Y-195800057D01*
X198362914Y-195657200D01*
X198220057Y-195585771D01*
X197934342Y-195585771D01*
X197791485Y-195657200D01*
X198434342Y-196514342D02*
X198291485Y-196585771D01*
X197934342Y-196585771D01*
X197791485Y-196514342D01*
X197720057Y-196371485D01*
X197720057Y-196228628D01*
X197791485Y-196085771D01*
X197934342Y-196014342D01*
X198291485Y-196014342D01*
X198434342Y-195942914D01*
X199791485Y-196585771D02*
X199791485Y-195085771D01*
X199791485Y-196514342D02*
X199648628Y-196585771D01*
X199362914Y-196585771D01*
X199220057Y-196514342D01*
X199148628Y-196442914D01*
X199077200Y-196300057D01*
X199077200Y-195871485D01*
X199148628Y-195728628D01*
X199220057Y-195657200D01*
X199362914Y-195585771D01*
X199648628Y-195585771D01*
X199791485Y-195657200D01*
X202291485Y-195085771D02*
X202005771Y-195085771D01*
X201862914Y-195157200D01*
X201791485Y-195228628D01*
X201648628Y-195442914D01*
X201577200Y-195728628D01*
X201577200Y-196300057D01*
X201648628Y-196442914D01*
X201720057Y-196514342D01*
X201862914Y-196585771D01*
X202148628Y-196585771D01*
X202291485Y-196514342D01*
X202362914Y-196442914D01*
X202434342Y-196300057D01*
X202434342Y-195942914D01*
X202362914Y-195800057D01*
X202291485Y-195728628D01*
X202148628Y-195657200D01*
X201862914Y-195657200D01*
X201720057Y-195728628D01*
X201648628Y-195800057D01*
X201577200Y-195942914D01*
X203077200Y-196442914D02*
X203148628Y-196514342D01*
X203077200Y-196585771D01*
X203005771Y-196514342D01*
X203077200Y-196442914D01*
X203077200Y-196585771D01*
X204077200Y-195085771D02*
X204220057Y-195085771D01*
X204362914Y-195157200D01*
X204434342Y-195228628D01*
X204505771Y-195371485D01*
X204577200Y-195657200D01*
X204577200Y-196014342D01*
X204505771Y-196300057D01*
X204434342Y-196442914D01*
X204362914Y-196514342D01*
X204220057Y-196585771D01*
X204077200Y-196585771D01*
X203934342Y-196514342D01*
X203862914Y-196442914D01*
X203791485Y-196300057D01*
X203720057Y-196014342D01*
X203720057Y-195657200D01*
X203791485Y-195371485D01*
X203862914Y-195228628D01*
X203934342Y-195157200D01*
X204077200Y-195085771D01*
X205220057Y-196442914D02*
X205291485Y-196514342D01*
X205220057Y-196585771D01*
X205148628Y-196514342D01*
X205220057Y-196442914D01*
X205220057Y-196585771D01*
X205862914Y-195228628D02*
X205934342Y-195157200D01*
X206077200Y-195085771D01*
X206434342Y-195085771D01*
X206577200Y-195157200D01*
X206648628Y-195228628D01*
X206720057Y-195371485D01*
X206720057Y-195514342D01*
X206648628Y-195728628D01*
X205791485Y-196585771D01*
X206720057Y-196585771D01*
X207362914Y-196014342D02*
X208505771Y-196014342D01*
X209077200Y-195085771D02*
X210005771Y-195085771D01*
X209505771Y-195657200D01*
X209720057Y-195657200D01*
X209862914Y-195728628D01*
X209934342Y-195800057D01*
X210005771Y-195942914D01*
X210005771Y-196300057D01*
X209934342Y-196442914D01*
X209862914Y-196514342D01*
X209720057Y-196585771D01*
X209291485Y-196585771D01*
X209148628Y-196514342D01*
X209077200Y-196442914D01*
X210505771Y-195085771D02*
X211505771Y-195085771D01*
X210862914Y-196585771D01*
X212291485Y-195728628D02*
X212148628Y-195657200D01*
X212077200Y-195585771D01*
X212005771Y-195442914D01*
X212005771Y-195371485D01*
X212077200Y-195228628D01*
X212148628Y-195157200D01*
X212291485Y-195085771D01*
X212577200Y-195085771D01*
X212720057Y-195157200D01*
X212791485Y-195228628D01*
X212862914Y-195371485D01*
X212862914Y-195442914D01*
X212791485Y-195585771D01*
X212720057Y-195657200D01*
X212577200Y-195728628D01*
X212291485Y-195728628D01*
X212148628Y-195800057D01*
X212077200Y-195871485D01*
X212005771Y-196014342D01*
X212005771Y-196300057D01*
X212077200Y-196442914D01*
X212148628Y-196514342D01*
X212291485Y-196585771D01*
X212577200Y-196585771D01*
X212720057Y-196514342D01*
X212791485Y-196442914D01*
X212862914Y-196300057D01*
X212862914Y-196014342D01*
X212791485Y-195871485D01*
X212720057Y-195800057D01*
X212577200Y-195728628D01*
X214220057Y-195085771D02*
X213505771Y-195085771D01*
X213434342Y-195800057D01*
X213505771Y-195728628D01*
X213648628Y-195657200D01*
X214005771Y-195657200D01*
X214148628Y-195728628D01*
X214220057Y-195800057D01*
X214291485Y-195942914D01*
X214291485Y-196300057D01*
X214220057Y-196442914D01*
X214148628Y-196514342D01*
X214005771Y-196585771D01*
X213648628Y-196585771D01*
X213505771Y-196514342D01*
X213434342Y-196442914D01*
X215577200Y-195585771D02*
X215577200Y-196585771D01*
X215220057Y-195014342D02*
X214862914Y-196085771D01*
X215791485Y-196085771D01*
X217148628Y-196585771D02*
X216291485Y-196585771D01*
X216720057Y-196585771D02*
X216720057Y-195085771D01*
X216577200Y-195300057D01*
X216434342Y-195442914D01*
X216291485Y-195514342D01*
X218434342Y-196585771D02*
X218434342Y-195800057D01*
X218362914Y-195657200D01*
X218220057Y-195585771D01*
X217934342Y-195585771D01*
X217791485Y-195657200D01*
X218434342Y-196514342D02*
X218291485Y-196585771D01*
X217934342Y-196585771D01*
X217791485Y-196514342D01*
X217720057Y-196371485D01*
X217720057Y-196228628D01*
X217791485Y-196085771D01*
X217934342Y-196014342D01*
X218291485Y-196014342D01*
X218434342Y-195942914D01*
X219362914Y-195728628D02*
X219220057Y-195657200D01*
X219148628Y-195585771D01*
X219077200Y-195442914D01*
X219077200Y-195371485D01*
X219148628Y-195228628D01*
X219220057Y-195157200D01*
X219362914Y-195085771D01*
X219648628Y-195085771D01*
X219791485Y-195157200D01*
X219862914Y-195228628D01*
X219934342Y-195371485D01*
X219934342Y-195442914D01*
X219862914Y-195585771D01*
X219791485Y-195657200D01*
X219648628Y-195728628D01*
X219362914Y-195728628D01*
X219220057Y-195800057D01*
X219148628Y-195871485D01*
X219077200Y-196014342D01*
X219077200Y-196300057D01*
X219148628Y-196442914D01*
X219220057Y-196514342D01*
X219362914Y-196585771D01*
X219648628Y-196585771D01*
X219791485Y-196514342D01*
X219862914Y-196442914D01*
X219934342Y-196300057D01*
X219934342Y-196014342D01*
X219862914Y-195871485D01*
X219791485Y-195800057D01*
X219648628Y-195728628D01*
X221148628Y-196514342D02*
X221005771Y-196585771D01*
X220720057Y-196585771D01*
X220577200Y-196514342D01*
X220505771Y-196371485D01*
X220505771Y-195800057D01*
X220577200Y-195657200D01*
X220720057Y-195585771D01*
X221005771Y-195585771D01*
X221148628Y-195657200D01*
X221220057Y-195800057D01*
X221220057Y-195942914D01*
X220505771Y-196085771D01*
X221862914Y-196585771D02*
X221862914Y-195085771D01*
X221862914Y-195657200D02*
X222005771Y-195585771D01*
X222291485Y-195585771D01*
X222434342Y-195657200D01*
X222505771Y-195728628D01*
X222577200Y-195871485D01*
X222577200Y-196300057D01*
X222505771Y-196442914D01*
X222434342Y-196514342D01*
X222291485Y-196585771D01*
X222005771Y-196585771D01*
X221862914Y-196514342D01*
X223005771Y-196014342D02*
X223077200Y-195942914D01*
X223220057Y-195871485D01*
X223505771Y-196014342D01*
X223648628Y-195942914D01*
X223720057Y-195871485D01*
X225077200Y-196585771D02*
X224220057Y-196585771D01*
X224648628Y-196585771D02*
X224648628Y-195085771D01*
X224505771Y-195300057D01*
X224362914Y-195442914D01*
X224220057Y-195514342D01*
X226505771Y-196585771D02*
X225648628Y-196585771D01*
X226077200Y-196585771D02*
X226077200Y-195085771D01*
X225934342Y-195300057D01*
X225791485Y-195442914D01*
X225648628Y-195514342D01*
X227791485Y-195085771D02*
X227505771Y-195085771D01*
X227362914Y-195157200D01*
X227291485Y-195228628D01*
X227148628Y-195442914D01*
X227077199Y-195728628D01*
X227077199Y-196300057D01*
X227148628Y-196442914D01*
X227220057Y-196514342D01*
X227362914Y-196585771D01*
X227648628Y-196585771D01*
X227791485Y-196514342D01*
X227862914Y-196442914D01*
X227934342Y-196300057D01*
X227934342Y-195942914D01*
X227862914Y-195800057D01*
X227791485Y-195728628D01*
X227648628Y-195657200D01*
X227362914Y-195657200D01*
X227220057Y-195728628D01*
X227148628Y-195800057D01*
X227077199Y-195942914D01*
X228362914Y-196014342D02*
X228434342Y-195942914D01*
X228577199Y-195871485D01*
X228862914Y-196014342D01*
X229005771Y-195942914D01*
X229077199Y-195871485D01*
X230291485Y-195585771D02*
X230291485Y-196585771D01*
X229648628Y-195585771D02*
X229648628Y-196371485D01*
X229720057Y-196514342D01*
X229862914Y-196585771D01*
X230077199Y-196585771D01*
X230220057Y-196514342D01*
X230291485Y-196442914D01*
X231005771Y-196585771D02*
X231005771Y-195085771D01*
X231005771Y-195657200D02*
X231148628Y-195585771D01*
X231434342Y-195585771D01*
X231577199Y-195657200D01*
X231648628Y-195728628D01*
X231720057Y-195871485D01*
X231720057Y-196300057D01*
X231648628Y-196442914D01*
X231577199Y-196514342D01*
X231434342Y-196585771D01*
X231148628Y-196585771D01*
X231005771Y-196514342D01*
X233005771Y-195585771D02*
X233005771Y-196585771D01*
X232362914Y-195585771D02*
X232362914Y-196371485D01*
X232434342Y-196514342D01*
X232577200Y-196585771D01*
X232791485Y-196585771D01*
X232934342Y-196514342D01*
X233005771Y-196442914D01*
X233720057Y-195585771D02*
X233720057Y-196585771D01*
X233720057Y-195728628D02*
X233791485Y-195657200D01*
X233934342Y-195585771D01*
X234148628Y-195585771D01*
X234291485Y-195657200D01*
X234362914Y-195800057D01*
X234362914Y-196585771D01*
X234862914Y-195585771D02*
X235434342Y-195585771D01*
X235077200Y-195085771D02*
X235077200Y-196371485D01*
X235148628Y-196514342D01*
X235291485Y-196585771D01*
X235434342Y-196585771D01*
X236577200Y-195585771D02*
X236577200Y-196585771D01*
X235934342Y-195585771D02*
X235934342Y-196371485D01*
X236005771Y-196514342D01*
X236148628Y-196585771D01*
X236362914Y-196585771D01*
X236505771Y-196514342D01*
X236577200Y-196442914D01*
X237220057Y-195228628D02*
X237291485Y-195157200D01*
X237434342Y-195085771D01*
X237791485Y-195085771D01*
X237934342Y-195157200D01*
X238005771Y-195228628D01*
X238077200Y-195371485D01*
X238077200Y-195514342D01*
X238005771Y-195728628D01*
X237148628Y-196585771D01*
X238077200Y-196585771D01*
X239005771Y-195085771D02*
X239148628Y-195085771D01*
X239291485Y-195157200D01*
X239362914Y-195228628D01*
X239434342Y-195371485D01*
X239505771Y-195657200D01*
X239505771Y-196014342D01*
X239434342Y-196300057D01*
X239362914Y-196442914D01*
X239291485Y-196514342D01*
X239148628Y-196585771D01*
X239005771Y-196585771D01*
X238862914Y-196514342D01*
X238791485Y-196442914D01*
X238720057Y-196300057D01*
X238648628Y-196014342D01*
X238648628Y-195657200D01*
X238720057Y-195371485D01*
X238791485Y-195228628D01*
X238862914Y-195157200D01*
X239005771Y-195085771D01*
X240148628Y-196442914D02*
X240220057Y-196514342D01*
X240148628Y-196585771D01*
X240077199Y-196514342D01*
X240148628Y-196442914D01*
X240148628Y-196585771D01*
X241148628Y-195085771D02*
X241291485Y-195085771D01*
X241434342Y-195157200D01*
X241505771Y-195228628D01*
X241577200Y-195371485D01*
X241648628Y-195657200D01*
X241648628Y-196014342D01*
X241577200Y-196300057D01*
X241505771Y-196442914D01*
X241434342Y-196514342D01*
X241291485Y-196585771D01*
X241148628Y-196585771D01*
X241005771Y-196514342D01*
X240934342Y-196442914D01*
X240862914Y-196300057D01*
X240791485Y-196014342D01*
X240791485Y-195657200D01*
X240862914Y-195371485D01*
X240934342Y-195228628D01*
X241005771Y-195157200D01*
X241148628Y-195085771D01*
X242934342Y-195585771D02*
X242934342Y-196585771D01*
X242577199Y-195014342D02*
X242220057Y-196085771D01*
X243148628Y-196085771D01*
X243720057Y-196442914D02*
X243791485Y-196514342D01*
X243720057Y-196585771D01*
X243648628Y-196514342D01*
X243720057Y-196442914D01*
X243720057Y-196585771D01*
X245220057Y-196585771D02*
X244362914Y-196585771D01*
X244791485Y-196585771D02*
X244791485Y-195085771D01*
X244648628Y-195300057D01*
X244505771Y-195442914D01*
X244362914Y-195514342D01*
D10*
D11*
X177002200Y-191507200D02*
X285002200Y-191507200D01*
D10*
D12*
X264411485Y-193785771D02*
X263911485Y-193071485D01*
X263554342Y-193785771D02*
X263554342Y-192285771D01*
X264125771Y-192285771D01*
X264268628Y-192357200D01*
X264340057Y-192428628D01*
X264411485Y-192571485D01*
X264411485Y-192785771D01*
X264340057Y-192928628D01*
X264268628Y-193000057D01*
X264125771Y-193071485D01*
X263554342Y-193071485D01*
X265625771Y-193714342D02*
X265482914Y-193785771D01*
X265197200Y-193785771D01*
X265054342Y-193714342D01*
X264982914Y-193571485D01*
X264982914Y-193000057D01*
X265054342Y-192857200D01*
X265197200Y-192785771D01*
X265482914Y-192785771D01*
X265625771Y-192857200D01*
X265697200Y-193000057D01*
X265697200Y-193142914D01*
X264982914Y-193285771D01*
X266197200Y-192785771D02*
X266554342Y-193785771D01*
X266911485Y-192785771D01*
X267482914Y-193642914D02*
X267554342Y-193714342D01*
X267482914Y-193785771D01*
X267411485Y-193714342D01*
X267482914Y-193642914D01*
X267482914Y-193785771D01*
X267482914Y-192857200D02*
X267554342Y-192928628D01*
X267482914Y-193000057D01*
X267411485Y-192928628D01*
X267482914Y-192857200D01*
X267482914Y-193000057D01*
X269625771Y-192285771D02*
X269768628Y-192285771D01*
X269911485Y-192357200D01*
X269982914Y-192428628D01*
X270054342Y-192571485D01*
X270125771Y-192857200D01*
X270125771Y-193214342D01*
X270054342Y-193500057D01*
X269982914Y-193642914D01*
X269911485Y-193714342D01*
X269768628Y-193785771D01*
X269625771Y-193785771D01*
X269482914Y-193714342D01*
X269411485Y-193642914D01*
X269340057Y-193500057D01*
X269268628Y-193214342D01*
X269268628Y-192857200D01*
X269340057Y-192571485D01*
X269411485Y-192428628D01*
X269482914Y-192357200D01*
X269625771Y-192285771D01*
D10*
D11*
X178362914Y-193714342D02*
X178577200Y-193785771D01*
X178934342Y-193785771D01*
X179077200Y-193714342D01*
X179148628Y-193642914D01*
X179220057Y-193500057D01*
X179220057Y-193357200D01*
X179148628Y-193214342D01*
X179077200Y-193142914D01*
X178934342Y-193071485D01*
X178648628Y-193000057D01*
X178505771Y-192928628D01*
X178434342Y-192857200D01*
X178362914Y-192714342D01*
X178362914Y-192571485D01*
X178434342Y-192428628D01*
X178505771Y-192357200D01*
X178648628Y-192285771D01*
X179005771Y-192285771D01*
X179220057Y-192357200D01*
X179862914Y-193785771D02*
X179862914Y-192785771D01*
X179862914Y-192285771D02*
X179791485Y-192357200D01*
X179862914Y-192428628D01*
X179934342Y-192357200D01*
X179862914Y-192285771D01*
X179862914Y-192428628D01*
X180434342Y-192785771D02*
X181220057Y-192785771D01*
X180434342Y-193785771D01*
X181220057Y-193785771D01*
X182362914Y-193714342D02*
X182220057Y-193785771D01*
X181934342Y-193785771D01*
X181791485Y-193714342D01*
X181720057Y-193571485D01*
X181720057Y-193000057D01*
X181791485Y-192857200D01*
X181934342Y-192785771D01*
X182220057Y-192785771D01*
X182362914Y-192857200D01*
X182434342Y-193000057D01*
X182434342Y-193142914D01*
X181720057Y-193285771D01*
X183077200Y-193642914D02*
X183148628Y-193714342D01*
X183077200Y-193785771D01*
X183005771Y-193714342D01*
X183077200Y-193642914D01*
X183077200Y-193785771D01*
X183077200Y-192857200D02*
X183148628Y-192928628D01*
X183077200Y-193000057D01*
X183005771Y-192928628D01*
X183077200Y-192857200D01*
X183077200Y-193000057D01*
X184862914Y-193357200D02*
X185577200Y-193357200D01*
X184720057Y-193785771D02*
X185220057Y-192285771D01*
X185720057Y-193785771D01*
X186862914Y-192785771D02*
X186862914Y-193785771D01*
X186505771Y-192214342D02*
X186148628Y-193285771D01*
X187077200Y-193285771D01*
D10*
D11*
X263434342Y-196585771D02*
X263434342Y-195085771D01*
X264791485Y-196585771D02*
X264791485Y-195085771D01*
X264791485Y-196514342D02*
X264648628Y-196585771D01*
X264362914Y-196585771D01*
X264220057Y-196514342D01*
X264148628Y-196442914D01*
X264077200Y-196300057D01*
X264077200Y-195871485D01*
X264148628Y-195728628D01*
X264220057Y-195657200D01*
X264362914Y-195585771D01*
X264648628Y-195585771D01*
X264791485Y-195657200D01*
X265505771Y-196442914D02*
X265577200Y-196514342D01*
X265505771Y-196585771D01*
X265434342Y-196514342D01*
X265505771Y-196442914D01*
X265505771Y-196585771D01*
X265505771Y-195657200D02*
X265577200Y-195728628D01*
X265505771Y-195800057D01*
X265434342Y-195728628D01*
X265505771Y-195657200D01*
X265505771Y-195800057D01*
X268148628Y-196585771D02*
X267291485Y-196585771D01*
X267720057Y-196585771D02*
X267720057Y-195085771D01*
X267577200Y-195300057D01*
X267434342Y-195442914D01*
X267291485Y-195514342D01*
X269862914Y-195014342D02*
X268577200Y-196942914D01*
X271148628Y-196585771D02*
X270291485Y-196585771D01*
X270720057Y-196585771D02*
X270720057Y-195085771D01*
X270577200Y-195300057D01*
X270434342Y-195442914D01*
X270291485Y-195514342D01*
D10*
D11*
X177002200Y-187507200D02*
X285002200Y-187507200D01*
D10*
D13*
X178714580Y-188211961D02*
X179857438Y-188211961D01*
X179036009Y-190211961D02*
X179286009Y-188211961D01*
X180274104Y-190211961D02*
X180440771Y-188878628D01*
X180524104Y-188211961D02*
X180416961Y-188307200D01*
X180500295Y-188402438D01*
X180607438Y-188307200D01*
X180524104Y-188211961D01*
X180500295Y-188402438D01*
X181107438Y-188878628D02*
X181869342Y-188878628D01*
X181476485Y-188211961D02*
X181262200Y-189926247D01*
X181333628Y-190116723D01*
X181512200Y-190211961D01*
X181702676Y-190211961D01*
X182655057Y-190211961D02*
X182476485Y-190116723D01*
X182405057Y-189926247D01*
X182619342Y-188211961D01*
X184190771Y-190116723D02*
X183988390Y-190211961D01*
X183607438Y-190211961D01*
X183428866Y-190116723D01*
X183357438Y-189926247D01*
X183452676Y-189164342D01*
X183571723Y-188973866D01*
X183774104Y-188878628D01*
X184155057Y-188878628D01*
X184333628Y-188973866D01*
X184405057Y-189164342D01*
X184381247Y-189354819D01*
X183405057Y-189545295D01*
X185155057Y-190021485D02*
X185238390Y-190116723D01*
X185131247Y-190211961D01*
X185047914Y-190116723D01*
X185155057Y-190021485D01*
X185131247Y-190211961D01*
X185286009Y-188973866D02*
X185369342Y-189069104D01*
X185262200Y-189164342D01*
X185178866Y-189069104D01*
X185286009Y-188973866D01*
X185262200Y-189164342D01*
X187607438Y-190211961D02*
X187857438Y-188211961D01*
X188345533Y-189640533D01*
X189190771Y-188211961D01*
X188940771Y-190211961D01*
X190750295Y-190211961D02*
X190881247Y-189164342D01*
X190809819Y-188973866D01*
X190631247Y-188878628D01*
X190250295Y-188878628D01*
X190047914Y-188973866D01*
X190762200Y-190116723D02*
X190559819Y-190211961D01*
X190083628Y-190211961D01*
X189905057Y-190116723D01*
X189833628Y-189926247D01*
X189857438Y-189735771D01*
X189976485Y-189545295D01*
X190178866Y-189450057D01*
X190655057Y-189450057D01*
X190857438Y-189354819D01*
X191702676Y-190211961D02*
X191869342Y-188878628D01*
X191952676Y-188211961D02*
X191845533Y-188307200D01*
X191928866Y-188402438D01*
X192036009Y-188307200D01*
X191952676Y-188211961D01*
X191928866Y-188402438D01*
X192821723Y-188878628D02*
X192655057Y-190211961D01*
X192797914Y-189069104D02*
X192905057Y-188973866D01*
X193107438Y-188878628D01*
X193393152Y-188878628D01*
X193571723Y-188973866D01*
X193643152Y-189164342D01*
X193512200Y-190211961D01*
X195988390Y-190211961D02*
X196238390Y-188211961D01*
X197000295Y-188211961D01*
X197178866Y-188307200D01*
X197262200Y-188402438D01*
X197333628Y-188592914D01*
X197297914Y-188878628D01*
X197178866Y-189069104D01*
X197071723Y-189164342D01*
X196869342Y-189259580D01*
X196107438Y-189259580D01*
X199155057Y-190021485D02*
X199047914Y-190116723D01*
X198750295Y-190211961D01*
X198559819Y-190211961D01*
X198286009Y-190116723D01*
X198119342Y-189926247D01*
X198047914Y-189735771D01*
X198000295Y-189354819D01*
X198036009Y-189069104D01*
X198178866Y-188688152D01*
X198297914Y-188497676D01*
X198512200Y-188307200D01*
X198809819Y-188211961D01*
X199000295Y-188211961D01*
X199274104Y-188307200D01*
X199357438Y-188402438D01*
X200786009Y-189164342D02*
X201059819Y-189259580D01*
X201143152Y-189354819D01*
X201214580Y-189545295D01*
X201178866Y-189831009D01*
X201059819Y-190021485D01*
X200952676Y-190116723D01*
X200750295Y-190211961D01*
X199988390Y-190211961D01*
X200238390Y-188211961D01*
X200905057Y-188211961D01*
X201083628Y-188307200D01*
X201166961Y-188402438D01*
X201238390Y-188592914D01*
X201214580Y-188783390D01*
X201095533Y-188973866D01*
X200988390Y-189069104D01*
X200786009Y-189164342D01*
X200119342Y-189164342D01*
D10*
D11*
X178934342Y-185600057D02*
X178434342Y-185600057D01*
X178434342Y-186385771D02*
X178434342Y-184885771D01*
X179148628Y-184885771D01*
X179720057Y-186385771D02*
X179720057Y-185385771D01*
X179720057Y-184885771D02*
X179648628Y-184957200D01*
X179720057Y-185028628D01*
X179791485Y-184957200D01*
X179720057Y-184885771D01*
X179720057Y-185028628D01*
X180648628Y-186385771D02*
X180505771Y-186314342D01*
X180434342Y-186171485D01*
X180434342Y-184885771D01*
X181791485Y-186314342D02*
X181648628Y-186385771D01*
X181362914Y-186385771D01*
X181220057Y-186314342D01*
X181148628Y-186171485D01*
X181148628Y-185600057D01*
X181220057Y-185457200D01*
X181362914Y-185385771D01*
X181648628Y-185385771D01*
X181791485Y-185457200D01*
X181862914Y-185600057D01*
X181862914Y-185742914D01*
X181148628Y-185885771D01*
X182505771Y-186242914D02*
X182577200Y-186314342D01*
X182505771Y-186385771D01*
X182434342Y-186314342D01*
X182505771Y-186242914D01*
X182505771Y-186385771D01*
X182505771Y-185457200D02*
X182577200Y-185528628D01*
X182505771Y-185600057D01*
X182434342Y-185528628D01*
X182505771Y-185457200D01*
X182505771Y-185600057D01*
X184362914Y-186385771D02*
X184362914Y-184885771D01*
X185005771Y-186385771D02*
X185005771Y-185600057D01*
X184934342Y-185457200D01*
X184791485Y-185385771D01*
X184577200Y-185385771D01*
X184434342Y-185457200D01*
X184362914Y-185528628D01*
X186362914Y-186385771D02*
X186362914Y-185600057D01*
X186291485Y-185457200D01*
X186148628Y-185385771D01*
X185862914Y-185385771D01*
X185720057Y-185457200D01*
X186362914Y-186314342D02*
X186220057Y-186385771D01*
X185862914Y-186385771D01*
X185720057Y-186314342D01*
X185648628Y-186171485D01*
X185648628Y-186028628D01*
X185720057Y-185885771D01*
X185862914Y-185814342D01*
X186220057Y-185814342D01*
X186362914Y-185742914D01*
X187077200Y-185814342D02*
X188220057Y-185814342D01*
X188934342Y-185385771D02*
X188934342Y-186885771D01*
X188934342Y-185457200D02*
X189077200Y-185385771D01*
X189362914Y-185385771D01*
X189505771Y-185457200D01*
X189577200Y-185528628D01*
X189648628Y-185671485D01*
X189648628Y-186100057D01*
X189577200Y-186242914D01*
X189505771Y-186314342D01*
X189362914Y-186385771D01*
X189077200Y-186385771D01*
X188934342Y-186314342D01*
X190934342Y-186314342D02*
X190791485Y-186385771D01*
X190505771Y-186385771D01*
X190362914Y-186314342D01*
X190291485Y-186242914D01*
X190220057Y-186100057D01*
X190220057Y-185671485D01*
X190291485Y-185528628D01*
X190362914Y-185457200D01*
X190505771Y-185385771D01*
X190791485Y-185385771D01*
X190934342Y-185457200D01*
X191577200Y-186385771D02*
X191577200Y-184885771D01*
X191577200Y-185457200D02*
X191720057Y-185385771D01*
X192005771Y-185385771D01*
X192148628Y-185457200D01*
X192220057Y-185528628D01*
X192291485Y-185671485D01*
X192291485Y-186100057D01*
X192220057Y-186242914D01*
X192148628Y-186314342D01*
X192005771Y-186385771D01*
X191720057Y-186385771D01*
X191577200Y-186314342D01*
X192934342Y-186242914D02*
X193005771Y-186314342D01*
X192934342Y-186385771D01*
X192862914Y-186314342D01*
X192934342Y-186242914D01*
X192934342Y-186385771D01*
X193648628Y-186385771D02*
X193648628Y-184885771D01*
X193791485Y-185814342D02*
X194220057Y-186385771D01*
X194220057Y-185385771D02*
X193648628Y-185957200D01*
X194862914Y-186385771D02*
X194862914Y-185385771D01*
X194862914Y-184885771D02*
X194791485Y-184957200D01*
X194862914Y-185028628D01*
X194934342Y-184957200D01*
X194862914Y-184885771D01*
X194862914Y-185028628D01*
X196220057Y-186314342D02*
X196077200Y-186385771D01*
X195791485Y-186385771D01*
X195648628Y-186314342D01*
X195577200Y-186242914D01*
X195505771Y-186100057D01*
X195505771Y-185671485D01*
X195577200Y-185528628D01*
X195648628Y-185457200D01*
X195791485Y-185385771D01*
X196077200Y-185385771D01*
X196220057Y-185457200D01*
X197505771Y-186385771D02*
X197505771Y-185600057D01*
X197434342Y-185457200D01*
X197291485Y-185385771D01*
X197005771Y-185385771D01*
X196862914Y-185457200D01*
X197505771Y-186314342D02*
X197362914Y-186385771D01*
X197005771Y-186385771D01*
X196862914Y-186314342D01*
X196791485Y-186171485D01*
X196791485Y-186028628D01*
X196862914Y-185885771D01*
X197005771Y-185814342D01*
X197362914Y-185814342D01*
X197505771Y-185742914D01*
X198862914Y-186385771D02*
X198862914Y-184885771D01*
X198862914Y-186314342D02*
X198720057Y-186385771D01*
X198434342Y-186385771D01*
X198291485Y-186314342D01*
X198220057Y-186242914D01*
X198148628Y-186100057D01*
X198148628Y-185671485D01*
X198220057Y-185528628D01*
X198291485Y-185457200D01*
X198434342Y-185385771D01*
X198720057Y-185385771D01*
X198862914Y-185457200D01*
X199220057Y-186528628D02*
X200362914Y-186528628D01*
X200720057Y-185385771D02*
X200720057Y-186885771D01*
X200720057Y-185457200D02*
X200862914Y-185385771D01*
X201148628Y-185385771D01*
X201291485Y-185457200D01*
X201362914Y-185528628D01*
X201434342Y-185671485D01*
X201434342Y-186100057D01*
X201362914Y-186242914D01*
X201291485Y-186314342D01*
X201148628Y-186385771D01*
X200862914Y-186385771D01*
X200720057Y-186314342D01*
X202720057Y-186314342D02*
X202577200Y-186385771D01*
X202291485Y-186385771D01*
X202148628Y-186314342D01*
X202077200Y-186242914D01*
X202005771Y-186100057D01*
X202005771Y-185671485D01*
X202077200Y-185528628D01*
X202148628Y-185457200D01*
X202291485Y-185385771D01*
X202577200Y-185385771D01*
X202720057Y-185457200D01*
X203362914Y-186385771D02*
X203362914Y-184885771D01*
X203362914Y-185457200D02*
X203505771Y-185385771D01*
X203791485Y-185385771D01*
X203934342Y-185457200D01*
X204005771Y-185528628D01*
X204077200Y-185671485D01*
X204077200Y-186100057D01*
X204005771Y-186242914D01*
X203934342Y-186314342D01*
X203791485Y-186385771D01*
X203505771Y-186385771D01*
X203362914Y-186314342D01*
D10*
D11*
X177002200Y-181507200D02*
X285002200Y-181507200D01*
D10*
D11*
X178362914Y-183614342D02*
X178577200Y-183685771D01*
X178934342Y-183685771D01*
X179077200Y-183614342D01*
X179148628Y-183542914D01*
X179220057Y-183400057D01*
X179220057Y-183257200D01*
X179148628Y-183114342D01*
X179077200Y-183042914D01*
X178934342Y-182971485D01*
X178648628Y-182900057D01*
X178505771Y-182828628D01*
X178434342Y-182757200D01*
X178362914Y-182614342D01*
X178362914Y-182471485D01*
X178434342Y-182328628D01*
X178505771Y-182257200D01*
X178648628Y-182185771D01*
X179005771Y-182185771D01*
X179220057Y-182257200D01*
X179862914Y-183685771D02*
X179862914Y-182185771D01*
X180505771Y-183685771D02*
X180505771Y-182900057D01*
X180434342Y-182757200D01*
X180291485Y-182685771D01*
X180077200Y-182685771D01*
X179934342Y-182757200D01*
X179862914Y-182828628D01*
X181791485Y-183614342D02*
X181648628Y-183685771D01*
X181362914Y-183685771D01*
X181220057Y-183614342D01*
X181148628Y-183471485D01*
X181148628Y-182900057D01*
X181220057Y-182757200D01*
X181362914Y-182685771D01*
X181648628Y-182685771D01*
X181791485Y-182757200D01*
X181862914Y-182900057D01*
X181862914Y-183042914D01*
X181148628Y-183185771D01*
X183077200Y-183614342D02*
X182934342Y-183685771D01*
X182648628Y-183685771D01*
X182505771Y-183614342D01*
X182434342Y-183471485D01*
X182434342Y-182900057D01*
X182505771Y-182757200D01*
X182648628Y-182685771D01*
X182934342Y-182685771D01*
X183077200Y-182757200D01*
X183148628Y-182900057D01*
X183148628Y-183042914D01*
X182434342Y-183185771D01*
X183577200Y-182685771D02*
X184148628Y-182685771D01*
X183791485Y-182185771D02*
X183791485Y-183471485D01*
X183862914Y-183614342D01*
X184005771Y-183685771D01*
X184148628Y-183685771D01*
X184648628Y-183542914D02*
X184720057Y-183614342D01*
X184648628Y-183685771D01*
X184577200Y-183614342D01*
X184648628Y-183542914D01*
X184648628Y-183685771D01*
X184648628Y-182757200D02*
X184720057Y-182828628D01*
X184648628Y-182900057D01*
X184577200Y-182828628D01*
X184648628Y-182757200D01*
X184648628Y-182900057D01*
D10*
D12*
D10*
D11*
D10*
D11*
D10*
D11*
D10*
D11*
D10*
D11*
X197002200Y-191507200D02*
X197002200Y-194507200D01*
D10*
D11*
X261002200Y-191507200D02*
X261002200Y-198007200D01*
D14*
X132588000Y-140716000D02*
X132588000Y-137922000D01*
X44450000Y-138176000D02*
X44450000Y-140716000D01*
X78994000Y-140716000D02*
X78994000Y-138176000D01*
D11*
X95476500Y-35306000D02*
X119661500Y-35306000D01*
X119661500Y-35306000D02*
X119661500Y-40506000D01*
X119661500Y-40506000D02*
X95476500Y-40506000D01*
X95476500Y-40506000D02*
X95476500Y-35306000D01*
D14*
X80264000Y-137922000D02*
X80264000Y-140716000D01*
X80264000Y-140716000D02*
X98044000Y-140716000D01*
X68326000Y-140716000D02*
X78994000Y-140716000D01*
X113284000Y-140716000D02*
X132588000Y-140716000D01*
X44450000Y-140716000D02*
X56896000Y-140716000D01*
D15*
X40894000Y-31496000D02*
X178054000Y-31496000D01*
X178054000Y-31496000D02*
X178054000Y-143256000D01*
X178054000Y-143256000D02*
X40894000Y-143256000D01*
X40894000Y-143256000D02*
X40894000Y-31496000D01*
D11*
X173148761Y-89439333D02*
X173148761Y-90391714D01*
X174101142Y-90486952D01*
X174005904Y-90391714D01*
X173910666Y-90201238D01*
X173910666Y-89725047D01*
X174005904Y-89534571D01*
X174101142Y-89439333D01*
X174291619Y-89344095D01*
X174767809Y-89344095D01*
X174958285Y-89439333D01*
X175053523Y-89534571D01*
X175148761Y-89725047D01*
X175148761Y-90201238D01*
X175053523Y-90391714D01*
X174958285Y-90486952D01*
X173148761Y-88772666D02*
X175148761Y-88106000D01*
X173148761Y-87439333D01*
X174958285Y-85629809D02*
X175053523Y-85725047D01*
X175148761Y-86010761D01*
X175148761Y-86201238D01*
X175053523Y-86486952D01*
X174863047Y-86677428D01*
X174672571Y-86772666D01*
X174291619Y-86867904D01*
X174005904Y-86867904D01*
X173624952Y-86772666D01*
X173434476Y-86677428D01*
X173244000Y-86486952D01*
X173148761Y-86201238D01*
X173148761Y-86010761D01*
X173244000Y-85725047D01*
X173339238Y-85629809D01*
X174958285Y-83629809D02*
X175053523Y-83725047D01*
X175148761Y-84010761D01*
X175148761Y-84201238D01*
X175053523Y-84486952D01*
X174863047Y-84677428D01*
X174672571Y-84772666D01*
X174291619Y-84867904D01*
X174005904Y-84867904D01*
X173624952Y-84772666D01*
X173434476Y-84677428D01*
X173244000Y-84486952D01*
X173148761Y-84201238D01*
X173148761Y-84010761D01*
X173244000Y-83725047D01*
X173339238Y-83629809D01*
X175148761Y-81725047D02*
X175148761Y-82867904D01*
X175148761Y-82296476D02*
X173148761Y-82296476D01*
X173434476Y-82486952D01*
X173624952Y-82677428D01*
X173720190Y-82867904D01*
X92658571Y-34714571D02*
X92158571Y-34000285D01*
X91801428Y-34714571D02*
X91801428Y-33214571D01*
X92372857Y-33214571D01*
X92515714Y-33286000D01*
X92587142Y-33357428D01*
X92658571Y-33500285D01*
X92658571Y-33714571D01*
X92587142Y-33857428D01*
X92515714Y-33928857D01*
X92372857Y-34000285D01*
X91801428Y-34000285D01*
X93944285Y-34714571D02*
X93944285Y-33928857D01*
X93872857Y-33786000D01*
X93730000Y-33714571D01*
X93444285Y-33714571D01*
X93301428Y-33786000D01*
X93944285Y-34643142D02*
X93801428Y-34714571D01*
X93444285Y-34714571D01*
X93301428Y-34643142D01*
X93230000Y-34500285D01*
X93230000Y-34357428D01*
X93301428Y-34214571D01*
X93444285Y-34143142D01*
X93801428Y-34143142D01*
X93944285Y-34071714D01*
X94658571Y-34714571D02*
X94658571Y-33214571D01*
X95230000Y-33214571D01*
X95372857Y-33286000D01*
X95444285Y-33357428D01*
X95515714Y-33500285D01*
X95515714Y-33714571D01*
X95444285Y-33857428D01*
X95372857Y-33928857D01*
X95230000Y-34000285D01*
X94658571Y-34000285D01*
X96158571Y-34714571D02*
X96158571Y-33714571D01*
X96158571Y-33214571D02*
X96087142Y-33286000D01*
X96158571Y-33357428D01*
X96230000Y-33286000D01*
X96158571Y-33214571D01*
X96158571Y-33357428D01*
X43053047Y-83994761D02*
X42100666Y-83994761D01*
X42005428Y-84947142D01*
X42100666Y-84851904D01*
X42291142Y-84756666D01*
X42767333Y-84756666D01*
X42957809Y-84851904D01*
X43053047Y-84947142D01*
X43148285Y-85137619D01*
X43148285Y-85613809D01*
X43053047Y-85804285D01*
X42957809Y-85899523D01*
X42767333Y-85994761D01*
X42291142Y-85994761D01*
X42100666Y-85899523D01*
X42005428Y-85804285D01*
X43719714Y-83994761D02*
X44386380Y-85994761D01*
X45053047Y-83994761D01*
X138874952Y-140350761D02*
X137732095Y-140350761D01*
X138303523Y-140350761D02*
X138303523Y-138350761D01*
X138113047Y-138636476D01*
X137922571Y-138826952D01*
X137732095Y-138922190D01*
X139541619Y-138350761D02*
X140017809Y-140350761D01*
X140398761Y-138922190D01*
X140779714Y-140350761D01*
X141255904Y-138350761D01*
X142494000Y-141017428D02*
X142494000Y-138160285D01*
X144970190Y-140350761D02*
X143827333Y-140350761D01*
X144398761Y-140350761D02*
X144398761Y-138350761D01*
X144208285Y-138636476D01*
X144017809Y-138826952D01*
X143827333Y-138922190D01*
X145636857Y-138350761D02*
X146113047Y-140350761D01*
X146494000Y-138922190D01*
X146874952Y-140350761D01*
X147351142Y-138350761D01*
X44366571Y-41171714D02*
X42866571Y-41171714D01*
X44366571Y-40457428D02*
X42866571Y-40457428D01*
X44366571Y-39600285D01*
X42866571Y-39600285D01*
X160075714Y-37996761D02*
X160218571Y-38044380D01*
X160456666Y-38044380D01*
X160551904Y-37996761D01*
X160599523Y-37949142D01*
X160647142Y-37853904D01*
X160647142Y-37758666D01*
X160599523Y-37663428D01*
X160551904Y-37615809D01*
X160456666Y-37568190D01*
X160266190Y-37520571D01*
X160170952Y-37472952D01*
X160123333Y-37425333D01*
X160075714Y-37330095D01*
X160075714Y-37234857D01*
X160123333Y-37139619D01*
X160170952Y-37092000D01*
X160266190Y-37044380D01*
X160504285Y-37044380D01*
X160647142Y-37092000D01*
X161075714Y-38044380D02*
X161075714Y-37044380D01*
X161313809Y-37044380D01*
X161456666Y-37092000D01*
X161551904Y-37187238D01*
X161599523Y-37282476D01*
X161647142Y-37472952D01*
X161647142Y-37615809D01*
X161599523Y-37806285D01*
X161551904Y-37901523D01*
X161456666Y-37996761D01*
X161313809Y-38044380D01*
X161075714Y-38044380D01*
X162028095Y-37758666D02*
X162504285Y-37758666D01*
X161932857Y-38044380D02*
X162266190Y-37044380D01*
X162599523Y-38044380D01*
X42394285Y-81474571D02*
X42537142Y-81474571D01*
X42680000Y-81546000D01*
X42751428Y-81617428D01*
X42822857Y-81760285D01*
X42894285Y-82046000D01*
X42894285Y-82403142D01*
X42822857Y-82688857D01*
X42751428Y-82831714D01*
X42680000Y-82903142D01*
X42537142Y-82974571D01*
X42394285Y-82974571D01*
X42251428Y-82903142D01*
X42180000Y-82831714D01*
X42108571Y-82688857D01*
X42037142Y-82403142D01*
X42037142Y-82046000D01*
X42108571Y-81760285D01*
X42180000Y-81617428D01*
X42251428Y-81546000D01*
X42394285Y-81474571D01*
X43465714Y-81617428D02*
X43537142Y-81546000D01*
X43680000Y-81474571D01*
X44037142Y-81474571D01*
X44180000Y-81546000D01*
X44251428Y-81617428D01*
X44322857Y-81760285D01*
X44322857Y-81903142D01*
X44251428Y-82117428D01*
X43394285Y-82974571D01*
X44322857Y-82974571D01*
X169303142Y-41064571D02*
X169303142Y-39564571D01*
X169660285Y-39564571D01*
X169874571Y-39636000D01*
X170017428Y-39778857D01*
X170088857Y-39921714D01*
X170160285Y-40207428D01*
X170160285Y-40421714D01*
X170088857Y-40707428D01*
X170017428Y-40850285D01*
X169874571Y-40993142D01*
X169660285Y-41064571D01*
X169303142Y-41064571D01*
X171303142Y-40278857D02*
X171517428Y-40350285D01*
X171588857Y-40421714D01*
X171660285Y-40564571D01*
X171660285Y-40778857D01*
X171588857Y-40921714D01*
X171517428Y-40993142D01*
X171374571Y-41064571D01*
X170803142Y-41064571D01*
X170803142Y-39564571D01*
X171303142Y-39564571D01*
X171446000Y-39636000D01*
X171517428Y-39707428D01*
X171588857Y-39850285D01*
X171588857Y-39993142D01*
X171517428Y-40136000D01*
X171446000Y-40207428D01*
X171303142Y-40278857D01*
X170803142Y-40278857D01*
X173088857Y-39636000D02*
X172946000Y-39564571D01*
X172731714Y-39564571D01*
X172517428Y-39636000D01*
X172374571Y-39778857D01*
X172303142Y-39921714D01*
X172231714Y-40207428D01*
X172231714Y-40421714D01*
X172303142Y-40707428D01*
X172374571Y-40850285D01*
X172517428Y-40993142D01*
X172731714Y-41064571D01*
X172874571Y-41064571D01*
X173088857Y-40993142D01*
X173160285Y-40921714D01*
X173160285Y-40421714D01*
X172874571Y-40421714D01*
X169224000Y-46144571D02*
X169224000Y-44644571D01*
X170224000Y-44644571D02*
X170509714Y-44644571D01*
X170652571Y-44716000D01*
X170795428Y-44858857D01*
X170866857Y-45144571D01*
X170866857Y-45644571D01*
X170795428Y-45930285D01*
X170652571Y-46073142D01*
X170509714Y-46144571D01*
X170224000Y-46144571D01*
X170081142Y-46073142D01*
X169938285Y-45930285D01*
X169866857Y-45644571D01*
X169866857Y-45144571D01*
X169938285Y-44858857D01*
X170081142Y-44716000D01*
X170224000Y-44644571D01*
X172652571Y-46144571D02*
X172652571Y-44644571D01*
X173009714Y-44644571D01*
X173224000Y-44716000D01*
X173366857Y-44858857D01*
X173438285Y-45001714D01*
X173509714Y-45287428D01*
X173509714Y-45501714D01*
X173438285Y-45787428D01*
X173366857Y-45930285D01*
X173224000Y-46073142D01*
X173009714Y-46144571D01*
X172652571Y-46144571D01*
X174152571Y-46144571D02*
X174152571Y-44644571D01*
X175366857Y-45358857D02*
X174866857Y-45358857D01*
X174866857Y-46144571D02*
X174866857Y-44644571D01*
X175581142Y-44644571D01*
X176652571Y-45358857D02*
X176152571Y-45358857D01*
X176152571Y-46144571D02*
X176152571Y-44644571D01*
X176866857Y-44644571D01*
X101949714Y-141620761D02*
X100806857Y-141620761D01*
X101378285Y-141620761D02*
X101378285Y-139620761D01*
X101187809Y-139906476D01*
X100997333Y-140096952D01*
X100806857Y-140192190D01*
X102616380Y-139620761D02*
X103092571Y-141620761D01*
X103473523Y-140192190D01*
X103854476Y-141620761D01*
X104330666Y-139620761D01*
X106521142Y-139525523D02*
X104806857Y-142096952D01*
X108235428Y-141620761D02*
X107092571Y-141620761D01*
X107664000Y-141620761D02*
X107664000Y-139620761D01*
X107473523Y-139906476D01*
X107283047Y-140096952D01*
X107092571Y-140192190D01*
X108902095Y-139620761D02*
X109378285Y-141620761D01*
X109759238Y-140192190D01*
X110140190Y-141620761D01*
X110616380Y-139620761D01*
X147010380Y-58602476D02*
X147010380Y-59173904D01*
X147010380Y-58888190D02*
X146010380Y-58888190D01*
X146153238Y-58983428D01*
X146248476Y-59078666D01*
X146296095Y-59173904D01*
X146010380Y-57983428D02*
X146010380Y-57888190D01*
X146058000Y-57792952D01*
X146105619Y-57745333D01*
X146200857Y-57697714D01*
X146391333Y-57650095D01*
X146629428Y-57650095D01*
X146819904Y-57697714D01*
X146915142Y-57745333D01*
X146962761Y-57792952D01*
X147010380Y-57888190D01*
X147010380Y-57983428D01*
X146962761Y-58078666D01*
X146915142Y-58126285D01*
X146819904Y-58173904D01*
X146629428Y-58221523D01*
X146391333Y-58221523D01*
X146200857Y-58173904D01*
X146105619Y-58126285D01*
X146058000Y-58078666D01*
X146010380Y-57983428D01*
X147010380Y-57221523D02*
X146010380Y-57221523D01*
X147010380Y-56650095D02*
X146438952Y-57078666D01*
X146010380Y-56650095D02*
X146581809Y-57221523D01*
X42926095Y-47640857D02*
X44449904Y-47640857D01*
X43688000Y-48402761D02*
X43688000Y-46878952D01*
X92289714Y-56459428D02*
X93051619Y-56459428D01*
X93527809Y-56459428D02*
X94289714Y-56459428D01*
X95289714Y-56840380D02*
X94718285Y-56840380D01*
X95004000Y-56840380D02*
X95004000Y-55840380D01*
X94908761Y-55983238D01*
X94813523Y-56078476D01*
X94718285Y-56126095D01*
X95718285Y-56840380D02*
X95718285Y-55840380D01*
X96289714Y-56840380D02*
X95861142Y-56268952D01*
X96289714Y-55840380D02*
X95718285Y-56411809D01*
X96718285Y-56459428D02*
X97480190Y-56459428D01*
X97956380Y-56459428D02*
X98718285Y-56459428D01*
X160075714Y-48410761D02*
X160218571Y-48458380D01*
X160456666Y-48458380D01*
X160551904Y-48410761D01*
X160599523Y-48363142D01*
X160647142Y-48267904D01*
X160647142Y-48172666D01*
X160599523Y-48077428D01*
X160551904Y-48029809D01*
X160456666Y-47982190D01*
X160266190Y-47934571D01*
X160170952Y-47886952D01*
X160123333Y-47839333D01*
X160075714Y-47744095D01*
X160075714Y-47648857D01*
X160123333Y-47553619D01*
X160170952Y-47506000D01*
X160266190Y-47458380D01*
X160504285Y-47458380D01*
X160647142Y-47506000D01*
X161075714Y-48458380D02*
X161075714Y-47458380D01*
X161313809Y-47458380D01*
X161456666Y-47506000D01*
X161551904Y-47601238D01*
X161599523Y-47696476D01*
X161647142Y-47886952D01*
X161647142Y-48029809D01*
X161599523Y-48220285D01*
X161551904Y-48315523D01*
X161456666Y-48410761D01*
X161313809Y-48458380D01*
X161075714Y-48458380D01*
X162028095Y-48172666D02*
X162504285Y-48172666D01*
X161932857Y-48458380D02*
X162266190Y-47458380D01*
X162599523Y-48458380D01*
X158559523Y-47458380D02*
X158083333Y-47458380D01*
X158035714Y-47934571D01*
X158083333Y-47886952D01*
X158178571Y-47839333D01*
X158416666Y-47839333D01*
X158511904Y-47886952D01*
X158559523Y-47934571D01*
X158607142Y-48029809D01*
X158607142Y-48267904D01*
X158559523Y-48363142D01*
X158511904Y-48410761D01*
X158416666Y-48458380D01*
X158178571Y-48458380D01*
X158083333Y-48410761D01*
X158035714Y-48363142D01*
X158892857Y-47458380D02*
X159226190Y-48458380D01*
X159559523Y-47458380D01*
X158559523Y-37044380D02*
X158083333Y-37044380D01*
X158035714Y-37520571D01*
X158083333Y-37472952D01*
X158178571Y-37425333D01*
X158416666Y-37425333D01*
X158511904Y-37472952D01*
X158559523Y-37520571D01*
X158607142Y-37615809D01*
X158607142Y-37853904D01*
X158559523Y-37949142D01*
X158511904Y-37996761D01*
X158416666Y-38044380D01*
X158178571Y-38044380D01*
X158083333Y-37996761D01*
X158035714Y-37949142D01*
X158892857Y-37044380D02*
X159226190Y-38044380D01*
X159559523Y-37044380D01*
X163147523Y-48410761D02*
X163290380Y-48458380D01*
X163528476Y-48458380D01*
X163623714Y-48410761D01*
X163671333Y-48363142D01*
X163718952Y-48267904D01*
X163718952Y-48172666D01*
X163671333Y-48077428D01*
X163623714Y-48029809D01*
X163528476Y-47982190D01*
X163338000Y-47934571D01*
X163242761Y-47886952D01*
X163195142Y-47839333D01*
X163147523Y-47744095D01*
X163147523Y-47648857D01*
X163195142Y-47553619D01*
X163242761Y-47506000D01*
X163338000Y-47458380D01*
X163576095Y-47458380D01*
X163718952Y-47506000D01*
X164718952Y-48363142D02*
X164671333Y-48410761D01*
X164528476Y-48458380D01*
X164433238Y-48458380D01*
X164290380Y-48410761D01*
X164195142Y-48315523D01*
X164147523Y-48220285D01*
X164099904Y-48029809D01*
X164099904Y-47886952D01*
X164147523Y-47696476D01*
X164195142Y-47601238D01*
X164290380Y-47506000D01*
X164433238Y-47458380D01*
X164528476Y-47458380D01*
X164671333Y-47506000D01*
X164718952Y-47553619D01*
X165623714Y-48458380D02*
X165147523Y-48458380D01*
X165147523Y-47458380D01*
X44084857Y-56387904D02*
X44084857Y-54864095D01*
X48799904Y-34432761D02*
X47657047Y-34432761D01*
X48228476Y-34432761D02*
X48228476Y-32432761D01*
X48038000Y-32718476D01*
X47847523Y-32908952D01*
X47657047Y-33004190D01*
X49561809Y-32623238D02*
X49657047Y-32528000D01*
X49847523Y-32432761D01*
X50323714Y-32432761D01*
X50514190Y-32528000D01*
X50609428Y-32623238D01*
X50704666Y-32813714D01*
X50704666Y-33004190D01*
X50609428Y-33289904D01*
X49466571Y-34432761D01*
X50704666Y-34432761D01*
X51276095Y-32432761D02*
X51942761Y-34432761D01*
X52609428Y-32432761D01*
X142184380Y-58602476D02*
X142184380Y-59173904D01*
X142184380Y-58888190D02*
X141184380Y-58888190D01*
X141327238Y-58983428D01*
X141422476Y-59078666D01*
X141470095Y-59173904D01*
X141184380Y-57983428D02*
X141184380Y-57888190D01*
X141232000Y-57792952D01*
X141279619Y-57745333D01*
X141374857Y-57697714D01*
X141565333Y-57650095D01*
X141803428Y-57650095D01*
X141993904Y-57697714D01*
X142089142Y-57745333D01*
X142136761Y-57792952D01*
X142184380Y-57888190D01*
X142184380Y-57983428D01*
X142136761Y-58078666D01*
X142089142Y-58126285D01*
X141993904Y-58173904D01*
X141803428Y-58221523D01*
X141565333Y-58221523D01*
X141374857Y-58173904D01*
X141279619Y-58126285D01*
X141232000Y-58078666D01*
X141184380Y-57983428D01*
X142184380Y-57221523D02*
X141184380Y-57221523D01*
X142184380Y-56650095D02*
X141612952Y-57078666D01*
X141184380Y-56650095D02*
X141755809Y-57221523D01*
X127222571Y-54752761D02*
X127222571Y-52752761D01*
X127889238Y-54181333D01*
X128555904Y-52752761D01*
X128555904Y-54752761D01*
X129413047Y-54181333D02*
X130365428Y-54181333D01*
X129222571Y-54752761D02*
X129889238Y-52752761D01*
X130555904Y-54752761D01*
X131222571Y-54752761D02*
X131222571Y-52752761D01*
X132365428Y-54752761D01*
X132365428Y-52752761D01*
X175148761Y-73961238D02*
X175148761Y-75104095D01*
X175148761Y-74532666D02*
X173148761Y-74532666D01*
X173434476Y-74723142D01*
X173624952Y-74913619D01*
X173720190Y-75104095D01*
X173148761Y-73389809D02*
X175148761Y-72723142D01*
X173148761Y-72056476D01*
X174577333Y-71485047D02*
X174577333Y-70532666D01*
X175148761Y-71675523D02*
X173148761Y-71008857D01*
X175148761Y-70342190D01*
X174958285Y-68532666D02*
X175053523Y-68627904D01*
X175148761Y-68913619D01*
X175148761Y-69104095D01*
X175053523Y-69389809D01*
X174863047Y-69580285D01*
X174672571Y-69675523D01*
X174291619Y-69770761D01*
X174005904Y-69770761D01*
X173624952Y-69675523D01*
X173434476Y-69580285D01*
X173244000Y-69389809D01*
X173148761Y-69104095D01*
X173148761Y-68913619D01*
X173244000Y-68627904D01*
X173339238Y-68532666D01*
X173339238Y-67770761D02*
X173244000Y-67675523D01*
X173148761Y-67485047D01*
X173148761Y-67008857D01*
X173244000Y-66818380D01*
X173339238Y-66723142D01*
X173529714Y-66627904D01*
X173720190Y-66627904D01*
X174005904Y-66723142D01*
X175148761Y-67866000D01*
X175148761Y-66627904D01*
X163147523Y-37996761D02*
X163290380Y-38044380D01*
X163528476Y-38044380D01*
X163623714Y-37996761D01*
X163671333Y-37949142D01*
X163718952Y-37853904D01*
X163718952Y-37758666D01*
X163671333Y-37663428D01*
X163623714Y-37615809D01*
X163528476Y-37568190D01*
X163338000Y-37520571D01*
X163242761Y-37472952D01*
X163195142Y-37425333D01*
X163147523Y-37330095D01*
X163147523Y-37234857D01*
X163195142Y-37139619D01*
X163242761Y-37092000D01*
X163338000Y-37044380D01*
X163576095Y-37044380D01*
X163718952Y-37092000D01*
X164718952Y-37949142D02*
X164671333Y-37996761D01*
X164528476Y-38044380D01*
X164433238Y-38044380D01*
X164290380Y-37996761D01*
X164195142Y-37901523D01*
X164147523Y-37806285D01*
X164099904Y-37615809D01*
X164099904Y-37472952D01*
X164147523Y-37282476D01*
X164195142Y-37187238D01*
X164290380Y-37092000D01*
X164433238Y-37044380D01*
X164528476Y-37044380D01*
X164671333Y-37092000D01*
X164718952Y-37139619D01*
X165623714Y-38044380D02*
X165147523Y-38044380D01*
X165147523Y-37044380D01*
X69056380Y-40854380D02*
X69675428Y-40854380D01*
X69342095Y-41235333D01*
X69484952Y-41235333D01*
X69580190Y-41282952D01*
X69627809Y-41330571D01*
X69675428Y-41425809D01*
X69675428Y-41663904D01*
X69627809Y-41759142D01*
X69580190Y-41806761D01*
X69484952Y-41854380D01*
X69199238Y-41854380D01*
X69104000Y-41806761D01*
X69056380Y-41759142D01*
X70104000Y-41759142D02*
X70151619Y-41806761D01*
X70104000Y-41854380D01*
X70056380Y-41806761D01*
X70104000Y-41759142D01*
X70104000Y-41854380D01*
X70484952Y-40854380D02*
X71104000Y-40854380D01*
X70770666Y-41235333D01*
X70913523Y-41235333D01*
X71008761Y-41282952D01*
X71056380Y-41330571D01*
X71104000Y-41425809D01*
X71104000Y-41663904D01*
X71056380Y-41759142D01*
X71008761Y-41806761D01*
X70913523Y-41854380D01*
X70627809Y-41854380D01*
X70532571Y-41806761D01*
X70484952Y-41759142D01*
X72247142Y-33742380D02*
X71770952Y-33742380D01*
X71723333Y-34218571D01*
X71770952Y-34170952D01*
X71866190Y-34123333D01*
X72104285Y-34123333D01*
X72199523Y-34170952D01*
X72247142Y-34218571D01*
X72294761Y-34313809D01*
X72294761Y-34551904D01*
X72247142Y-34647142D01*
X72199523Y-34694761D01*
X72104285Y-34742380D01*
X71866190Y-34742380D01*
X71770952Y-34694761D01*
X71723333Y-34647142D01*
X72628095Y-34075714D02*
X72866190Y-34742380D01*
X73104285Y-34075714D01*
X173148761Y-135603619D02*
X173148761Y-135222666D01*
X173244000Y-135032190D01*
X173434476Y-134841714D01*
X173815428Y-134746476D01*
X174482095Y-134746476D01*
X174863047Y-134841714D01*
X175053523Y-135032190D01*
X175148761Y-135222666D01*
X175148761Y-135603619D01*
X175053523Y-135794095D01*
X174863047Y-135984571D01*
X174482095Y-136079809D01*
X173815428Y-136079809D01*
X173434476Y-135984571D01*
X173244000Y-135794095D01*
X173148761Y-135603619D01*
X175148761Y-133889333D02*
X173148761Y-133889333D01*
X175148761Y-132746476D01*
X173148761Y-132746476D01*
X173053523Y-130365523D02*
X175624952Y-132079809D01*
X173148761Y-129317904D02*
X173148761Y-128936952D01*
X173244000Y-128746476D01*
X173434476Y-128556000D01*
X173815428Y-128460761D01*
X174482095Y-128460761D01*
X174863047Y-128556000D01*
X175053523Y-128746476D01*
X175148761Y-128936952D01*
X175148761Y-129317904D01*
X175053523Y-129508380D01*
X174863047Y-129698857D01*
X174482095Y-129794095D01*
X173815428Y-129794095D01*
X173434476Y-129698857D01*
X173244000Y-129508380D01*
X173148761Y-129317904D01*
X174101142Y-126936952D02*
X174101142Y-127603619D01*
X175148761Y-127603619D02*
X173148761Y-127603619D01*
X173148761Y-126651238D01*
X174101142Y-125222666D02*
X174101142Y-125889333D01*
X175148761Y-125889333D02*
X173148761Y-125889333D01*
X173148761Y-124936952D01*
X42394285Y-78934571D02*
X42537142Y-78934571D01*
X42680000Y-79006000D01*
X42751428Y-79077428D01*
X42822857Y-79220285D01*
X42894285Y-79506000D01*
X42894285Y-79863142D01*
X42822857Y-80148857D01*
X42751428Y-80291714D01*
X42680000Y-80363142D01*
X42537142Y-80434571D01*
X42394285Y-80434571D01*
X42251428Y-80363142D01*
X42180000Y-80291714D01*
X42108571Y-80148857D01*
X42037142Y-79863142D01*
X42037142Y-79506000D01*
X42108571Y-79220285D01*
X42180000Y-79077428D01*
X42251428Y-79006000D01*
X42394285Y-78934571D01*
X44180000Y-79434571D02*
X44180000Y-80434571D01*
X43822857Y-78863142D02*
X43465714Y-79934571D01*
X44394285Y-79934571D01*
X173148761Y-104679333D02*
X173148761Y-105631714D01*
X174101142Y-105726952D01*
X174005904Y-105631714D01*
X173910666Y-105441238D01*
X173910666Y-104965047D01*
X174005904Y-104774571D01*
X174101142Y-104679333D01*
X174291619Y-104584095D01*
X174767809Y-104584095D01*
X174958285Y-104679333D01*
X175053523Y-104774571D01*
X175148761Y-104965047D01*
X175148761Y-105441238D01*
X175053523Y-105631714D01*
X174958285Y-105726952D01*
X173148761Y-104012666D02*
X175148761Y-103346000D01*
X173148761Y-102679333D01*
X174958285Y-100869809D02*
X175053523Y-100965047D01*
X175148761Y-101250761D01*
X175148761Y-101441238D01*
X175053523Y-101726952D01*
X174863047Y-101917428D01*
X174672571Y-102012666D01*
X174291619Y-102107904D01*
X174005904Y-102107904D01*
X173624952Y-102012666D01*
X173434476Y-101917428D01*
X173244000Y-101726952D01*
X173148761Y-101441238D01*
X173148761Y-101250761D01*
X173244000Y-100965047D01*
X173339238Y-100869809D01*
X174958285Y-98869809D02*
X175053523Y-98965047D01*
X175148761Y-99250761D01*
X175148761Y-99441238D01*
X175053523Y-99726952D01*
X174863047Y-99917428D01*
X174672571Y-100012666D01*
X174291619Y-100107904D01*
X174005904Y-100107904D01*
X173624952Y-100012666D01*
X173434476Y-99917428D01*
X173244000Y-99726952D01*
X173148761Y-99441238D01*
X173148761Y-99250761D01*
X173244000Y-98965047D01*
X173339238Y-98869809D01*
X173339238Y-98107904D02*
X173244000Y-98012666D01*
X173148761Y-97822190D01*
X173148761Y-97346000D01*
X173244000Y-97155523D01*
X173339238Y-97060285D01*
X173529714Y-96965047D01*
X173720190Y-96965047D01*
X174005904Y-97060285D01*
X175148761Y-98203142D01*
X175148761Y-96965047D01*
X154940095Y-47506000D02*
X154844857Y-47458380D01*
X154702000Y-47458380D01*
X154559142Y-47506000D01*
X154463904Y-47601238D01*
X154416285Y-47696476D01*
X154368666Y-47886952D01*
X154368666Y-48029809D01*
X154416285Y-48220285D01*
X154463904Y-48315523D01*
X154559142Y-48410761D01*
X154702000Y-48458380D01*
X154797238Y-48458380D01*
X154940095Y-48410761D01*
X154987714Y-48363142D01*
X154987714Y-48029809D01*
X154797238Y-48029809D01*
X155416285Y-48458380D02*
X155416285Y-47458380D01*
X155987714Y-48458380D01*
X155987714Y-47458380D01*
X156463904Y-48458380D02*
X156463904Y-47458380D01*
X156702000Y-47458380D01*
X156844857Y-47506000D01*
X156940095Y-47601238D01*
X156987714Y-47696476D01*
X157035333Y-47886952D01*
X157035333Y-48029809D01*
X156987714Y-48220285D01*
X156940095Y-48315523D01*
X156844857Y-48410761D01*
X156702000Y-48458380D01*
X156463904Y-48458380D01*
X173148761Y-119792190D02*
X173148761Y-118554095D01*
X173910666Y-119220761D01*
X173910666Y-118935047D01*
X174005904Y-118744571D01*
X174101142Y-118649333D01*
X174291619Y-118554095D01*
X174767809Y-118554095D01*
X174958285Y-118649333D01*
X175053523Y-118744571D01*
X175148761Y-118935047D01*
X175148761Y-119506476D01*
X175053523Y-119696952D01*
X174958285Y-119792190D01*
X173148761Y-117316000D02*
X173148761Y-117125523D01*
X173244000Y-116935047D01*
X173339238Y-116839809D01*
X173529714Y-116744571D01*
X173910666Y-116649333D01*
X174386857Y-116649333D01*
X174767809Y-116744571D01*
X174958285Y-116839809D01*
X175053523Y-116935047D01*
X175148761Y-117125523D01*
X175148761Y-117316000D01*
X175053523Y-117506476D01*
X174958285Y-117601714D01*
X174767809Y-117696952D01*
X174386857Y-117792190D01*
X173910666Y-117792190D01*
X173529714Y-117696952D01*
X173339238Y-117601714D01*
X173244000Y-117506476D01*
X173148761Y-117316000D01*
X173148761Y-116077904D02*
X175148761Y-115411238D01*
X173148761Y-114744571D01*
X174958285Y-112935047D02*
X175053523Y-113030285D01*
X175148761Y-113316000D01*
X175148761Y-113506476D01*
X175053523Y-113792190D01*
X174863047Y-113982666D01*
X174672571Y-114077904D01*
X174291619Y-114173142D01*
X174005904Y-114173142D01*
X173624952Y-114077904D01*
X173434476Y-113982666D01*
X173244000Y-113792190D01*
X173148761Y-113506476D01*
X173148761Y-113316000D01*
X173244000Y-113030285D01*
X173339238Y-112935047D01*
X174958285Y-110935047D02*
X175053523Y-111030285D01*
X175148761Y-111316000D01*
X175148761Y-111506476D01*
X175053523Y-111792190D01*
X174863047Y-111982666D01*
X174672571Y-112077904D01*
X174291619Y-112173142D01*
X174005904Y-112173142D01*
X173624952Y-112077904D01*
X173434476Y-111982666D01*
X173244000Y-111792190D01*
X173148761Y-111506476D01*
X173148761Y-111316000D01*
X173244000Y-111030285D01*
X173339238Y-110935047D01*
X42926095Y-37226857D02*
X44449904Y-37226857D01*
X43688000Y-37988761D02*
X43688000Y-36464952D01*
X44084857Y-44195904D02*
X44084857Y-42672095D01*
X42894285Y-65194571D02*
X42037142Y-65194571D01*
X42465714Y-65194571D02*
X42465714Y-63694571D01*
X42322857Y-63908857D01*
X42180000Y-64051714D01*
X42037142Y-64123142D01*
X44180000Y-63694571D02*
X43894285Y-63694571D01*
X43751428Y-63766000D01*
X43680000Y-63837428D01*
X43537142Y-64051714D01*
X43465714Y-64337428D01*
X43465714Y-64908857D01*
X43537142Y-65051714D01*
X43608571Y-65123142D01*
X43751428Y-65194571D01*
X44037142Y-65194571D01*
X44180000Y-65123142D01*
X44251428Y-65051714D01*
X44322857Y-64908857D01*
X44322857Y-64551714D01*
X44251428Y-64408857D01*
X44180000Y-64337428D01*
X44037142Y-64266000D01*
X43751428Y-64266000D01*
X43608571Y-64337428D01*
X43537142Y-64408857D01*
X43465714Y-64551714D01*
X166084380Y-37044380D02*
X166703428Y-37044380D01*
X166370095Y-37425333D01*
X166512952Y-37425333D01*
X166608190Y-37472952D01*
X166655809Y-37520571D01*
X166703428Y-37615809D01*
X166703428Y-37853904D01*
X166655809Y-37949142D01*
X166608190Y-37996761D01*
X166512952Y-38044380D01*
X166227238Y-38044380D01*
X166132000Y-37996761D01*
X166084380Y-37949142D01*
X167132000Y-37949142D02*
X167179619Y-37996761D01*
X167132000Y-38044380D01*
X167084380Y-37996761D01*
X167132000Y-37949142D01*
X167132000Y-38044380D01*
X167512952Y-37044380D02*
X168132000Y-37044380D01*
X167798666Y-37425333D01*
X167941523Y-37425333D01*
X168036761Y-37472952D01*
X168084380Y-37520571D01*
X168132000Y-37615809D01*
X168132000Y-37853904D01*
X168084380Y-37949142D01*
X168036761Y-37996761D01*
X167941523Y-38044380D01*
X167655809Y-38044380D01*
X167560571Y-37996761D01*
X167512952Y-37949142D01*
X43858571Y-75743142D02*
X43144285Y-76243142D01*
X43858571Y-76600285D02*
X42358571Y-76600285D01*
X42358571Y-76028857D01*
X42430000Y-75886000D01*
X42501428Y-75814571D01*
X42644285Y-75743142D01*
X42858571Y-75743142D01*
X43001428Y-75814571D01*
X43072857Y-75886000D01*
X43144285Y-76028857D01*
X43144285Y-76600285D01*
X43858571Y-74386000D02*
X43858571Y-75100285D01*
X42358571Y-75100285D01*
X43144285Y-73600285D02*
X43858571Y-73600285D01*
X42358571Y-74100285D02*
X43144285Y-73600285D01*
X42358571Y-73100285D01*
X43072857Y-70957428D02*
X43144285Y-70743142D01*
X43215714Y-70671714D01*
X43358571Y-70600285D01*
X43572857Y-70600285D01*
X43715714Y-70671714D01*
X43787142Y-70743142D01*
X43858571Y-70886000D01*
X43858571Y-71457428D01*
X42358571Y-71457428D01*
X42358571Y-70957428D01*
X42430000Y-70814571D01*
X42501428Y-70743142D01*
X42644285Y-70671714D01*
X42787142Y-70671714D01*
X42930000Y-70743142D01*
X43001428Y-70814571D01*
X43072857Y-70957428D01*
X43072857Y-71457428D01*
X43858571Y-69100285D02*
X43144285Y-69600285D01*
X43858571Y-69957428D02*
X42358571Y-69957428D01*
X42358571Y-69386000D01*
X42430000Y-69243142D01*
X42501428Y-69171714D01*
X42644285Y-69100285D01*
X42858571Y-69100285D01*
X43001428Y-69171714D01*
X43072857Y-69243142D01*
X43144285Y-69386000D01*
X43144285Y-69957428D01*
X43858571Y-68457428D02*
X42358571Y-68457428D01*
X42358571Y-68100285D01*
X42430000Y-67886000D01*
X42572857Y-67743142D01*
X42715714Y-67671714D01*
X43001428Y-67600285D01*
X43215714Y-67600285D01*
X43501428Y-67671714D01*
X43644285Y-67743142D01*
X43787142Y-67886000D01*
X43858571Y-68100285D01*
X43858571Y-68457428D01*
X141930380Y-69778476D02*
X141930380Y-70349904D01*
X141930380Y-70064190D02*
X140930380Y-70064190D01*
X141073238Y-70159428D01*
X141168476Y-70254666D01*
X141216095Y-70349904D01*
X140930380Y-69159428D02*
X140930380Y-69064190D01*
X140978000Y-68968952D01*
X141025619Y-68921333D01*
X141120857Y-68873714D01*
X141311333Y-68826095D01*
X141549428Y-68826095D01*
X141739904Y-68873714D01*
X141835142Y-68921333D01*
X141882761Y-68968952D01*
X141930380Y-69064190D01*
X141930380Y-69159428D01*
X141882761Y-69254666D01*
X141835142Y-69302285D01*
X141739904Y-69349904D01*
X141549428Y-69397523D01*
X141311333Y-69397523D01*
X141120857Y-69349904D01*
X141025619Y-69302285D01*
X140978000Y-69254666D01*
X140930380Y-69159428D01*
X141930380Y-68397523D02*
X140930380Y-68397523D01*
X141930380Y-67826095D02*
X141358952Y-68254666D01*
X140930380Y-67826095D02*
X141501809Y-68397523D01*
X114364000Y-54752761D02*
X114364000Y-52752761D01*
X115030666Y-54181333D01*
X115697333Y-52752761D01*
X115697333Y-54752761D01*
X116554476Y-54181333D02*
X117506857Y-54181333D01*
X116364000Y-54752761D02*
X117030666Y-52752761D01*
X117697333Y-54752761D01*
X118364000Y-54752761D02*
X118364000Y-52752761D01*
X119316380Y-54752761D02*
X119316380Y-52752761D01*
X120459238Y-54752761D01*
X120459238Y-52752761D01*
X121316380Y-54657523D02*
X121602095Y-54752761D01*
X122078285Y-54752761D01*
X122268761Y-54657523D01*
X122364000Y-54562285D01*
X122459238Y-54371809D01*
X122459238Y-54181333D01*
X122364000Y-53990857D01*
X122268761Y-53895619D01*
X122078285Y-53800380D01*
X121697333Y-53705142D01*
X121506857Y-53609904D01*
X121411619Y-53514666D01*
X121316380Y-53324190D01*
X121316380Y-53133714D01*
X121411619Y-52943238D01*
X121506857Y-52848000D01*
X121697333Y-52752761D01*
X122173523Y-52752761D01*
X122459238Y-52848000D01*
X155194095Y-37092000D02*
X155098857Y-37044380D01*
X154956000Y-37044380D01*
X154813142Y-37092000D01*
X154717904Y-37187238D01*
X154670285Y-37282476D01*
X154622666Y-37472952D01*
X154622666Y-37615809D01*
X154670285Y-37806285D01*
X154717904Y-37901523D01*
X154813142Y-37996761D01*
X154956000Y-38044380D01*
X155051238Y-38044380D01*
X155194095Y-37996761D01*
X155241714Y-37949142D01*
X155241714Y-37615809D01*
X155051238Y-37615809D01*
X155670285Y-38044380D02*
X155670285Y-37044380D01*
X156241714Y-38044380D01*
X156241714Y-37044380D01*
X156717904Y-38044380D02*
X156717904Y-37044380D01*
X156956000Y-37044380D01*
X157098857Y-37092000D01*
X157194095Y-37187238D01*
X157241714Y-37282476D01*
X157289333Y-37472952D01*
X157289333Y-37615809D01*
X157241714Y-37806285D01*
X157194095Y-37901523D01*
X157098857Y-37996761D01*
X156956000Y-38044380D01*
X156717904Y-38044380D01*
X58817333Y-141366761D02*
X57674476Y-141366761D01*
X58245904Y-141366761D02*
X58245904Y-139366761D01*
X58055428Y-139652476D01*
X57864952Y-139842952D01*
X57674476Y-139938190D01*
X59484000Y-139366761D02*
X59960190Y-141366761D01*
X60341142Y-139938190D01*
X60722095Y-141366761D01*
X61198285Y-139366761D01*
X63388761Y-139271523D02*
X61674476Y-141842952D01*
X64055428Y-141366761D02*
X64055428Y-139366761D01*
X65198285Y-141366761D01*
X65198285Y-139366761D01*
X67293523Y-141176285D02*
X67198285Y-141271523D01*
X66912571Y-141366761D01*
X66722095Y-141366761D01*
X66436380Y-141271523D01*
X66245904Y-141081047D01*
X66150666Y-140890571D01*
X66055428Y-140509619D01*
X66055428Y-140223904D01*
X66150666Y-139842952D01*
X66245904Y-139652476D01*
X66436380Y-139462000D01*
X66722095Y-139366761D01*
X66912571Y-139366761D01*
X67198285Y-139462000D01*
X67293523Y-139557238D01*
X175148761Y-58721238D02*
X175148761Y-59864095D01*
X175148761Y-59292666D02*
X173148761Y-59292666D01*
X173434476Y-59483142D01*
X173624952Y-59673619D01*
X173720190Y-59864095D01*
X173148761Y-58149809D02*
X175148761Y-57483142D01*
X173148761Y-56816476D01*
X174577333Y-56245047D02*
X174577333Y-55292666D01*
X175148761Y-56435523D02*
X173148761Y-55768857D01*
X175148761Y-55102190D01*
X174958285Y-53292666D02*
X175053523Y-53387904D01*
X175148761Y-53673619D01*
X175148761Y-53864095D01*
X175053523Y-54149809D01*
X174863047Y-54340285D01*
X174672571Y-54435523D01*
X174291619Y-54530761D01*
X174005904Y-54530761D01*
X173624952Y-54435523D01*
X173434476Y-54340285D01*
X173244000Y-54149809D01*
X173148761Y-53864095D01*
X173148761Y-53673619D01*
X173244000Y-53387904D01*
X173339238Y-53292666D01*
X175148761Y-51387904D02*
X175148761Y-52530761D01*
X175148761Y-51959333D02*
X173148761Y-51959333D01*
X173434476Y-52149809D01*
X173624952Y-52340285D01*
X173720190Y-52530761D01*
X42866571Y-53316000D02*
X42866571Y-53030285D01*
X42938000Y-52887428D01*
X43080857Y-52744571D01*
X43366571Y-52673142D01*
X43866571Y-52673142D01*
X44152285Y-52744571D01*
X44295142Y-52887428D01*
X44366571Y-53030285D01*
X44366571Y-53316000D01*
X44295142Y-53458857D01*
X44152285Y-53601714D01*
X43866571Y-53673142D01*
X43366571Y-53673142D01*
X43080857Y-53601714D01*
X42938000Y-53458857D01*
X42866571Y-53316000D01*
X42866571Y-52030285D02*
X44080857Y-52030285D01*
X44223714Y-51958857D01*
X44295142Y-51887428D01*
X44366571Y-51744571D01*
X44366571Y-51458857D01*
X44295142Y-51316000D01*
X44223714Y-51244571D01*
X44080857Y-51173142D01*
X42866571Y-51173142D01*
X42866571Y-50673142D02*
X42866571Y-49816000D01*
X44366571Y-50244571D02*
X42866571Y-50244571D01*
X147010380Y-71302476D02*
X147010380Y-71873904D01*
X147010380Y-71588190D02*
X146010380Y-71588190D01*
X146153238Y-71683428D01*
X146248476Y-71778666D01*
X146296095Y-71873904D01*
X146010380Y-70683428D02*
X146010380Y-70588190D01*
X146058000Y-70492952D01*
X146105619Y-70445333D01*
X146200857Y-70397714D01*
X146391333Y-70350095D01*
X146629428Y-70350095D01*
X146819904Y-70397714D01*
X146915142Y-70445333D01*
X146962761Y-70492952D01*
X147010380Y-70588190D01*
X147010380Y-70683428D01*
X146962761Y-70778666D01*
X146915142Y-70826285D01*
X146819904Y-70873904D01*
X146629428Y-70921523D01*
X146391333Y-70921523D01*
X146200857Y-70873904D01*
X146105619Y-70826285D01*
X146058000Y-70778666D01*
X146010380Y-70683428D01*
X147010380Y-69921523D02*
X146010380Y-69921523D01*
X147010380Y-69350095D02*
X146438952Y-69778666D01*
X146010380Y-69350095D02*
X146581809Y-69921523D01*
X105886380Y-53396761D02*
X105219714Y-52444380D01*
X104743523Y-53396761D02*
X104743523Y-51396761D01*
X105505428Y-51396761D01*
X105695904Y-51492000D01*
X105791142Y-51587238D01*
X105886380Y-51777714D01*
X105886380Y-52063428D01*
X105791142Y-52253904D01*
X105695904Y-52349142D01*
X105505428Y-52444380D01*
X104743523Y-52444380D01*
X107695904Y-53396761D02*
X106743523Y-53396761D01*
X106743523Y-51396761D01*
X108743523Y-52444380D02*
X108743523Y-53396761D01*
X108076857Y-51396761D02*
X108743523Y-52444380D01*
X109410190Y-51396761D01*
X105076857Y-55569142D02*
X105362571Y-55664380D01*
X105457809Y-55759619D01*
X105553047Y-55950095D01*
X105553047Y-56235809D01*
X105457809Y-56426285D01*
X105362571Y-56521523D01*
X105172095Y-56616761D01*
X104410190Y-56616761D01*
X104410190Y-54616761D01*
X105076857Y-54616761D01*
X105267333Y-54712000D01*
X105362571Y-54807238D01*
X105457809Y-54997714D01*
X105457809Y-55188190D01*
X105362571Y-55378666D01*
X105267333Y-55473904D01*
X105076857Y-55569142D01*
X104410190Y-55569142D01*
X107553047Y-56616761D02*
X106886380Y-55664380D01*
X106410190Y-56616761D02*
X106410190Y-54616761D01*
X107172095Y-54616761D01*
X107362571Y-54712000D01*
X107457809Y-54807238D01*
X107553047Y-54997714D01*
X107553047Y-55283428D01*
X107457809Y-55473904D01*
X107362571Y-55569142D01*
X107172095Y-55664380D01*
X106410190Y-55664380D01*
X108410190Y-56616761D02*
X108410190Y-54616761D01*
X108886380Y-54616761D01*
X109172095Y-54712000D01*
X109362571Y-54902476D01*
X109457809Y-55092952D01*
X109553047Y-55473904D01*
X109553047Y-55759619D01*
X109457809Y-56140571D01*
X109362571Y-56331047D01*
X109172095Y-56521523D01*
X108886380Y-56616761D01*
X108410190Y-56616761D01*
X69707142Y-33742380D02*
X69230952Y-33742380D01*
X69183333Y-34218571D01*
X69230952Y-34170952D01*
X69326190Y-34123333D01*
X69564285Y-34123333D01*
X69659523Y-34170952D01*
X69707142Y-34218571D01*
X69754761Y-34313809D01*
X69754761Y-34551904D01*
X69707142Y-34647142D01*
X69659523Y-34694761D01*
X69564285Y-34742380D01*
X69326190Y-34742380D01*
X69230952Y-34694761D01*
X69183333Y-34647142D01*
X70088095Y-34075714D02*
X70326190Y-34742380D01*
X70564285Y-34075714D01*
%TO.C,R10*%
X95956380Y-49918857D02*
X95480190Y-50252190D01*
X95956380Y-50490285D02*
X94956380Y-50490285D01*
X94956380Y-50109333D01*
X95004000Y-50014095D01*
X95051619Y-49966476D01*
X95146857Y-49918857D01*
X95289714Y-49918857D01*
X95384952Y-49966476D01*
X95432571Y-50014095D01*
X95480190Y-50109333D01*
X95480190Y-50490285D01*
X95956380Y-48966476D02*
X95956380Y-49537904D01*
X95956380Y-49252190D02*
X94956380Y-49252190D01*
X95099238Y-49347428D01*
X95194476Y-49442666D01*
X95242095Y-49537904D01*
X94956380Y-48347428D02*
X94956380Y-48252190D01*
X95004000Y-48156952D01*
X95051619Y-48109333D01*
X95146857Y-48061714D01*
X95337333Y-48014095D01*
X95575428Y-48014095D01*
X95765904Y-48061714D01*
X95861142Y-48109333D01*
X95908761Y-48156952D01*
X95956380Y-48252190D01*
X95956380Y-48347428D01*
X95908761Y-48442666D01*
X95861142Y-48490285D01*
X95765904Y-48537904D01*
X95575428Y-48585523D01*
X95337333Y-48585523D01*
X95146857Y-48537904D01*
X95051619Y-48490285D01*
X95004000Y-48442666D01*
X94956380Y-48347428D01*
%TO.C,J2*%
X67231380Y-38184333D02*
X67945666Y-38184333D01*
X68088523Y-38231952D01*
X68183761Y-38327190D01*
X68231380Y-38470047D01*
X68231380Y-38565285D01*
X67326619Y-37755761D02*
X67279000Y-37708142D01*
X67231380Y-37612904D01*
X67231380Y-37374809D01*
X67279000Y-37279571D01*
X67326619Y-37231952D01*
X67421857Y-37184333D01*
X67517095Y-37184333D01*
X67659952Y-37231952D01*
X68231380Y-37803380D01*
X68231380Y-37184333D01*
%TO.C,J1*%
X53222166Y-132868380D02*
X53222166Y-133582666D01*
X53174547Y-133725523D01*
X53079309Y-133820761D01*
X52936452Y-133868380D01*
X52841214Y-133868380D01*
X54222166Y-133868380D02*
X53650738Y-133868380D01*
X53936452Y-133868380D02*
X53936452Y-132868380D01*
X53841214Y-133011238D01*
X53745976Y-133106476D01*
X53650738Y-133154095D01*
%TO.C,D4*%
X114856380Y-47474095D02*
X113856380Y-47474095D01*
X113856380Y-47236000D01*
X113904000Y-47093142D01*
X113999238Y-46997904D01*
X114094476Y-46950285D01*
X114284952Y-46902666D01*
X114427809Y-46902666D01*
X114618285Y-46950285D01*
X114713523Y-46997904D01*
X114808761Y-47093142D01*
X114856380Y-47236000D01*
X114856380Y-47474095D01*
X114189714Y-46045523D02*
X114856380Y-46045523D01*
X113808761Y-46283619D02*
X114523047Y-46521714D01*
X114523047Y-45902666D01*
%TO.C,C4*%
X135911142Y-82395046D02*
X135958761Y-82442665D01*
X136006380Y-82585522D01*
X136006380Y-82680760D01*
X135958761Y-82823618D01*
X135863523Y-82918856D01*
X135768285Y-82966475D01*
X135577809Y-83014094D01*
X135434952Y-83014094D01*
X135244476Y-82966475D01*
X135149238Y-82918856D01*
X135054000Y-82823618D01*
X135006380Y-82680760D01*
X135006380Y-82585522D01*
X135054000Y-82442665D01*
X135101619Y-82395046D01*
X135339714Y-81537903D02*
X136006380Y-81537903D01*
X134958761Y-81775999D02*
X135673047Y-82014094D01*
X135673047Y-81395046D01*
X138057142Y-77763714D02*
X138057142Y-78430380D01*
X137819047Y-77382761D02*
X137580952Y-78097047D01*
X138200000Y-78097047D01*
X138485714Y-77430380D02*
X139152380Y-77430380D01*
X138723809Y-78430380D01*
X139723809Y-77430380D02*
X139819047Y-77430380D01*
X139914285Y-77478000D01*
X139961904Y-77525619D01*
X140009523Y-77620857D01*
X140057142Y-77811333D01*
X140057142Y-78049428D01*
X140009523Y-78239904D01*
X139961904Y-78335142D01*
X139914285Y-78382761D01*
X139819047Y-78430380D01*
X139723809Y-78430380D01*
X139628571Y-78382761D01*
X139580952Y-78335142D01*
X139533333Y-78239904D01*
X139485714Y-78049428D01*
X139485714Y-77811333D01*
X139533333Y-77620857D01*
X139580952Y-77525619D01*
X139628571Y-77478000D01*
X139723809Y-77430380D01*
X140914285Y-77763714D02*
X140914285Y-78430380D01*
X140485714Y-77763714D02*
X140485714Y-78287523D01*
X140533333Y-78382761D01*
X140628571Y-78430380D01*
X140771428Y-78430380D01*
X140866666Y-78382761D01*
X140914285Y-78335142D01*
X141723809Y-77906571D02*
X141390476Y-77906571D01*
X141390476Y-78430380D02*
X141390476Y-77430380D01*
X141866666Y-77430380D01*
%TO.C,U3*%
X54602095Y-104298380D02*
X54602095Y-105107904D01*
X54649714Y-105203142D01*
X54697333Y-105250761D01*
X54792571Y-105298380D01*
X54983047Y-105298380D01*
X55078285Y-105250761D01*
X55125904Y-105203142D01*
X55173523Y-105107904D01*
X55173523Y-104298380D01*
X55554476Y-104298380D02*
X56173523Y-104298380D01*
X55840190Y-104679333D01*
X55983047Y-104679333D01*
X56078285Y-104726952D01*
X56125904Y-104774571D01*
X56173523Y-104869809D01*
X56173523Y-105107904D01*
X56125904Y-105203142D01*
X56078285Y-105250761D01*
X55983047Y-105298380D01*
X55697333Y-105298380D01*
X55602095Y-105250761D01*
X55554476Y-105203142D01*
X61834000Y-114447904D02*
X61786380Y-114543142D01*
X61786380Y-114686000D01*
X61834000Y-114828857D01*
X61929238Y-114924095D01*
X62024476Y-114971714D01*
X62214952Y-115019333D01*
X62357809Y-115019333D01*
X62548285Y-114971714D01*
X62643523Y-114924095D01*
X62738761Y-114828857D01*
X62786380Y-114686000D01*
X62786380Y-114590761D01*
X62738761Y-114447904D01*
X62691142Y-114400285D01*
X62357809Y-114400285D01*
X62357809Y-114590761D01*
X62786380Y-113971714D02*
X61786380Y-113971714D01*
X62786380Y-113400285D01*
X61786380Y-113400285D01*
X62786380Y-112924095D02*
X61786380Y-112924095D01*
X61786380Y-112686000D01*
X61834000Y-112543142D01*
X61929238Y-112447904D01*
X62024476Y-112400285D01*
X62214952Y-112352666D01*
X62357809Y-112352666D01*
X62548285Y-112400285D01*
X62643523Y-112447904D01*
X62738761Y-112543142D01*
X62786380Y-112686000D01*
X62786380Y-112924095D01*
X57290666Y-114350285D02*
X57290666Y-113874095D01*
X57576380Y-114445523D02*
X56576380Y-114112190D01*
X57576380Y-113778857D01*
X56576380Y-113255047D02*
X56576380Y-113159809D01*
X56624000Y-113064571D01*
X56671619Y-113016952D01*
X56766857Y-112969333D01*
X56957333Y-112921714D01*
X57195428Y-112921714D01*
X57385904Y-112969333D01*
X57481142Y-113016952D01*
X57528761Y-113064571D01*
X57576380Y-113159809D01*
X57576380Y-113255047D01*
X57528761Y-113350285D01*
X57481142Y-113397904D01*
X57385904Y-113445523D01*
X57195428Y-113493142D01*
X56957333Y-113493142D01*
X56766857Y-113445523D01*
X56671619Y-113397904D01*
X56624000Y-113350285D01*
X56576380Y-113255047D01*
X46526380Y-115149333D02*
X47526380Y-114816000D01*
X46526380Y-114482666D01*
X47431142Y-113577904D02*
X47478761Y-113625523D01*
X47526380Y-113768380D01*
X47526380Y-113863619D01*
X47478761Y-114006476D01*
X47383523Y-114101714D01*
X47288285Y-114149333D01*
X47097809Y-114196952D01*
X46954952Y-114196952D01*
X46764476Y-114149333D01*
X46669238Y-114101714D01*
X46574000Y-114006476D01*
X46526380Y-113863619D01*
X46526380Y-113768380D01*
X46574000Y-113625523D01*
X46621619Y-113577904D01*
X47431142Y-112577904D02*
X47478761Y-112625523D01*
X47526380Y-112768380D01*
X47526380Y-112863619D01*
X47478761Y-113006476D01*
X47383523Y-113101714D01*
X47288285Y-113149333D01*
X47097809Y-113196952D01*
X46954952Y-113196952D01*
X46764476Y-113149333D01*
X46669238Y-113101714D01*
X46574000Y-113006476D01*
X46526380Y-112863619D01*
X46526380Y-112768380D01*
X46574000Y-112625523D01*
X46621619Y-112577904D01*
X50108761Y-114826476D02*
X50156380Y-114683619D01*
X50156380Y-114445523D01*
X50108761Y-114350285D01*
X50061142Y-114302666D01*
X49965904Y-114255047D01*
X49870666Y-114255047D01*
X49775428Y-114302666D01*
X49727809Y-114350285D01*
X49680190Y-114445523D01*
X49632571Y-114636000D01*
X49584952Y-114731238D01*
X49537333Y-114778857D01*
X49442095Y-114826476D01*
X49346857Y-114826476D01*
X49251619Y-114778857D01*
X49204000Y-114731238D01*
X49156380Y-114636000D01*
X49156380Y-114397904D01*
X49204000Y-114255047D01*
X50061142Y-113255047D02*
X50108761Y-113302666D01*
X50156380Y-113445523D01*
X50156380Y-113540761D01*
X50108761Y-113683619D01*
X50013523Y-113778857D01*
X49918285Y-113826476D01*
X49727809Y-113874095D01*
X49584952Y-113874095D01*
X49394476Y-113826476D01*
X49299238Y-113778857D01*
X49204000Y-113683619D01*
X49156380Y-113540761D01*
X49156380Y-113445523D01*
X49204000Y-113302666D01*
X49251619Y-113255047D01*
X50156380Y-112350285D02*
X50156380Y-112826476D01*
X49156380Y-112826476D01*
X54910666Y-114560285D02*
X54910666Y-114084095D01*
X55196380Y-114655523D02*
X54196380Y-114322190D01*
X55196380Y-113988857D01*
X55196380Y-113131714D02*
X55196380Y-113703142D01*
X55196380Y-113417428D02*
X54196380Y-113417428D01*
X54339238Y-113512666D01*
X54434476Y-113607904D01*
X54482095Y-113703142D01*
X52638761Y-114900285D02*
X52686380Y-114757428D01*
X52686380Y-114519333D01*
X52638761Y-114424095D01*
X52591142Y-114376476D01*
X52495904Y-114328857D01*
X52400666Y-114328857D01*
X52305428Y-114376476D01*
X52257809Y-114424095D01*
X52210190Y-114519333D01*
X52162571Y-114709809D01*
X52114952Y-114805047D01*
X52067333Y-114852666D01*
X51972095Y-114900285D01*
X51876857Y-114900285D01*
X51781619Y-114852666D01*
X51734000Y-114805047D01*
X51686380Y-114709809D01*
X51686380Y-114471714D01*
X51734000Y-114328857D01*
X52686380Y-113900285D02*
X51686380Y-113900285D01*
X51686380Y-113662190D01*
X51734000Y-113519333D01*
X51829238Y-113424095D01*
X51924476Y-113376476D01*
X52114952Y-113328857D01*
X52257809Y-113328857D01*
X52448285Y-113376476D01*
X52543523Y-113424095D01*
X52638761Y-113519333D01*
X52686380Y-113662190D01*
X52686380Y-113900285D01*
X52400666Y-112947904D02*
X52400666Y-112471714D01*
X52686380Y-113043142D02*
X51686380Y-112709809D01*
X52686380Y-112376476D01*
X60176380Y-115107904D02*
X60176380Y-115679333D01*
X60176380Y-115393619D02*
X59176380Y-115393619D01*
X59319238Y-115488857D01*
X59414476Y-115584095D01*
X59462095Y-115679333D01*
X59176380Y-114774571D02*
X60176380Y-114536476D01*
X59462095Y-114346000D01*
X60176380Y-114155523D01*
X59176380Y-113917428D01*
X60176380Y-113536476D02*
X59509714Y-113536476D01*
X59176380Y-113536476D02*
X59224000Y-113584095D01*
X59271619Y-113536476D01*
X59224000Y-113488857D01*
X59176380Y-113536476D01*
X59271619Y-113536476D01*
X60176380Y-113060285D02*
X59509714Y-113060285D01*
X59700190Y-113060285D02*
X59604952Y-113012666D01*
X59557333Y-112965047D01*
X59509714Y-112869809D01*
X59509714Y-112774571D01*
X60128761Y-112060285D02*
X60176380Y-112155523D01*
X60176380Y-112346000D01*
X60128761Y-112441238D01*
X60033523Y-112488857D01*
X59652571Y-112488857D01*
X59557333Y-112441238D01*
X59509714Y-112346000D01*
X59509714Y-112155523D01*
X59557333Y-112060285D01*
X59652571Y-112012666D01*
X59747809Y-112012666D01*
X59843047Y-112488857D01*
%TO.C,U2*%
X64102095Y-67428380D02*
X64102095Y-68237904D01*
X64149714Y-68333142D01*
X64197333Y-68380761D01*
X64292571Y-68428380D01*
X64483047Y-68428380D01*
X64578285Y-68380761D01*
X64625904Y-68333142D01*
X64673523Y-68237904D01*
X64673523Y-67428380D01*
X65102095Y-67523619D02*
X65149714Y-67476000D01*
X65244952Y-67428380D01*
X65483047Y-67428380D01*
X65578285Y-67476000D01*
X65625904Y-67523619D01*
X65673523Y-67618857D01*
X65673523Y-67714095D01*
X65625904Y-67856952D01*
X65054476Y-68428380D01*
X65673523Y-68428380D01*
X65416380Y-86190285D02*
X64416380Y-86190285D01*
X64416380Y-85809333D01*
X64464000Y-85714095D01*
X64511619Y-85666476D01*
X64606857Y-85618857D01*
X64749714Y-85618857D01*
X64844952Y-85666476D01*
X64892571Y-85714095D01*
X64940190Y-85809333D01*
X64940190Y-86190285D01*
X64416380Y-84999809D02*
X64416380Y-84904571D01*
X64464000Y-84809333D01*
X64511619Y-84761714D01*
X64606857Y-84714095D01*
X64797333Y-84666476D01*
X65035428Y-84666476D01*
X65225904Y-84714095D01*
X65321142Y-84761714D01*
X65368761Y-84809333D01*
X65416380Y-84904571D01*
X65416380Y-84999809D01*
X65368761Y-85095047D01*
X65321142Y-85142666D01*
X65225904Y-85190285D01*
X65035428Y-85237904D01*
X64797333Y-85237904D01*
X64606857Y-85190285D01*
X64511619Y-85142666D01*
X64464000Y-85095047D01*
X64416380Y-84999809D01*
X64416380Y-84047428D02*
X64416380Y-83952190D01*
X64464000Y-83856952D01*
X64511619Y-83809333D01*
X64606857Y-83761714D01*
X64797333Y-83714095D01*
X65035428Y-83714095D01*
X65225904Y-83761714D01*
X65321142Y-83809333D01*
X65368761Y-83856952D01*
X65416380Y-83952190D01*
X65416380Y-84047428D01*
X65368761Y-84142666D01*
X65321142Y-84190285D01*
X65225904Y-84237904D01*
X65035428Y-84285523D01*
X64797333Y-84285523D01*
X64606857Y-84237904D01*
X64511619Y-84190285D01*
X64464000Y-84142666D01*
X64416380Y-84047428D01*
X53349714Y-69880761D02*
X53492571Y-69928380D01*
X53730666Y-69928380D01*
X53825904Y-69880761D01*
X53873523Y-69833142D01*
X53921142Y-69737904D01*
X53921142Y-69642666D01*
X53873523Y-69547428D01*
X53825904Y-69499809D01*
X53730666Y-69452190D01*
X53540190Y-69404571D01*
X53444952Y-69356952D01*
X53397333Y-69309333D01*
X53349714Y-69214095D01*
X53349714Y-69118857D01*
X53397333Y-69023619D01*
X53444952Y-68976000D01*
X53540190Y-68928380D01*
X53778285Y-68928380D01*
X53921142Y-68976000D01*
X54349714Y-69928380D02*
X54349714Y-68928380D01*
X54587809Y-68928380D01*
X54730666Y-68976000D01*
X54825904Y-69071238D01*
X54873523Y-69166476D01*
X54921142Y-69356952D01*
X54921142Y-69499809D01*
X54873523Y-69690285D01*
X54825904Y-69785523D01*
X54730666Y-69880761D01*
X54587809Y-69928380D01*
X54349714Y-69928380D01*
X55302095Y-69642666D02*
X55778285Y-69642666D01*
X55206857Y-69928380D02*
X55540190Y-68928380D01*
X55873523Y-69928380D01*
X53602095Y-81976000D02*
X53506857Y-81928380D01*
X53364000Y-81928380D01*
X53221142Y-81976000D01*
X53125904Y-82071238D01*
X53078285Y-82166476D01*
X53030666Y-82356952D01*
X53030666Y-82499809D01*
X53078285Y-82690285D01*
X53125904Y-82785523D01*
X53221142Y-82880761D01*
X53364000Y-82928380D01*
X53459238Y-82928380D01*
X53602095Y-82880761D01*
X53649714Y-82833142D01*
X53649714Y-82499809D01*
X53459238Y-82499809D01*
X54078285Y-82928380D02*
X54078285Y-81928380D01*
X54649714Y-82928380D01*
X54649714Y-81928380D01*
X55125904Y-82928380D02*
X55125904Y-81928380D01*
X55364000Y-81928380D01*
X55506857Y-81976000D01*
X55602095Y-82071238D01*
X55649714Y-82166476D01*
X55697333Y-82356952D01*
X55697333Y-82499809D01*
X55649714Y-82690285D01*
X55602095Y-82785523D01*
X55506857Y-82880761D01*
X55364000Y-82928380D01*
X55125904Y-82928380D01*
X65516380Y-63090285D02*
X64516380Y-63090285D01*
X64516380Y-62709333D01*
X64564000Y-62614095D01*
X64611619Y-62566476D01*
X64706857Y-62518857D01*
X64849714Y-62518857D01*
X64944952Y-62566476D01*
X64992571Y-62614095D01*
X65040190Y-62709333D01*
X65040190Y-63090285D01*
X65516380Y-61566476D02*
X65516380Y-62137904D01*
X65516380Y-61852190D02*
X64516380Y-61852190D01*
X64659238Y-61947428D01*
X64754476Y-62042666D01*
X64802095Y-62137904D01*
X64516380Y-61233142D02*
X64516380Y-60566476D01*
X65516380Y-60995047D01*
X53373523Y-67180761D02*
X53516380Y-67228380D01*
X53754476Y-67228380D01*
X53849714Y-67180761D01*
X53897333Y-67133142D01*
X53944952Y-67037904D01*
X53944952Y-66942666D01*
X53897333Y-66847428D01*
X53849714Y-66799809D01*
X53754476Y-66752190D01*
X53564000Y-66704571D01*
X53468761Y-66656952D01*
X53421142Y-66609333D01*
X53373523Y-66514095D01*
X53373523Y-66418857D01*
X53421142Y-66323619D01*
X53468761Y-66276000D01*
X53564000Y-66228380D01*
X53802095Y-66228380D01*
X53944952Y-66276000D01*
X54944952Y-67133142D02*
X54897333Y-67180761D01*
X54754476Y-67228380D01*
X54659238Y-67228380D01*
X54516380Y-67180761D01*
X54421142Y-67085523D01*
X54373523Y-66990285D01*
X54325904Y-66799809D01*
X54325904Y-66656952D01*
X54373523Y-66466476D01*
X54421142Y-66371238D01*
X54516380Y-66276000D01*
X54659238Y-66228380D01*
X54754476Y-66228380D01*
X54897333Y-66276000D01*
X54944952Y-66323619D01*
X55849714Y-67228380D02*
X55373523Y-67228380D01*
X55373523Y-66228380D01*
X53130666Y-64028380D02*
X53464000Y-65028380D01*
X53797333Y-64028380D01*
X54702095Y-64933142D02*
X54654476Y-64980761D01*
X54511619Y-65028380D01*
X54416380Y-65028380D01*
X54273523Y-64980761D01*
X54178285Y-64885523D01*
X54130666Y-64790285D01*
X54083047Y-64599809D01*
X54083047Y-64456952D01*
X54130666Y-64266476D01*
X54178285Y-64171238D01*
X54273523Y-64076000D01*
X54416380Y-64028380D01*
X54511619Y-64028380D01*
X54654476Y-64076000D01*
X54702095Y-64123619D01*
X55702095Y-64933142D02*
X55654476Y-64980761D01*
X55511619Y-65028380D01*
X55416380Y-65028380D01*
X55273523Y-64980761D01*
X55178285Y-64885523D01*
X55130666Y-64790285D01*
X55083047Y-64599809D01*
X55083047Y-64456952D01*
X55130666Y-64266476D01*
X55178285Y-64171238D01*
X55273523Y-64076000D01*
X55416380Y-64028380D01*
X55511619Y-64028380D01*
X55654476Y-64076000D01*
X55702095Y-64123619D01*
%TO.C,R8*%
X143622733Y-89098380D02*
X143289400Y-88622190D01*
X143051304Y-89098380D02*
X143051304Y-88098380D01*
X143432257Y-88098380D01*
X143527495Y-88146000D01*
X143575114Y-88193619D01*
X143622733Y-88288857D01*
X143622733Y-88431714D01*
X143575114Y-88526952D01*
X143527495Y-88574571D01*
X143432257Y-88622190D01*
X143051304Y-88622190D01*
X144194161Y-88526952D02*
X144098923Y-88479333D01*
X144051304Y-88431714D01*
X144003685Y-88336476D01*
X144003685Y-88288857D01*
X144051304Y-88193619D01*
X144098923Y-88146000D01*
X144194161Y-88098380D01*
X144384638Y-88098380D01*
X144479876Y-88146000D01*
X144527495Y-88193619D01*
X144575114Y-88288857D01*
X144575114Y-88336476D01*
X144527495Y-88431714D01*
X144479876Y-88479333D01*
X144384638Y-88526952D01*
X144194161Y-88526952D01*
X144098923Y-88574571D01*
X144051304Y-88622190D01*
X144003685Y-88717428D01*
X144003685Y-88907904D01*
X144051304Y-89003142D01*
X144098923Y-89050761D01*
X144194161Y-89098380D01*
X144384638Y-89098380D01*
X144479876Y-89050761D01*
X144527495Y-89003142D01*
X144575114Y-88907904D01*
X144575114Y-88717428D01*
X144527495Y-88622190D01*
X144479876Y-88574571D01*
X144384638Y-88526952D01*
X134612190Y-88431714D02*
X134612190Y-89098380D01*
X134374095Y-88050761D02*
X134136000Y-88765047D01*
X134755047Y-88765047D01*
X135136000Y-89003142D02*
X135183619Y-89050761D01*
X135136000Y-89098380D01*
X135088380Y-89050761D01*
X135136000Y-89003142D01*
X135136000Y-89098380D01*
X135516952Y-88098380D02*
X136183619Y-88098380D01*
X135755047Y-89098380D01*
X136564571Y-89098380D02*
X136564571Y-88098380D01*
X137136000Y-89098380D02*
X136707428Y-88526952D01*
X137136000Y-88098380D02*
X136564571Y-88669809D01*
%TO.C,C3*%
X144427142Y-82689266D02*
X144474761Y-82736885D01*
X144522380Y-82879742D01*
X144522380Y-82974980D01*
X144474761Y-83117838D01*
X144379523Y-83213076D01*
X144284285Y-83260695D01*
X144093809Y-83308314D01*
X143950952Y-83308314D01*
X143760476Y-83260695D01*
X143665238Y-83213076D01*
X143570000Y-83117838D01*
X143522380Y-82974980D01*
X143522380Y-82879742D01*
X143570000Y-82736885D01*
X143617619Y-82689266D01*
X143522380Y-82355933D02*
X143522380Y-81736885D01*
X143903333Y-82070219D01*
X143903333Y-81927361D01*
X143950952Y-81832123D01*
X143998571Y-81784504D01*
X144093809Y-81736885D01*
X144331904Y-81736885D01*
X144427142Y-81784504D01*
X144474761Y-81832123D01*
X144522380Y-81927361D01*
X144522380Y-82213076D01*
X144474761Y-82308314D01*
X144427142Y-82355933D01*
X145677142Y-78700380D02*
X145772380Y-78700380D01*
X145867619Y-78748000D01*
X145915238Y-78795619D01*
X145962857Y-78890857D01*
X146010476Y-79081333D01*
X146010476Y-79319428D01*
X145962857Y-79509904D01*
X145915238Y-79605142D01*
X145867619Y-79652761D01*
X145772380Y-79700380D01*
X145677142Y-79700380D01*
X145581904Y-79652761D01*
X145534285Y-79605142D01*
X145486666Y-79509904D01*
X145439047Y-79319428D01*
X145439047Y-79081333D01*
X145486666Y-78890857D01*
X145534285Y-78795619D01*
X145581904Y-78748000D01*
X145677142Y-78700380D01*
X146439047Y-79605142D02*
X146486666Y-79652761D01*
X146439047Y-79700380D01*
X146391428Y-79652761D01*
X146439047Y-79605142D01*
X146439047Y-79700380D01*
X147439047Y-79700380D02*
X146867619Y-79700380D01*
X147153333Y-79700380D02*
X147153333Y-78700380D01*
X147058095Y-78843238D01*
X146962857Y-78938476D01*
X146867619Y-78986095D01*
X148296190Y-79033714D02*
X148296190Y-79700380D01*
X147867619Y-79033714D02*
X147867619Y-79557523D01*
X147915238Y-79652761D01*
X148010476Y-79700380D01*
X148153333Y-79700380D01*
X148248571Y-79652761D01*
X148296190Y-79605142D01*
X149105714Y-79176571D02*
X148772380Y-79176571D01*
X148772380Y-79700380D02*
X148772380Y-78700380D01*
X149248571Y-78700380D01*
%TO.C,D5*%
X126286380Y-47474095D02*
X125286380Y-47474095D01*
X125286380Y-47236000D01*
X125334000Y-47093142D01*
X125429238Y-46997904D01*
X125524476Y-46950285D01*
X125714952Y-46902666D01*
X125857809Y-46902666D01*
X126048285Y-46950285D01*
X126143523Y-46997904D01*
X126238761Y-47093142D01*
X126286380Y-47236000D01*
X126286380Y-47474095D01*
X125286380Y-45997904D02*
X125286380Y-46474095D01*
X125762571Y-46521714D01*
X125714952Y-46474095D01*
X125667333Y-46378857D01*
X125667333Y-46140761D01*
X125714952Y-46045523D01*
X125762571Y-45997904D01*
X125857809Y-45950285D01*
X126095904Y-45950285D01*
X126191142Y-45997904D01*
X126238761Y-46045523D01*
X126286380Y-46140761D01*
X126286380Y-46378857D01*
X126238761Y-46474095D01*
X126191142Y-46521714D01*
%TO.C,J12*%
X168988519Y-85542676D02*
X168274233Y-85542676D01*
X168131376Y-85495057D01*
X168036138Y-85399819D01*
X167988519Y-85256961D01*
X167988519Y-85161723D01*
X167988519Y-86542676D02*
X167988519Y-85971247D01*
X167988519Y-86256961D02*
X168988519Y-86256961D01*
X168845661Y-86161723D01*
X168750423Y-86066485D01*
X168702804Y-85971247D01*
X168893280Y-86923628D02*
X168940900Y-86971247D01*
X168988519Y-87066485D01*
X168988519Y-87304580D01*
X168940900Y-87399819D01*
X168893280Y-87447438D01*
X168798042Y-87495057D01*
X168702804Y-87495057D01*
X168559947Y-87447438D01*
X167988519Y-86876009D01*
X167988519Y-87495057D01*
%TO.C,J14*%
X168988519Y-115086476D02*
X168274233Y-115086476D01*
X168131376Y-115038857D01*
X168036138Y-114943619D01*
X167988519Y-114800761D01*
X167988519Y-114705523D01*
X167988519Y-116086476D02*
X167988519Y-115515047D01*
X167988519Y-115800761D02*
X168988519Y-115800761D01*
X168845661Y-115705523D01*
X168750423Y-115610285D01*
X168702804Y-115515047D01*
X168655185Y-116943619D02*
X167988519Y-116943619D01*
X169036138Y-116705523D02*
X168321852Y-116467428D01*
X168321852Y-117086476D01*
%TO.C,R6*%
X143597333Y-104338380D02*
X143264000Y-103862190D01*
X143025904Y-104338380D02*
X143025904Y-103338380D01*
X143406857Y-103338380D01*
X143502095Y-103386000D01*
X143549714Y-103433619D01*
X143597333Y-103528857D01*
X143597333Y-103671714D01*
X143549714Y-103766952D01*
X143502095Y-103814571D01*
X143406857Y-103862190D01*
X143025904Y-103862190D01*
X144454476Y-103338380D02*
X144264000Y-103338380D01*
X144168761Y-103386000D01*
X144121142Y-103433619D01*
X144025904Y-103576476D01*
X143978285Y-103766952D01*
X143978285Y-104147904D01*
X144025904Y-104243142D01*
X144073523Y-104290761D01*
X144168761Y-104338380D01*
X144359238Y-104338380D01*
X144454476Y-104290761D01*
X144502095Y-104243142D01*
X144549714Y-104147904D01*
X144549714Y-103909809D01*
X144502095Y-103814571D01*
X144454476Y-103766952D01*
X144359238Y-103719333D01*
X144168761Y-103719333D01*
X144073523Y-103766952D01*
X144025904Y-103814571D01*
X143978285Y-103909809D01*
X135104285Y-103417714D02*
X135104285Y-104084380D01*
X134866190Y-103036761D02*
X134628095Y-103751047D01*
X135247142Y-103751047D01*
X135532857Y-103084380D02*
X136199523Y-103084380D01*
X135770952Y-104084380D01*
X136580476Y-104084380D02*
X136580476Y-103084380D01*
X137151904Y-104084380D02*
X136723333Y-103512952D01*
X137151904Y-103084380D02*
X136580476Y-103655809D01*
%TO.C,U5*%
X66802095Y-51518380D02*
X66802095Y-52327904D01*
X66849714Y-52423142D01*
X66897333Y-52470761D01*
X66992571Y-52518380D01*
X67183047Y-52518380D01*
X67278285Y-52470761D01*
X67325904Y-52423142D01*
X67373523Y-52327904D01*
X67373523Y-51518380D01*
X68325904Y-51518380D02*
X67849714Y-51518380D01*
X67802095Y-51994571D01*
X67849714Y-51946952D01*
X67944952Y-51899333D01*
X68183047Y-51899333D01*
X68278285Y-51946952D01*
X68325904Y-51994571D01*
X68373523Y-52089809D01*
X68373523Y-52327904D01*
X68325904Y-52423142D01*
X68278285Y-52470761D01*
X68183047Y-52518380D01*
X67944952Y-52518380D01*
X67849714Y-52470761D01*
X67802095Y-52423142D01*
%TO.C,J10*%
X168988519Y-55062676D02*
X168274233Y-55062676D01*
X168131376Y-55015057D01*
X168036138Y-54919819D01*
X167988519Y-54776961D01*
X167988519Y-54681723D01*
X167988519Y-56062676D02*
X167988519Y-55491247D01*
X167988519Y-55776961D02*
X168988519Y-55776961D01*
X168845661Y-55681723D01*
X168750423Y-55586485D01*
X168702804Y-55491247D01*
X168988519Y-56681723D02*
X168988519Y-56776961D01*
X168940900Y-56872200D01*
X168893280Y-56919819D01*
X168798042Y-56967438D01*
X168607566Y-57015057D01*
X168369471Y-57015057D01*
X168178995Y-56967438D01*
X168083757Y-56919819D01*
X168036138Y-56872200D01*
X167988519Y-56776961D01*
X167988519Y-56681723D01*
X168036138Y-56586485D01*
X168083757Y-56538866D01*
X168178995Y-56491247D01*
X168369471Y-56443628D01*
X168607566Y-56443628D01*
X168798042Y-56491247D01*
X168893280Y-56538866D01*
X168940900Y-56586485D01*
X168988519Y-56681723D01*
%TO.C,D3*%
X142619504Y-96692980D02*
X142619504Y-95692980D01*
X142857600Y-95692980D01*
X143000457Y-95740600D01*
X143095695Y-95835838D01*
X143143314Y-95931076D01*
X143190933Y-96121552D01*
X143190933Y-96264409D01*
X143143314Y-96454885D01*
X143095695Y-96550123D01*
X143000457Y-96645361D01*
X142857600Y-96692980D01*
X142619504Y-96692980D01*
X143524266Y-95692980D02*
X144143314Y-95692980D01*
X143809980Y-96073933D01*
X143952838Y-96073933D01*
X144048076Y-96121552D01*
X144095695Y-96169171D01*
X144143314Y-96264409D01*
X144143314Y-96502504D01*
X144095695Y-96597742D01*
X144048076Y-96645361D01*
X143952838Y-96692980D01*
X143667123Y-96692980D01*
X143571885Y-96645361D01*
X143524266Y-96597742D01*
X148582095Y-98818380D02*
X148582095Y-97818380D01*
X149153523Y-98818380D02*
X148724952Y-98246952D01*
X149153523Y-97818380D02*
X148582095Y-98389809D01*
%TO.C,H2*%
X68072095Y-110998380D02*
X68072095Y-109998380D01*
X68072095Y-110474571D02*
X68643523Y-110474571D01*
X68643523Y-110998380D02*
X68643523Y-109998380D01*
X69072095Y-110093619D02*
X69119714Y-110046000D01*
X69214952Y-109998380D01*
X69453047Y-109998380D01*
X69548285Y-110046000D01*
X69595904Y-110093619D01*
X69643523Y-110188857D01*
X69643523Y-110284095D01*
X69595904Y-110426952D01*
X69024476Y-110998380D01*
X69643523Y-110998380D01*
%TO.C,H3*%
X144272095Y-43688380D02*
X144272095Y-42688380D01*
X144272095Y-43164571D02*
X144843523Y-43164571D01*
X144843523Y-43688380D02*
X144843523Y-42688380D01*
X145224476Y-42688380D02*
X145843523Y-42688380D01*
X145510190Y-43069333D01*
X145653047Y-43069333D01*
X145748285Y-43116952D01*
X145795904Y-43164571D01*
X145843523Y-43259809D01*
X145843523Y-43497904D01*
X145795904Y-43593142D01*
X145748285Y-43640761D01*
X145653047Y-43688380D01*
X145367333Y-43688380D01*
X145272095Y-43640761D01*
X145224476Y-43593142D01*
%TO.C,J17*%
X51471580Y-52625523D02*
X52185866Y-52625523D01*
X52328723Y-52673142D01*
X52423961Y-52768380D01*
X52471580Y-52911238D01*
X52471580Y-53006476D01*
X52471580Y-51625523D02*
X52471580Y-52196952D01*
X52471580Y-51911238D02*
X51471580Y-51911238D01*
X51614438Y-52006476D01*
X51709676Y-52101714D01*
X51757295Y-52196952D01*
X51471580Y-51292190D02*
X51471580Y-50625523D01*
X52471580Y-51054095D01*
%TO.C,H1*%
X68072095Y-43688380D02*
X68072095Y-42688380D01*
X68072095Y-43164571D02*
X68643523Y-43164571D01*
X68643523Y-43688380D02*
X68643523Y-42688380D01*
X69643523Y-43688380D02*
X69072095Y-43688380D01*
X69357809Y-43688380D02*
X69357809Y-42688380D01*
X69262571Y-42831238D01*
X69167333Y-42926476D01*
X69072095Y-42974095D01*
%TO.C,C1*%
X136272542Y-58027866D02*
X136320161Y-58075485D01*
X136367780Y-58218342D01*
X136367780Y-58313580D01*
X136320161Y-58456438D01*
X136224923Y-58551676D01*
X136129685Y-58599295D01*
X135939209Y-58646914D01*
X135796352Y-58646914D01*
X135605876Y-58599295D01*
X135510638Y-58551676D01*
X135415400Y-58456438D01*
X135367780Y-58313580D01*
X135367780Y-58218342D01*
X135415400Y-58075485D01*
X135463019Y-58027866D01*
X136367780Y-57075485D02*
X136367780Y-57646914D01*
X136367780Y-57361200D02*
X135367780Y-57361200D01*
X135510638Y-57456438D01*
X135605876Y-57551676D01*
X135653495Y-57646914D01*
X137025238Y-54649714D02*
X137025238Y-55316380D01*
X136787142Y-54268761D02*
X136549047Y-54983047D01*
X137168095Y-54983047D01*
X137549047Y-55221142D02*
X137596666Y-55268761D01*
X137549047Y-55316380D01*
X137501428Y-55268761D01*
X137549047Y-55221142D01*
X137549047Y-55316380D01*
X137930000Y-54316380D02*
X138596666Y-54316380D01*
X138168095Y-55316380D01*
X139406190Y-54649714D02*
X139406190Y-55316380D01*
X138977619Y-54649714D02*
X138977619Y-55173523D01*
X139025238Y-55268761D01*
X139120476Y-55316380D01*
X139263333Y-55316380D01*
X139358571Y-55268761D01*
X139406190Y-55221142D01*
X140215714Y-54792571D02*
X139882380Y-54792571D01*
X139882380Y-55316380D02*
X139882380Y-54316380D01*
X140358571Y-54316380D01*
%TO.C,J9*%
X51877980Y-40643133D02*
X52592266Y-40643133D01*
X52735123Y-40690752D01*
X52830361Y-40785990D01*
X52877980Y-40928847D01*
X52877980Y-41024085D01*
X52877980Y-40119323D02*
X52877980Y-39928847D01*
X52830361Y-39833609D01*
X52782742Y-39785990D01*
X52639885Y-39690752D01*
X52449409Y-39643133D01*
X52068457Y-39643133D01*
X51973219Y-39690752D01*
X51925600Y-39738371D01*
X51877980Y-39833609D01*
X51877980Y-40024085D01*
X51925600Y-40119323D01*
X51973219Y-40166942D01*
X52068457Y-40214561D01*
X52306552Y-40214561D01*
X52401790Y-40166942D01*
X52449409Y-40119323D01*
X52497028Y-40024085D01*
X52497028Y-39833609D01*
X52449409Y-39738371D01*
X52401790Y-39690752D01*
X52306552Y-39643133D01*
%TO.C,R1*%
X92654380Y-49442666D02*
X92178190Y-49776000D01*
X92654380Y-50014095D02*
X91654380Y-50014095D01*
X91654380Y-49633142D01*
X91702000Y-49537904D01*
X91749619Y-49490285D01*
X91844857Y-49442666D01*
X91987714Y-49442666D01*
X92082952Y-49490285D01*
X92130571Y-49537904D01*
X92178190Y-49633142D01*
X92178190Y-50014095D01*
X92654380Y-48490285D02*
X92654380Y-49061714D01*
X92654380Y-48776000D02*
X91654380Y-48776000D01*
X91797238Y-48871238D01*
X91892476Y-48966476D01*
X91940095Y-49061714D01*
%TO.C,J15*%
X168988519Y-130326476D02*
X168274233Y-130326476D01*
X168131376Y-130278857D01*
X168036138Y-130183619D01*
X167988519Y-130040761D01*
X167988519Y-129945523D01*
X167988519Y-131326476D02*
X167988519Y-130755047D01*
X167988519Y-131040761D02*
X168988519Y-131040761D01*
X168845661Y-130945523D01*
X168750423Y-130850285D01*
X168702804Y-130755047D01*
X168988519Y-132231238D02*
X168988519Y-131755047D01*
X168512328Y-131707428D01*
X168559947Y-131755047D01*
X168607566Y-131850285D01*
X168607566Y-132088380D01*
X168559947Y-132183619D01*
X168512328Y-132231238D01*
X168417090Y-132278857D01*
X168178995Y-132278857D01*
X168083757Y-132231238D01*
X168036138Y-132183619D01*
X167988519Y-132088380D01*
X167988519Y-131850285D01*
X168036138Y-131755047D01*
X168083757Y-131707428D01*
%TO.C,D1*%
X103627180Y-47474095D02*
X102627180Y-47474095D01*
X102627180Y-47236000D01*
X102674800Y-47093142D01*
X102770038Y-46997904D01*
X102865276Y-46950285D01*
X103055752Y-46902666D01*
X103198609Y-46902666D01*
X103389085Y-46950285D01*
X103484323Y-46997904D01*
X103579561Y-47093142D01*
X103627180Y-47236000D01*
X103627180Y-47474095D01*
X103627180Y-45950285D02*
X103627180Y-46521714D01*
X103627180Y-46236000D02*
X102627180Y-46236000D01*
X102770038Y-46331238D01*
X102865276Y-46426476D01*
X102912895Y-46521714D01*
%TO.C,J16*%
X153591380Y-41195523D02*
X154305666Y-41195523D01*
X154448523Y-41243142D01*
X154543761Y-41338380D01*
X154591380Y-41481238D01*
X154591380Y-41576476D01*
X154591380Y-40195523D02*
X154591380Y-40766952D01*
X154591380Y-40481238D02*
X153591380Y-40481238D01*
X153734238Y-40576476D01*
X153829476Y-40671714D01*
X153877095Y-40766952D01*
X153591380Y-39338380D02*
X153591380Y-39528857D01*
X153639000Y-39624095D01*
X153686619Y-39671714D01*
X153829476Y-39766952D01*
X154019952Y-39814571D01*
X154400904Y-39814571D01*
X154496142Y-39766952D01*
X154543761Y-39719333D01*
X154591380Y-39624095D01*
X154591380Y-39433619D01*
X154543761Y-39338380D01*
X154496142Y-39290761D01*
X154400904Y-39243142D01*
X154162809Y-39243142D01*
X154067571Y-39290761D01*
X154019952Y-39338380D01*
X153972333Y-39433619D01*
X153972333Y-39624095D01*
X154019952Y-39719333D01*
X154067571Y-39766952D01*
X154162809Y-39814571D01*
%TO.C,U8*%
X102862095Y-104298380D02*
X102862095Y-105107904D01*
X102909714Y-105203142D01*
X102957333Y-105250761D01*
X103052571Y-105298380D01*
X103243047Y-105298380D01*
X103338285Y-105250761D01*
X103385904Y-105203142D01*
X103433523Y-105107904D01*
X103433523Y-104298380D01*
X104052571Y-104726952D02*
X103957333Y-104679333D01*
X103909714Y-104631714D01*
X103862095Y-104536476D01*
X103862095Y-104488857D01*
X103909714Y-104393619D01*
X103957333Y-104346000D01*
X104052571Y-104298380D01*
X104243047Y-104298380D01*
X104338285Y-104346000D01*
X104385904Y-104393619D01*
X104433523Y-104488857D01*
X104433523Y-104536476D01*
X104385904Y-104631714D01*
X104338285Y-104679333D01*
X104243047Y-104726952D01*
X104052571Y-104726952D01*
X103957333Y-104774571D01*
X103909714Y-104822190D01*
X103862095Y-104917428D01*
X103862095Y-105107904D01*
X103909714Y-105203142D01*
X103957333Y-105250761D01*
X104052571Y-105298380D01*
X104243047Y-105298380D01*
X104338285Y-105250761D01*
X104385904Y-105203142D01*
X104433523Y-105107904D01*
X104433523Y-104917428D01*
X104385904Y-104822190D01*
X104338285Y-104774571D01*
X104243047Y-104726952D01*
X94786380Y-115149333D02*
X95786380Y-114816000D01*
X94786380Y-114482666D01*
X95691142Y-113577904D02*
X95738761Y-113625523D01*
X95786380Y-113768380D01*
X95786380Y-113863619D01*
X95738761Y-114006476D01*
X95643523Y-114101714D01*
X95548285Y-114149333D01*
X95357809Y-114196952D01*
X95214952Y-114196952D01*
X95024476Y-114149333D01*
X94929238Y-114101714D01*
X94834000Y-114006476D01*
X94786380Y-113863619D01*
X94786380Y-113768380D01*
X94834000Y-113625523D01*
X94881619Y-113577904D01*
X95691142Y-112577904D02*
X95738761Y-112625523D01*
X95786380Y-112768380D01*
X95786380Y-112863619D01*
X95738761Y-113006476D01*
X95643523Y-113101714D01*
X95548285Y-113149333D01*
X95357809Y-113196952D01*
X95214952Y-113196952D01*
X95024476Y-113149333D01*
X94929238Y-113101714D01*
X94834000Y-113006476D01*
X94786380Y-112863619D01*
X94786380Y-112768380D01*
X94834000Y-112625523D01*
X94881619Y-112577904D01*
X108436380Y-115107904D02*
X108436380Y-115679333D01*
X108436380Y-115393619D02*
X107436380Y-115393619D01*
X107579238Y-115488857D01*
X107674476Y-115584095D01*
X107722095Y-115679333D01*
X107436380Y-114774571D02*
X108436380Y-114536476D01*
X107722095Y-114346000D01*
X108436380Y-114155523D01*
X107436380Y-113917428D01*
X108436380Y-113536476D02*
X107769714Y-113536476D01*
X107436380Y-113536476D02*
X107484000Y-113584095D01*
X107531619Y-113536476D01*
X107484000Y-113488857D01*
X107436380Y-113536476D01*
X107531619Y-113536476D01*
X108436380Y-113060285D02*
X107769714Y-113060285D01*
X107960190Y-113060285D02*
X107864952Y-113012666D01*
X107817333Y-112965047D01*
X107769714Y-112869809D01*
X107769714Y-112774571D01*
X108388761Y-112060285D02*
X108436380Y-112155523D01*
X108436380Y-112346000D01*
X108388761Y-112441238D01*
X108293523Y-112488857D01*
X107912571Y-112488857D01*
X107817333Y-112441238D01*
X107769714Y-112346000D01*
X107769714Y-112155523D01*
X107817333Y-112060285D01*
X107912571Y-112012666D01*
X108007809Y-112012666D01*
X108103047Y-112488857D01*
X110094000Y-114447904D02*
X110046380Y-114543142D01*
X110046380Y-114686000D01*
X110094000Y-114828857D01*
X110189238Y-114924095D01*
X110284476Y-114971714D01*
X110474952Y-115019333D01*
X110617809Y-115019333D01*
X110808285Y-114971714D01*
X110903523Y-114924095D01*
X110998761Y-114828857D01*
X111046380Y-114686000D01*
X111046380Y-114590761D01*
X110998761Y-114447904D01*
X110951142Y-114400285D01*
X110617809Y-114400285D01*
X110617809Y-114590761D01*
X111046380Y-113971714D02*
X110046380Y-113971714D01*
X111046380Y-113400285D01*
X110046380Y-113400285D01*
X111046380Y-112924095D02*
X110046380Y-112924095D01*
X110046380Y-112686000D01*
X110094000Y-112543142D01*
X110189238Y-112447904D01*
X110284476Y-112400285D01*
X110474952Y-112352666D01*
X110617809Y-112352666D01*
X110808285Y-112400285D01*
X110903523Y-112447904D01*
X110998761Y-112543142D01*
X111046380Y-112686000D01*
X111046380Y-112924095D01*
X105550666Y-114350285D02*
X105550666Y-113874095D01*
X105836380Y-114445523D02*
X104836380Y-114112190D01*
X105836380Y-113778857D01*
X104836380Y-113255047D02*
X104836380Y-113159809D01*
X104884000Y-113064571D01*
X104931619Y-113016952D01*
X105026857Y-112969333D01*
X105217333Y-112921714D01*
X105455428Y-112921714D01*
X105645904Y-112969333D01*
X105741142Y-113016952D01*
X105788761Y-113064571D01*
X105836380Y-113159809D01*
X105836380Y-113255047D01*
X105788761Y-113350285D01*
X105741142Y-113397904D01*
X105645904Y-113445523D01*
X105455428Y-113493142D01*
X105217333Y-113493142D01*
X105026857Y-113445523D01*
X104931619Y-113397904D01*
X104884000Y-113350285D01*
X104836380Y-113255047D01*
X103170666Y-114560285D02*
X103170666Y-114084095D01*
X103456380Y-114655523D02*
X102456380Y-114322190D01*
X103456380Y-113988857D01*
X103456380Y-113131714D02*
X103456380Y-113703142D01*
X103456380Y-113417428D02*
X102456380Y-113417428D01*
X102599238Y-113512666D01*
X102694476Y-113607904D01*
X102742095Y-113703142D01*
X98368761Y-114826476D02*
X98416380Y-114683619D01*
X98416380Y-114445523D01*
X98368761Y-114350285D01*
X98321142Y-114302666D01*
X98225904Y-114255047D01*
X98130666Y-114255047D01*
X98035428Y-114302666D01*
X97987809Y-114350285D01*
X97940190Y-114445523D01*
X97892571Y-114636000D01*
X97844952Y-114731238D01*
X97797333Y-114778857D01*
X97702095Y-114826476D01*
X97606857Y-114826476D01*
X97511619Y-114778857D01*
X97464000Y-114731238D01*
X97416380Y-114636000D01*
X97416380Y-114397904D01*
X97464000Y-114255047D01*
X98321142Y-113255047D02*
X98368761Y-113302666D01*
X98416380Y-113445523D01*
X98416380Y-113540761D01*
X98368761Y-113683619D01*
X98273523Y-113778857D01*
X98178285Y-113826476D01*
X97987809Y-113874095D01*
X97844952Y-113874095D01*
X97654476Y-113826476D01*
X97559238Y-113778857D01*
X97464000Y-113683619D01*
X97416380Y-113540761D01*
X97416380Y-113445523D01*
X97464000Y-113302666D01*
X97511619Y-113255047D01*
X98416380Y-112350285D02*
X98416380Y-112826476D01*
X97416380Y-112826476D01*
X100898761Y-114900285D02*
X100946380Y-114757428D01*
X100946380Y-114519333D01*
X100898761Y-114424095D01*
X100851142Y-114376476D01*
X100755904Y-114328857D01*
X100660666Y-114328857D01*
X100565428Y-114376476D01*
X100517809Y-114424095D01*
X100470190Y-114519333D01*
X100422571Y-114709809D01*
X100374952Y-114805047D01*
X100327333Y-114852666D01*
X100232095Y-114900285D01*
X100136857Y-114900285D01*
X100041619Y-114852666D01*
X99994000Y-114805047D01*
X99946380Y-114709809D01*
X99946380Y-114471714D01*
X99994000Y-114328857D01*
X100946380Y-113900285D02*
X99946380Y-113900285D01*
X99946380Y-113662190D01*
X99994000Y-113519333D01*
X100089238Y-113424095D01*
X100184476Y-113376476D01*
X100374952Y-113328857D01*
X100517809Y-113328857D01*
X100708285Y-113376476D01*
X100803523Y-113424095D01*
X100898761Y-113519333D01*
X100946380Y-113662190D01*
X100946380Y-113900285D01*
X100660666Y-112947904D02*
X100660666Y-112471714D01*
X100946380Y-113043142D02*
X99946380Y-112709809D01*
X100946380Y-112376476D01*
%TO.C,U1*%
X63031619Y-39370095D02*
X62222095Y-39370095D01*
X62126857Y-39417714D01*
X62079238Y-39465333D01*
X62031619Y-39560571D01*
X62031619Y-39751047D01*
X62079238Y-39846285D01*
X62126857Y-39893904D01*
X62222095Y-39941523D01*
X63031619Y-39941523D01*
X62031619Y-40941523D02*
X62031619Y-40370095D01*
X62031619Y-40655809D02*
X63031619Y-40655809D01*
X62888761Y-40560571D01*
X62793523Y-40465333D01*
X62745904Y-40370095D01*
X55681619Y-37446476D02*
X55681619Y-36970285D01*
X56681619Y-36970285D01*
X56062571Y-37779809D02*
X56062571Y-38541714D01*
X55681619Y-38160761D02*
X56443523Y-38160761D01*
X55626857Y-52896476D02*
X55579238Y-52848857D01*
X55531619Y-52706000D01*
X55531619Y-52610761D01*
X55579238Y-52467904D01*
X55674476Y-52372666D01*
X55769714Y-52325047D01*
X55960190Y-52277428D01*
X56103047Y-52277428D01*
X56293523Y-52325047D01*
X56388761Y-52372666D01*
X56484000Y-52467904D01*
X56531619Y-52610761D01*
X56531619Y-52706000D01*
X56484000Y-52848857D01*
X56436380Y-52896476D01*
X55912571Y-53325047D02*
X55912571Y-54086952D01*
X55531619Y-53706000D02*
X56293523Y-53706000D01*
X55631619Y-42846476D02*
X55631619Y-42370285D01*
X56631619Y-42370285D01*
X56012571Y-43179809D02*
X56012571Y-43941714D01*
X55626857Y-55546476D02*
X55579238Y-55498857D01*
X55531619Y-55356000D01*
X55531619Y-55260761D01*
X55579238Y-55117904D01*
X55674476Y-55022666D01*
X55769714Y-54975047D01*
X55960190Y-54927428D01*
X56103047Y-54927428D01*
X56293523Y-54975047D01*
X56388761Y-55022666D01*
X56484000Y-55117904D01*
X56531619Y-55260761D01*
X56531619Y-55356000D01*
X56484000Y-55498857D01*
X56436380Y-55546476D01*
X55912571Y-55975047D02*
X55912571Y-56736952D01*
%TO.C,H4*%
X144272095Y-110998380D02*
X144272095Y-109998380D01*
X144272095Y-110474571D02*
X144843523Y-110474571D01*
X144843523Y-110998380D02*
X144843523Y-109998380D01*
X145748285Y-110331714D02*
X145748285Y-110998380D01*
X145510190Y-109950761D02*
X145272095Y-110665047D01*
X145891142Y-110665047D01*
%TO.C,U9*%
X123182095Y-104298380D02*
X123182095Y-105107904D01*
X123229714Y-105203142D01*
X123277333Y-105250761D01*
X123372571Y-105298380D01*
X123563047Y-105298380D01*
X123658285Y-105250761D01*
X123705904Y-105203142D01*
X123753523Y-105107904D01*
X123753523Y-104298380D01*
X124277333Y-105298380D02*
X124467809Y-105298380D01*
X124563047Y-105250761D01*
X124610666Y-105203142D01*
X124705904Y-105060285D01*
X124753523Y-104869809D01*
X124753523Y-104488857D01*
X124705904Y-104393619D01*
X124658285Y-104346000D01*
X124563047Y-104298380D01*
X124372571Y-104298380D01*
X124277333Y-104346000D01*
X124229714Y-104393619D01*
X124182095Y-104488857D01*
X124182095Y-104726952D01*
X124229714Y-104822190D01*
X124277333Y-104869809D01*
X124372571Y-104917428D01*
X124563047Y-104917428D01*
X124658285Y-104869809D01*
X124705904Y-104822190D01*
X124753523Y-104726952D01*
X118688761Y-114826476D02*
X118736380Y-114683619D01*
X118736380Y-114445523D01*
X118688761Y-114350285D01*
X118641142Y-114302666D01*
X118545904Y-114255047D01*
X118450666Y-114255047D01*
X118355428Y-114302666D01*
X118307809Y-114350285D01*
X118260190Y-114445523D01*
X118212571Y-114636000D01*
X118164952Y-114731238D01*
X118117333Y-114778857D01*
X118022095Y-114826476D01*
X117926857Y-114826476D01*
X117831619Y-114778857D01*
X117784000Y-114731238D01*
X117736380Y-114636000D01*
X117736380Y-114397904D01*
X117784000Y-114255047D01*
X118641142Y-113255047D02*
X118688761Y-113302666D01*
X118736380Y-113445523D01*
X118736380Y-113540761D01*
X118688761Y-113683619D01*
X118593523Y-113778857D01*
X118498285Y-113826476D01*
X118307809Y-113874095D01*
X118164952Y-113874095D01*
X117974476Y-113826476D01*
X117879238Y-113778857D01*
X117784000Y-113683619D01*
X117736380Y-113540761D01*
X117736380Y-113445523D01*
X117784000Y-113302666D01*
X117831619Y-113255047D01*
X118736380Y-112350285D02*
X118736380Y-112826476D01*
X117736380Y-112826476D01*
X125870666Y-114350285D02*
X125870666Y-113874095D01*
X126156380Y-114445523D02*
X125156380Y-114112190D01*
X126156380Y-113778857D01*
X125156380Y-113255047D02*
X125156380Y-113159809D01*
X125204000Y-113064571D01*
X125251619Y-113016952D01*
X125346857Y-112969333D01*
X125537333Y-112921714D01*
X125775428Y-112921714D01*
X125965904Y-112969333D01*
X126061142Y-113016952D01*
X126108761Y-113064571D01*
X126156380Y-113159809D01*
X126156380Y-113255047D01*
X126108761Y-113350285D01*
X126061142Y-113397904D01*
X125965904Y-113445523D01*
X125775428Y-113493142D01*
X125537333Y-113493142D01*
X125346857Y-113445523D01*
X125251619Y-113397904D01*
X125204000Y-113350285D01*
X125156380Y-113255047D01*
X121218761Y-114900285D02*
X121266380Y-114757428D01*
X121266380Y-114519333D01*
X121218761Y-114424095D01*
X121171142Y-114376476D01*
X121075904Y-114328857D01*
X120980666Y-114328857D01*
X120885428Y-114376476D01*
X120837809Y-114424095D01*
X120790190Y-114519333D01*
X120742571Y-114709809D01*
X120694952Y-114805047D01*
X120647333Y-114852666D01*
X120552095Y-114900285D01*
X120456857Y-114900285D01*
X120361619Y-114852666D01*
X120314000Y-114805047D01*
X120266380Y-114709809D01*
X120266380Y-114471714D01*
X120314000Y-114328857D01*
X121266380Y-113900285D02*
X120266380Y-113900285D01*
X120266380Y-113662190D01*
X120314000Y-113519333D01*
X120409238Y-113424095D01*
X120504476Y-113376476D01*
X120694952Y-113328857D01*
X120837809Y-113328857D01*
X121028285Y-113376476D01*
X121123523Y-113424095D01*
X121218761Y-113519333D01*
X121266380Y-113662190D01*
X121266380Y-113900285D01*
X120980666Y-112947904D02*
X120980666Y-112471714D01*
X121266380Y-113043142D02*
X120266380Y-112709809D01*
X121266380Y-112376476D01*
X130414000Y-114447904D02*
X130366380Y-114543142D01*
X130366380Y-114686000D01*
X130414000Y-114828857D01*
X130509238Y-114924095D01*
X130604476Y-114971714D01*
X130794952Y-115019333D01*
X130937809Y-115019333D01*
X131128285Y-114971714D01*
X131223523Y-114924095D01*
X131318761Y-114828857D01*
X131366380Y-114686000D01*
X131366380Y-114590761D01*
X131318761Y-114447904D01*
X131271142Y-114400285D01*
X130937809Y-114400285D01*
X130937809Y-114590761D01*
X131366380Y-113971714D02*
X130366380Y-113971714D01*
X131366380Y-113400285D01*
X130366380Y-113400285D01*
X131366380Y-112924095D02*
X130366380Y-112924095D01*
X130366380Y-112686000D01*
X130414000Y-112543142D01*
X130509238Y-112447904D01*
X130604476Y-112400285D01*
X130794952Y-112352666D01*
X130937809Y-112352666D01*
X131128285Y-112400285D01*
X131223523Y-112447904D01*
X131318761Y-112543142D01*
X131366380Y-112686000D01*
X131366380Y-112924095D01*
X115106380Y-115149333D02*
X116106380Y-114816000D01*
X115106380Y-114482666D01*
X116011142Y-113577904D02*
X116058761Y-113625523D01*
X116106380Y-113768380D01*
X116106380Y-113863619D01*
X116058761Y-114006476D01*
X115963523Y-114101714D01*
X115868285Y-114149333D01*
X115677809Y-114196952D01*
X115534952Y-114196952D01*
X115344476Y-114149333D01*
X115249238Y-114101714D01*
X115154000Y-114006476D01*
X115106380Y-113863619D01*
X115106380Y-113768380D01*
X115154000Y-113625523D01*
X115201619Y-113577904D01*
X116011142Y-112577904D02*
X116058761Y-112625523D01*
X116106380Y-112768380D01*
X116106380Y-112863619D01*
X116058761Y-113006476D01*
X115963523Y-113101714D01*
X115868285Y-113149333D01*
X115677809Y-113196952D01*
X115534952Y-113196952D01*
X115344476Y-113149333D01*
X115249238Y-113101714D01*
X115154000Y-113006476D01*
X115106380Y-112863619D01*
X115106380Y-112768380D01*
X115154000Y-112625523D01*
X115201619Y-112577904D01*
X123490666Y-114560285D02*
X123490666Y-114084095D01*
X123776380Y-114655523D02*
X122776380Y-114322190D01*
X123776380Y-113988857D01*
X123776380Y-113131714D02*
X123776380Y-113703142D01*
X123776380Y-113417428D02*
X122776380Y-113417428D01*
X122919238Y-113512666D01*
X123014476Y-113607904D01*
X123062095Y-113703142D01*
X128756380Y-115107904D02*
X128756380Y-115679333D01*
X128756380Y-115393619D02*
X127756380Y-115393619D01*
X127899238Y-115488857D01*
X127994476Y-115584095D01*
X128042095Y-115679333D01*
X127756380Y-114774571D02*
X128756380Y-114536476D01*
X128042095Y-114346000D01*
X128756380Y-114155523D01*
X127756380Y-113917428D01*
X128756380Y-113536476D02*
X128089714Y-113536476D01*
X127756380Y-113536476D02*
X127804000Y-113584095D01*
X127851619Y-113536476D01*
X127804000Y-113488857D01*
X127756380Y-113536476D01*
X127851619Y-113536476D01*
X128756380Y-113060285D02*
X128089714Y-113060285D01*
X128280190Y-113060285D02*
X128184952Y-113012666D01*
X128137333Y-112965047D01*
X128089714Y-112869809D01*
X128089714Y-112774571D01*
X128708761Y-112060285D02*
X128756380Y-112155523D01*
X128756380Y-112346000D01*
X128708761Y-112441238D01*
X128613523Y-112488857D01*
X128232571Y-112488857D01*
X128137333Y-112441238D01*
X128089714Y-112346000D01*
X128089714Y-112155523D01*
X128137333Y-112060285D01*
X128232571Y-112012666D01*
X128327809Y-112012666D01*
X128423047Y-112488857D01*
%TO.C,U11*%
X100725904Y-63388380D02*
X100725904Y-64197904D01*
X100773523Y-64293142D01*
X100821142Y-64340761D01*
X100916380Y-64388380D01*
X101106857Y-64388380D01*
X101202095Y-64340761D01*
X101249714Y-64293142D01*
X101297333Y-64197904D01*
X101297333Y-63388380D01*
X102297333Y-64388380D02*
X101725904Y-64388380D01*
X102011619Y-64388380D02*
X102011619Y-63388380D01*
X101916380Y-63531238D01*
X101821142Y-63626476D01*
X101725904Y-63674095D01*
X103249714Y-64388380D02*
X102678285Y-64388380D01*
X102964000Y-64388380D02*
X102964000Y-63388380D01*
X102868761Y-63531238D01*
X102773523Y-63626476D01*
X102678285Y-63674095D01*
X92249714Y-85102666D02*
X92725904Y-85102666D01*
X92154476Y-85388380D02*
X92487809Y-84388380D01*
X92821142Y-85388380D01*
X93059238Y-84388380D02*
X93678285Y-84388380D01*
X93344952Y-84769333D01*
X93487809Y-84769333D01*
X93583047Y-84816952D01*
X93630666Y-84864571D01*
X93678285Y-84959809D01*
X93678285Y-85197904D01*
X93630666Y-85293142D01*
X93583047Y-85340761D01*
X93487809Y-85388380D01*
X93202095Y-85388380D01*
X93106857Y-85340761D01*
X93059238Y-85293142D01*
X91630666Y-61388380D02*
X91964000Y-62388380D01*
X92297333Y-61388380D01*
X93202095Y-62293142D02*
X93154476Y-62340761D01*
X93011619Y-62388380D01*
X92916380Y-62388380D01*
X92773523Y-62340761D01*
X92678285Y-62245523D01*
X92630666Y-62150285D01*
X92583047Y-61959809D01*
X92583047Y-61816952D01*
X92630666Y-61626476D01*
X92678285Y-61531238D01*
X92773523Y-61436000D01*
X92916380Y-61388380D01*
X93011619Y-61388380D01*
X93154476Y-61436000D01*
X93202095Y-61483619D01*
X94202095Y-62293142D02*
X94154476Y-62340761D01*
X94011619Y-62388380D01*
X93916380Y-62388380D01*
X93773523Y-62340761D01*
X93678285Y-62245523D01*
X93630666Y-62150285D01*
X93583047Y-61959809D01*
X93583047Y-61816952D01*
X93630666Y-61626476D01*
X93678285Y-61531238D01*
X93773523Y-61436000D01*
X93916380Y-61388380D01*
X94011619Y-61388380D01*
X94154476Y-61436000D01*
X94202095Y-61483619D01*
X91749714Y-69840761D02*
X91892571Y-69888380D01*
X92130666Y-69888380D01*
X92225904Y-69840761D01*
X92273523Y-69793142D01*
X92321142Y-69697904D01*
X92321142Y-69602666D01*
X92273523Y-69507428D01*
X92225904Y-69459809D01*
X92130666Y-69412190D01*
X91940190Y-69364571D01*
X91844952Y-69316952D01*
X91797333Y-69269333D01*
X91749714Y-69174095D01*
X91749714Y-69078857D01*
X91797333Y-68983619D01*
X91844952Y-68936000D01*
X91940190Y-68888380D01*
X92178285Y-68888380D01*
X92321142Y-68936000D01*
X92749714Y-69888380D02*
X92749714Y-68888380D01*
X92987809Y-68888380D01*
X93130666Y-68936000D01*
X93225904Y-69031238D01*
X93273523Y-69126476D01*
X93321142Y-69316952D01*
X93321142Y-69459809D01*
X93273523Y-69650285D01*
X93225904Y-69745523D01*
X93130666Y-69840761D01*
X92987809Y-69888380D01*
X92749714Y-69888380D01*
X93702095Y-69602666D02*
X94178285Y-69602666D01*
X93606857Y-69888380D02*
X93940190Y-68888380D01*
X94273523Y-69888380D01*
X91773523Y-67340761D02*
X91916380Y-67388380D01*
X92154476Y-67388380D01*
X92249714Y-67340761D01*
X92297333Y-67293142D01*
X92344952Y-67197904D01*
X92344952Y-67102666D01*
X92297333Y-67007428D01*
X92249714Y-66959809D01*
X92154476Y-66912190D01*
X91964000Y-66864571D01*
X91868761Y-66816952D01*
X91821142Y-66769333D01*
X91773523Y-66674095D01*
X91773523Y-66578857D01*
X91821142Y-66483619D01*
X91868761Y-66436000D01*
X91964000Y-66388380D01*
X92202095Y-66388380D01*
X92344952Y-66436000D01*
X93344952Y-67293142D02*
X93297333Y-67340761D01*
X93154476Y-67388380D01*
X93059238Y-67388380D01*
X92916380Y-67340761D01*
X92821142Y-67245523D01*
X92773523Y-67150285D01*
X92725904Y-66959809D01*
X92725904Y-66816952D01*
X92773523Y-66626476D01*
X92821142Y-66531238D01*
X92916380Y-66436000D01*
X93059238Y-66388380D01*
X93154476Y-66388380D01*
X93297333Y-66436000D01*
X93344952Y-66483619D01*
X94249714Y-67388380D02*
X93773523Y-67388380D01*
X93773523Y-66388380D01*
X92202095Y-63936000D02*
X92106857Y-63888380D01*
X91964000Y-63888380D01*
X91821142Y-63936000D01*
X91725904Y-64031238D01*
X91678285Y-64126476D01*
X91630666Y-64316952D01*
X91630666Y-64459809D01*
X91678285Y-64650285D01*
X91725904Y-64745523D01*
X91821142Y-64840761D01*
X91964000Y-64888380D01*
X92059238Y-64888380D01*
X92202095Y-64840761D01*
X92249714Y-64793142D01*
X92249714Y-64459809D01*
X92059238Y-64459809D01*
X92678285Y-64888380D02*
X92678285Y-63888380D01*
X93249714Y-64888380D01*
X93249714Y-63888380D01*
X93725904Y-64888380D02*
X93725904Y-63888380D01*
X93964000Y-63888380D01*
X94106857Y-63936000D01*
X94202095Y-64031238D01*
X94249714Y-64126476D01*
X94297333Y-64316952D01*
X94297333Y-64459809D01*
X94249714Y-64650285D01*
X94202095Y-64745523D01*
X94106857Y-64840761D01*
X93964000Y-64888380D01*
X93725904Y-64888380D01*
X92249714Y-77602666D02*
X92725904Y-77602666D01*
X92154476Y-77888380D02*
X92487809Y-76888380D01*
X92821142Y-77888380D01*
X93344952Y-76888380D02*
X93440190Y-76888380D01*
X93535428Y-76936000D01*
X93583047Y-76983619D01*
X93630666Y-77078857D01*
X93678285Y-77269333D01*
X93678285Y-77507428D01*
X93630666Y-77697904D01*
X93583047Y-77793142D01*
X93535428Y-77840761D01*
X93440190Y-77888380D01*
X93344952Y-77888380D01*
X93249714Y-77840761D01*
X93202095Y-77793142D01*
X93154476Y-77697904D01*
X93106857Y-77507428D01*
X93106857Y-77269333D01*
X93154476Y-77078857D01*
X93202095Y-76983619D01*
X93249714Y-76936000D01*
X93344952Y-76888380D01*
%TO.C,U10*%
X122315904Y-63358380D02*
X122315904Y-64167904D01*
X122363523Y-64263142D01*
X122411142Y-64310761D01*
X122506380Y-64358380D01*
X122696857Y-64358380D01*
X122792095Y-64310761D01*
X122839714Y-64263142D01*
X122887333Y-64167904D01*
X122887333Y-63358380D01*
X123887333Y-64358380D02*
X123315904Y-64358380D01*
X123601619Y-64358380D02*
X123601619Y-63358380D01*
X123506380Y-63501238D01*
X123411142Y-63596476D01*
X123315904Y-63644095D01*
X124506380Y-63358380D02*
X124601619Y-63358380D01*
X124696857Y-63406000D01*
X124744476Y-63453619D01*
X124792095Y-63548857D01*
X124839714Y-63739333D01*
X124839714Y-63977428D01*
X124792095Y-64167904D01*
X124744476Y-64263142D01*
X124696857Y-64310761D01*
X124601619Y-64358380D01*
X124506380Y-64358380D01*
X124411142Y-64310761D01*
X124363523Y-64263142D01*
X124315904Y-64167904D01*
X124268285Y-63977428D01*
X124268285Y-63739333D01*
X124315904Y-63548857D01*
X124363523Y-63453619D01*
X124411142Y-63406000D01*
X124506380Y-63358380D01*
X113839714Y-77572666D02*
X114315904Y-77572666D01*
X113744476Y-77858380D02*
X114077809Y-76858380D01*
X114411142Y-77858380D01*
X114934952Y-76858380D02*
X115030190Y-76858380D01*
X115125428Y-76906000D01*
X115173047Y-76953619D01*
X115220666Y-77048857D01*
X115268285Y-77239333D01*
X115268285Y-77477428D01*
X115220666Y-77667904D01*
X115173047Y-77763142D01*
X115125428Y-77810761D01*
X115030190Y-77858380D01*
X114934952Y-77858380D01*
X114839714Y-77810761D01*
X114792095Y-77763142D01*
X114744476Y-77667904D01*
X114696857Y-77477428D01*
X114696857Y-77239333D01*
X114744476Y-77048857D01*
X114792095Y-76953619D01*
X114839714Y-76906000D01*
X114934952Y-76858380D01*
X113220666Y-61358380D02*
X113554000Y-62358380D01*
X113887333Y-61358380D01*
X114792095Y-62263142D02*
X114744476Y-62310761D01*
X114601619Y-62358380D01*
X114506380Y-62358380D01*
X114363523Y-62310761D01*
X114268285Y-62215523D01*
X114220666Y-62120285D01*
X114173047Y-61929809D01*
X114173047Y-61786952D01*
X114220666Y-61596476D01*
X114268285Y-61501238D01*
X114363523Y-61406000D01*
X114506380Y-61358380D01*
X114601619Y-61358380D01*
X114744476Y-61406000D01*
X114792095Y-61453619D01*
X115792095Y-62263142D02*
X115744476Y-62310761D01*
X115601619Y-62358380D01*
X115506380Y-62358380D01*
X115363523Y-62310761D01*
X115268285Y-62215523D01*
X115220666Y-62120285D01*
X115173047Y-61929809D01*
X115173047Y-61786952D01*
X115220666Y-61596476D01*
X115268285Y-61501238D01*
X115363523Y-61406000D01*
X115506380Y-61358380D01*
X115601619Y-61358380D01*
X115744476Y-61406000D01*
X115792095Y-61453619D01*
X113792095Y-63906000D02*
X113696857Y-63858380D01*
X113554000Y-63858380D01*
X113411142Y-63906000D01*
X113315904Y-64001238D01*
X113268285Y-64096476D01*
X113220666Y-64286952D01*
X113220666Y-64429809D01*
X113268285Y-64620285D01*
X113315904Y-64715523D01*
X113411142Y-64810761D01*
X113554000Y-64858380D01*
X113649238Y-64858380D01*
X113792095Y-64810761D01*
X113839714Y-64763142D01*
X113839714Y-64429809D01*
X113649238Y-64429809D01*
X114268285Y-64858380D02*
X114268285Y-63858380D01*
X114839714Y-64858380D01*
X114839714Y-63858380D01*
X115315904Y-64858380D02*
X115315904Y-63858380D01*
X115554000Y-63858380D01*
X115696857Y-63906000D01*
X115792095Y-64001238D01*
X115839714Y-64096476D01*
X115887333Y-64286952D01*
X115887333Y-64429809D01*
X115839714Y-64620285D01*
X115792095Y-64715523D01*
X115696857Y-64810761D01*
X115554000Y-64858380D01*
X115315904Y-64858380D01*
X113339714Y-69810761D02*
X113482571Y-69858380D01*
X113720666Y-69858380D01*
X113815904Y-69810761D01*
X113863523Y-69763142D01*
X113911142Y-69667904D01*
X113911142Y-69572666D01*
X113863523Y-69477428D01*
X113815904Y-69429809D01*
X113720666Y-69382190D01*
X113530190Y-69334571D01*
X113434952Y-69286952D01*
X113387333Y-69239333D01*
X113339714Y-69144095D01*
X113339714Y-69048857D01*
X113387333Y-68953619D01*
X113434952Y-68906000D01*
X113530190Y-68858380D01*
X113768285Y-68858380D01*
X113911142Y-68906000D01*
X114339714Y-69858380D02*
X114339714Y-68858380D01*
X114577809Y-68858380D01*
X114720666Y-68906000D01*
X114815904Y-69001238D01*
X114863523Y-69096476D01*
X114911142Y-69286952D01*
X114911142Y-69429809D01*
X114863523Y-69620285D01*
X114815904Y-69715523D01*
X114720666Y-69810761D01*
X114577809Y-69858380D01*
X114339714Y-69858380D01*
X115292095Y-69572666D02*
X115768285Y-69572666D01*
X115196857Y-69858380D02*
X115530190Y-68858380D01*
X115863523Y-69858380D01*
X113839714Y-85072666D02*
X114315904Y-85072666D01*
X113744476Y-85358380D02*
X114077809Y-84358380D01*
X114411142Y-85358380D01*
X114649238Y-84358380D02*
X115268285Y-84358380D01*
X114934952Y-84739333D01*
X115077809Y-84739333D01*
X115173047Y-84786952D01*
X115220666Y-84834571D01*
X115268285Y-84929809D01*
X115268285Y-85167904D01*
X115220666Y-85263142D01*
X115173047Y-85310761D01*
X115077809Y-85358380D01*
X114792095Y-85358380D01*
X114696857Y-85310761D01*
X114649238Y-85263142D01*
X113363523Y-67310761D02*
X113506380Y-67358380D01*
X113744476Y-67358380D01*
X113839714Y-67310761D01*
X113887333Y-67263142D01*
X113934952Y-67167904D01*
X113934952Y-67072666D01*
X113887333Y-66977428D01*
X113839714Y-66929809D01*
X113744476Y-66882190D01*
X113554000Y-66834571D01*
X113458761Y-66786952D01*
X113411142Y-66739333D01*
X113363523Y-66644095D01*
X113363523Y-66548857D01*
X113411142Y-66453619D01*
X113458761Y-66406000D01*
X113554000Y-66358380D01*
X113792095Y-66358380D01*
X113934952Y-66406000D01*
X114934952Y-67263142D02*
X114887333Y-67310761D01*
X114744476Y-67358380D01*
X114649238Y-67358380D01*
X114506380Y-67310761D01*
X114411142Y-67215523D01*
X114363523Y-67120285D01*
X114315904Y-66929809D01*
X114315904Y-66786952D01*
X114363523Y-66596476D01*
X114411142Y-66501238D01*
X114506380Y-66406000D01*
X114649238Y-66358380D01*
X114744476Y-66358380D01*
X114887333Y-66406000D01*
X114934952Y-66453619D01*
X115839714Y-67358380D02*
X115363523Y-67358380D01*
X115363523Y-66358380D01*
%TO.C,R4*%
X149347180Y-71007266D02*
X148870990Y-71340600D01*
X149347180Y-71578695D02*
X148347180Y-71578695D01*
X148347180Y-71197742D01*
X148394800Y-71102504D01*
X148442419Y-71054885D01*
X148537657Y-71007266D01*
X148680514Y-71007266D01*
X148775752Y-71054885D01*
X148823371Y-71102504D01*
X148870990Y-71197742D01*
X148870990Y-71578695D01*
X148680514Y-70150123D02*
X149347180Y-70150123D01*
X148299561Y-70388219D02*
X149013847Y-70626314D01*
X149013847Y-70007266D01*
%TO.C,J11*%
X168988519Y-70302676D02*
X168274233Y-70302676D01*
X168131376Y-70255057D01*
X168036138Y-70159819D01*
X167988519Y-70016961D01*
X167988519Y-69921723D01*
X167988519Y-71302676D02*
X167988519Y-70731247D01*
X167988519Y-71016961D02*
X168988519Y-71016961D01*
X168845661Y-70921723D01*
X168750423Y-70826485D01*
X168702804Y-70731247D01*
X167988519Y-72255057D02*
X167988519Y-71683628D01*
X167988519Y-71969342D02*
X168988519Y-71969342D01*
X168845661Y-71874104D01*
X168750423Y-71778866D01*
X168702804Y-71683628D01*
%TO.C,R7*%
X143597333Y-92882980D02*
X143264000Y-92406790D01*
X143025904Y-92882980D02*
X143025904Y-91882980D01*
X143406857Y-91882980D01*
X143502095Y-91930600D01*
X143549714Y-91978219D01*
X143597333Y-92073457D01*
X143597333Y-92216314D01*
X143549714Y-92311552D01*
X143502095Y-92359171D01*
X143406857Y-92406790D01*
X143025904Y-92406790D01*
X143930666Y-91882980D02*
X144597333Y-91882980D01*
X144168761Y-92882980D01*
X135358285Y-92241714D02*
X135358285Y-92908380D01*
X135120190Y-91860761D02*
X134882095Y-92575047D01*
X135501142Y-92575047D01*
X135786857Y-91908380D02*
X136453523Y-91908380D01*
X136024952Y-92908380D01*
X136834476Y-92908380D02*
X136834476Y-91908380D01*
X137405904Y-92908380D02*
X136977333Y-92336952D01*
X137405904Y-91908380D02*
X136834476Y-92479809D01*
%TO.C,U6*%
X153591380Y-46227904D02*
X154400904Y-46227904D01*
X154496142Y-46180285D01*
X154543761Y-46132666D01*
X154591380Y-46037428D01*
X154591380Y-45846952D01*
X154543761Y-45751714D01*
X154496142Y-45704095D01*
X154400904Y-45656476D01*
X153591380Y-45656476D01*
X153591380Y-44751714D02*
X153591380Y-44942190D01*
X153639000Y-45037428D01*
X153686619Y-45085047D01*
X153829476Y-45180285D01*
X154019952Y-45227904D01*
X154400904Y-45227904D01*
X154496142Y-45180285D01*
X154543761Y-45132666D01*
X154591380Y-45037428D01*
X154591380Y-44846952D01*
X154543761Y-44751714D01*
X154496142Y-44704095D01*
X154400904Y-44656476D01*
X154162809Y-44656476D01*
X154067571Y-44704095D01*
X154019952Y-44751714D01*
X153972333Y-44846952D01*
X153972333Y-45037428D01*
X154019952Y-45132666D01*
X154067571Y-45180285D01*
X154162809Y-45227904D01*
%TO.C,R2*%
X144216380Y-58307266D02*
X143740190Y-58640600D01*
X144216380Y-58878695D02*
X143216380Y-58878695D01*
X143216380Y-58497742D01*
X143264000Y-58402504D01*
X143311619Y-58354885D01*
X143406857Y-58307266D01*
X143549714Y-58307266D01*
X143644952Y-58354885D01*
X143692571Y-58402504D01*
X143740190Y-58497742D01*
X143740190Y-58878695D01*
X143311619Y-57926314D02*
X143264000Y-57878695D01*
X143216380Y-57783457D01*
X143216380Y-57545361D01*
X143264000Y-57450123D01*
X143311619Y-57402504D01*
X143406857Y-57354885D01*
X143502095Y-57354885D01*
X143644952Y-57402504D01*
X144216380Y-57973933D01*
X144216380Y-57354885D01*
%TO.C,J13*%
X168988519Y-100441576D02*
X168274233Y-100441576D01*
X168131376Y-100393957D01*
X168036138Y-100298719D01*
X167988519Y-100155861D01*
X167988519Y-100060623D01*
X167988519Y-101441576D02*
X167988519Y-100870147D01*
X167988519Y-101155861D02*
X168988519Y-101155861D01*
X168845661Y-101060623D01*
X168750423Y-100965385D01*
X168702804Y-100870147D01*
X168988519Y-101774909D02*
X168988519Y-102393957D01*
X168607566Y-102060623D01*
X168607566Y-102203480D01*
X168559947Y-102298719D01*
X168512328Y-102346338D01*
X168417090Y-102393957D01*
X168178995Y-102393957D01*
X168083757Y-102346338D01*
X168036138Y-102298719D01*
X167988519Y-102203480D01*
X167988519Y-101917766D01*
X168036138Y-101822528D01*
X168083757Y-101774909D01*
%TO.C,J4*%
X48180666Y-86618380D02*
X48180666Y-87332666D01*
X48133047Y-87475523D01*
X48037809Y-87570761D01*
X47894952Y-87618380D01*
X47799714Y-87618380D01*
X49085428Y-86951714D02*
X49085428Y-87618380D01*
X48847333Y-86570761D02*
X48609238Y-87285047D01*
X49228285Y-87285047D01*
%TO.C,C2*%
X136297942Y-71667666D02*
X136345561Y-71715285D01*
X136393180Y-71858142D01*
X136393180Y-71953380D01*
X136345561Y-72096238D01*
X136250323Y-72191476D01*
X136155085Y-72239095D01*
X135964609Y-72286714D01*
X135821752Y-72286714D01*
X135631276Y-72239095D01*
X135536038Y-72191476D01*
X135440800Y-72096238D01*
X135393180Y-71953380D01*
X135393180Y-71858142D01*
X135440800Y-71715285D01*
X135488419Y-71667666D01*
X135488419Y-71286714D02*
X135440800Y-71239095D01*
X135393180Y-71143857D01*
X135393180Y-70905761D01*
X135440800Y-70810523D01*
X135488419Y-70762904D01*
X135583657Y-70715285D01*
X135678895Y-70715285D01*
X135821752Y-70762904D01*
X136393180Y-71334333D01*
X136393180Y-70715285D01*
X137025238Y-68619714D02*
X137025238Y-69286380D01*
X136787142Y-68238761D02*
X136549047Y-68953047D01*
X137168095Y-68953047D01*
X137549047Y-69191142D02*
X137596666Y-69238761D01*
X137549047Y-69286380D01*
X137501428Y-69238761D01*
X137549047Y-69191142D01*
X137549047Y-69286380D01*
X137930000Y-68286380D02*
X138596666Y-68286380D01*
X138168095Y-69286380D01*
X139406190Y-68619714D02*
X139406190Y-69286380D01*
X138977619Y-68619714D02*
X138977619Y-69143523D01*
X139025238Y-69238761D01*
X139120476Y-69286380D01*
X139263333Y-69286380D01*
X139358571Y-69238761D01*
X139406190Y-69191142D01*
X140215714Y-68762571D02*
X139882380Y-68762571D01*
X139882380Y-69286380D02*
X139882380Y-68286380D01*
X140358571Y-68286380D01*
%TO.C,U4*%
X76160380Y-48767904D02*
X76969904Y-48767904D01*
X77065142Y-48720285D01*
X77112761Y-48672666D01*
X77160380Y-48577428D01*
X77160380Y-48386952D01*
X77112761Y-48291714D01*
X77065142Y-48244095D01*
X76969904Y-48196476D01*
X76160380Y-48196476D01*
X76493714Y-47291714D02*
X77160380Y-47291714D01*
X76112761Y-47529809D02*
X76827047Y-47767904D01*
X76827047Y-47148857D01*
X76982580Y-54892485D02*
X75982580Y-54892485D01*
X76458771Y-54892485D02*
X76458771Y-54321057D01*
X76982580Y-54321057D02*
X75982580Y-54321057D01*
X75982580Y-53987723D02*
X76982580Y-53654390D01*
X75982580Y-53321057D01*
X76525380Y-42156047D02*
X76525380Y-42632238D01*
X75525380Y-42632238D01*
X75525380Y-41965571D02*
X76525380Y-41632238D01*
X75525380Y-41298904D01*
%TO.C,J6*%
X106520666Y-132880380D02*
X106520666Y-133594666D01*
X106473047Y-133737523D01*
X106377809Y-133832761D01*
X106234952Y-133880380D01*
X106139714Y-133880380D01*
X107425428Y-132880380D02*
X107234952Y-132880380D01*
X107139714Y-132928000D01*
X107092095Y-132975619D01*
X106996857Y-133118476D01*
X106949238Y-133308952D01*
X106949238Y-133689904D01*
X106996857Y-133785142D01*
X107044476Y-133832761D01*
X107139714Y-133880380D01*
X107330190Y-133880380D01*
X107425428Y-133832761D01*
X107473047Y-133785142D01*
X107520666Y-133689904D01*
X107520666Y-133451809D01*
X107473047Y-133356571D01*
X107425428Y-133308952D01*
X107330190Y-133261333D01*
X107139714Y-133261333D01*
X107044476Y-133308952D01*
X106996857Y-133356571D01*
X106949238Y-133451809D01*
%TO.C,R9*%
X143622733Y-108148380D02*
X143289400Y-107672190D01*
X143051304Y-108148380D02*
X143051304Y-107148380D01*
X143432257Y-107148380D01*
X143527495Y-107196000D01*
X143575114Y-107243619D01*
X143622733Y-107338857D01*
X143622733Y-107481714D01*
X143575114Y-107576952D01*
X143527495Y-107624571D01*
X143432257Y-107672190D01*
X143051304Y-107672190D01*
X144098923Y-108148380D02*
X144289400Y-108148380D01*
X144384638Y-108100761D01*
X144432257Y-108053142D01*
X144527495Y-107910285D01*
X144575114Y-107719809D01*
X144575114Y-107338857D01*
X144527495Y-107243619D01*
X144479876Y-107196000D01*
X144384638Y-107148380D01*
X144194161Y-107148380D01*
X144098923Y-107196000D01*
X144051304Y-107243619D01*
X144003685Y-107338857D01*
X144003685Y-107576952D01*
X144051304Y-107672190D01*
X144098923Y-107719809D01*
X144194161Y-107767428D01*
X144384638Y-107767428D01*
X144479876Y-107719809D01*
X144527495Y-107672190D01*
X144575114Y-107576952D01*
X135104285Y-107735714D02*
X135104285Y-108402380D01*
X134866190Y-107354761D02*
X134628095Y-108069047D01*
X135247142Y-108069047D01*
X135532857Y-107402380D02*
X136199523Y-107402380D01*
X135770952Y-108402380D01*
X136580476Y-108402380D02*
X136580476Y-107402380D01*
X137151904Y-108402380D02*
X136723333Y-107830952D01*
X137151904Y-107402380D02*
X136580476Y-107973809D01*
%TO.C,U7*%
X82542095Y-104298380D02*
X82542095Y-105107904D01*
X82589714Y-105203142D01*
X82637333Y-105250761D01*
X82732571Y-105298380D01*
X82923047Y-105298380D01*
X83018285Y-105250761D01*
X83065904Y-105203142D01*
X83113523Y-105107904D01*
X83113523Y-104298380D01*
X83494476Y-104298380D02*
X84161142Y-104298380D01*
X83732571Y-105298380D01*
X74466380Y-115149333D02*
X75466380Y-114816000D01*
X74466380Y-114482666D01*
X75371142Y-113577904D02*
X75418761Y-113625523D01*
X75466380Y-113768380D01*
X75466380Y-113863619D01*
X75418761Y-114006476D01*
X75323523Y-114101714D01*
X75228285Y-114149333D01*
X75037809Y-114196952D01*
X74894952Y-114196952D01*
X74704476Y-114149333D01*
X74609238Y-114101714D01*
X74514000Y-114006476D01*
X74466380Y-113863619D01*
X74466380Y-113768380D01*
X74514000Y-113625523D01*
X74561619Y-113577904D01*
X75371142Y-112577904D02*
X75418761Y-112625523D01*
X75466380Y-112768380D01*
X75466380Y-112863619D01*
X75418761Y-113006476D01*
X75323523Y-113101714D01*
X75228285Y-113149333D01*
X75037809Y-113196952D01*
X74894952Y-113196952D01*
X74704476Y-113149333D01*
X74609238Y-113101714D01*
X74514000Y-113006476D01*
X74466380Y-112863619D01*
X74466380Y-112768380D01*
X74514000Y-112625523D01*
X74561619Y-112577904D01*
X85230666Y-114350285D02*
X85230666Y-113874095D01*
X85516380Y-114445523D02*
X84516380Y-114112190D01*
X85516380Y-113778857D01*
X84516380Y-113255047D02*
X84516380Y-113159809D01*
X84564000Y-113064571D01*
X84611619Y-113016952D01*
X84706857Y-112969333D01*
X84897333Y-112921714D01*
X85135428Y-112921714D01*
X85325904Y-112969333D01*
X85421142Y-113016952D01*
X85468761Y-113064571D01*
X85516380Y-113159809D01*
X85516380Y-113255047D01*
X85468761Y-113350285D01*
X85421142Y-113397904D01*
X85325904Y-113445523D01*
X85135428Y-113493142D01*
X84897333Y-113493142D01*
X84706857Y-113445523D01*
X84611619Y-113397904D01*
X84564000Y-113350285D01*
X84516380Y-113255047D01*
X78048761Y-114826476D02*
X78096380Y-114683619D01*
X78096380Y-114445523D01*
X78048761Y-114350285D01*
X78001142Y-114302666D01*
X77905904Y-114255047D01*
X77810666Y-114255047D01*
X77715428Y-114302666D01*
X77667809Y-114350285D01*
X77620190Y-114445523D01*
X77572571Y-114636000D01*
X77524952Y-114731238D01*
X77477333Y-114778857D01*
X77382095Y-114826476D01*
X77286857Y-114826476D01*
X77191619Y-114778857D01*
X77144000Y-114731238D01*
X77096380Y-114636000D01*
X77096380Y-114397904D01*
X77144000Y-114255047D01*
X78001142Y-113255047D02*
X78048761Y-113302666D01*
X78096380Y-113445523D01*
X78096380Y-113540761D01*
X78048761Y-113683619D01*
X77953523Y-113778857D01*
X77858285Y-113826476D01*
X77667809Y-113874095D01*
X77524952Y-113874095D01*
X77334476Y-113826476D01*
X77239238Y-113778857D01*
X77144000Y-113683619D01*
X77096380Y-113540761D01*
X77096380Y-113445523D01*
X77144000Y-113302666D01*
X77191619Y-113255047D01*
X78096380Y-112350285D02*
X78096380Y-112826476D01*
X77096380Y-112826476D01*
X89774000Y-114447904D02*
X89726380Y-114543142D01*
X89726380Y-114686000D01*
X89774000Y-114828857D01*
X89869238Y-114924095D01*
X89964476Y-114971714D01*
X90154952Y-115019333D01*
X90297809Y-115019333D01*
X90488285Y-114971714D01*
X90583523Y-114924095D01*
X90678761Y-114828857D01*
X90726380Y-114686000D01*
X90726380Y-114590761D01*
X90678761Y-114447904D01*
X90631142Y-114400285D01*
X90297809Y-114400285D01*
X90297809Y-114590761D01*
X90726380Y-113971714D02*
X89726380Y-113971714D01*
X90726380Y-113400285D01*
X89726380Y-113400285D01*
X90726380Y-112924095D02*
X89726380Y-112924095D01*
X89726380Y-112686000D01*
X89774000Y-112543142D01*
X89869238Y-112447904D01*
X89964476Y-112400285D01*
X90154952Y-112352666D01*
X90297809Y-112352666D01*
X90488285Y-112400285D01*
X90583523Y-112447904D01*
X90678761Y-112543142D01*
X90726380Y-112686000D01*
X90726380Y-112924095D01*
X80578761Y-114900285D02*
X80626380Y-114757428D01*
X80626380Y-114519333D01*
X80578761Y-114424095D01*
X80531142Y-114376476D01*
X80435904Y-114328857D01*
X80340666Y-114328857D01*
X80245428Y-114376476D01*
X80197809Y-114424095D01*
X80150190Y-114519333D01*
X80102571Y-114709809D01*
X80054952Y-114805047D01*
X80007333Y-114852666D01*
X79912095Y-114900285D01*
X79816857Y-114900285D01*
X79721619Y-114852666D01*
X79674000Y-114805047D01*
X79626380Y-114709809D01*
X79626380Y-114471714D01*
X79674000Y-114328857D01*
X80626380Y-113900285D02*
X79626380Y-113900285D01*
X79626380Y-113662190D01*
X79674000Y-113519333D01*
X79769238Y-113424095D01*
X79864476Y-113376476D01*
X80054952Y-113328857D01*
X80197809Y-113328857D01*
X80388285Y-113376476D01*
X80483523Y-113424095D01*
X80578761Y-113519333D01*
X80626380Y-113662190D01*
X80626380Y-113900285D01*
X80340666Y-112947904D02*
X80340666Y-112471714D01*
X80626380Y-113043142D02*
X79626380Y-112709809D01*
X80626380Y-112376476D01*
X82850666Y-114560285D02*
X82850666Y-114084095D01*
X83136380Y-114655523D02*
X82136380Y-114322190D01*
X83136380Y-113988857D01*
X83136380Y-113131714D02*
X83136380Y-113703142D01*
X83136380Y-113417428D02*
X82136380Y-113417428D01*
X82279238Y-113512666D01*
X82374476Y-113607904D01*
X82422095Y-113703142D01*
X88116380Y-115107904D02*
X88116380Y-115679333D01*
X88116380Y-115393619D02*
X87116380Y-115393619D01*
X87259238Y-115488857D01*
X87354476Y-115584095D01*
X87402095Y-115679333D01*
X87116380Y-114774571D02*
X88116380Y-114536476D01*
X87402095Y-114346000D01*
X88116380Y-114155523D01*
X87116380Y-113917428D01*
X88116380Y-113536476D02*
X87449714Y-113536476D01*
X87116380Y-113536476D02*
X87164000Y-113584095D01*
X87211619Y-113536476D01*
X87164000Y-113488857D01*
X87116380Y-113536476D01*
X87211619Y-113536476D01*
X88116380Y-113060285D02*
X87449714Y-113060285D01*
X87640190Y-113060285D02*
X87544952Y-113012666D01*
X87497333Y-112965047D01*
X87449714Y-112869809D01*
X87449714Y-112774571D01*
X88068761Y-112060285D02*
X88116380Y-112155523D01*
X88116380Y-112346000D01*
X88068761Y-112441238D01*
X87973523Y-112488857D01*
X87592571Y-112488857D01*
X87497333Y-112441238D01*
X87449714Y-112346000D01*
X87449714Y-112155523D01*
X87497333Y-112060285D01*
X87592571Y-112012666D01*
X87687809Y-112012666D01*
X87783047Y-112488857D01*
%TO.C,J7*%
X124342166Y-132868380D02*
X124342166Y-133582666D01*
X124294547Y-133725523D01*
X124199309Y-133820761D01*
X124056452Y-133868380D01*
X123961214Y-133868380D01*
X124723119Y-132868380D02*
X125389785Y-132868380D01*
X124961214Y-133868380D01*
%TO.C,J3*%
X70960666Y-132880380D02*
X70960666Y-133594666D01*
X70913047Y-133737523D01*
X70817809Y-133832761D01*
X70674952Y-133880380D01*
X70579714Y-133880380D01*
X71341619Y-132880380D02*
X71960666Y-132880380D01*
X71627333Y-133261333D01*
X71770190Y-133261333D01*
X71865428Y-133308952D01*
X71913047Y-133356571D01*
X71960666Y-133451809D01*
X71960666Y-133689904D01*
X71913047Y-133785142D01*
X71865428Y-133832761D01*
X71770190Y-133880380D01*
X71484476Y-133880380D01*
X71389238Y-133832761D01*
X71341619Y-133785142D01*
%TO.C,R11*%
X99258380Y-49918857D02*
X98782190Y-50252190D01*
X99258380Y-50490285D02*
X98258380Y-50490285D01*
X98258380Y-50109333D01*
X98306000Y-50014095D01*
X98353619Y-49966476D01*
X98448857Y-49918857D01*
X98591714Y-49918857D01*
X98686952Y-49966476D01*
X98734571Y-50014095D01*
X98782190Y-50109333D01*
X98782190Y-50490285D01*
X99258380Y-48966476D02*
X99258380Y-49537904D01*
X99258380Y-49252190D02*
X98258380Y-49252190D01*
X98401238Y-49347428D01*
X98496476Y-49442666D01*
X98544095Y-49537904D01*
X99258380Y-48014095D02*
X99258380Y-48585523D01*
X99258380Y-48299809D02*
X98258380Y-48299809D01*
X98401238Y-48395047D01*
X98496476Y-48490285D01*
X98544095Y-48585523D01*
%TO.C,J5*%
X88655166Y-132868380D02*
X88655166Y-133582666D01*
X88607547Y-133725523D01*
X88512309Y-133820761D01*
X88369452Y-133868380D01*
X88274214Y-133868380D01*
X89607547Y-132868380D02*
X89131357Y-132868380D01*
X89083738Y-133344571D01*
X89131357Y-133296952D01*
X89226595Y-133249333D01*
X89464690Y-133249333D01*
X89559928Y-133296952D01*
X89607547Y-133344571D01*
X89655166Y-133439809D01*
X89655166Y-133677904D01*
X89607547Y-133773142D01*
X89559928Y-133820761D01*
X89464690Y-133868380D01*
X89226595Y-133868380D01*
X89131357Y-133820761D01*
X89083738Y-133773142D01*
%TO.C,D2*%
X143432304Y-100553780D02*
X143432304Y-99553780D01*
X143670400Y-99553780D01*
X143813257Y-99601400D01*
X143908495Y-99696638D01*
X143956114Y-99791876D01*
X144003733Y-99982352D01*
X144003733Y-100125209D01*
X143956114Y-100315685D01*
X143908495Y-100410923D01*
X143813257Y-100506161D01*
X143670400Y-100553780D01*
X143432304Y-100553780D01*
X144384685Y-99649019D02*
X144432304Y-99601400D01*
X144527542Y-99553780D01*
X144765638Y-99553780D01*
X144860876Y-99601400D01*
X144908495Y-99649019D01*
X144956114Y-99744257D01*
X144956114Y-99839495D01*
X144908495Y-99982352D01*
X144337066Y-100553780D01*
X144956114Y-100553780D01*
X138422095Y-98428380D02*
X138422095Y-97428380D01*
X138993523Y-98428380D02*
X138564952Y-97856952D01*
X138993523Y-97428380D02*
X138422095Y-97999809D01*
%TO.C,J8*%
X142080666Y-132880380D02*
X142080666Y-133594666D01*
X142033047Y-133737523D01*
X141937809Y-133832761D01*
X141794952Y-133880380D01*
X141699714Y-133880380D01*
X142699714Y-133308952D02*
X142604476Y-133261333D01*
X142556857Y-133213714D01*
X142509238Y-133118476D01*
X142509238Y-133070857D01*
X142556857Y-132975619D01*
X142604476Y-132928000D01*
X142699714Y-132880380D01*
X142890190Y-132880380D01*
X142985428Y-132928000D01*
X143033047Y-132975619D01*
X143080666Y-133070857D01*
X143080666Y-133118476D01*
X143033047Y-133213714D01*
X142985428Y-133261333D01*
X142890190Y-133308952D01*
X142699714Y-133308952D01*
X142604476Y-133356571D01*
X142556857Y-133404190D01*
X142509238Y-133499428D01*
X142509238Y-133689904D01*
X142556857Y-133785142D01*
X142604476Y-133832761D01*
X142699714Y-133880380D01*
X142890190Y-133880380D01*
X142985428Y-133832761D01*
X143033047Y-133785142D01*
X143080666Y-133689904D01*
X143080666Y-133499428D01*
X143033047Y-133404190D01*
X142985428Y-133356571D01*
X142890190Y-133308952D01*
%TO.C,R5*%
X144216380Y-71058066D02*
X143740190Y-71391400D01*
X144216380Y-71629495D02*
X143216380Y-71629495D01*
X143216380Y-71248542D01*
X143264000Y-71153304D01*
X143311619Y-71105685D01*
X143406857Y-71058066D01*
X143549714Y-71058066D01*
X143644952Y-71105685D01*
X143692571Y-71153304D01*
X143740190Y-71248542D01*
X143740190Y-71629495D01*
X143216380Y-70153304D02*
X143216380Y-70629495D01*
X143692571Y-70677114D01*
X143644952Y-70629495D01*
X143597333Y-70534257D01*
X143597333Y-70296161D01*
X143644952Y-70200923D01*
X143692571Y-70153304D01*
X143787809Y-70105685D01*
X144025904Y-70105685D01*
X144121142Y-70153304D01*
X144168761Y-70200923D01*
X144216380Y-70296161D01*
X144216380Y-70534257D01*
X144168761Y-70629495D01*
X144121142Y-70677114D01*
%TO.C,R3*%
X149296380Y-58358066D02*
X148820190Y-58691400D01*
X149296380Y-58929495D02*
X148296380Y-58929495D01*
X148296380Y-58548542D01*
X148344000Y-58453304D01*
X148391619Y-58405685D01*
X148486857Y-58358066D01*
X148629714Y-58358066D01*
X148724952Y-58405685D01*
X148772571Y-58453304D01*
X148820190Y-58548542D01*
X148820190Y-58929495D01*
X148296380Y-58024733D02*
X148296380Y-57405685D01*
X148677333Y-57739019D01*
X148677333Y-57596161D01*
X148724952Y-57500923D01*
X148772571Y-57453304D01*
X148867809Y-57405685D01*
X149105904Y-57405685D01*
X149201142Y-57453304D01*
X149248761Y-57500923D01*
X149296380Y-57596161D01*
X149296380Y-57881876D01*
X149248761Y-57977114D01*
X149201142Y-58024733D01*
D16*
%TO.C,R10*%
X96874000Y-46006000D02*
X94134000Y-46006000D01*
X95504000Y-53316000D02*
X95504000Y-52546000D01*
X95504000Y-45236000D02*
X95504000Y-46006000D01*
X94134000Y-46006000D02*
X94134000Y-52546000D01*
X96874000Y-52546000D02*
X96874000Y-46006000D01*
X94134000Y-52546000D02*
X96874000Y-52546000D01*
%TO.C,J2*%
X68779000Y-35251000D02*
X94299000Y-35251000D01*
X71379000Y-40451000D02*
X71379000Y-37851000D01*
X94299000Y-40451000D02*
X94299000Y-35251000D01*
X68779000Y-37851000D02*
X68779000Y-35251000D01*
X71379000Y-37851000D02*
X68779000Y-37851000D01*
X68779000Y-40451000D02*
X68779000Y-39121000D01*
X71379000Y-40451000D02*
X94299000Y-40451000D01*
X70109000Y-40451000D02*
X68779000Y-40451000D01*
%TO.C,J1*%
X44990500Y-133566000D02*
X44990500Y-137006000D01*
X44114500Y-121908000D02*
X44114500Y-122924000D01*
X61010500Y-118136000D02*
X44990500Y-118136000D01*
X44622500Y-122416000D02*
X44114500Y-121908000D01*
X44990500Y-118136000D02*
X44990500Y-130066000D01*
X44114500Y-122924000D02*
X44622500Y-122416000D01*
X61010500Y-137006000D02*
X44990500Y-137006000D01*
X61010500Y-118136000D02*
X61010500Y-130066000D01*
X61010500Y-133566000D02*
X61010500Y-137006000D01*
%TO.C,D4*%
X116819000Y-49296000D02*
X119909000Y-49296000D01*
X119908830Y-49296000D02*
G75*
G03*
X118363538Y-43746000I-1544830J2560000D01*
G01*
X118364462Y-43746000D02*
G75*
G03*
X116819170Y-49296000I-462J-2990000D01*
G01*
X120864000Y-46736000D02*
G75*
G03*
X120864000Y-46736000I-2500000J0D01*
G01*
%TO.C,C4*%
X137538000Y-80067380D02*
X138914000Y-80067380D01*
X138115000Y-85728621D02*
X138115000Y-85098621D01*
X136856000Y-81307380D02*
X138914000Y-81307380D01*
X136868000Y-81267380D02*
X138914000Y-81267380D01*
X140994000Y-80707380D02*
X142810000Y-80707380D01*
X140994000Y-80667380D02*
X142788000Y-80667380D01*
X137910000Y-79707380D02*
X141998000Y-79707380D01*
X140994000Y-81948380D02*
X143172000Y-81948380D01*
X140994000Y-80587380D02*
X142744000Y-80587380D01*
X140994000Y-81868380D02*
X143165000Y-81868380D01*
X136813000Y-81467380D02*
X138914000Y-81467380D01*
X140994000Y-81427380D02*
X143085000Y-81427380D01*
X139152000Y-79067380D02*
X140756000Y-79067380D01*
X136779000Y-81628380D02*
X138914000Y-81628380D01*
X140994000Y-80027380D02*
X142334000Y-80027380D01*
X140994000Y-81588380D02*
X143121000Y-81588380D01*
X137058000Y-80787380D02*
X138914000Y-80787380D01*
X136736000Y-81948380D02*
X138914000Y-81948380D01*
X137238000Y-80467380D02*
X138914000Y-80467380D01*
X140994000Y-81387380D02*
X143075000Y-81387380D01*
X136772000Y-81668380D02*
X138914000Y-81668380D01*
X138064000Y-79587380D02*
X141844000Y-79587380D01*
X140994000Y-79987380D02*
X142297000Y-79987380D01*
X136921000Y-81107380D02*
X138914000Y-81107380D01*
X136833000Y-81387380D02*
X138914000Y-81387380D01*
X136804000Y-81507380D02*
X138914000Y-81507380D01*
X137038000Y-80827380D02*
X138914000Y-80827380D01*
X136765000Y-81708380D02*
X138914000Y-81708380D01*
X137318000Y-80347380D02*
X138914000Y-80347380D01*
X140994000Y-81107380D02*
X142987000Y-81107380D01*
X136727000Y-82068380D02*
X143181000Y-82068380D01*
X140994000Y-81988380D02*
X143176000Y-81988380D01*
X140994000Y-79947380D02*
X142259000Y-79947380D01*
X137862000Y-79747380D02*
X142046000Y-79747380D01*
X140994000Y-80947380D02*
X142924000Y-80947380D01*
X138692000Y-79227380D02*
X141216000Y-79227380D01*
X140994000Y-81467380D02*
X143095000Y-81467380D01*
X140994000Y-81267380D02*
X143040000Y-81267380D01*
X140994000Y-81507380D02*
X143104000Y-81507380D01*
X137098000Y-80707380D02*
X138914000Y-80707380D01*
X140994000Y-81187380D02*
X143015000Y-81187380D01*
X140994000Y-81828380D02*
X143160000Y-81828380D01*
X139014000Y-79107380D02*
X140894000Y-79107380D01*
X140994000Y-80827380D02*
X142870000Y-80827380D01*
X137800000Y-85413621D02*
X138430000Y-85413621D01*
X136759000Y-81748380D02*
X138914000Y-81748380D01*
X140994000Y-80787380D02*
X142850000Y-80787380D01*
X140994000Y-81347380D02*
X143064000Y-81347380D01*
X136880000Y-81227380D02*
X138914000Y-81227380D01*
X136732000Y-81988380D02*
X138914000Y-81988380D01*
X140994000Y-80347380D02*
X142590000Y-80347380D01*
X140994000Y-81548380D02*
X143113000Y-81548380D01*
X140994000Y-81147380D02*
X143001000Y-81147380D01*
X137142000Y-80627380D02*
X138914000Y-80627380D01*
X137959000Y-79667380D02*
X141949000Y-79667380D01*
X136753000Y-81788380D02*
X138914000Y-81788380D01*
X137376000Y-80267380D02*
X138914000Y-80267380D01*
X140994000Y-80547380D02*
X142720000Y-80547380D01*
X137611000Y-79987380D02*
X138914000Y-79987380D01*
X136936000Y-81067380D02*
X138914000Y-81067380D01*
X140994000Y-81067380D02*
X142972000Y-81067380D01*
X140994000Y-81908380D02*
X143169000Y-81908380D01*
X138240000Y-79467380D02*
X141668000Y-79467380D01*
X138895000Y-79147380D02*
X141013000Y-79147380D01*
X138789000Y-79187380D02*
X141119000Y-79187380D01*
X138373000Y-79387380D02*
X141535000Y-79387380D01*
X140994000Y-81708380D02*
X143143000Y-81708380D01*
X136726000Y-82108380D02*
X143182000Y-82108380D01*
X137002000Y-80907380D02*
X138914000Y-80907380D01*
X140994000Y-80467380D02*
X142670000Y-80467380D01*
X140994000Y-80067380D02*
X142370000Y-80067380D01*
X136968000Y-80987380D02*
X138914000Y-80987380D01*
X138178000Y-79507380D02*
X141730000Y-79507380D01*
X138304000Y-79427380D02*
X141604000Y-79427380D01*
X139321000Y-79027380D02*
X140587000Y-79027380D01*
X136984000Y-80947380D02*
X138914000Y-80947380D01*
X140994000Y-81027380D02*
X142956000Y-81027380D01*
X138120000Y-79547380D02*
X141788000Y-79547380D01*
X137504000Y-80107380D02*
X138914000Y-80107380D01*
X140994000Y-81668380D02*
X143136000Y-81668380D01*
X137347000Y-80307380D02*
X138914000Y-80307380D01*
X139552000Y-78987380D02*
X140356000Y-78987380D01*
X136724000Y-82188380D02*
X143184000Y-82188380D01*
X137020000Y-80867380D02*
X138914000Y-80867380D01*
X138522000Y-79307380D02*
X141386000Y-79307380D01*
X140994000Y-80867380D02*
X142888000Y-80867380D01*
X140994000Y-80187380D02*
X142470000Y-80187380D01*
X137438000Y-80187380D02*
X138914000Y-80187380D01*
X136823000Y-81427380D02*
X138914000Y-81427380D01*
X136844000Y-81347380D02*
X138914000Y-81347380D01*
X140994000Y-80387380D02*
X142618000Y-80387380D01*
X137817000Y-79787380D02*
X142091000Y-79787380D01*
X136907000Y-81147380D02*
X138914000Y-81147380D01*
X140994000Y-80227380D02*
X142502000Y-80227380D01*
X140994000Y-81788380D02*
X143155000Y-81788380D01*
X140994000Y-80147380D02*
X142438000Y-80147380D01*
X136743000Y-81868380D02*
X138914000Y-81868380D01*
X137406000Y-80227380D02*
X138914000Y-80227380D01*
X136724000Y-82148380D02*
X143184000Y-82148380D01*
X137188000Y-80547380D02*
X138914000Y-80547380D01*
X136795000Y-81548380D02*
X138914000Y-81548380D01*
X140994000Y-80427380D02*
X142644000Y-80427380D01*
X137078000Y-80747380D02*
X138914000Y-80747380D01*
X136739000Y-81908380D02*
X138914000Y-81908380D01*
X137470000Y-80147380D02*
X138914000Y-80147380D01*
X140994000Y-81227380D02*
X143028000Y-81227380D01*
X140994000Y-80627380D02*
X142766000Y-80627380D01*
X138010000Y-79627380D02*
X141898000Y-79627380D01*
X140994000Y-80267380D02*
X142532000Y-80267380D01*
X140994000Y-80107380D02*
X142404000Y-80107380D01*
X140994000Y-80507380D02*
X142696000Y-80507380D01*
X136724000Y-82228380D02*
X143184000Y-82228380D01*
X136952000Y-81027380D02*
X138914000Y-81027380D01*
X136748000Y-81828380D02*
X138914000Y-81828380D01*
X137689000Y-79907380D02*
X142219000Y-79907380D01*
X137290000Y-80387380D02*
X138914000Y-80387380D01*
X138445000Y-79347380D02*
X141463000Y-79347380D01*
X137649000Y-79947380D02*
X138914000Y-79947380D01*
X140994000Y-80987380D02*
X142940000Y-80987380D01*
X137772000Y-79827380D02*
X142136000Y-79827380D01*
X136893000Y-81187380D02*
X138914000Y-81187380D01*
X137120000Y-80667380D02*
X138914000Y-80667380D01*
X137264000Y-80427380D02*
X138914000Y-80427380D01*
X140994000Y-80747380D02*
X142830000Y-80747380D01*
X137574000Y-80027380D02*
X138914000Y-80027380D01*
X136730000Y-82028380D02*
X143178000Y-82028380D01*
X140994000Y-80307380D02*
X142561000Y-80307380D01*
X140994000Y-81628380D02*
X143129000Y-81628380D01*
X140994000Y-81748380D02*
X143149000Y-81748380D01*
X138604000Y-79267380D02*
X141304000Y-79267380D01*
X136787000Y-81588380D02*
X138914000Y-81588380D01*
X137212000Y-80507380D02*
X138914000Y-80507380D01*
X140994000Y-81307380D02*
X143052000Y-81307380D01*
X137164000Y-80587380D02*
X138914000Y-80587380D01*
X137730000Y-79867380D02*
X142178000Y-79867380D01*
X140994000Y-80907380D02*
X142906000Y-80907380D01*
X143224000Y-82228380D02*
G75*
G03*
X143224000Y-82228380I-3270000J0D01*
G01*
%TO.C,U3*%
X45364000Y-90346000D02*
X64414000Y-90346000D01*
X64414000Y-90346000D02*
X64414000Y-110666000D01*
X45364000Y-110666000D02*
X45364000Y-90346000D01*
%TO.C,U2*%
X84074000Y-64516000D02*
X86614000Y-64516000D01*
X86614000Y-82296000D02*
X84074000Y-82296000D01*
X86614000Y-64516000D02*
X86614000Y-82296000D01*
X63754000Y-82296000D02*
X58674000Y-82296000D01*
X58674000Y-64516000D02*
X63754000Y-64516000D01*
%TO.C,R8*%
X147034000Y-87276000D02*
X140494000Y-87276000D01*
X140494000Y-90016000D02*
X147034000Y-90016000D01*
X139724000Y-88646000D02*
X140494000Y-88646000D01*
X147804000Y-88646000D02*
X147034000Y-88646000D01*
X140494000Y-87276000D02*
X140494000Y-90016000D01*
X147034000Y-90016000D02*
X147034000Y-87276000D01*
%TO.C,C3*%
X148160000Y-80921600D02*
X148671000Y-80921600D01*
X145264000Y-82202600D02*
X146480000Y-82202600D01*
X146307000Y-80681600D02*
X148333000Y-80681600D01*
X145396000Y-81721600D02*
X146480000Y-81721600D01*
X145249000Y-82322600D02*
X146480000Y-82322600D01*
X145924000Y-80961600D02*
X146480000Y-80961600D01*
X148160000Y-82202600D02*
X149376000Y-82202600D01*
X148160000Y-81521600D02*
X149150000Y-81521600D01*
X145512000Y-81481600D02*
X146480000Y-81481600D01*
X145253000Y-82282600D02*
X146480000Y-82282600D01*
X148160000Y-81882600D02*
X149302000Y-81882600D01*
X146178000Y-80761600D02*
X146480000Y-80761600D01*
X145240000Y-82482600D02*
X149400000Y-82482600D01*
X148160000Y-81761600D02*
X149260000Y-81761600D01*
X145768000Y-81121600D02*
X146480000Y-81121600D01*
X148160000Y-81121600D02*
X148872000Y-81121600D01*
X145469000Y-81561600D02*
X146480000Y-81561600D01*
X148160000Y-81441600D02*
X149105000Y-81441600D01*
X145270000Y-82162600D02*
X146480000Y-82162600D01*
X145535000Y-81441600D02*
X146480000Y-81441600D01*
X145842000Y-81041600D02*
X146480000Y-81041600D01*
X148160000Y-82322600D02*
X149391000Y-82322600D01*
X148160000Y-81161600D02*
X148907000Y-81161600D01*
X148160000Y-80721600D02*
X148400000Y-80721600D01*
X145286000Y-82082600D02*
X146480000Y-82082600D01*
X145450000Y-81601600D02*
X146480000Y-81601600D01*
X145882000Y-81001600D02*
X146480000Y-81001600D01*
X148160000Y-82002600D02*
X149336000Y-82002600D01*
X148160000Y-81321600D02*
X149028000Y-81321600D01*
X146950000Y-80441600D02*
X147690000Y-80441600D01*
X146380000Y-80641600D02*
X148260000Y-80641600D01*
X145295000Y-82042600D02*
X146480000Y-82042600D01*
X148160000Y-82242600D02*
X149382000Y-82242600D01*
X145733000Y-81161600D02*
X146480000Y-81161600D01*
X145701000Y-81201600D02*
X146480000Y-81201600D01*
X145258000Y-82242600D02*
X146480000Y-82242600D01*
X145246000Y-82362600D02*
X149394000Y-82362600D01*
X148160000Y-81201600D02*
X148939000Y-81201600D01*
X148160000Y-80881600D02*
X148624000Y-80881600D01*
X148160000Y-80801600D02*
X148520000Y-80801600D01*
X146016000Y-80881600D02*
X146480000Y-80881600D01*
X146120000Y-80801600D02*
X146480000Y-80801600D01*
X145326000Y-81922600D02*
X146480000Y-81922600D01*
X148160000Y-81081600D02*
X148836000Y-81081600D01*
X148160000Y-81281600D02*
X149000000Y-81281600D01*
X145366000Y-81801600D02*
X146480000Y-81801600D01*
X148160000Y-81842600D02*
X149288000Y-81842600D01*
X146461000Y-80601600D02*
X148179000Y-80601600D01*
X145640000Y-81281600D02*
X146480000Y-81281600D01*
X148160000Y-80841600D02*
X148574000Y-80841600D01*
X145304000Y-82002600D02*
X146480000Y-82002600D01*
X145240000Y-82522600D02*
X149400000Y-82522600D01*
X148160000Y-81721600D02*
X149244000Y-81721600D01*
X145315000Y-81962600D02*
X146480000Y-81962600D01*
X148160000Y-82162600D02*
X149370000Y-82162600D01*
X146656000Y-80521600D02*
X147984000Y-80521600D01*
X148160000Y-81681600D02*
X149227000Y-81681600D01*
X145490000Y-81521600D02*
X146480000Y-81521600D01*
X148160000Y-81001600D02*
X148758000Y-81001600D01*
X148160000Y-81041600D02*
X148798000Y-81041600D01*
X148160000Y-80761600D02*
X148462000Y-80761600D01*
X146066000Y-80841600D02*
X146480000Y-80841600D01*
X145243000Y-82402600D02*
X149397000Y-82402600D01*
X148160000Y-81401600D02*
X149080000Y-81401600D01*
X145612000Y-81321600D02*
X146480000Y-81321600D01*
X145925000Y-84592401D02*
X146325000Y-84592401D01*
X145560000Y-81401600D02*
X146480000Y-81401600D01*
X148160000Y-80961600D02*
X148716000Y-80961600D01*
X148160000Y-81641600D02*
X149209000Y-81641600D01*
X145413000Y-81681600D02*
X146480000Y-81681600D01*
X145380000Y-81761600D02*
X146480000Y-81761600D01*
X146552000Y-80561600D02*
X148088000Y-80561600D01*
X148160000Y-82122600D02*
X149362000Y-82122600D01*
X145431000Y-81641600D02*
X146480000Y-81641600D01*
X146783000Y-80481600D02*
X147857000Y-80481600D01*
X145338000Y-81882600D02*
X146480000Y-81882600D01*
X148160000Y-81561600D02*
X149171000Y-81561600D01*
X148160000Y-81922600D02*
X149314000Y-81922600D01*
X148160000Y-81601600D02*
X149190000Y-81601600D01*
X145670000Y-81241600D02*
X146480000Y-81241600D01*
X148160000Y-81801600D02*
X149274000Y-81801600D01*
X145585000Y-81361600D02*
X146480000Y-81361600D01*
X148160000Y-81481600D02*
X149128000Y-81481600D01*
X145241000Y-82442600D02*
X149399000Y-82442600D01*
X148160000Y-82282600D02*
X149387000Y-82282600D01*
X146240000Y-80721600D02*
X146480000Y-80721600D01*
X146125000Y-84792401D02*
X146125000Y-84392401D01*
X145804000Y-81081600D02*
X146480000Y-81081600D01*
X145969000Y-80921600D02*
X146480000Y-80921600D01*
X148160000Y-82082600D02*
X149354000Y-82082600D01*
X148160000Y-81241600D02*
X148970000Y-81241600D01*
X148160000Y-81962600D02*
X149325000Y-81962600D01*
X148160000Y-82042600D02*
X149345000Y-82042600D01*
X145352000Y-81842600D02*
X146480000Y-81842600D01*
X145278000Y-82122600D02*
X146480000Y-82122600D01*
X148160000Y-81361600D02*
X149055000Y-81361600D01*
X149440000Y-82522600D02*
G75*
G03*
X149440000Y-82522600I-2120000J0D01*
G01*
%TO.C,D5*%
X128249000Y-49296000D02*
X131339000Y-49296000D01*
X129794462Y-43746000D02*
G75*
G03*
X128249170Y-49296000I-462J-2990000D01*
G01*
X131338830Y-49296000D02*
G75*
G03*
X129793538Y-43746000I-1544830J2560000D01*
G01*
X132294000Y-46736000D02*
G75*
G03*
X132294000Y-46736000I-2500000J0D01*
G01*
%TO.C,R6*%
X147034000Y-102516000D02*
X140494000Y-102516000D01*
X147034000Y-105256000D02*
X147034000Y-102516000D01*
X139724000Y-103886000D02*
X140494000Y-103886000D01*
X140494000Y-102516000D02*
X140494000Y-105256000D01*
X147804000Y-103886000D02*
X147034000Y-103886000D01*
X140494000Y-105256000D02*
X147034000Y-105256000D01*
%TO.C,U5*%
X65764000Y-57476000D02*
X69364000Y-57476000D01*
X69402478Y-57464478D02*
G75*
G03*
X67564000Y-53026000I-1838478J1838478D01*
G01*
X67564000Y-53025999D02*
G75*
G03*
X65725522Y-57464478I0J-2600001D01*
G01*
%TO.C,D3*%
X146484000Y-97736000D02*
X146484000Y-94796000D01*
X145704000Y-97736000D02*
X145704000Y-94796000D01*
X141044000Y-94796000D02*
X141044000Y-97736000D01*
X146484000Y-94796000D02*
X141044000Y-94796000D01*
X147504000Y-96266000D02*
X146484000Y-96266000D01*
X145464000Y-97736000D02*
X145464000Y-94796000D01*
X145584000Y-97736000D02*
X145584000Y-94796000D01*
X140024000Y-96266000D02*
X141044000Y-96266000D01*
X141044000Y-97736000D02*
X146484000Y-97736000D01*
%TO.C,J17*%
X48808000Y-53096000D02*
X48715000Y-53002000D01*
X51059000Y-55346000D02*
X51000000Y-55287000D01*
X47284000Y-46716000D02*
X47284000Y-56836000D01*
X47224000Y-46476000D02*
X45484000Y-46476000D01*
X48568000Y-53266000D02*
X48510000Y-53207000D01*
X45484000Y-46476000D02*
X45484000Y-47976000D01*
X45724000Y-46716000D02*
X45724000Y-56836000D01*
X54844000Y-46716000D02*
X54844000Y-56836000D01*
X54844000Y-46716000D02*
X45724000Y-46716000D01*
X50853000Y-55551000D02*
X50760000Y-55457000D01*
X54844000Y-56836000D02*
X45724000Y-56836000D01*
X48995000Y-50760000D02*
G75*
G03*
X50573089Y-50759953I789000J1483995D01*
G01*
X51268000Y-50065000D02*
G75*
G03*
X51267953Y-48486911I-1483995J789000D01*
G01*
X48300000Y-48487000D02*
G75*
G03*
X48103550Y-49305383I1483995J-788998D01*
G01*
X48104000Y-49276000D02*
G75*
G03*
X48300648Y-50064712I1679991J-2D01*
G01*
X50573000Y-47792000D02*
G75*
G03*
X48994911Y-47792047I-789000J-1483995D01*
G01*
X53684000Y-54276000D02*
G75*
G03*
X53684000Y-54276000I-900000J0D01*
G01*
X51464000Y-54276000D02*
G75*
G03*
X51464000Y-54276000I-1680000J0D01*
G01*
X53684000Y-49276000D02*
G75*
G03*
X53684000Y-49276000I-900000J0D01*
G01*
%TO.C,C1*%
X139938000Y-59577000D02*
X139524000Y-59577000D01*
X139879000Y-55626199D02*
X139879000Y-56026199D01*
X140162000Y-59377000D02*
X139524000Y-59377000D01*
X137844000Y-59417000D02*
X137246000Y-59417000D01*
X140758000Y-58056000D02*
X136610000Y-58056000D01*
X140122000Y-59417000D02*
X139524000Y-59417000D01*
X137844000Y-58737000D02*
X136777000Y-58737000D01*
X139764000Y-59697000D02*
X139524000Y-59697000D01*
X140638000Y-58617000D02*
X139524000Y-58617000D01*
X137844000Y-59537000D02*
X137380000Y-59537000D01*
X137844000Y-58777000D02*
X136795000Y-58777000D01*
X139624000Y-59777000D02*
X137744000Y-59777000D01*
X137844000Y-58576000D02*
X136716000Y-58576000D01*
X140666000Y-58536000D02*
X139524000Y-58536000D01*
X139452000Y-59857000D02*
X137916000Y-59857000D01*
X137844000Y-59697000D02*
X137604000Y-59697000D01*
X140740000Y-58216000D02*
X139524000Y-58216000D01*
X140591000Y-58737000D02*
X139524000Y-58737000D01*
X137844000Y-58897000D02*
X136854000Y-58897000D01*
X140469000Y-58977000D02*
X139524000Y-58977000D01*
X140700000Y-58416000D02*
X139524000Y-58416000D01*
X140709000Y-58376000D02*
X139524000Y-58376000D01*
X140624000Y-58657000D02*
X139524000Y-58657000D01*
X140334000Y-59177000D02*
X139524000Y-59177000D01*
X137844000Y-59097000D02*
X136976000Y-59097000D01*
X137844000Y-59217000D02*
X137065000Y-59217000D01*
X137844000Y-59577000D02*
X137430000Y-59577000D01*
X137844000Y-58136000D02*
X136617000Y-58136000D01*
X140303000Y-59217000D02*
X139524000Y-59217000D01*
X137844000Y-59337000D02*
X137168000Y-59337000D01*
X137844000Y-58256000D02*
X136634000Y-58256000D01*
X137844000Y-59657000D02*
X137542000Y-59657000D01*
X137844000Y-59617000D02*
X137484000Y-59617000D01*
X140079000Y-55826199D02*
X139679000Y-55826199D01*
X140080000Y-59457000D02*
X139524000Y-59457000D01*
X140764000Y-57896000D02*
X136604000Y-57896000D01*
X140200000Y-59337000D02*
X139524000Y-59337000D01*
X137844000Y-58296000D02*
X136642000Y-58296000D01*
X140236000Y-59297000D02*
X139524000Y-59297000D01*
X140678000Y-58496000D02*
X139524000Y-58496000D01*
X139826000Y-59657000D02*
X139524000Y-59657000D01*
X140444000Y-59017000D02*
X139524000Y-59017000D01*
X140364000Y-59137000D02*
X139524000Y-59137000D01*
X140573000Y-58777000D02*
X139524000Y-58777000D01*
X139697000Y-59737000D02*
X137671000Y-59737000D01*
X137844000Y-58416000D02*
X136668000Y-58416000D01*
X139543000Y-59817000D02*
X137825000Y-59817000D01*
X137844000Y-58336000D02*
X136650000Y-58336000D01*
X137844000Y-59497000D02*
X137333000Y-59497000D01*
X140652000Y-58576000D02*
X139524000Y-58576000D01*
X140746000Y-58176000D02*
X139524000Y-58176000D01*
X137844000Y-58937000D02*
X136876000Y-58937000D01*
X137844000Y-59457000D02*
X137288000Y-59457000D01*
X140492000Y-58937000D02*
X139524000Y-58937000D01*
X137844000Y-59137000D02*
X137004000Y-59137000D01*
X137844000Y-58857000D02*
X136833000Y-58857000D01*
X140689000Y-58456000D02*
X139524000Y-58456000D01*
X139884000Y-59617000D02*
X139524000Y-59617000D01*
X137844000Y-58216000D02*
X136628000Y-58216000D01*
X140764000Y-57936000D02*
X136604000Y-57936000D01*
X140763000Y-57976000D02*
X136605000Y-57976000D01*
X137844000Y-58536000D02*
X136702000Y-58536000D01*
X137844000Y-58176000D02*
X136622000Y-58176000D01*
X139348000Y-59897000D02*
X138020000Y-59897000D01*
X137844000Y-59297000D02*
X137132000Y-59297000D01*
X137844000Y-58697000D02*
X136760000Y-58697000D01*
X137844000Y-58096000D02*
X136613000Y-58096000D01*
X137844000Y-58617000D02*
X136730000Y-58617000D01*
X140734000Y-58256000D02*
X139524000Y-58256000D01*
X140419000Y-59057000D02*
X139524000Y-59057000D01*
X140035000Y-59497000D02*
X139524000Y-59497000D01*
X137844000Y-58657000D02*
X136744000Y-58657000D01*
X139988000Y-59537000D02*
X139524000Y-59537000D01*
X140755000Y-58096000D02*
X139524000Y-58096000D01*
X140751000Y-58136000D02*
X139524000Y-58136000D01*
X137844000Y-59017000D02*
X136924000Y-59017000D01*
X137844000Y-59177000D02*
X137034000Y-59177000D01*
X137844000Y-58456000D02*
X136679000Y-58456000D01*
X137844000Y-59057000D02*
X136949000Y-59057000D01*
X140535000Y-58857000D02*
X139524000Y-58857000D01*
X140761000Y-58016000D02*
X136607000Y-58016000D01*
X137844000Y-58817000D02*
X136814000Y-58817000D01*
X137844000Y-58977000D02*
X136899000Y-58977000D01*
X140608000Y-58697000D02*
X139524000Y-58697000D01*
X137844000Y-59257000D02*
X137097000Y-59257000D01*
X140514000Y-58897000D02*
X139524000Y-58897000D01*
X139221000Y-59937000D02*
X138147000Y-59937000D01*
X137844000Y-59377000D02*
X137206000Y-59377000D01*
X137844000Y-58376000D02*
X136659000Y-58376000D01*
X140726000Y-58296000D02*
X139524000Y-58296000D01*
X137844000Y-58496000D02*
X136690000Y-58496000D01*
X140718000Y-58336000D02*
X139524000Y-58336000D01*
X139054000Y-59977000D02*
X138314000Y-59977000D01*
X140271000Y-59257000D02*
X139524000Y-59257000D01*
X140392000Y-59097000D02*
X139524000Y-59097000D01*
X140554000Y-58817000D02*
X139524000Y-58817000D01*
X140804000Y-57896000D02*
G75*
G03*
X140804000Y-57896000I-2120000J0D01*
G01*
%TO.C,J9*%
X51059000Y-43916000D02*
X51000000Y-43857000D01*
X54844000Y-35286000D02*
X54844000Y-45406000D01*
X47224000Y-35046000D02*
X45484000Y-35046000D01*
X54844000Y-35286000D02*
X45724000Y-35286000D01*
X47284000Y-35286000D02*
X47284000Y-45406000D01*
X48568000Y-41836000D02*
X48510000Y-41777000D01*
X48808000Y-41666000D02*
X48715000Y-41572000D01*
X45484000Y-35046000D02*
X45484000Y-36546000D01*
X50853000Y-44121000D02*
X50760000Y-44027000D01*
X45724000Y-35286000D02*
X45724000Y-45406000D01*
X54844000Y-45406000D02*
X45724000Y-45406000D01*
X50573000Y-36362000D02*
G75*
G03*
X48994911Y-36362047I-789000J-1483995D01*
G01*
X48300000Y-37057000D02*
G75*
G03*
X48103550Y-37875383I1483995J-788998D01*
G01*
X48104000Y-37846000D02*
G75*
G03*
X48300648Y-38634712I1679991J-2D01*
G01*
X48995000Y-39330000D02*
G75*
G03*
X50573089Y-39329953I789000J1483995D01*
G01*
X51268000Y-38635000D02*
G75*
G03*
X51267953Y-37056911I-1483995J789000D01*
G01*
X53684000Y-42846000D02*
G75*
G03*
X53684000Y-42846000I-900000J0D01*
G01*
X53684000Y-37846000D02*
G75*
G03*
X53684000Y-37846000I-900000J0D01*
G01*
X51464000Y-42846000D02*
G75*
G03*
X51464000Y-42846000I-1680000J0D01*
G01*
%TO.C,R1*%
X90832000Y-46006000D02*
X90832000Y-52546000D01*
X93572000Y-52546000D02*
X93572000Y-46006000D01*
X90832000Y-52546000D02*
X93572000Y-52546000D01*
X92202000Y-53316000D02*
X92202000Y-52546000D01*
X93572000Y-46006000D02*
X90832000Y-46006000D01*
X92202000Y-45236000D02*
X92202000Y-46006000D01*
%TO.C,D1*%
X105389000Y-49296000D02*
X108479000Y-49296000D01*
X106934462Y-43746000D02*
G75*
G03*
X105389170Y-49296000I-462J-2990000D01*
G01*
X108478830Y-49296000D02*
G75*
G03*
X106933538Y-43746000I-1544830J2560000D01*
G01*
X109434000Y-46736000D02*
G75*
G03*
X109434000Y-46736000I-2500000J0D01*
G01*
%TO.C,J16*%
X157739000Y-41716000D02*
X167959000Y-41716000D01*
X155139000Y-41716000D02*
X155139000Y-40386000D01*
X157739000Y-41716000D02*
X157739000Y-39056000D01*
X156469000Y-41716000D02*
X155139000Y-41716000D01*
X167959000Y-41716000D02*
X167959000Y-39056000D01*
X157739000Y-39056000D02*
X167959000Y-39056000D01*
%TO.C,U8*%
X93624000Y-90346000D02*
X112674000Y-90346000D01*
X93624000Y-110666000D02*
X93624000Y-90346000D01*
X112674000Y-90346000D02*
X112674000Y-110666000D01*
%TO.C,U1*%
X59944000Y-44196000D02*
X59944000Y-51816000D01*
X59944000Y-56896000D02*
X59944000Y-58166000D01*
X59944000Y-35306000D02*
X59944000Y-36576000D01*
X59944000Y-39116000D02*
X59944000Y-41656000D01*
%TO.C,U9*%
X113944000Y-90346000D02*
X132994000Y-90346000D01*
X113944000Y-110666000D02*
X113944000Y-90346000D01*
X132994000Y-90346000D02*
X132994000Y-110666000D01*
%TO.C,U11*%
X110744000Y-59436000D02*
X110744000Y-87376000D01*
X95504000Y-59436000D02*
X110744000Y-59436000D01*
X95504000Y-87376000D02*
X95504000Y-86106000D01*
X95504000Y-60706000D02*
X95504000Y-59436000D01*
X110744000Y-87376000D02*
X95504000Y-87376000D01*
%TO.C,U10*%
X132334000Y-59406000D02*
X132334000Y-87346000D01*
X117094000Y-60676000D02*
X117094000Y-59406000D01*
X117094000Y-87346000D02*
X117094000Y-86076000D01*
X117094000Y-59406000D02*
X132334000Y-59406000D01*
X132334000Y-87346000D02*
X117094000Y-87346000D01*
%TO.C,R4*%
X150214000Y-67596000D02*
X147474000Y-67596000D01*
X147474000Y-67596000D02*
X147474000Y-74136000D01*
X147474000Y-74136000D02*
X150214000Y-74136000D01*
X150214000Y-74136000D02*
X150214000Y-67596000D01*
X148844000Y-74906000D02*
X148844000Y-74136000D01*
X148844000Y-66826000D02*
X148844000Y-67596000D01*
%TO.C,R7*%
X147804000Y-92456000D02*
X147034000Y-92456000D01*
X147034000Y-93826000D02*
X147034000Y-91086000D01*
X147034000Y-91086000D02*
X140494000Y-91086000D01*
X140494000Y-91086000D02*
X140494000Y-93826000D01*
X139724000Y-92456000D02*
X140494000Y-92456000D01*
X140494000Y-93826000D02*
X147034000Y-93826000D01*
%TO.C,U6*%
X155139000Y-46796000D02*
X155139000Y-45466000D01*
X156469000Y-46796000D02*
X155139000Y-46796000D01*
X157739000Y-46796000D02*
X167959000Y-46796000D01*
X157739000Y-44136000D02*
X167959000Y-44136000D01*
X167959000Y-46796000D02*
X167959000Y-44136000D01*
X157739000Y-46796000D02*
X157739000Y-44136000D01*
%TO.C,R2*%
X145134000Y-61436000D02*
X145134000Y-54896000D01*
X145134000Y-54896000D02*
X142394000Y-54896000D01*
X142394000Y-54896000D02*
X142394000Y-61436000D01*
X143764000Y-54126000D02*
X143764000Y-54896000D01*
X143764000Y-62206000D02*
X143764000Y-61436000D01*
X142394000Y-61436000D02*
X145134000Y-61436000D01*
%TO.C,J4*%
X51114000Y-60646000D02*
X45914000Y-60646000D01*
X51114000Y-83566000D02*
X48514000Y-83566000D01*
X48514000Y-86166000D02*
X45914000Y-86166000D01*
X45914000Y-86166000D02*
X45914000Y-60646000D01*
X51114000Y-84836000D02*
X51114000Y-86166000D01*
X51114000Y-86166000D02*
X49784000Y-86166000D01*
X51114000Y-83566000D02*
X51114000Y-60646000D01*
X48514000Y-83566000D02*
X48514000Y-86166000D01*
%TO.C,C2*%
X140162000Y-73347000D02*
X139524000Y-73347000D01*
X140392000Y-73067000D02*
X139524000Y-73067000D01*
X140700000Y-72386000D02*
X139524000Y-72386000D01*
X140122000Y-73387000D02*
X139524000Y-73387000D01*
X137844000Y-72266000D02*
X136642000Y-72266000D01*
X137844000Y-73027000D02*
X136949000Y-73027000D01*
X140751000Y-72106000D02*
X139524000Y-72106000D01*
X137844000Y-72146000D02*
X136622000Y-72146000D01*
X137844000Y-73467000D02*
X137333000Y-73467000D01*
X140764000Y-71906000D02*
X136604000Y-71906000D01*
X137844000Y-73347000D02*
X137206000Y-73347000D01*
X137844000Y-72506000D02*
X136702000Y-72506000D01*
X140079000Y-69796199D02*
X139679000Y-69796199D01*
X139988000Y-73507000D02*
X139524000Y-73507000D01*
X139938000Y-73547000D02*
X139524000Y-73547000D01*
X140364000Y-73107000D02*
X139524000Y-73107000D01*
X137844000Y-72867000D02*
X136854000Y-72867000D01*
X139764000Y-73667000D02*
X139524000Y-73667000D01*
X137844000Y-72667000D02*
X136760000Y-72667000D01*
X140271000Y-73227000D02*
X139524000Y-73227000D01*
X140763000Y-71946000D02*
X136605000Y-71946000D01*
X139884000Y-73587000D02*
X139524000Y-73587000D01*
X140080000Y-73427000D02*
X139524000Y-73427000D01*
X137844000Y-73107000D02*
X137004000Y-73107000D01*
X137844000Y-72426000D02*
X136679000Y-72426000D01*
X137844000Y-73307000D02*
X137168000Y-73307000D01*
X140624000Y-72627000D02*
X139524000Y-72627000D01*
X137844000Y-73147000D02*
X137034000Y-73147000D01*
X137844000Y-73067000D02*
X136976000Y-73067000D01*
X139826000Y-73627000D02*
X139524000Y-73627000D01*
X137844000Y-73507000D02*
X137380000Y-73507000D01*
X139054000Y-73947000D02*
X138314000Y-73947000D01*
X137844000Y-72947000D02*
X136899000Y-72947000D01*
X137844000Y-72066000D02*
X136613000Y-72066000D01*
X139879000Y-69596199D02*
X139879000Y-69996199D01*
X140573000Y-72747000D02*
X139524000Y-72747000D01*
X140689000Y-72426000D02*
X139524000Y-72426000D01*
X140638000Y-72587000D02*
X139524000Y-72587000D01*
X137844000Y-72827000D02*
X136833000Y-72827000D01*
X140554000Y-72787000D02*
X139524000Y-72787000D01*
X139221000Y-73907000D02*
X138147000Y-73907000D01*
X137844000Y-72587000D02*
X136730000Y-72587000D01*
X137844000Y-72747000D02*
X136795000Y-72747000D01*
X137844000Y-72226000D02*
X136634000Y-72226000D01*
X137844000Y-72186000D02*
X136628000Y-72186000D01*
X137844000Y-72346000D02*
X136659000Y-72346000D01*
X140678000Y-72466000D02*
X139524000Y-72466000D01*
X140761000Y-71986000D02*
X136607000Y-71986000D01*
X140035000Y-73467000D02*
X139524000Y-73467000D01*
X140236000Y-73267000D02*
X139524000Y-73267000D01*
X137844000Y-72386000D02*
X136668000Y-72386000D01*
X140740000Y-72186000D02*
X139524000Y-72186000D01*
X140514000Y-72867000D02*
X139524000Y-72867000D01*
X140666000Y-72506000D02*
X139524000Y-72506000D01*
X140200000Y-73307000D02*
X139524000Y-73307000D01*
X137844000Y-72987000D02*
X136924000Y-72987000D01*
X139452000Y-73827000D02*
X137916000Y-73827000D01*
X140535000Y-72827000D02*
X139524000Y-72827000D01*
X137844000Y-73187000D02*
X137065000Y-73187000D01*
X140726000Y-72266000D02*
X139524000Y-72266000D01*
X140652000Y-72546000D02*
X139524000Y-72546000D01*
X137844000Y-73667000D02*
X137604000Y-73667000D01*
X137844000Y-73627000D02*
X137542000Y-73627000D01*
X140764000Y-71866000D02*
X136604000Y-71866000D01*
X140334000Y-73147000D02*
X139524000Y-73147000D01*
X137844000Y-73267000D02*
X137132000Y-73267000D01*
X137844000Y-72546000D02*
X136716000Y-72546000D01*
X137844000Y-72627000D02*
X136744000Y-72627000D01*
X140303000Y-73187000D02*
X139524000Y-73187000D01*
X140746000Y-72146000D02*
X139524000Y-72146000D01*
X137844000Y-73547000D02*
X137430000Y-73547000D01*
X137844000Y-73227000D02*
X137097000Y-73227000D01*
X140709000Y-72346000D02*
X139524000Y-72346000D01*
X137844000Y-73387000D02*
X137246000Y-73387000D01*
X139543000Y-73787000D02*
X137825000Y-73787000D01*
X137844000Y-72707000D02*
X136777000Y-72707000D01*
X140444000Y-72987000D02*
X139524000Y-72987000D01*
X140469000Y-72947000D02*
X139524000Y-72947000D01*
X139697000Y-73707000D02*
X137671000Y-73707000D01*
X139624000Y-73747000D02*
X137744000Y-73747000D01*
X140758000Y-72026000D02*
X136610000Y-72026000D01*
X140591000Y-72707000D02*
X139524000Y-72707000D01*
X137844000Y-72907000D02*
X136876000Y-72907000D01*
X140492000Y-72907000D02*
X139524000Y-72907000D01*
X137844000Y-72787000D02*
X136814000Y-72787000D01*
X140734000Y-72226000D02*
X139524000Y-72226000D01*
X137844000Y-73587000D02*
X137484000Y-73587000D01*
X140755000Y-72066000D02*
X139524000Y-72066000D01*
X137844000Y-72466000D02*
X136690000Y-72466000D01*
X140419000Y-73027000D02*
X139524000Y-73027000D01*
X137844000Y-72106000D02*
X136617000Y-72106000D01*
X140608000Y-72667000D02*
X139524000Y-72667000D01*
X137844000Y-72306000D02*
X136650000Y-72306000D01*
X140718000Y-72306000D02*
X139524000Y-72306000D01*
X139348000Y-73867000D02*
X138020000Y-73867000D01*
X137844000Y-73427000D02*
X137288000Y-73427000D01*
X140804000Y-71866000D02*
G75*
G03*
X140804000Y-71866000I-2120000J0D01*
G01*
%TO.C,J6*%
X114309000Y-118148000D02*
X98289000Y-118148000D01*
X97413000Y-122936000D02*
X97921000Y-122428000D01*
X98289000Y-118148000D02*
X98289000Y-130078000D01*
X97413000Y-121920000D02*
X97413000Y-122936000D01*
X114309000Y-137018000D02*
X98289000Y-137018000D01*
X114309000Y-133578000D02*
X114309000Y-137018000D01*
X98289000Y-133578000D02*
X98289000Y-137018000D01*
X97921000Y-122428000D02*
X97413000Y-121920000D01*
X114309000Y-118148000D02*
X114309000Y-130078000D01*
%TO.C,R9*%
X147034000Y-106326000D02*
X140494000Y-106326000D01*
X147034000Y-109066000D02*
X147034000Y-106326000D01*
X140494000Y-106326000D02*
X140494000Y-109066000D01*
X139724000Y-107696000D02*
X140494000Y-107696000D01*
X140494000Y-109066000D02*
X147034000Y-109066000D01*
X147804000Y-107696000D02*
X147034000Y-107696000D01*
%TO.C,U7*%
X73304000Y-90346000D02*
X92354000Y-90346000D01*
X73304000Y-110666000D02*
X73304000Y-90346000D01*
X92354000Y-90346000D02*
X92354000Y-110666000D01*
%TO.C,J7*%
X132130500Y-118136000D02*
X132130500Y-130066000D01*
X132130500Y-133566000D02*
X132130500Y-137006000D01*
X132130500Y-118136000D02*
X116110500Y-118136000D01*
X116110500Y-133566000D02*
X116110500Y-137006000D01*
X116110500Y-118136000D02*
X116110500Y-130066000D01*
X115234500Y-122924000D02*
X115742500Y-122416000D01*
X115234500Y-121908000D02*
X115234500Y-122924000D01*
X132130500Y-137006000D02*
X116110500Y-137006000D01*
X115742500Y-122416000D02*
X115234500Y-121908000D01*
%TO.C,J3*%
X78749000Y-118148000D02*
X62729000Y-118148000D01*
X62361000Y-122428000D02*
X61853000Y-121920000D01*
X61853000Y-122936000D02*
X62361000Y-122428000D01*
X78749000Y-137018000D02*
X62729000Y-137018000D01*
X78749000Y-133578000D02*
X78749000Y-137018000D01*
X78749000Y-118148000D02*
X78749000Y-130078000D01*
X62729000Y-133578000D02*
X62729000Y-137018000D01*
X62729000Y-118148000D02*
X62729000Y-130078000D01*
X61853000Y-121920000D02*
X61853000Y-122936000D01*
%TO.C,R11*%
X98806000Y-45236000D02*
X98806000Y-46006000D01*
X98806000Y-53316000D02*
X98806000Y-52546000D01*
X97436000Y-46006000D02*
X97436000Y-52546000D01*
X100176000Y-46006000D02*
X97436000Y-46006000D01*
X100176000Y-52546000D02*
X100176000Y-46006000D01*
X97436000Y-52546000D02*
X100176000Y-52546000D01*
%TO.C,J5*%
X96443500Y-118136000D02*
X96443500Y-130066000D01*
X79547500Y-122924000D02*
X80055500Y-122416000D01*
X96443500Y-118136000D02*
X80423500Y-118136000D01*
X80423500Y-133566000D02*
X80423500Y-137006000D01*
X79547500Y-121908000D02*
X79547500Y-122924000D01*
X80055500Y-122416000D02*
X79547500Y-121908000D01*
X80423500Y-118136000D02*
X80423500Y-130066000D01*
X96443500Y-133566000D02*
X96443500Y-137006000D01*
X96443500Y-137006000D02*
X80423500Y-137006000D01*
%TO.C,D2*%
X142064000Y-98606000D02*
X142064000Y-101546000D01*
X141044000Y-98606000D02*
X141044000Y-101546000D01*
X147504000Y-100076000D02*
X146484000Y-100076000D01*
X140024000Y-100076000D02*
X141044000Y-100076000D01*
X141944000Y-98606000D02*
X141944000Y-101546000D01*
X146484000Y-98606000D02*
X141044000Y-98606000D01*
X141044000Y-101546000D02*
X146484000Y-101546000D01*
X141824000Y-98606000D02*
X141824000Y-101546000D01*
X146484000Y-101546000D02*
X146484000Y-98606000D01*
%TO.C,J8*%
X149869000Y-118148000D02*
X133849000Y-118148000D01*
X149869000Y-118148000D02*
X149869000Y-130078000D01*
X132973000Y-122936000D02*
X133481000Y-122428000D01*
X132973000Y-121920000D02*
X132973000Y-122936000D01*
X149869000Y-133578000D02*
X149869000Y-137018000D01*
X149869000Y-137018000D02*
X133849000Y-137018000D01*
X133849000Y-118148000D02*
X133849000Y-130078000D01*
X133849000Y-133578000D02*
X133849000Y-137018000D01*
X133481000Y-122428000D02*
X132973000Y-121920000D01*
%TO.C,R5*%
X142394000Y-74136000D02*
X145134000Y-74136000D01*
X143764000Y-74906000D02*
X143764000Y-74136000D01*
X142394000Y-67596000D02*
X142394000Y-74136000D01*
X145134000Y-67596000D02*
X142394000Y-67596000D01*
X145134000Y-74136000D02*
X145134000Y-67596000D01*
X143764000Y-66826000D02*
X143764000Y-67596000D01*
%TO.C,R3*%
X147474000Y-61436000D02*
X150214000Y-61436000D01*
X147474000Y-54896000D02*
X147474000Y-61436000D01*
X150214000Y-61436000D02*
X150214000Y-54896000D01*
X150214000Y-54896000D02*
X147474000Y-54896000D01*
X148844000Y-62206000D02*
X148844000Y-61436000D01*
X148844000Y-54126000D02*
X148844000Y-54896000D01*
%TD*%
M02*
