M48
; DRILL file {KiCad 6.0.2-378541a8eb~116~ubuntu20.04.1} date Wed 09 Mar 2022 01:41:36 PM EET
; FORMAT={-:-/ absolute / inch / decimal}
; #@! TF.CreationDate,2022-03-09T13:41:36+02:00
; #@! TF.GenerationSoftware,Kicad,Pcbnew,6.0.2-378541a8eb~116~ubuntu20.04.1
; #@! TF.FileFunction,MixedPlating,1,2
FMAT,2
INCH
; #@! TA.AperFunction,Plated,PTH,ViaDrill
T1C0.0157
; #@! TA.AperFunction,Plated,PTH,ComponentDrill
T2C0.0236
; #@! TA.AperFunction,Plated,PTH,ComponentDrill
T3C0.0295
; #@! TA.AperFunction,Plated,PTH,ComponentDrill
T4C0.0315
; #@! TA.AperFunction,Plated,PTH,ComponentDrill
T5C0.0354
; #@! TA.AperFunction,Plated,PTH,ComponentDrill
T6C0.0394
; #@! TA.AperFunction,Plated,PTH,ComponentDrill
T7C0.0433
; #@! TA.AperFunction,Plated,PTH,ComponentDrill
T8C0.0512
; #@! TA.AperFunction,NonPlated,NPTH,ComponentDrill
T9C0.0512
; #@! TA.AperFunction,NonPlated,NPTH,ComponentDrill
T10C0.0984
; #@! TA.AperFunction,NonPlated,NPTH,ComponentDrill
T11C0.1280
%
G90
G05
T1
X1.96Y-3.54
T2
X5.46Y-2.24
X5.46Y-2.3187
X5.46Y-2.79
X5.46Y-2.8687
X5.8Y-3.2096
X5.8Y-3.2883
T3
X2.61Y-2.19
X2.66Y-2.19
X2.71Y-2.19
T4
X3.63Y-1.74
X3.63Y-2.14
X3.76Y-1.74
X3.76Y-2.14
X3.89Y-1.74
X3.89Y-2.14
X5.46Y-3.49
X5.46Y-3.64
X5.46Y-4.09
X5.46Y-4.24
X5.51Y-3.1881
X5.51Y-3.2866
X5.66Y-2.09
X5.66Y-2.49
X5.66Y-2.59
X5.66Y-2.99
X5.86Y-2.09
X5.86Y-2.49
X5.86Y-2.59
X5.86Y-2.99
X5.86Y-3.49
X5.86Y-3.64
X5.86Y-4.09
X5.86Y-4.24
T5
X1.9116Y-4.8195
X1.9616Y-4.7195
X2.0116Y-4.8195
X2.0616Y-4.7195
X2.1116Y-4.8195
X2.1616Y-4.7195
X2.2116Y-4.8195
X2.2616Y-4.7195
X2.61Y-4.82
X2.66Y-4.72
X2.71Y-4.82
X2.76Y-4.72
X2.81Y-4.82
X2.86Y-4.72
X2.91Y-4.82
X2.96Y-4.72
X3.3066Y-4.8195
X3.3566Y-4.7195
X3.4066Y-4.8195
X3.4566Y-4.7195
X3.5066Y-4.8195
X3.5566Y-4.7195
X3.6066Y-4.8195
X3.6566Y-4.7195
X4.01Y-4.82
X4.06Y-4.72
X4.11Y-4.82
X4.16Y-4.72
X4.21Y-1.79
X4.21Y-1.89
X4.21Y-4.82
X4.26Y-4.72
X4.31Y-4.82
X4.36Y-4.72
X4.66Y-1.79
X4.66Y-1.89
X4.7116Y-4.8195
X4.7616Y-4.7195
X4.8116Y-4.8195
X4.8616Y-4.7195
X4.9116Y-4.8195
X4.9616Y-4.7195
X5.0116Y-4.8195
X5.0616Y-4.7195
X5.11Y-1.79
X5.11Y-1.89
X5.41Y-4.82
X5.46Y-4.72
X5.51Y-4.82
X5.56Y-4.72
X5.61Y-4.82
X5.66Y-4.72
X5.71Y-4.82
X5.76Y-4.72
T6
X1.8596Y-4.3581
X1.86Y-2.44
X1.86Y-2.54
X1.86Y-2.64
X1.86Y-2.74
X1.86Y-2.84
X1.86Y-2.94
X1.86Y-3.04
X1.86Y-3.14
X1.86Y-3.24
X1.86Y-3.34
X1.9596Y-4.3581
X1.96Y-2.44
X1.96Y-2.54
X1.96Y-2.64
X1.96Y-2.74
X1.96Y-2.84
X1.96Y-2.94
X1.96Y-3.04
X1.96Y-3.14
X1.96Y-3.24
X1.96Y-3.34
X2.0596Y-4.3581
X2.1596Y-4.3581
X2.2596Y-4.3581
X2.26Y-2.54
X2.26Y-2.64
X2.26Y-2.74
X2.26Y-2.84
X2.26Y-2.94
X2.26Y-3.04
X2.26Y-3.14
X2.26Y-3.24
X2.3596Y-4.3581
X2.36Y-1.49
X2.36Y-1.69
X2.36Y-2.09
X2.36Y-2.19
X2.4596Y-4.3581
X2.56Y-2.54
X2.56Y-3.24
X2.66Y-2.54
X2.66Y-3.24
X2.76Y-2.54
X2.76Y-3.24
X2.7602Y-1.4402
X2.7602Y-1.5402
X2.86Y-2.54
X2.86Y-3.24
X2.8602Y-1.4402
X2.8602Y-1.5402
X2.9596Y-4.3581
X2.96Y-2.54
X2.96Y-3.24
X2.9602Y-1.4402
X2.9602Y-1.5402
X3.0082Y-1.7406
X3.0082Y-2.0406
X3.0596Y-4.3581
X3.06Y-2.54
X3.06Y-3.24
X3.0602Y-1.4402
X3.0602Y-1.5402
X3.1082Y-1.7406
X3.1082Y-2.0406
X3.1596Y-4.3581
X3.16Y-2.54
X3.16Y-3.24
X3.1602Y-1.4402
X3.1602Y-1.5402
X3.2082Y-1.7406
X3.2082Y-2.0406
X3.2596Y-4.3581
X3.26Y-2.54
X3.26Y-3.24
X3.2602Y-1.4402
X3.2602Y-1.5402
X3.3082Y-1.7406
X3.3082Y-2.0406
X3.3596Y-4.3581
X3.3602Y-1.4402
X3.3602Y-1.5402
X3.4082Y-1.7406
X3.4082Y-2.0406
X3.4596Y-4.3581
X3.4602Y-1.4402
X3.4602Y-1.5402
X3.5596Y-4.3581
X3.5602Y-1.4402
X3.5602Y-1.5402
X3.6602Y-1.4402
X3.6602Y-1.5402
X3.7569Y-2.4424
X3.7569Y-2.5424
X3.7569Y-2.6424
X3.7569Y-2.7424
X3.7569Y-2.8424
X3.7569Y-2.9424
X3.7569Y-3.0424
X3.7569Y-3.1424
X3.7569Y-3.2424
X3.7569Y-3.3424
X3.7596Y-4.3581
X3.8596Y-4.3581
X3.9596Y-4.3581
X4.0596Y-4.3581
X4.1596Y-4.3581
X4.2596Y-4.3581
X4.3596Y-4.3581
X4.5596Y-4.3581
X4.6069Y-2.4412
X4.6069Y-2.5412
X4.6069Y-2.6412
X4.6069Y-2.7412
X4.6069Y-2.8412
X4.6069Y-2.9412
X4.6069Y-3.0412
X4.6069Y-3.1412
X4.6069Y-3.2412
X4.6069Y-3.3412
X4.6596Y-4.3581
X4.7596Y-4.3581
X4.8596Y-4.3581
X4.9596Y-4.3581
X5.0596Y-4.3581
X5.1596Y-4.3581
X6.1602Y-1.59
X6.1602Y-1.79
X6.2602Y-1.59
X6.2602Y-1.79
X6.3602Y-1.59
X6.3602Y-1.79
X6.4602Y-1.59
X6.4602Y-1.79
X6.5602Y-1.59
X6.5602Y-1.79
T7
X5.46Y-3.79
X5.46Y-3.94
X5.86Y-3.79
X5.86Y-3.94
T8
X1.96Y-1.49
X1.96Y-1.6869
X1.96Y-1.94
X1.96Y-2.1369
T9
X6.2673Y-2.1889
X6.2673Y-2.7889
X6.2673Y-3.3889
X6.2673Y-3.9754
X6.2673Y-4.552
X6.2673Y-5.152
X6.5153Y-2.1889
X6.5153Y-2.7889
X6.5153Y-3.3889
X6.5153Y-3.9754
X6.5153Y-4.552
X6.5153Y-5.152
T10
X2.71Y-1.84
X2.71Y-4.49
X5.71Y-1.84
X5.71Y-4.49
T11
X1.8616Y-5.0695
X2.3116Y-5.0695
X2.56Y-5.07
X3.01Y-5.07
X3.2566Y-5.0695
X3.7066Y-5.0695
X3.96Y-5.07
X4.41Y-5.07
X4.6616Y-5.0695
X5.1116Y-5.0695
X5.36Y-5.07
X5.81Y-5.07
T4
G00X1.7807Y-5.1758
M15
G01X1.7807Y-5.2034
M16
G05
G00X2.3925Y-5.1758
M15
G01X2.3925Y-5.2034
M16
G05
G00X2.4791Y-5.1763
M15
G01X2.4791Y-5.2039
M16
G05
G00X3.0909Y-5.1763
M15
G01X3.0909Y-5.2039
M16
G05
G00X3.1757Y-5.1758
M15
G01X3.1757Y-5.2034
M16
G05
G00X3.7875Y-5.1758
M15
G01X3.7875Y-5.2034
M16
G05
G00X3.8791Y-5.1763
M15
G01X3.8791Y-5.2039
M16
G05
G00X4.4909Y-5.1763
M15
G01X4.4909Y-5.2039
M16
G05
G00X4.5807Y-5.1758
M15
G01X4.5807Y-5.2034
M16
G05
G00X5.1925Y-5.1758
M15
G01X5.1925Y-5.2034
M16
G05
G00X5.2791Y-5.1763
M15
G01X5.2791Y-5.2039
M16
G05
G00X5.8909Y-5.1763
M15
G01X5.8909Y-5.2039
M16
G05
T0
M30
